<?xml version="1.0" encoding="utf-8" ?>
<svg baseProfile="full" height="95.99436174064991mm" version="1.1" viewBox="-47.95195481792962 -47.997180870324954 95.90390963585924 95.99436174064991" width="95.90390963585924mm" xmlns="http://www.w3.org/2000/svg" xmlns:ev="http://www.w3.org/2001/xml-events" xmlns:xlink="http://www.w3.org/1999/xlink"><defs /><path d="M 42.2861679354 0.0 42.3074536556 0.000450378215402 42.3712465139 0.00360193733555 42.4773537112 0.0121504180882 42.6254542751 0.0287806890638 42.815099599 0.0561613311786 43.0457141951 0.0969392467437 43.3165966609 0.153734301292 43.6269208585 0.229134006269 43.975737303 0.325688250642 44.3619747605 0.445904089405 44.7844420512 0.592240596908 45.2418300571 0.767103792807 45.7327139298 0.972841648387 46.2555554961 1.21173918085 46.8087058582 1.48601364308 47.3904081839 1.79780981629 47.9519548179 2.1470978411 47.9345538521 2.50570289616 47.9125884137 2.89549158144 47.8852983294 3.31635400837 47.8841807336 3.33245187094 47.8530524832 3.75304783281 47.8209445681 4.1421323756 47.7886250538 4.49970170892 47.184199511 4.76804199608 46.56499242 4.99646491021 45.9792482874 5.19167150567 45.4284107167 5.35602875422 44.9138063977 5.49196048925 44.436642994 5.60194235796 43.9980072324 5.68849669798 43.5988631981 5.75418734634 43.240050838 5.80161438858 42.922284674 5.83340885596 42.6461527278 5.852227379 42.4121156588 5.8607468052 42.2205061164 5.86165878923 42.0715283076 5.85766436379 41.9652577797 5.85146849925 41.9016414194 5.84577466034 41.8804976676 5.84327936811 41.1305935855 5.73865073916 41.1206209321 5.80967943666 41.1105256189 5.8806908043 41.100307676 5.95168463027 41.0899671338 6.0226607028 41.0795040233 6.09361881016 41.0689183755 6.1645587407 41.0582102221 6.2354802828 41.0473795951 6.30638322492 41.0364265266 6.37726735555 41.0253510495 6.44813246326 41.0141531967 6.51897833665 41.0028330017 6.5898047644 40.9913904982 6.66061153524 40.9798257203 6.73139843796 40.9681387026 6.8021652614 40.9563294799 6.87291179448 40.9443980874 6.94363782615 40.9323445607 7.01434314546 40.9201689358 7.08502754149 40.907871249 7.15569080339 40.895451537 7.22633272038 40.8829098368 7.29695308175 40.8702461858 7.36755167683 40.8574606219 7.43812829504 40.844553183 7.50868272585 40.8315239079 7.5792147588 40.8183728352 7.6497241835 40.8051000043 7.72021078962 40.7917054548 7.79067436692 40.7781892265 7.8611147052 40.7645513598 7.93153159434 40.7507918955 8.00192482429 40.7369108744 8.07229418508 40.7229083381 8.14263946681 40.7087843283 8.21296045962 40.6945388872 8.28325695377 40.6801720571 8.35352873956 40.6656838811 8.42377560738 40.6510744023 8.49399734769 40.6363436642 8.56419375102 40.6214917109 8.63436460797 41.3621137102 8.79178867365 41.3828406475 8.7966547601 41.4445842328 8.81300073112 41.5465954042 8.84342333386 41.6880019877 8.89048203217 41.8678103507 8.95669382151 42.0849072591 9.04452811237 42.3380619373 9.1564016902 42.6259283265 9.29467375934 42.9470475386 9.46164107858 43.2998505026 9.65953319568 43.6826607987 9.89050778812 44.0936976766 10.1566461173 44.5310792535 10.4599486031 44.9928258872 10.8023305254 45.4768637196 11.1856178596 45.9810283842 11.6115432524 46.4576828132 12.069950606 46.3661039168 12.417101416 46.2635768514 12.7938054119 46.149380902 13.1997970574 46.1449407946 13.2153107819 46.0270459536 13.6202437857 45.9147444483 13.9941502868 45.8087883482 14.3371862674 45.1617798709 14.4739955389 44.5086121462 14.568686471 43.895082195 14.637844281 43.3221099533 14.6840843587 42.7904891765 14.7100534051 42.3008864218 14.718424056 41.8538402448 14.7118894732 41.4497606115 14.6931579122 41.0889285258 14.6649472753 40.7714958734 14.6299796569 40.4974854818 14.5909758902 40.266791396 14.5506501038 40.0791793697 14.5117042949 39.9342875712 14.4768229291 39.831627502 14.4486675739 39.7705851275 14.429871574 39.7504222177 14.4230347767 39.0386588542 14.1647787087 39.0141364307 14.2321818275 38.9894976308 14.2995424927 38.964742528 14.3668605035 38.9398711962 14.4341356589 38.9148837097 14.5013677584 38.8897801428 14.5685566013 38.8645605705 14.6357019873 38.8392250681 14.702803716 38.813773711 14.7698615873 38.7882065753 14.8368754012 38.7625237371 14.9038449578 38.7367252732 14.9707700573 38.7108112604 15.0376505001 38.684781776 15.1044860866 38.6586368978 15.1712766176 38.6323767036 15.2380218937 38.6060012718 15.3047217159 38.5795106811 15.3713758852 38.5529050106 15.4379842028 38.5261843395 15.5045464701 38.4993487475 15.5710624884 38.4723983148 15.6375320593 38.4453331217 15.7039549846 38.418153249 15.7703310662 38.3908587777 15.8366601059 38.3634497892 15.9029419061 38.3359263654 15.969176269 38.3082885882 16.0353629969 38.2805365402 16.1015018925 38.2526703041 16.1675927585 38.2246899631 16.2336353978 38.1965956005 16.2996296133 38.1683873003 16.3655752081 38.1400651466 16.4314719857 38.1116292237 16.4973197493 38.0830796167 16.5631183027 38.0544164106 16.6288674494 38.0256396909 16.6945669935 37.9967495435 16.7602167388 37.9677460545 16.8258164897 37.9386293104 16.8913660503 38.6303366385 17.1993339946 38.6495989262 17.2084031179 38.7065947475 17.2372291035 38.8000515153 17.2881962145 38.9285839721 17.3636266492 39.0906968859 17.4657758129 39.2847879301 17.596827699 39.5091507465 17.758890388 39.7619781847 17.9539916683 40.0413657139 18.1840747894 40.345315002 18.4509943497 40.6717376567 18.7565123291 41.0184591225 19.1022942695 41.3832227299 19.4899056114 41.7636938875 19.9208081906 42.1574644142 20.3963569011 42.5620570026 20.9177965301 42.9329871408 21.4652886114 42.7712327511 21.7858130201 42.5926249834 22.1329685543 42.39651408 22.5063456354 42.3889455149 22.5205971975 42.1894366536 22.8921697279 42.0018496727 23.234556679 41.8268877769 23.5480669885 41.1655737402 23.5473660227 40.5069919456 23.5041865247 39.8924903786 23.4442730212 39.3224251024 23.3703750146 38.7970222468 23.2852464005 38.3163781307 23.191639996 37.8804596014 23.092302083 37.4891045881 22.9899669718 37.1420228705 22.8873515959 36.8387970598 22.7871501444 36.5788837918 22.6920287398 36.3616151276 22.6046201711 36.1862001633 22.5275186879 36.0517268419 22.4632748648 35.957163969 22.4143905432 35.901363425 22.3833138577 35.8830625733 22.3724343561 35.2405474027 21.9718378784 35.2025469566 22.0326695788 35.1644415038 22.0934355574 35.126231158 22.1541356328 35.0879160332 22.2147696241 35.0494962436 22.2753373503 35.010971904 22.3358386307 34.9723431291 22.396273285 34.9336100343 22.4566411328 34.8947727351 22.5169419941 34.8558313473 22.577175689 34.816785987 22.6373420378 34.7776367708 22.697440861 34.7383838154 22.7574719794 34.6990272379 22.8174352139 34.6595671558 22.8773303857 34.6200036866 22.937157316 34.5803369485 22.9969158264 34.5405670597 23.0566057387 34.500694139 23.1162268748 34.4607183051 23.1757790569 34.4206396774 23.2352621073 34.3804583755 23.2946758486 34.3401745191 23.3540201036 34.2997882284 23.4132946952 34.259299624 23.4724994467 34.2187088265 23.5316341814 34.1780159571 23.5906987229 34.1372211372 23.649692895 34.0963244884 23.7086165219 34.0553261327 23.7674694276 34.0142261925 23.8262514367 33.9730247903 23.8849623739 33.9317220489 23.9436020639 33.8903180918 24.0021703318 33.8488130422 24.0606670031 33.8072070241 24.1190919031 33.7655001615 24.1774448576 33.7236925789 24.2357256925 33.681784401 24.293934234 33.6397757527 24.3520703085 33.5976667594 24.4101337425 34.2102284867 24.8551858884 34.2271842704 24.8680616844 34.276941337 24.9081078506 34.3577591919 24.9773919626 34.467800037 25.0778974618 34.6051323893 25.2115195911 34.7677348592 25.3800614763 34.9535000821 25.5852303591 35.1602387971 25.8286339886 35.3856840678 26.111777175 35.6274956376 26.436058513 35.8832644144 26.8027672775 36.1505170764 27.2130804991 36.4267207944 27.6680602216 36.7092880605 28.1686509473 36.9955816199 28.7156772735 37.2829194947 29.3098417246 37.531913915 29.9224905026 37.3070534751 30.2023800553 37.0601710215 30.5048147652 36.7907161517 30.8292589118 36.7803499115 30.8416254498 36.5079465244 31.1635980043 36.2532725192 31.4595014526 36.0169515021 31.7297841861 35.3702345028 31.5916036185 34.7350218229 31.4124408417 34.1464053073 31.2260745321 33.6041615846 31.0352681389 33.107939276 30.8427623931 32.657260253 30.6512699824 32.2515211029 30.4634702826 31.8899948016 30.2820041566 31.5718325885 30.1094688261 31.2960660426 29.9484128257 31.0616093551 29.801331045 30.8672617959 29.6706598679 30.711710369 29.5587724153 30.5935326543 29.4679738983 30.511199829 29.4004970895 30.463079867 29.3584979187 30.4474409084 29.3440511994 29.9022549268 28.8186223003 29.8524372599 28.8702239451 29.8025305453 28.9217394721 29.752534932 28.9731687277 29.7024505689 29.0245115584 29.6522776056 29.075767811 29.6020161917 29.1269373328 29.5516664771 29.178019971 29.501228612 29.2290155732 29.4507027469 29.2799239875 29.4000890325 29.3307450618 29.3493876198 29.3814786446 29.2985986599 29.4321245846 29.2477223044 29.4826827307 29.1967587051 29.5331529321 29.145708014 29.5835350383 29.0945703834 29.6338288989 29.0433459657 29.6840343639 28.9920349138 29.7341512836 28.9406373808 29.7841795085 28.88915352 29.8341188893 28.8375834849 29.8839692771 28.7859274293 29.9337305232 28.7341855075 29.9834024791 28.6823578736 30.0329849967 28.6304446823 30.082477928 28.5784460885 30.1318811256 28.5263622473 30.1811944419 28.4741933139 30.2304177298 28.4219394442 30.2795508427 28.3696007938 30.3285936338 28.3171775189 30.3775459569 28.264669776 30.4264076659 28.2120777216 30.4751786153 28.1594015126 30.5238586593 28.1066413061 30.5724476529 28.0537972596 30.6209454511 28.0008695306 30.6693519092 27.947858277 30.7176668829 27.894763657 30.7658902279 27.841585829 30.8140218006 27.7883249515 30.8620614573 28.2949691912 31.4247468904 28.3088774218 31.4408666251 28.3492211109 31.4903827623 28.413867925 31.5749558271 28.5006078453 31.6961438181 28.6071575534 31.8553989849 28.7311649409 32.05406478 28.8702137386 32.2933729921 29.0218282565 32.5744410641 29.1834782285 32.8982695999 29.3525837541 33.2657400649 29.5265203301 33.677612682 29.7026239647 34.1345245281 29.8781963653 34.636987834 30.0505101945 35.1853884894 30.2168143843 35.7799847559 30.3743395015 36.4209061916 30.490515953 37.0719359748 30.2123769431 37.298958155 29.9080097515 37.5434541925 29.576987386 37.8047856384 29.5642765252 37.8147266755 29.2308839475 38.0730275083 28.9202533941 38.3095150533 28.6329016181 38.5247575583 28.0290462923 38.2551365429 27.4449645694 37.9478207603 26.9079584715 37.6431467467 26.417234955 37.3437711217 25.9718804895 37.0523016692 25.5708633952 36.7712923894 25.2130363722 36.5032386509 24.897139217 36.2505724505 24.6218017239 36.0156577873 24.385546764 35.8007861581 24.1867935394 35.6081721809 24.023861006 35.4399493529 23.8949714605 35.2981659494 23.7982542856 35.1847810693 23.7317498475 35.1016608338 23.6934135407 35.050574743 23.6811199727 35.0331921968 23.2570904237 34.4058946406 23.1976328071 34.4460109903 23.1381059937 34.4860245901 23.0785101609 34.5259353205 23.0188454866 34.5657430625 22.9591121488 34.6054476974 22.8993103256 34.6450491068 22.8394401954 34.6845471725 22.7795019368 34.7239417767 22.7194957286 34.7632328019 22.6594217498 34.8024201309 22.5992801796 34.8415036467 22.5390711973 34.8804832329 22.4787949826 34.9193587732 22.4184517153 34.9581301515 22.3580415754 34.9967972522 22.2975647431 35.03535996 22.2370213987 35.0738181599 22.1764117229 35.1121717371 22.1157358965 35.1504205772 22.0549941005 35.1885645662 21.9941865159 35.2266035902 21.9333133244 35.2645375358 21.8723747073 35.3023662899 21.8113708465 35.3400897395 21.750301924 35.3777077722 21.6891681219 35.4152202758 21.6279696225 35.4526271383 21.5667066085 35.4899282482 21.5053792626 35.5271234942 21.4439877677 35.5642127654 21.3825323069 35.601195951 21.3210130636 35.6380729409 21.2594302212 35.674843625 21.1977839635 35.7115078936 21.1360744743 35.7480656374 21.0743019378 35.7845167473 21.0124665381 35.8208611145 20.9505684597 35.8570986307 20.8886078874 35.8932291878 20.8265850058 35.929252678 20.7645 35.9651689938 21.1430839677 36.6208956607 21.1533367888 36.6395548243 21.1825038877 36.6963768397 21.2281542849 36.7925426085 21.2878023297 36.9291165947 21.35891266 37.1070445839 21.4389052472 37.3271516403 21.5251605201 37.5901402645 21.6150245589 37.8965887555 21.7058143527 38.2469497799 21.7948231112 38.6415491493 21.8793256235 39.0805848091 21.9565836566 39.5641260396 22.0238513835 40.0921128714 22.0783808347 40.6643557162 22.1174273638 41.280535213 22.1382551199 41.9402022911 22.1165361342 42.601159954 21.7972745636 42.765392803 21.4487249409 42.9412645181 21.0706023455 43.1280618252 21.0561023897 43.1351428902 20.6762914768 43.3184830155 20.3232804209 43.4852190167 19.9974565375 43.636014163 19.4628542606 43.2467364318 18.9554306686 42.8246988178 18.4935047317 42.4150328167 18.0757483938 42.0201721113 17.7007258986 41.6424775657 17.3668971045 41.2842328707 17.0726209664 40.9476403282 16.816159179 40.6348167788 16.5956799755 40.3477896809 16.4092620771 40.0884933441 16.254898785 39.8587653255 16.130502211 39.6603429914 16.0339076384 39.4948602521 15.9628780079 39.3638444723 15.9151085201 39.2687135632 15.8882313491 39.2107732597 15.8798204596 39.1912145873 15.5954794692 38.4894642873 15.5289804861 38.5163420649 15.4624351811 38.5431049511 15.3958437529 38.5697528659 15.3292063999 38.59628573 15.2625233211 38.6227034641 15.1957947152 38.6490059895 15.1290207814 38.6751932277 15.0622017187 38.7012651006 14.9953377267 38.7272215304 14.9284290046 38.7530624397 14.8614757521 38.7787877514 14.7944781689 38.8043973888 14.7274364548 38.8298912755 14.6603508099 38.8552693355 14.5932214342 38.8805314929 14.526048528 38.9056776726 14.4588322916 38.9307077994 14.3915729255 38.9556217988 14.3242706305 38.9804195963 14.2569256071 39.0051011181 14.1895380564 39.0296662905 14.1221081794 39.0541150402 14.0546361771 39.0784472943 13.9871222508 39.1026629802 13.919566602 39.1267620257 13.8519694321 39.1507443589 13.7843309428 39.1746099082 13.7166513358 39.1983586025 13.648930813 39.221990371 13.5811695765 39.2455051431 13.5133678283 39.2689028487 13.4455257707 39.2921834179 13.3776436061 39.3153467815 13.3097215369 39.3383928702 13.2417597658 39.3613216153 13.1737584955 39.3841329485 13.1057179289 39.4068268016 13.0376382688 39.429403107 12.9695197183 39.4518617973 12.9013624808 39.4742028056 12.8331667594 39.4964260652 13.067144519 40.2165355641 13.0732938332 40.2369186615 13.0900095997 40.2985631604 13.1146684385 40.4021187277 13.1446177021 40.5481097704 13.177180792 40.7369342752 13.209662519 40.9688628585 13.2393544977 41.2440380298 13.2635405678 41.5624736703 13.2795022338 41.9240547253 13.2845241152 42.3285371132 13.2758993985 42.7755478506 13.2509352834 43.2645853934 13.2069584142 43.795020193 13.1413202886 44.3660954691 13.0514026363 44.9769281954 12.9346227583 45.626510299 12.7759575593 46.2685088202 12.4295266908 46.3627745745 12.0520279279 46.4623355292 11.6433308745 46.5664347588 11.6276755413 46.5703463752 11.2180458527 46.6707129498 10.8380825714 46.7604102439 10.4880266478 46.8401675599 10.0460421045 46.3482464178 9.63745348941 45.8299320413 9.27079609347 45.3331784226 8.94426489073 44.8600899444 8.65596464842 44.4126773698 8.40391407469 43.9928542719 8.18605010092 43.6024336345 8.00023229191 43.2431246264 7.84424737729 42.9165295553 7.715813897 42.6241410051 7.61258695396 42.3673391618 7.53216306652 42.1473893297 7.4720851133 41.9654396444 7.42984736293 41.8225189832 7.40290058115 41.7195350777 7.3886572073 41.6572728307 7.38449659259 41.6363928401 7.25227122643 40.8908596517 7.18163720146 40.9033241694 7.11098175419 40.9156666754 7.04030509537 40.9278871329 6.96960743583 40.9399855055 6.89888898646 40.9519617571 6.8281499582 40.9638158519 6.75739056206 40.9755477546 6.68661100912 40.9871574303 6.61581151049 40.9986448442 6.54499227738 41.0100099621 6.47415352103 41.0212527501 6.40329545275 41.0323731747 6.3324182839 41.0433712026 6.26152222591 41.0542468012 6.19060749024 41.0649999379 6.11967428845 41.0756305807 6.0487228321 41.0861386979 5.97775333286 41.096524258 5.9067660024 41.1067872302 5.83576105249 41.1169275839 5.76473869493 41.1269452887 5.69369914157 41.1368403148 5.62264260432 41.1466126327 5.55156929513 41.1562622132 5.480479426 41.1657890276 5.40937320901 41.1751930473 5.33825085625 41.1844742445 5.26711257986 41.1936325913 5.19595859207 41.2026680606 5.1247891051 41.2115806252 5.05360433126 41.2203702587 4.98240448288 41.2290369348 4.91118977235 41.2375806276 4.8399604121 41.2460013118 4.76871661459 41.254298962 4.69745859235 41.2624735537 4.62618655793 41.2705250625 4.55490072392 41.2784534642 4.48360130298 41.2862587353 4.41228850778 41.2939408524 4.34096255104 41.3014997927 4.42010815176 42.0545198829 4.42188520439 42.0757360751 4.42541907929 42.1395088971 4.42800865028 42.2459283876 4.42695020603 42.3949559778 4.41954289221 42.5864244613 4.40309415166 42.8200381792 4.37492515424 43.0953734224 4.33237620823 43.4118790468 4.27281214502 43.7688773052 4.19362766909 44.1655648903 4.09225266496 44.6010141913 3.96615745332 45.074174759 3.81285798809 45.5838749803 3.62992098677 46.1288239578 3.41496898604 46.7076135924 3.16568531508 47.3187208666 2.87700833333 47.91370183 2.51854885805 47.9338806237 2.12859946246 47.9527795266 1.70718997336 47.9696310429 1.691063476 47.9702022543 1.26951779465 47.9832087773 0.879208506663 47.991947162 0.520219666403 47.9971808703 0.190169702257 47.4241156317 -0.101726652915 46.8321773181 -0.357090820262 46.2700465987 -0.578125907391 45.7394065844 -0.767103792807 45.2418300571 -0.926360326638 44.7787768402 -1.05829043502 44.3515913634 -1.16534313568 43.9615004243 -1.25001647221 43.6096111517 -1.31485237498 43.2969091709 -1.36243145618 43.0242569757 -1.39536774724 42.7923925087 -1.41630338633 42.6019279518 -1.42790326419 42.4533487278 -1.43284963622 42.3470127168 -1.43383670913 42.2831496854 -1.43356521027 42.2618609321 -1.40789606919 41.5051282332 -1.47957809018 41.5026347317 -1.5512556977 41.5000174308 -1.62292867793 41.4972763384 -1.69459681709 41.4944114626 -1.76625990138 41.491422812 -1.83791771705 41.4883103954 -1.90957005035 41.4850742222 -1.98121668753 41.4817143021 -2.05285741489 41.4782306449 -2.12449201872 41.4746232612 -2.19612028535 41.4708921618 -2.26774200111 41.4670373576 -2.33935695236 41.4630588603 -2.41096492548 41.4589566816 -2.48256570686 41.4547308339 -2.55415908293 41.4503813297 -2.62574484012 41.445908182 -2.69732276491 41.4413114042 -2.76889264378 41.43659101 -2.84045426324 41.4317470134 -2.91200740984 41.4267794288 -2.98355187012 41.4216882712 -3.05508743069 41.4164735557 -3.12661387815 41.4111352979 -3.19813099915 41.4056735136 -3.26963858035 41.4000882192 -3.34113640846 41.3943794313 -3.4126242702 41.3885471669 -3.48410195233 41.3825914436 -3.55556924164 41.3765122789 -3.62702592494 41.3703096911 -3.69847178908 41.3639836987 -3.76990662095 41.3575343205 -3.84133020746 41.3509615757 -3.91274233556 41.344265484 -3.98414279223 41.3374460654 -4.05553136449 41.3305033402 -4.12690783939 41.323437329 -4.19827200403 41.316248053 -4.26962364553 41.3089355337 -4.34096255104 41.3014997927 -4.42010815176 42.0545198829 -4.42278102638 42.0756419204 -4.43258349038 42.1387558871 -4.45217636393 42.2433882586 -4.4841962569 42.3889391754 -4.53125023927 42.574683546 -4.59591055847 42.7997723583 -4.68070941165 43.0632342018 -4.78813378065 43.3639769957 -4.92062033768 43.7007899205 -5.08055042938 44.0723455519 -5.27024514686 44.4772021923 -5.49196048925 44.9138063977 -5.74788262819 45.3804956953 -6.04012328043 45.8755014889 -6.37071519577 46.3969521474 -6.7416077671 46.942876272 -7.14767996227 47.4648361543 -7.5025016451 47.4100460774 -7.88785901366 47.3474569558 -8.3035633216 47.2763242666 -8.31945617783 47.2735301084 -8.73449428283 47.1986081323 -9.11809118875 47.1260056983 -9.47032341069 47.0564870607 -9.67401402854 46.4273234265 -9.83646085237 45.7876317205 -9.96937115163 45.1846917101 -10.0752498292 44.6196916746 -10.1566461173 44.0936976766 -10.2161483365 43.6076519882 -10.2563786007 43.1623717271 -10.2799874763 42.758547703 -10.2896486036 42.3967434787 -10.2880532888 42.0773946442 -10.277905074 41.8008083064 -10.2619142947 41.5671627944 -10.2427926318 41.3765075809 -10.2232476668 41.2287634193 -10.2059774489 41.1237226966 -10.1936650811 41.0610500016 -10.1889733344 41.0402829065 -10.0065315507 40.3054235473 -10.0761287195 40.2880810045 -10.1456958318 40.2706182854 -10.2152326803 40.2530354419 -10.2847390575 40.2353325265 -10.3542147561 40.217509592 -10.4236595688 40.1995666916 -10.4930732884 40.1815038788 -10.562455708 40.1633212075 -10.6318066205 40.1450187319 -10.7011258192 40.1265965066 -10.7704130971 40.1080545865 -10.8396682477 40.0893930271 -10.9088910643 40.0706118839 -10.9780813405 40.0517112129 -11.0472388699 40.0326910706 -11.1163634462 40.0135515136 -11.1854548631 39.9942925991 -11.2545129147 39.9749143846 -11.3235373948 39.9554169277 -11.3925280977 39.9358002868 -11.4614848174 39.9160645202 -11.5304073484 39.8962096869 -11.599295485 39.8762358461 -11.6681490218 39.8561430573 -11.7369677533 39.8359313806 -11.8057514743 39.8156008761 -11.8744999796 39.7951516046 -11.9432130641 39.7745836271 -12.0118905228 39.7538970048 -12.080532151 39.7330917995 -12.1491377438 39.7121680733 -12.2177070966 39.6911258886 -12.2862400049 39.6699653081 -12.3547362642 39.6486863949 -12.4231956702 39.6272892126 -12.4916180187 39.605773825 -12.5600031057 39.5841402962 -12.628350727 39.5623886907 -12.6966606789 39.5405190735 -12.7649327576 39.5185315098 -12.8331667594 39.4964260652 -13.067144519 40.2165355641 -13.0741505034 40.2366403125 -13.0968608916 40.2963370407 -13.1377799071 40.3946093563 -13.1993618258 40.5303223264 -13.2840059919 40.7022246637 -13.3940519236 40.9089511091 -13.5317745157 41.1490250064 -13.6993793473 41.4208610664 -13.8989980999 41.7227683166 -14.1326840949 42.0529532302 -14.4024079563 42.4095230322 -14.7100534051 42.7904891765 -15.0574131922 43.1937709886 -15.4461851766 43.6171994698 -15.8779685535 44.0585212562 -16.35426024 44.5154027273 -16.8599803451 44.9415293772 -17.1956568254 44.8141650189 -17.5595802007 44.6728233177 -17.9514110545 44.5168152629 -17.9663756755 44.5107778531 -18.3567670474 44.3512018278 -18.7168865458 44.2004316498 -19.0469679111 44.0591989645 -19.1153969252 43.4014344044 -19.141294512 42.7419469032 -19.1459421253 42.1245489736 -19.1320369871 41.5498821296 -19.1022942695 41.0184591225 -19.0594416416 40.5306634916 -19.006213806 40.0867493303 -18.9453470354 39.6868412688 -18.8795737159 39.3309346735 -18.8116169063 39.0188960619 -18.7441849212 38.7504637316 -18.6799659454 38.5252486046 -18.6216226889 38.3427352822 -18.5717870898 38.2022833117 -18.5330550734 38.1031286611 -18.5079813743 38.0443854001 -18.4990744317 38.0250475848 -18.1678335869 37.3441784454 -18.2323041731 37.3127448138 -18.2967203737 37.281199881 -18.3610819965 37.2495437411 -18.4253888495 37.2177764885 -18.4896407409 37.1858982179 -18.553837479 37.1539090245 -18.6179788724 37.1218090037 -18.6820647297 37.0895982512 -18.7460948598 37.0572768631 -18.8100690716 37.0248449358 -18.8739871744 36.9923025661 -18.9378489773 36.959649851 -19.0016542901 36.926886888 -19.0654029223 36.8940137747 -19.1290946838 36.8610306093 -19.1927293846 36.82793749 -19.2563068348 36.7947345157 -19.3198268449 36.7614217854 -19.3832892253 36.7279993984 -19.4466937868 36.6944674544 -19.5100403402 36.6608260535 -19.5733286966 36.627075296 -19.6365586671 36.5932152825 -19.6997300632 36.5592461142 -19.7628426964 36.5251678922 -19.8258963785 36.4909807184 -19.8888909214 36.4566846945 -19.9518261372 36.422279923 -20.0147018381 36.3877665065 -20.0775178365 36.3531445479 -20.1402739453 36.3184141505 -20.202969977 36.2835754179 -20.2656057447 36.2486284541 -20.3281810616 36.2135733631 -20.390695741 36.1784102497 -20.4531495964 36.1431392188 -20.5155424416 36.1077603754 -20.5778740903 36.0722738252 -20.6401443568 36.036679674 -20.7023530552 36.0009780281 -20.7645 35.9651689938 -21.1430839677 36.6208956607 -21.1541168668 36.6391044461 -21.1887426262 36.6927749024 -21.2491994263 36.7803921904 -21.3376519454 36.9003359056 -21.456186939 37.0508832527 -21.6068089478 37.2302123936 -21.7914361408 37.4364059632 -22.0118962995 37.6674547492 -22.2699229503 37.9212615293 -22.5671516493 38.1956450599 -22.9051164277 38.4883442122 -23.2852464005 38.7970222468 -23.7088625463 39.119271223 -24.1771746614 39.4526165354 -24.6912784944 39.79452157 -25.252153064 40.1423924748 -25.8354186838 40.4540621129 -26.1372792884 40.2596899069 -26.4638634728 40.0457729366 -26.8146959839 39.8117078168 -26.8280783439 39.8026910192 -27.1767610065 39.5654351827 -27.4976641471 39.3430866411 -27.7911685163 39.136312454 -27.7213452504 38.4786944357 -27.6095617513 37.8282339076 -27.4857435557 37.223361311 -27.3526623229 36.6641433571 -27.2130804991 36.1505170764 -27.0697458895 35.6822905128 -26.925386266 35.2591436302 -26.7827040191 34.8806294325 -26.6443708625 34.5461752923 -26.5130225969 34.2550844882 -26.3912539428 34.0065379465 -26.2816134479 33.7995961862 -26.186598478 33.6332014629 -26.1086502997 33.5061801085 -26.0501492597 33.417245064 -26.0134100704 33.3649985993 -26.000677208 33.3479352192 -25.5351141163 32.7508135482 -25.591640446 32.7066626283 -25.6480904378 32.6624141468 -25.7044639231 32.6180682356 -25.7607607339 32.5736250272 -25.8169807022 32.5290846539 -25.8731236603 32.4844472488 -25.9291894408 32.4397129449 -25.9851778763 32.3948818756 -26.0410888 32.3499541748 -26.0969220449 32.3049299764 -26.1526774446 32.2598094148 -26.2083548328 32.2145926244 -26.2639540434 32.1692797403 -26.3194749104 32.1238708975 -26.3749172684 32.0783662315 -26.4302809519 32.0327658781 -26.4855657958 31.9870699733 -26.5407716352 31.9412786533 -26.5958983054 31.8953920548 -26.6509456419 31.8494103147 -26.7059134805 31.8033335701 -26.7608016574 31.7571619584 -26.8156100087 31.7108956174 -26.870338371 31.6645346851 -26.9249865811 31.6180792998 -26.9795544758 31.5715296001 -27.0340418925 31.5248857247 -27.0884486686 31.4781478129 -27.1427746417 31.4313160041 -27.19701965 31.3843904379 -27.2511835315 31.3373712543 -27.3052661247 31.2902585936 -27.3592672683 31.2430525964 -27.4131868012 31.1957534034 -27.4670245625 31.1483611557 -27.5207803916 31.1008759947 -27.5744541283 31.053298062 -27.6280456123 31.0056274996 -27.6815546839 30.9578644496 -27.7349811834 30.9100090546 -27.7883249515 30.8620614573 -28.2949691912 31.4247468904 -28.3095468143 31.4402639014 -28.3545746331 31.4855624293 -28.4319269656 31.5586953938 -28.5433842856 31.6576277383 -28.6906295587 31.7802404537 -28.8752447401 31.9243347461 -29.0987074396 32.0876363396 -29.3623877587 32.2677999109 -29.6675453048 32.4624136467 -30.0153263875 32.6690039175 -30.4067614002 32.8850400625 -30.8427623931 33.107939276 -31.3241208393 33.3350715899 -31.8515055987 33.5637649437 -32.4254610832 33.7913103358 -33.0464056258 34.0149670466 -33.6817252538 34.1985582141 -33.936577226 33.9456731585 -34.2115489235 33.6685301173 -34.5060500276 33.3666377014 -34.5172652533 33.3550355933 -34.809000101 33.0504691642 -35.0766618769 32.7662599571 -35.3207617005 32.5029812925 -35.1157377664 31.8742508789 -34.8711586568 31.2612455703 -34.6242861015 30.6953341415 -34.3778450626 30.1760055858 -34.1345245281 29.7026239647 -33.8969723471 29.2744302158 -33.6677901439 28.8905441613 -33.4495283196 28.5499667142 -33.2446811485 28.2515822799 -33.0556819764 27.9941613482 -32.8848985279 27.7763632715 -32.7346283295 27.5967392259 -32.6070942564 27.4537353496 -32.5044402083 27.3456960541 -32.4287269208 27.2708675038 -32.3819279202 27.2274012568 -32.3659256252 27.2133580634 -31.7863876278 26.7260809431 -31.8324992292 26.6711423419 -31.8785158766 26.6161241827 -31.9244374326 26.5610266294 -31.9702637604 26.5058498466 -32.0159947232 26.4505939987 -32.0616301846 26.3952592506 -32.1071700085 26.3398457674 -32.152614059 26.2843537142 -32.1979622005 26.2287832568 -32.2432142979 26.1731345608 -32.2883702161 26.1174077923 -32.3334298204 26.0616031174 -32.3783929765 26.0057207026 -32.4232595501 25.9497607146 -32.4680294075 25.8937233204 -32.5127024151 25.837608687 -32.5572784397 25.781416982 -32.6017573483 25.7251483728 -32.6461390082 25.6688030274 -32.690423287 25.6123811138 -32.7346100526 25.5558828003 -32.7786991733 25.4993082555 -32.8226905174 25.4426576481 -32.8665839539 25.385931147 -32.9103793517 25.3291289216 -32.9540765802 25.2722511412 -32.9976755091 25.2152979755 -33.0411760083 25.1582695944 -33.0845779481 25.101166168 -33.127881199 25.0439878667 -33.1710856318 24.9867348609 -33.2141911176 24.9294073215 -33.257197528 24.8720054195 -33.3001047345 24.8145293261 -33.3429126092 24.7569792127 -33.3856210243 24.6993552511 -33.4282298527 24.641657613 -33.470738967 24.5838864707 -33.5131482405 24.5260419965 -33.5554575467 24.4681243628 -33.5976667594 24.4101337425 -34.2102284867 24.8551858884 -34.2277137218 24.8673329572 -34.2811756682 24.9022797936 -34.372042865 24.9577321731 -34.5016337661 25.0313293286 -34.6711539937 25.1206486484 -34.8816937784 25.2232104802 -35.1342255922 25.3364830344 -35.4296019765 25.4578873785 -35.7685535689 25.5848025158 -36.151687333 25.7145705406 -36.5794849917 25.8445018622 -37.0523016692 25.9718804895 -37.5703647418 26.0939693689 -38.1337729008 26.2080157672 -38.7424954281 26.3112566912 -39.3963716876 26.4009243366 -40.0559788074 26.4484132185 -40.2526838931 26.1480676036 -40.4640255209 25.8198109723 -40.6893241067 25.4632854075 -40.6978820389 25.4496050568 -40.9199188589 25.0910390494 -41.1226411661 24.757390483 -41.3066681105 24.4491138818 -40.975404038 23.8767496091 -40.6087185985 23.3279907934 -40.2495811989 22.8257735775 -39.9005510098 22.3690315698 -39.5641260396 21.9565836566 -39.2427384574 21.5871368442 -38.9387500365 21.2592892804 -38.6544477238 20.9715334525 -38.3920393427 20.7222595558 -38.1536494348 20.5097590265 -37.941315248 20.3322282359 -37.7569828749 20.1877723376 -37.6025035496 20.0744092639 -37.4796301061 19.990073863 -37.3900136052 19.9326221736 -37.3352001341 19.8998358277 -37.3166277836 19.889426576 -36.6484434719 19.5332903548 -36.6821250468 19.4699651529 -36.7156972015 19.4065818735 -36.7491598359 19.3431407056 -36.7825128502 19.2796418385 -36.815756145 19.2160854617 -36.848889621 19.1524717647 -36.8819131795 19.0888009372 -36.9148267219 19.0250731692 -36.94763015 18.9612886508 -36.980323366 18.8974475723 -37.0129062724 18.833550124 -37.0453787719 18.7695964966 -37.0777407678 18.7055868809 -37.1099921634 18.6415214677 -37.1421328626 18.5774004482 -37.1741627696 18.5132240137 -37.2060817886 18.4489923556 -37.2378898247 18.3847056655 -37.2695867827 18.3203641351 -37.3011725684 18.2559679564 -37.3326470873 18.1915173215 -37.3640102456 18.1270124226 -37.3952619498 18.0624534521 -37.4264021066 17.9978406026 -37.4574306231 17.9331740669 -37.4883474069 17.8684540378 -37.5191523656 17.8036807084 -37.5498454074 17.7388542719 -37.5804264407 17.6739749217 -37.6108953744 17.6090428513 -37.6412521174 17.5440582544 -37.6714965793 17.4790213248 -37.7016286699 17.4139322566 -37.7316482992 17.3487912439 -37.7615553778 17.283598481 -37.7913498163 17.2183541623 -37.821031526 17.1530584826 -37.8506004183 17.0877116365 -37.880056405 17.022313819 -37.9093993982 16.9568652252 -37.9386293104 16.8913660503 -38.6303366385 17.1993339946 -38.6499652968 17.207580236 -38.7095248273 17.2306480365 -38.8099355558 17.265996296 -38.9519962939 17.3110417137 -39.1363826285 17.3631639549 -39.3636454177 17.419710882 -39.6342094937 17.4780038427 -39.9483725777 17.5353430071 -40.3063044054 17.5890127454 -40.708046067 17.6362870389 -41.1535095612 17.6744349148 -41.6424775657 17.7007258986 -42.1746034225 17.7124354737 -42.7494113409 17.7068505416 -43.3662968157 17.6812748739 -44.0245272618 17.6330345473 -44.6795938772 17.5423456517 -44.8095551202 17.2076660221 -44.9480300351 16.8426421906 -45.0942794733 16.4470653549 -45.0998060893 16.4319046585 -45.2424408072 16.035010128 -45.371363708 15.6665042457 -45.4872749128 15.3267028747 -45.0442485313 14.8357198079 -44.5714826752 14.3751908788 -44.115776459 13.958617178 -43.6794114138 13.5844235357 -43.2645853934 13.2509352834 -42.8734085895 12.9563820059 -42.5078997036 12.6989014445 -42.1699822779 12.4765435464 -41.8614811921 12.2872746526 -41.5841193314 12.1289818185 -41.3395144291 11.9994772614 -41.1291760906 11.8965029265 -40.9545030008 11.8177351656 -40.8167803211 11.760789521 -40.7171772779 11.7232256071 -40.656744948 11.702552083 -40.6364142428 11.6962317072 -39.9087864776 11.4868012469 -39.9285659794 11.4178570594 -39.9482263772 11.3488788133 -39.9677676123 11.2798667142 -39.9871896264 11.2108209681 -40.0064923617 11.141741781 -40.0256757605 11.0726293589 -40.0447397655 11.0034839079 -40.06368432 10.9343056343 -40.0825093675 10.8650947444 -40.1012148517 10.7958514448 -40.1198007169 10.7265759419 -40.1382669076 10.6572684424 -40.1566133688 10.5879291531 -40.1748400457 10.5185582807 -40.1929468839 10.4491560323 -40.2109338295 10.3797226147 -40.2288008288 10.3102582352 -40.2465478285 10.240763101 -40.2641747756 10.1712374193 -40.2816816176 10.1016813975 -40.2990683023 10.0320952431 -40.3163347778 9.96247916372 -40.3334809925 9.89283336699 -40.3505068954 9.82315806064 -40.3674124356 9.75345345253 -40.3841975628 9.68371975057 -40.4008622268 9.61395716277 -40.417406378 9.54416589723 -40.433829967 9.47434616214 -40.4501329448 9.40449816575 -40.4663152627 9.33462211643 -40.4823768726 9.26471822261 -40.4983177265 9.1947866928 -40.5141377768 9.1248277356 -40.5298369763 9.05484155971 -40.5454152783 8.98482837387 -40.5608726363 8.91478838695 -40.5762090041 8.84472180785 -40.591424336 8.77462884559 -40.6065185866 8.70450970924 -40.6214917109 8.63436460797 -41.3621137102 8.79178867365 -41.3830279253 8.79577368736 -41.4460820026 8.8059542784 -41.5516478321 8.81965352926 -41.6999696711 8.83417850826 -41.8911635453 8.84682567882 -42.1252168645 8.85488632913 -42.4019882543 8.85565201428 -42.7212076038 8.84642000238 -43.0824763283 8.82449871668 -43.485267849 8.78721316526 -43.9289282865 8.73191035027 -44.4126773698 8.65596464842 -44.9356095575 8.55678315457 -45.4966953711 8.43181098046 -46.0947829378 8.27853650033 -46.7285997415 8.09449653567 -47.3504962981 7.8695934024 -47.4080337685 7.51520686394 -47.4675899523 7.12936912522 -47.5283984405 6.71202962449 -47.5306522007 6.69605117762 -47.5876509949 6.27817431948 -47.6371399399 5.89091659654 -47.6798695292 5.53444140619 -47.1444432175 5.14629786154 -46.5862590814 4.79412614288 -46.0539005968 4.4814022269 -45.549271942 4.20611100786 -45.074174759 3.96615745332 -44.6303050368 3.75937110227 -44.2192501782 3.5835106794 -43.8424862524 3.43626881825 -43.5013754398 3.3152768862 -43.1971636704 3.21810990378 -42.9309784607 3.14229155079 -42.7038269514 3.08529925177 -42.5165941494 3.04456933285 -42.3700413754 3.01750224238 -42.2648049209 3.00146782727 -42.201394915 2.99381065712 -42.1801944044 2.99185538802 -41.4249240106 2.93828380474 -41.4299369802 2.86673382348 -41.4348263674 2.79517529095 -41.4395921574 2.72360842062 -41.4442343361 2.65203342597 -41.4487528897 2.58045052049 -41.4531478046 2.50885991771 -41.4574190678 2.43726183118 -41.4615666665 2.36565647448 -41.4655905884 2.2940440612 -41.4694908214 2.22242480495 -41.4732673539 2.15079891936 -41.4769201746 2.0791666181 -41.4804492727 2.00752811484 -41.4838546376 1.93588362326 -41.4871362592 1.86423335708 -41.4902941276 1.79257753003 -41.4933282335 1.72091635585 -41.4962385678 1.6492500483 -41.4990251218 1.57757882116 -41.5016878873 1.50590288821 -41.5042268561 1.43422246327 -41.5066420209 1.36253776014 -41.5089333744 1.29084899266 -41.5111009097 1.21915637467 -41.5131446204 1.14746012003 -41.5150645004 1.07576044259 -41.5168605439 1.00405755624 -41.5185327457 0.932351674859 -41.5200811007 0.86064301234 -41.5215056042 0.788931782585 -41.5228062522 0.717218199503 -41.5239830406 0.645502477012 -41.5250359659 0.573784829033 -41.5259650251 0.502065469495 -41.5267702153 0.430344612333 -41.5274515342 0.358622471483 -41.5280089797 0.286899260889 -41.5284425501 0.215175194495 -41.5287522442 0.143450486249 -41.528938061 0.0717253501001 -41.529 1.7763568394e-14 -42.2861679354 5.17856202103e-15 -42.3074536556 -0.000450378215397 -42.3712465139 -0.00360193733554 -42.4773537112 -0.0121504180882 -42.6254542751 -0.0287806890638 -42.815099599 -0.0561613311786 -43.0457141951 -0.0969392467437 -43.3165966609 -0.153734301292 -43.6269208585 -0.229134006269 -43.975737303 -0.325688250642 -44.3619747605 -0.445904089405 -44.7844420512 -0.592240596908 -45.2418300571 -0.767103792807 -45.7327139298 -0.972841648387 -46.2555554961 -1.21173918085 -46.8087058582 -1.48601364308 -47.3904081839 -1.79780981629 -47.9519548179 -2.1470978411 -47.9345538521 -2.50570289616 -47.9125884137 -2.89549158144 -47.8852983294 -3.31635400837 -47.8841807336 -3.33245187094 -47.8530524832 -3.75304783281 -47.8209445681 -4.1421323756 -47.7886250538 -4.49970170892 -47.184199511 -4.76804199608 -46.56499242 -4.99646491021 -45.9792482874 -5.19167150567 -45.4284107167 -5.35602875422 -44.9138063977 -5.49196048925 -44.436642994 -5.60194235796 -43.9980072324 -5.68849669798 -43.5988631981 -5.75418734634 -43.240050838 -5.80161438858 -42.922284674 -5.83340885596 -42.6461527278 -5.852227379 -42.4121156588 -5.8607468052 -42.2205061164 -5.86165878923 -42.0715283076 -5.85766436379 -41.9652577797 -5.85146849925 -41.9016414194 -5.84577466034 -41.8804976676 -5.84327936811 -41.1305935855 -5.73865073916 -41.1206209321 -5.80967943666 -41.1105256189 -5.8806908043 -41.100307676 -5.95168463027 -41.0899671338 -6.0226607028 -41.0795040233 -6.09361881016 -41.0689183755 -6.1645587407 -41.0582102221 -6.2354802828 -41.0473795951 -6.30638322492 -41.0364265266 -6.37726735555 -41.0253510495 -6.44813246326 -41.0141531967 -6.51897833665 -41.0028330017 -6.5898047644 -40.9913904982 -6.66061153524 -40.9798257203 -6.73139843796 -40.9681387026 -6.8021652614 -40.9563294799 -6.87291179448 -40.9443980874 -6.94363782615 -40.9323445607 -7.01434314546 -40.9201689358 -7.08502754149 -40.907871249 -7.15569080339 -40.895451537 -7.22633272038 -40.8829098368 -7.29695308175 -40.8702461858 -7.36755167683 -40.8574606219 -7.43812829504 -40.844553183 -7.50868272585 -40.8315239079 -7.5792147588 -40.8183728352 -7.6497241835 -40.8051000043 -7.72021078962 -40.7917054548 -7.79067436692 -40.7781892265 -7.8611147052 -40.7645513598 -7.93153159434 -40.7507918955 -8.00192482429 -40.7369108744 -8.07229418508 -40.7229083381 -8.14263946681 -40.7087843283 -8.21296045962 -40.6945388872 -8.28325695377 -40.6801720571 -8.35352873956 -40.6656838811 -8.42377560738 -40.6510744023 -8.49399734769 -40.6363436642 -8.56419375102 -40.6214917109 -8.63436460797 -41.3621137102 -8.79178867365 -41.3828406475 -8.7966547601 -41.4445842328 -8.81300073112 -41.5465954042 -8.84342333386 -41.6880019877 -8.89048203217 -41.8678103507 -8.95669382151 -42.0849072591 -9.04452811237 -42.3380619373 -9.1564016902 -42.6259283265 -9.29467375934 -42.9470475386 -9.46164107858 -43.2998505026 -9.65953319568 -43.6826607987 -9.89050778812 -44.0936976766 -10.1566461173 -44.5310792535 -10.4599486031 -44.9928258872 -10.8023305254 -45.4768637196 -11.1856178596 -45.9810283842 -11.6115432524 -46.4576828132 -12.069950606 -46.3661039168 -12.417101416 -46.2635768514 -12.7938054119 -46.149380902 -13.1997970574 -46.1449407946 -13.2153107819 -46.0270459536 -13.6202437857 -45.9147444483 -13.9941502868 -45.8087883482 -14.3371862674 -45.1617798709 -14.4739955389 -44.5086121462 -14.568686471 -43.895082195 -14.637844281 -43.3221099533 -14.6840843587 -42.7904891765 -14.7100534051 -42.3008864218 -14.718424056 -41.8538402448 -14.7118894732 -41.4497606115 -14.6931579122 -41.0889285258 -14.6649472753 -40.7714958734 -14.6299796569 -40.4974854818 -14.5909758902 -40.266791396 -14.5506501038 -40.0791793697 -14.5117042949 -39.9342875712 -14.4768229291 -39.831627502 -14.4486675739 -39.7705851275 -14.429871574 -39.7504222177 -14.4230347767 -39.0386588542 -14.1647787087 -39.0141364307 -14.2321818275 -38.9894976308 -14.2995424927 -38.964742528 -14.3668605035 -38.9398711962 -14.4341356589 -38.9148837097 -14.5013677584 -38.8897801428 -14.5685566013 -38.8645605705 -14.6357019873 -38.8392250681 -14.702803716 -38.813773711 -14.7698615873 -38.7882065753 -14.8368754012 -38.7625237371 -14.9038449578 -38.7367252732 -14.9707700573 -38.7108112604 -15.0376505001 -38.684781776 -15.1044860866 -38.6586368978 -15.1712766176 -38.6323767036 -15.2380218937 -38.6060012718 -15.3047217159 -38.5795106811 -15.3713758852 -38.5529050106 -15.4379842028 -38.5261843395 -15.5045464701 -38.4993487475 -15.5710624884 -38.4723983148 -15.6375320593 -38.4453331217 -15.7039549846 -38.418153249 -15.7703310662 -38.3908587777 -15.8366601059 -38.3634497892 -15.9029419061 -38.3359263654 -15.969176269 -38.3082885882 -16.0353629969 -38.2805365402 -16.1015018925 -38.2526703041 -16.1675927585 -38.2246899631 -16.2336353978 -38.1965956005 -16.2996296133 -38.1683873003 -16.3655752081 -38.1400651466 -16.4314719857 -38.1116292237 -16.4973197493 -38.0830796167 -16.5631183027 -38.0544164106 -16.6288674494 -38.0256396909 -16.6945669935 -37.9967495435 -16.7602167388 -37.9677460545 -16.8258164897 -37.9386293104 -16.8913660503 -38.6303366385 -17.1993339946 -38.6495989262 -17.2084031179 -38.7065947475 -17.2372291035 -38.8000515153 -17.2881962145 -38.9285839721 -17.3636266492 -39.0906968859 -17.4657758129 -39.2847879301 -17.596827699 -39.5091507465 -17.758890388 -39.7619781847 -17.9539916683 -40.0413657139 -18.1840747894 -40.345315002 -18.4509943497 -40.6717376567 -18.7565123291 -41.0184591225 -19.1022942695 -41.3832227299 -19.4899056114 -41.7636938875 -19.9208081906 -42.1574644142 -20.3963569011 -42.5620570026 -20.9177965301 -42.9329871408 -21.4652886114 -42.7712327511 -21.7858130201 -42.5926249834 -22.1329685543 -42.39651408 -22.5063456354 -42.3889455149 -22.5205971975 -42.1894366536 -22.8921697279 -42.0018496727 -23.234556679 -41.8268877769 -23.5480669885 -41.1655737402 -23.5473660227 -40.5069919456 -23.5041865247 -39.8924903786 -23.4442730212 -39.3224251024 -23.3703750146 -38.7970222468 -23.2852464005 -38.3163781307 -23.191639996 -37.8804596014 -23.092302083 -37.4891045881 -22.9899669718 -37.1420228705 -22.8873515959 -36.8387970598 -22.7871501444 -36.5788837918 -22.6920287398 -36.3616151276 -22.6046201711 -36.1862001633 -22.5275186879 -36.0517268419 -22.4632748648 -35.957163969 -22.4143905432 -35.901363425 -22.3833138577 -35.8830625733 -22.3724343561 -35.2405474027 -21.9718378784 -35.2025469566 -22.0326695788 -35.1644415038 -22.0934355574 -35.126231158 -22.1541356328 -35.0879160332 -22.2147696241 -35.0494962436 -22.2753373503 -35.010971904 -22.3358386307 -34.9723431291 -22.396273285 -34.9336100343 -22.4566411328 -34.8947727351 -22.5169419941 -34.8558313473 -22.577175689 -34.816785987 -22.6373420378 -34.7776367708 -22.697440861 -34.7383838154 -22.7574719794 -34.6990272379 -22.8174352139 -34.6595671558 -22.8773303857 -34.6200036866 -22.937157316 -34.5803369485 -22.9969158264 -34.5405670597 -23.0566057387 -34.500694139 -23.1162268748 -34.4607183051 -23.1757790569 -34.4206396774 -23.2352621073 -34.3804583755 -23.2946758486 -34.3401745191 -23.3540201036 -34.2997882284 -23.4132946952 -34.259299624 -23.4724994467 -34.2187088265 -23.5316341814 -34.1780159571 -23.5906987229 -34.1372211372 -23.649692895 -34.0963244884 -23.7086165219 -34.0553261327 -23.7674694276 -34.0142261925 -23.8262514367 -33.9730247903 -23.8849623739 -33.9317220489 -23.9436020639 -33.8903180918 -24.0021703318 -33.8488130422 -24.0606670031 -33.8072070241 -24.1190919031 -33.7655001615 -24.1774448576 -33.7236925789 -24.2357256925 -33.681784401 -24.293934234 -33.6397757527 -24.3520703085 -33.5976667594 -24.4101337425 -34.2102284867 -24.8551858884 -34.2271842704 -24.8680616844 -34.276941337 -24.9081078506 -34.3577591919 -24.9773919626 -34.467800037 -25.0778974618 -34.6051323893 -25.2115195911 -34.7677348592 -25.3800614763 -34.9535000821 -25.5852303591 -35.1602387971 -25.8286339886 -35.3856840678 -26.111777175 -35.6274956376 -26.436058513 -35.8832644144 -26.8027672775 -36.1505170764 -27.2130804991 -36.4267207944 -27.6680602216 -36.7092880605 -28.1686509473 -36.9955816199 -28.7156772735 -37.2829194947 -29.3098417246 -37.531913915 -29.9224905026 -37.3070534751 -30.2023800553 -37.0601710215 -30.5048147652 -36.7907161517 -30.8292589118 -36.7803499115 -30.8416254498 -36.5079465244 -31.1635980043 -36.2532725192 -31.4595014526 -36.0169515021 -31.7297841861 -35.3702345028 -31.5916036185 -34.7350218229 -31.4124408417 -34.1464053073 -31.2260745321 -33.6041615846 -31.0352681389 -33.107939276 -30.8427623931 -32.657260253 -30.6512699824 -32.2515211029 -30.4634702826 -31.8899948016 -30.2820041566 -31.5718325885 -30.1094688261 -31.2960660426 -29.9484128257 -31.0616093551 -29.801331045 -30.8672617959 -29.6706598679 -30.711710369 -29.5587724153 -30.5935326543 -29.4679738983 -30.511199829 -29.4004970895 -30.463079867 -29.3584979187 -30.4474409084 -29.3440511994 -29.9022549268 -28.8186223003 -29.8524372599 -28.8702239451 -29.8025305453 -28.9217394721 -29.752534932 -28.9731687277 -29.7024505689 -29.0245115584 -29.6522776056 -29.075767811 -29.6020161917 -29.1269373328 -29.5516664771 -29.178019971 -29.501228612 -29.2290155732 -29.4507027469 -29.2799239875 -29.4000890325 -29.3307450618 -29.3493876198 -29.3814786446 -29.2985986599 -29.4321245846 -29.2477223044 -29.4826827307 -29.1967587051 -29.5331529321 -29.145708014 -29.5835350383 -29.0945703834 -29.6338288989 -29.0433459657 -29.6840343639 -28.9920349138 -29.7341512836 -28.9406373808 -29.7841795085 -28.88915352 -29.8341188893 -28.8375834849 -29.8839692771 -28.7859274293 -29.9337305232 -28.7341855075 -29.9834024791 -28.6823578736 -30.0329849967 -28.6304446823 -30.082477928 -28.5784460885 -30.1318811256 -28.5263622473 -30.1811944419 -28.4741933139 -30.2304177298 -28.4219394442 -30.2795508427 -28.3696007938 -30.3285936338 -28.3171775189 -30.3775459569 -28.264669776 -30.4264076659 -28.2120777216 -30.4751786153 -28.1594015126 -30.5238586593 -28.1066413061 -30.5724476529 -28.0537972596 -30.6209454511 -28.0008695306 -30.6693519092 -27.947858277 -30.7176668829 -27.894763657 -30.7658902279 -27.841585829 -30.8140218006 -27.7883249515 -30.8620614573 -28.2949691912 -31.4247468904 -28.3088774218 -31.4408666251 -28.3492211109 -31.4903827623 -28.413867925 -31.5749558271 -28.5006078453 -31.6961438181 -28.6071575534 -31.8553989849 -28.7311649409 -32.05406478 -28.8702137386 -32.2933729921 -29.0218282565 -32.5744410641 -29.1834782285 -32.8982695999 -29.3525837541 -33.2657400649 -29.5265203301 -33.677612682 -29.7026239647 -34.1345245281 -29.8781963653 -34.636987834 -30.0505101945 -35.1853884894 -30.2168143843 -35.7799847559 -30.3743395015 -36.4209061916 -30.490515953 -37.0719359748 -30.2123769431 -37.298958155 -29.9080097515 -37.5434541925 -29.576987386 -37.8047856384 -29.5642765252 -37.8147266755 -29.2308839475 -38.0730275083 -28.9202533941 -38.3095150533 -28.6329016181 -38.5247575583 -28.0290462923 -38.2551365429 -27.4449645694 -37.9478207603 -26.9079584715 -37.6431467467 -26.417234955 -37.3437711217 -25.9718804895 -37.0523016692 -25.5708633952 -36.7712923894 -25.2130363722 -36.5032386509 -24.897139217 -36.2505724505 -24.6218017239 -36.0156577873 -24.385546764 -35.8007861581 -24.1867935394 -35.6081721809 -24.023861006 -35.4399493529 -23.8949714605 -35.2981659494 -23.7982542856 -35.1847810693 -23.7317498475 -35.1016608338 -23.6934135407 -35.050574743 -23.6811199727 -35.0331921968 -23.2570904237 -34.4058946406 -23.1976328071 -34.4460109903 -23.1381059937 -34.4860245901 -23.0785101609 -34.5259353205 -23.0188454866 -34.5657430625 -22.9591121488 -34.6054476974 -22.8993103256 -34.6450491068 -22.8394401954 -34.6845471725 -22.7795019368 -34.7239417767 -22.7194957286 -34.7632328019 -22.6594217498 -34.8024201309 -22.5992801796 -34.8415036467 -22.5390711973 -34.8804832329 -22.4787949826 -34.9193587732 -22.4184517153 -34.9581301515 -22.3580415754 -34.9967972522 -22.2975647431 -35.03535996 -22.2370213987 -35.0738181599 -22.1764117229 -35.1121717371 -22.1157358965 -35.1504205772 -22.0549941005 -35.1885645662 -21.9941865159 -35.2266035902 -21.9333133244 -35.2645375358 -21.8723747073 -35.3023662899 -21.8113708465 -35.3400897395 -21.750301924 -35.3777077722 -21.6891681219 -35.4152202758 -21.6279696225 -35.4526271383 -21.5667066085 -35.4899282482 -21.5053792626 -35.5271234942 -21.4439877677 -35.5642127654 -21.3825323069 -35.601195951 -21.3210130636 -35.6380729409 -21.2594302212 -35.674843625 -21.1977839635 -35.7115078936 -21.1360744743 -35.7480656374 -21.0743019378 -35.7845167473 -21.0124665381 -35.8208611145 -20.9505684597 -35.8570986307 -20.8886078874 -35.8932291878 -20.8265850058 -35.929252678 -20.7645 -35.9651689938 -21.1430839677 -36.6208956607 -21.1533367888 -36.6395548243 -21.1825038877 -36.6963768397 -21.2281542849 -36.7925426085 -21.2878023297 -36.9291165947 -21.35891266 -37.1070445839 -21.4389052472 -37.3271516403 -21.5251605201 -37.5901402645 -21.6150245589 -37.8965887555 -21.7058143527 -38.2469497799 -21.7948231112 -38.6415491493 -21.8793256235 -39.0805848091 -21.9565836566 -39.5641260396 -22.0238513835 -40.0921128714 -22.0783808347 -40.6643557162 -22.1174273638 -41.280535213 -22.1382551199 -41.9402022911 -22.1165361342 -42.601159954 -21.7972745636 -42.765392803 -21.4487249409 -42.9412645181 -21.0706023455 -43.1280618252 -21.0561023897 -43.1351428902 -20.6762914768 -43.3184830155 -20.3232804209 -43.4852190167 -19.9974565375 -43.636014163 -19.4628542606 -43.2467364318 -18.9554306686 -42.8246988178 -18.4935047317 -42.4150328167 -18.0757483938 -42.0201721113 -17.7007258986 -41.6424775657 -17.3668971045 -41.2842328707 -17.0726209664 -40.9476403282 -16.816159179 -40.6348167788 -16.5956799755 -40.3477896809 -16.4092620771 -40.0884933441 -16.254898785 -39.8587653255 -16.130502211 -39.6603429914 -16.0339076384 -39.4948602521 -15.9628780079 -39.3638444723 -15.9151085201 -39.2687135632 -15.8882313491 -39.2107732597 -15.8798204596 -39.1912145873 -15.5954794692 -38.4894642873 -15.5289804861 -38.5163420649 -15.4624351811 -38.5431049511 -15.3958437529 -38.5697528659 -15.3292063999 -38.59628573 -15.2625233211 -38.6227034641 -15.1957947152 -38.6490059895 -15.1290207814 -38.6751932277 -15.0622017187 -38.7012651006 -14.9953377267 -38.7272215304 -14.9284290046 -38.7530624397 -14.8614757521 -38.7787877514 -14.7944781689 -38.8043973888 -14.7274364548 -38.8298912755 -14.6603508099 -38.8552693355 -14.5932214342 -38.8805314929 -14.526048528 -38.9056776726 -14.4588322916 -38.9307077994 -14.3915729255 -38.9556217988 -14.3242706305 -38.9804195963 -14.2569256071 -39.0051011181 -14.1895380564 -39.0296662905 -14.1221081794 -39.0541150402 -14.0546361771 -39.0784472943 -13.9871222508 -39.1026629802 -13.919566602 -39.1267620257 -13.8519694321 -39.1507443589 -13.7843309428 -39.1746099082 -13.7166513358 -39.1983586025 -13.648930813 -39.221990371 -13.5811695765 -39.2455051431 -13.5133678283 -39.2689028487 -13.4455257707 -39.2921834179 -13.3776436061 -39.3153467815 -13.3097215369 -39.3383928702 -13.2417597658 -39.3613216153 -13.1737584955 -39.3841329485 -13.1057179289 -39.4068268016 -13.0376382688 -39.429403107 -12.9695197183 -39.4518617973 -12.9013624808 -39.4742028056 -12.8331667594 -39.4964260652 -13.067144519 -40.2165355641 -13.0732938332 -40.2369186615 -13.0900095997 -40.2985631604 -13.1146684385 -40.4021187277 -13.1446177021 -40.5481097704 -13.177180792 -40.7369342752 -13.209662519 -40.9688628585 -13.2393544977 -41.2440380298 -13.2635405678 -41.5624736703 -13.2795022338 -41.9240547253 -13.2845241152 -42.3285371132 -13.2758993985 -42.7755478506 -13.2509352834 -43.2645853934 -13.2069584142 -43.795020193 -13.1413202886 -44.3660954691 -13.0514026363 -44.9769281954 -12.9346227583 -45.626510299 -12.7759575593 -46.2685088202 -12.4295266908 -46.3627745745 -12.0520279279 -46.4623355292 -11.6433308745 -46.5664347588 -11.6276755413 -46.5703463752 -11.2180458527 -46.6707129498 -10.8380825714 -46.7604102439 -10.4880266478 -46.8401675599 -10.0460421045 -46.3482464178 -9.63745348941 -45.8299320413 -9.27079609347 -45.3331784226 -8.94426489073 -44.8600899444 -8.65596464842 -44.4126773698 -8.40391407469 -43.9928542719 -8.18605010092 -43.6024336345 -8.00023229191 -43.2431246264 -7.84424737729 -42.9165295553 -7.715813897 -42.6241410051 -7.61258695396 -42.3673391618 -7.53216306652 -42.1473893297 -7.4720851133 -41.9654396444 -7.42984736293 -41.8225189832 -7.40290058115 -41.7195350777 -7.3886572073 -41.6572728307 -7.38449659259 -41.6363928401 -7.25227122643 -40.8908596517 -7.18163720146 -40.9033241694 -7.11098175419 -40.9156666754 -7.04030509537 -40.9278871329 -6.96960743583 -40.9399855055 -6.89888898646 -40.9519617571 -6.8281499582 -40.9638158519 -6.75739056206 -40.9755477546 -6.68661100912 -40.9871574303 -6.61581151049 -40.9986448442 -6.54499227738 -41.0100099621 -6.47415352103 -41.0212527501 -6.40329545275 -41.0323731747 -6.3324182839 -41.0433712026 -6.26152222591 -41.0542468012 -6.19060749025 -41.0649999379 -6.11967428845 -41.0756305807 -6.0487228321 -41.0861386979 -5.97775333286 -41.096524258 -5.9067660024 -41.1067872302 -5.83576105249 -41.1169275839 -5.76473869493 -41.1269452887 -5.69369914157 -41.1368403148 -5.62264260432 -41.1466126327 -5.55156929513 -41.1562622132 -5.480479426 -41.1657890276 -5.40937320901 -41.1751930473 -5.33825085625 -41.1844742445 -5.26711257986 -41.1936325913 -5.19595859207 -41.2026680606 -5.1247891051 -41.2115806252 -5.05360433126 -41.2203702587 -4.98240448288 -41.2290369348 -4.91118977235 -41.2375806276 -4.8399604121 -41.2460013118 -4.76871661459 -41.254298962 -4.69745859235 -41.2624735537 -4.62618655793 -41.2705250625 -4.55490072392 -41.2784534642 -4.48360130298 -41.2862587353 -4.41228850778 -41.2939408524 -4.34096255104 -41.3014997927 -4.42010815176 -42.0545198829 -4.42188520439 -42.0757360751 -4.42541907929 -42.1395088971 -4.42800865028 -42.2459283876 -4.42695020603 -42.3949559778 -4.41954289221 -42.5864244613 -4.40309415166 -42.8200381792 -4.37492515424 -43.0953734224 -4.33237620823 -43.4118790468 -4.27281214502 -43.7688773052 -4.19362766909 -44.1655648903 -4.09225266496 -44.6010141913 -3.96615745332 -45.074174759 -3.81285798809 -45.5838749803 -3.62992098677 -46.1288239578 -3.41496898604 -46.7076135924 -3.16568531508 -47.3187208666 -2.87700833333 -47.91370183 -2.51854885805 -47.9338806237 -2.12859946246 -47.9527795266 -1.70718997336 -47.9696310429 -1.691063476 -47.9702022543 -1.26951779465 -47.9832087773 -0.879208506663 -47.991947162 -0.520219666403 -47.9971808703 -0.190169702257 -47.4241156317 0.101726652915 -46.8321773181 0.357090820262 -46.2700465987 0.578125907391 -45.7394065844 0.767103792807 -45.2418300571 0.926360326638 -44.7787768402 1.05829043502 -44.3515913634 1.16534313568 -43.9615004243 1.25001647221 -43.6096111517 1.31485237498 -43.2969091709 1.36243145618 -43.0242569757 1.39536774724 -42.7923925087 1.41630338633 -42.6019279518 1.42790326419 -42.4533487278 1.43284963622 -42.3470127168 1.43383670913 -42.2831496854 1.43356521027 -42.2618609321 1.40789606919 -41.5051282332 1.47957809018 -41.5026347317 1.5512556977 -41.5000174308 1.62292867793 -41.4972763384 1.69459681709 -41.4944114626 1.76625990138 -41.491422812 1.83791771705 -41.4883103954 1.90957005035 -41.4850742222 1.98121668753 -41.4817143021 2.05285741489 -41.4782306449 2.12449201872 -41.4746232612 2.19612028535 -41.4708921618 2.26774200111 -41.4670373576 2.33935695236 -41.4630588603 2.41096492548 -41.4589566816 2.48256570686 -41.4547308339 2.55415908293 -41.4503813297 2.62574484012 -41.445908182 2.69732276491 -41.4413114042 2.76889264378 -41.43659101 2.84045426324 -41.4317470134 2.91200740984 -41.4267794288 2.98355187012 -41.4216882712 3.05508743069 -41.4164735557 3.12661387815 -41.4111352979 3.19813099915 -41.4056735136 3.26963858035 -41.4000882192 3.34113640846 -41.3943794313 3.4126242702 -41.3885471669 3.48410195233 -41.3825914436 3.55556924164 -41.3765122789 3.62702592494 -41.3703096911 3.69847178908 -41.3639836987 3.76990662095 -41.3575343205 3.84133020746 -41.3509615757 3.91274233556 -41.344265484 3.98414279223 -41.3374460654 4.05553136449 -41.3305033402 4.12690783939 -41.323437329 4.19827200403 -41.316248053 4.26962364553 -41.3089355337 4.34096255104 -41.3014997927 4.42010815176 -42.0545198829 4.42278102638 -42.0756419204 4.43258349038 -42.1387558871 4.45217636393 -42.2433882586 4.4841962569 -42.3889391754 4.53125023927 -42.574683546 4.59591055847 -42.7997723583 4.68070941165 -43.0632342018 4.78813378065 -43.3639769957 4.92062033768 -43.7007899205 5.08055042938 -44.0723455519 5.27024514686 -44.4772021923 5.49196048925 -44.9138063977 5.74788262819 -45.3804956953 6.04012328043 -45.8755014889 6.37071519577 -46.3969521474 6.7416077671 -46.942876272 7.14767996227 -47.4648361543 7.5025016451 -47.4100460774 7.88785901366 -47.3474569558 8.3035633216 -47.2763242666 8.31945617783 -47.2735301084 8.73449428283 -47.1986081323 9.11809118875 -47.1260056983 9.47032341069 -47.0564870607 9.67401402854 -46.4273234265 9.83646085237 -45.7876317205 9.96937115163 -45.1846917101 10.0752498292 -44.6196916746 10.1566461173 -44.0936976766 10.2161483365 -43.6076519882 10.2563786007 -43.1623717271 10.2799874763 -42.758547703 10.2896486036 -42.3967434787 10.2880532888 -42.0773946442 10.277905074 -41.8008083064 10.2619142947 -41.5671627944 10.2427926318 -41.3765075809 10.2232476668 -41.2287634193 10.2059774489 -41.1237226966 10.1936650811 -41.0610500016 10.1889733344 -41.0402829065 10.0065315507 -40.3054235473 10.0761287195 -40.2880810045 10.1456958318 -40.2706182854 10.2152326803 -40.2530354419 10.2847390575 -40.2353325265 10.3542147561 -40.217509592 10.4236595688 -40.1995666916 10.4930732884 -40.1815038788 10.562455708 -40.1633212075 10.6318066205 -40.1450187319 10.7011258192 -40.1265965066 10.7704130971 -40.1080545865 10.8396682477 -40.0893930271 10.9088910643 -40.0706118839 10.9780813405 -40.0517112129 11.0472388699 -40.0326910706 11.1163634462 -40.0135515136 11.1854548631 -39.9942925991 11.2545129147 -39.9749143846 11.3235373948 -39.9554169277 11.3925280977 -39.9358002868 11.4614848174 -39.9160645202 11.5304073484 -39.8962096869 11.599295485 -39.8762358461 11.6681490218 -39.8561430573 11.7369677533 -39.8359313806 11.8057514743 -39.8156008761 11.8744999796 -39.7951516046 11.9432130641 -39.7745836271 12.0118905228 -39.7538970048 12.080532151 -39.7330917995 12.1491377438 -39.7121680733 12.2177070966 -39.6911258886 12.2862400049 -39.6699653081 12.3547362642 -39.6486863949 12.4231956702 -39.6272892126 12.4916180187 -39.605773825 12.5600031057 -39.5841402962 12.628350727 -39.5623886907 12.6966606789 -39.5405190735 12.7649327576 -39.5185315098 12.8331667594 -39.4964260652 13.067144519 -40.2165355641 13.0741505034 -40.2366403125 13.0968608916 -40.2963370407 13.1377799071 -40.3946093563 13.1993618258 -40.5303223264 13.2840059919 -40.7022246637 13.3940519236 -40.9089511091 13.5317745157 -41.1490250064 13.6993793473 -41.4208610664 13.8989980999 -41.7227683166 14.1326840949 -42.0529532302 14.4024079563 -42.4095230322 14.7100534051 -42.7904891765 15.0574131922 -43.1937709886 15.4461851766 -43.6171994698 15.8779685535 -44.0585212562 16.35426024 -44.5154027273 16.8599803451 -44.9415293772 17.1956568254 -44.8141650189 17.5595802007 -44.6728233177 17.9514110545 -44.5168152629 17.9663756755 -44.5107778531 18.3567670474 -44.3512018278 18.7168865458 -44.2004316498 19.0469679111 -44.0591989645 19.1153969252 -43.4014344044 19.141294512 -42.7419469032 19.1459421253 -42.1245489736 19.1320369871 -41.5498821296 19.1022942695 -41.0184591225 19.0594416416 -40.5306634916 19.006213806 -40.0867493303 18.9453470354 -39.6868412688 18.8795737159 -39.3309346735 18.8116169063 -39.0188960619 18.7441849212 -38.7504637316 18.6799659454 -38.5252486046 18.6216226889 -38.3427352822 18.5717870898 -38.2022833117 18.5330550734 -38.1031286611 18.5079813743 -38.0443854001 18.4990744317 -38.0250475848 18.1678335869 -37.3441784454 18.2323041731 -37.3127448138 18.2967203737 -37.281199881 18.3610819965 -37.2495437411 18.4253888495 -37.2177764885 18.4896407409 -37.1858982179 18.553837479 -37.1539090245 18.6179788724 -37.1218090037 18.6820647297 -37.0895982512 18.7460948598 -37.0572768631 18.8100690716 -37.0248449358 18.8739871744 -36.9923025661 18.9378489773 -36.959649851 19.0016542901 -36.926886888 19.0654029223 -36.8940137747 19.1290946838 -36.8610306093 19.1927293846 -36.82793749 19.2563068348 -36.7947345157 19.3198268449 -36.7614217854 19.3832892253 -36.7279993984 19.4466937868 -36.6944674544 19.5100403402 -36.6608260535 19.5733286966 -36.627075296 19.6365586671 -36.5932152825 19.6997300632 -36.5592461142 19.7628426964 -36.5251678922 19.8258963785 -36.4909807184 19.8888909214 -36.4566846945 19.9518261372 -36.422279923 20.0147018381 -36.3877665065 20.0775178365 -36.3531445479 20.1402739453 -36.3184141505 20.202969977 -36.2835754179 20.2656057447 -36.2486284541 20.3281810616 -36.2135733631 20.390695741 -36.1784102497 20.4531495964 -36.1431392188 20.5155424416 -36.1077603754 20.5778740903 -36.0722738252 20.6401443568 -36.036679674 20.7023530552 -36.0009780281 20.7645 -35.9651689938 21.1430839677 -36.6208956607 21.1541168668 -36.6391044461 21.1887426262 -36.6927749024 21.2491994263 -36.7803921904 21.3376519454 -36.9003359056 21.456186939 -37.0508832527 21.6068089478 -37.2302123936 21.7914361408 -37.4364059632 22.0118962995 -37.6674547492 22.2699229503 -37.9212615293 22.5671516493 -38.1956450599 22.9051164277 -38.4883442122 23.2852464005 -38.7970222468 23.7088625463 -39.119271223 24.1771746614 -39.4526165354 24.6912784944 -39.79452157 25.252153064 -40.1423924748 25.8354186838 -40.4540621129 26.1372792884 -40.2596899069 26.4638634728 -40.0457729366 26.8146959839 -39.8117078168 26.8280783439 -39.8026910192 27.1767610065 -39.5654351827 27.4976641471 -39.3430866411 27.7911685163 -39.136312454 27.7213452504 -38.4786944357 27.6095617513 -37.8282339076 27.4857435557 -37.223361311 27.3526623229 -36.6641433571 27.2130804991 -36.1505170764 27.0697458895 -35.6822905128 26.925386266 -35.2591436302 26.7827040191 -34.8806294325 26.6443708625 -34.5461752923 26.5130225969 -34.2550844882 26.3912539428 -34.0065379465 26.2816134479 -33.7995961862 26.186598478 -33.6332014629 26.1086502997 -33.5061801085 26.0501492597 -33.417245064 26.0134100704 -33.3649985993 26.000677208 -33.3479352192 25.5351141163 -32.7508135482 25.591640446 -32.7066626283 25.6480904378 -32.6624141468 25.7044639231 -32.6180682356 25.7607607339 -32.5736250272 25.8169807022 -32.5290846539 25.8731236603 -32.4844472488 25.9291894408 -32.4397129449 25.9851778763 -32.3948818756 26.0410888 -32.3499541748 26.0969220449 -32.3049299764 26.1526774446 -32.2598094148 26.2083548328 -32.2145926244 26.2639540434 -32.1692797403 26.3194749104 -32.1238708975 26.3749172684 -32.0783662315 26.4302809519 -32.0327658781 26.4855657958 -31.9870699733 26.5407716352 -31.9412786533 26.5958983054 -31.8953920548 26.6509456419 -31.8494103147 26.7059134805 -31.8033335701 26.7608016574 -31.7571619584 26.8156100087 -31.7108956174 26.870338371 -31.6645346851 26.9249865811 -31.6180792998 26.9795544758 -31.5715296001 27.0340418925 -31.5248857247 27.0884486686 -31.4781478129 27.1427746417 -31.4313160041 27.19701965 -31.3843904379 27.2511835315 -31.3373712543 27.3052661247 -31.2902585936 27.3592672683 -31.2430525964 27.4131868012 -31.1957534034 27.4670245625 -31.1483611557 27.5207803916 -31.1008759947 27.5744541283 -31.053298062 27.6280456123 -31.0056274996 27.6815546839 -30.9578644496 27.7349811834 -30.9100090546 27.7883249515 -30.8620614573 28.2949691912 -31.4247468904 28.3095468143 -31.4402639014 28.3545746331 -31.4855624293 28.4319269656 -31.5586953938 28.5433842856 -31.6576277383 28.6906295587 -31.7802404537 28.8752447401 -31.9243347461 29.0987074396 -32.0876363396 29.3623877587 -32.2677999109 29.6675453048 -32.4624136467 30.0153263875 -32.6690039175 30.4067614002 -32.8850400625 30.8427623931 -33.107939276 31.3241208393 -33.3350715899 31.8515055987 -33.5637649437 32.4254610832 -33.7913103358 33.0464056258 -34.0149670466 33.6817252538 -34.1985582141 33.936577226 -33.9456731585 34.2115489235 -33.6685301173 34.5060500276 -33.3666377014 34.5172652533 -33.3550355933 34.809000101 -33.0504691642 35.0766618769 -32.7662599571 35.3207617005 -32.5029812925 35.1157377664 -31.8742508789 34.8711586568 -31.2612455703 34.6242861015 -30.6953341415 34.3778450626 -30.1760055858 34.1345245281 -29.7026239647 33.8969723471 -29.2744302158 33.6677901439 -28.8905441613 33.4495283196 -28.5499667142 33.2446811485 -28.2515822799 33.0556819764 -27.9941613482 32.8848985279 -27.7763632715 32.7346283295 -27.5967392259 32.6070942564 -27.4537353496 32.5044402083 -27.3456960541 32.4287269208 -27.2708675038 32.3819279202 -27.2274012568 32.3659256252 -27.2133580634 31.7863876278 -26.7260809431 31.8324992292 -26.6711423419 31.8785158766 -26.6161241827 31.9244374326 -26.5610266294 31.9702637604 -26.5058498466 32.0159947232 -26.4505939987 32.0616301846 -26.3952592506 32.1071700085 -26.3398457674 32.152614059 -26.2843537142 32.1979622005 -26.2287832568 32.2432142979 -26.1731345608 32.2883702161 -26.1174077923 32.3334298204 -26.0616031174 32.3783929765 -26.0057207026 32.4232595501 -25.9497607146 32.4680294075 -25.8937233204 32.5127024151 -25.837608687 32.5572784397 -25.781416982 32.6017573483 -25.7251483728 32.6461390082 -25.6688030274 32.690423287 -25.6123811138 32.7346100526 -25.5558828003 32.7786991733 -25.4993082555 32.8226905174 -25.4426576481 32.8665839539 -25.385931147 32.9103793517 -25.3291289216 32.9540765802 -25.2722511412 32.9976755091 -25.2152979755 33.0411760083 -25.1582695944 33.0845779481 -25.101166168 33.127881199 -25.0439878667 33.1710856318 -24.9867348609 33.2141911176 -24.9294073215 33.257197528 -24.8720054195 33.3001047345 -24.8145293261 33.3429126092 -24.7569792127 33.3856210243 -24.6993552511 33.4282298527 -24.641657613 33.470738967 -24.5838864707 33.5131482405 -24.5260419965 33.5554575467 -24.4681243628 33.5976667594 -24.4101337425 34.2102284867 -24.8551858884 34.2277137218 -24.8673329572 34.2811756682 -24.9022797936 34.372042865 -24.9577321731 34.5016337661 -25.0313293286 34.6711539937 -25.1206486484 34.8816937784 -25.2232104802 35.1342255922 -25.3364830344 35.4296019765 -25.4578873785 35.7685535689 -25.5848025158 36.151687333 -25.7145705406 36.5794849917 -25.8445018622 37.0523016692 -25.9718804895 37.5703647418 -26.0939693689 38.1337729008 -26.2080157672 38.7424954281 -26.3112566912 39.3963716876 -26.4009243366 40.0559788074 -26.4484132185 40.2526838931 -26.1480676036 40.4640255209 -25.8198109723 40.6893241067 -25.4632854075 40.6978820389 -25.4496050568 40.9199188589 -25.0910390494 41.1226411661 -24.757390483 41.3066681105 -24.4491138818 40.975404038 -23.8767496091 40.6087185985 -23.3279907934 40.2495811989 -22.8257735775 39.9005510098 -22.3690315698 39.5641260396 -21.9565836566 39.2427384574 -21.5871368442 38.9387500365 -21.2592892804 38.6544477238 -20.9715334525 38.3920393427 -20.7222595558 38.1536494348 -20.5097590265 37.941315248 -20.3322282359 37.7569828749 -20.1877723376 37.6025035496 -20.0744092639 37.4796301061 -19.990073863 37.3900136052 -19.9326221736 37.3352001341 -19.8998358277 37.3166277836 -19.889426576 36.6484434719 -19.5332903548 36.6821250468 -19.4699651529 36.7156972015 -19.4065818735 36.7491598359 -19.3431407056 36.7825128502 -19.2796418385 36.815756145 -19.2160854617 36.848889621 -19.1524717647 36.8819131795 -19.0888009372 36.9148267219 -19.0250731692 36.94763015 -18.9612886508 36.980323366 -18.8974475723 37.0129062724 -18.833550124 37.0453787719 -18.7695964966 37.0777407678 -18.7055868809 37.1099921634 -18.6415214677 37.1421328626 -18.5774004482 37.1741627696 -18.5132240137 37.2060817886 -18.4489923556 37.2378898247 -18.3847056655 37.2695867827 -18.3203641351 37.3011725684 -18.2559679564 37.3326470873 -18.1915173215 37.3640102456 -18.1270124226 37.3952619498 -18.0624534521 37.4264021066 -17.9978406026 37.4574306231 -17.9331740669 37.4883474069 -17.8684540378 37.5191523656 -17.8036807084 37.5498454074 -17.7388542719 37.5804264407 -17.6739749217 37.6108953744 -17.6090428513 37.6412521174 -17.5440582544 37.6714965793 -17.4790213248 37.7016286699 -17.4139322566 37.7316482992 -17.3487912439 37.7615553778 -17.283598481 37.7913498163 -17.2183541623 37.821031526 -17.1530584826 37.8506004183 -17.0877116365 37.880056405 -17.022313819 37.9093993982 -16.9568652252 37.9386293104 -16.8913660503 38.6303366385 -17.1993339946 38.6499652968 -17.207580236 38.7095248273 -17.2306480365 38.8099355558 -17.265996296 38.9519962939 -17.3110417137 39.1363826285 -17.3631639549 39.3636454177 -17.419710882 39.6342094937 -17.4780038427 39.9483725777 -17.5353430071 40.3063044054 -17.5890127454 40.708046067 -17.6362870389 41.1535095612 -17.6744349148 41.6424775657 -17.7007258986 42.1746034225 -17.7124354737 42.7494113409 -17.7068505416 43.3662968157 -17.6812748739 44.0245272618 -17.6330345473 44.6795938772 -17.5423456517 44.8095551202 -17.2076660221 44.9480300351 -16.8426421906 45.0942794733 -16.4470653549 45.0998060893 -16.4319046585 45.2424408072 -16.035010128 45.371363708 -15.6665042457 45.4872749128 -15.3267028747 45.0442485313 -14.8357198079 44.5714826752 -14.3751908788 44.115776459 -13.958617178 43.6794114138 -13.5844235357 43.2645853934 -13.2509352834 42.8734085895 -12.9563820059 42.5078997036 -12.6989014445 42.1699822779 -12.4765435464 41.8614811921 -12.2872746526 41.5841193314 -12.1289818185 41.3395144291 -11.9994772614 41.1291760906 -11.8965029265 40.9545030008 -11.8177351656 40.8167803211 -11.760789521 40.7171772779 -11.7232256071 40.656744948 -11.702552083 40.6364142428 -11.6962317072 39.9087864776 -11.4868012469 39.9285659794 -11.4178570594 39.9482263772 -11.3488788133 39.9677676123 -11.2798667142 39.9871896264 -11.2108209681 40.0064923617 -11.141741781 40.0256757605 -11.0726293589 40.0447397655 -11.0034839079 40.06368432 -10.9343056343 40.0825093675 -10.8650947444 40.1012148517 -10.7958514448 40.1198007169 -10.7265759419 40.1382669076 -10.6572684424 40.1566133688 -10.5879291531 40.1748400457 -10.5185582807 40.1929468839 -10.4491560323 40.2109338295 -10.3797226147 40.2288008288 -10.3102582352 40.2465478285 -10.240763101 40.2641747756 -10.1712374193 40.2816816176 -10.1016813975 40.2990683023 -10.0320952431 40.3163347778 -9.96247916372 40.3334809925 -9.89283336699 40.3505068954 -9.82315806064 40.3674124356 -9.75345345253 40.3841975628 -9.68371975057 40.4008622268 -9.61395716277 40.417406378 -9.54416589723 40.433829967 -9.47434616214 40.4501329448 -9.40449816575 40.4663152627 -9.33462211643 40.4823768726 -9.26471822261 40.4983177265 -9.1947866928 40.5141377768 -9.1248277356 40.5298369763 -9.05484155971 40.5454152783 -8.98482837387 40.5608726363 -8.91478838695 40.5762090041 -8.84472180785 40.591424336 -8.77462884559 40.6065185866 -8.70450970924 40.6214917109 -8.63436460797 41.3621137102 -8.79178867365 41.3830279253 -8.79577368736 41.4460820026 -8.8059542784 41.5516478321 -8.81965352926 41.6999696711 -8.83417850826 41.8911635453 -8.84682567882 42.1252168645 -8.85488632913 42.4019882543 -8.85565201428 42.7212076038 -8.84642000238 43.0824763283 -8.82449871668 43.485267849 -8.78721316526 43.9289282865 -8.73191035027 44.4126773698 -8.65596464842 44.9356095575 -8.55678315457 45.4966953711 -8.43181098046 46.0947829378 -8.27853650033 46.7285997415 -8.09449653567 47.3504962981 -7.8695934024 47.4080337685 -7.51520686394 47.4675899523 -7.12936912522 47.5283984405 -6.71202962449 47.5306522007 -6.69605117762 47.5876509949 -6.27817431948 47.6371399399 -5.89091659654 47.6798695292 -5.53444140619 47.1444432175 -5.14629786154 46.5862590814 -4.79412614288 46.0539005968 -4.4814022269 45.549271942 -4.20611100786 45.074174759 -3.96615745332 44.6303050368 -3.75937110227 44.2192501782 -3.5835106794 43.8424862524 -3.43626881825 43.5013754398 -3.3152768862 43.1971636704 -3.21810990378 42.9309784607 -3.14229155079 42.7038269514 -3.08529925177 42.5165941494 -3.04456933285 42.3700413754 -3.01750224238 42.2648049209 -3.00146782727 42.201394915 -2.99381065712 42.1801944044 -2.99185538802 41.4249240106 -2.93828380474 41.4299369802 -2.86673382348 41.4348263674 -2.79517529095 41.4395921574 -2.72360842062 41.4442343361 -2.65203342597 41.4487528897 -2.58045052049 41.4531478046 -2.50885991771 41.4574190678 -2.43726183118 41.4615666665 -2.36565647448 41.4655905884 -2.2940440612 41.4694908214 -2.22242480495 41.4732673539 -2.15079891936 41.4769201746 -2.0791666181 41.4804492727 -2.00752811484 41.4838546376 -1.93588362326 41.4871362592 -1.86423335708 41.4902941276 -1.79257753003 41.4933282335 -1.72091635585 41.4962385678 -1.6492500483 41.4990251218 -1.57757882116 41.5016878873 -1.50590288821 41.5042268561 -1.43422246327 41.5066420209 -1.36253776014 41.5089333744 -1.29084899266 41.5111009097 -1.21915637467 41.5131446204 -1.14746012003 41.5150645004 -1.07576044259 41.5168605439 -1.00405755624 41.5185327457 -0.932351674859 41.5200811007 -0.86064301234 41.5215056042 -0.788931782585 41.5228062522 -0.717218199503 41.5239830406 -0.645502477012 41.5250359659 -0.573784829033 41.5259650251 -0.502065469495 41.5267702153 -0.430344612333 41.5274515342 -0.358622471483 41.5280089797 -0.286899260889 41.5284425501 -0.215175194495 41.5287522442 -0.143450486249 41.528938061 -0.0717253501001 41.529 -2.30926389122e-14 Z" /></svg>