<?xml version="1.0" encoding="utf-8" ?>
<svg baseProfile="full" height="34.70205584186416mm" version="1.1" viewBox="-17.999565916056568 -17.35102792093208 35.999131832113136 34.70205584186416" width="35.999131832113136mm" xmlns="http://www.w3.org/2000/svg" xmlns:ev="http://www.w3.org/2001/xml-events" xmlns:xlink="http://www.w3.org/1999/xlink"><defs /><path d="M 13.8944989737 -2.37126508839 13.9015183467 -2.37231073305 13.9226562987 -2.37485247301 13.9580006472 -2.37799372326 14.0075964847 -2.38083428365 14.0714460519 -2.3824721486 14.1495086827 -2.38200532063 14.2417008217 -2.37853362528 14.3478961133 -2.37116052427 14.4679255623 -2.35899492456 14.6015777672 -2.34115298034 14.7485992234 -2.31675988524 14.9086946991 -2.28495165216 15.0815276801 -2.24487687792 15.2667208855 -2.19569849009 15.4638568522 -2.13659547334 15.6724785878 -2.06676457269 15.892090291 -1.98542197105 16.1221581386 -1.8918049385 16.3621111379 -1.78517345076 16.6113420431 -1.66481177441 16.8692083353 -1.53003001633 17.1350332634 -1.38016563512 17.4081069457 -1.21458491192 17.6876875298 -1.03268437863 17.9730024099 -0.83389220102 17.9897144772 -0.608418464221 17.9961574711 -0.371908959203 17.9995659161 -0.125007333923 17.9995659161 0.125007333923 17.9961574711 0.371908959203 17.9897144772 0.608418464221 17.9730024099 0.83389220102 17.6876875298 1.03268437863 17.4081069457 1.21458491192 17.1350332634 1.38016563512 16.8692083353 1.53003001633 16.6113420431 1.66481177441 16.3621111379 1.78517345076 16.1221581386 1.8918049385 15.892090291 1.98542197105 15.6724785878 2.06676457269 15.4638568522 2.13659547334 15.2667208855 2.19569849009 15.0815276801 2.24487687792 14.9086946991 2.28495165216 14.7485992234 2.31675988524 14.6015777672 2.34115298034 14.4679255623 2.35899492456 14.3478961133 2.37116052427 14.2417008217 2.37853362528 14.1495086827 2.38200532063 14.0714460519 2.3824721486 14.0075964847 2.38083428365 13.9580006472 2.37799372326 13.9226562987 2.37485247301 13.9015183467 2.37231073305 13.8944989737 2.37126508839 11.5618359208 1.97316779314 11.3738090237 2.04275904328 11.3293320919 2.13636966619 11.3103757503 2.23455619487 11.2905684841 2.33257460901 11.2699117835 2.4304175343 11.2484072028 2.52807760962 11.2260563597 2.62554748761 11.2028609357 2.72281983524 11.178822676 2.81988733431 11.1539433891 2.91674268205 11.1282249467 3.01337859165 11.1016692837 3.10978779281 11.074278398 3.20596303227 11.0460543503 3.3018970744 11.0169992641 3.39758270169 10.9871153253 3.49301271533 10.9564047821 3.58817993575 10.924869945 3.68307720313 10.8925131866 3.77769737799 10.8593369411 3.87203334165 10.8253437046 3.96607799687 10.7905360344 4.05982426828 10.7549165494 4.15326510298 10.7184879292 4.24639347104 10.6812529146 4.33920236605 10.6432143069 4.43168480563 10.604374968 4.52383383194 10.5647378197 4.61564251227 10.5243058442 4.70710393947 10.4830820834 4.79821123253 10.4410696387 4.8889575371 10.4048937714 4.98250709758 10.419377475 5.10100822172 12.6346804463 6.24858783008 12.6409738528 6.25186776969 12.6595688125 6.2622360353 12.6900093717 6.28046959728 12.7318028866 6.30732323753 12.7844209844 6.34352801089 12.8473005847 6.38978974578 12.9198449806 6.44678758603 13.0014249762 6.51517257629 13.0913800802 6.59556629319 13.1890197535 6.6885595242 13.2936247086 6.79471099643 13.4044482588 6.91454615712 13.5207177164 7.04855600787 13.6416358357 7.19719599436 13.7663823014 7.36088495327 13.8941152573 7.54000411813 14.0239728758 7.73489618559 14.1550749632 7.94586444374 14.2865246015 8.17317196365 14.4174098211 8.4170408558 14.5468053041 8.67765159223 14.6737741153 8.95514239593 14.7973694579 9.24960869817 14.9166364509 9.56110266505 15.0306139273 9.88963279386 14.9116041365 10.0818679854 14.777799829 10.2769952911 14.6354321848 10.4787463356 14.4884772502 10.6810124507 14.3405946262 10.8787566278 14.1963653355 11.0663097399 14.0503148518 11.2388987181 13.7026431548 11.2320210893 13.3695392601 11.2148483679 13.0512921033 11.1882973036 12.7481471458 11.1532921625 12.4603062034 11.1107628917 12.1879273473 11.0616432828 11.9311248771 11.0068691343 11.6899693674 10.9473764168 11.4644877858 10.8840994435 11.2546636827 10.8179690493 11.0604374538 10.7499107804 10.8817066723 10.6808430969 10.7183264922 10.611675593 10.5701101213 10.5433072345 10.4368293631 10.4766246193 10.3182152264 10.4125002604 10.2139586022 10.3517908973 10.1237110066 10.2953358351 10.047085388 10.243955316 9.98365699847 10.1984489246 9.93296432642 10.1595940301 9.89451009051 10.1281442666 9.86776229246 10.1048280549 9.85215532736 10.0903471676 9.84709114985 10.0853753394 8.19392281702 8.39220292109 8.00090115129 8.33798398792 7.90989561406 8.38757368818 7.83684701796 8.45586600042 7.76320882471 8.52352214427 7.68898657442 8.59053702968 7.61418585112 8.65690561486 7.53881228236 8.72262290663 7.46287153881 8.78768396082 7.38636933377 8.85208388263 7.30931142282 8.915817827 7.23170360333 8.97888099897 7.15355171404 9.04126865404 7.07486163463 9.10297609855 6.99563928528 9.16399869 6.91589062618 9.22433183741 6.83562165715 9.28397100169 6.75483841715 9.34291169595 6.67354698381 9.40114948583 6.59175347301 9.45867998988 6.50946403841 9.51549887986 6.42668487097 9.57160188105 6.34342219849 9.62698477259 6.25968228515 9.68164338782 6.17547143104 9.73557361455 6.09079597168 9.7887713954 6.00566227754 9.84123272808 5.92007675356 9.89295366571 5.83404583868 9.94393031714 5.74757600536 9.99415884718 5.66067375906 10.0436354769 5.57334563777 10.0923564841 5.48909169434 10.146776027 5.43115604352 10.2511587577 6.54884342539 12.4816925792 6.55200699809 12.4880452776 6.56095632283 12.5073632237 6.5748658337 12.540006997 6.59289332382 12.58629766 6.61418162728 12.6465160788 6.63786032704 12.7209023103 6.66304748626 12.8096550577 6.68885140032 12.9129311953 6.71437236703 13.030845362 6.73870447233 13.1634696263 6.7609373888 13.3108332212 6.78015818417 13.4729223512 6.79545313731 13.6496800703 6.80590955882 13.8410062327 6.81061761353 14.046757515 6.80867214213 14.2667475111 6.79917447924 14.5007468988 6.78123426516 14.7484836785 6.75397124852 15.0096434838 6.71651707715 15.2838699638 6.66801707442 15.5707652351 6.60763199843 15.8698904058 6.5345397812 16.1807661682 6.44793724548 16.5028734606 6.34704179627 16.8356541977 6.13776784245 16.9212235347 5.91482493115 17.0004366424 5.68106079895 17.0799750643 5.44328271992 17.1572338456 5.20741205291 17.23028902 4.98048715239 17.297246825 4.76088457294 17.3510279209 4.48365483034 17.1411075063 4.22426199105 16.931420926 3.98240095674 16.7228796784 3.7577270401 16.516375789 3.54985690424 16.3127802252 3.3583695624 16.1129413522 3.18280743652 15.9176834305 3.02267747291 15.7278051589 2.87745231312 15.5440782638 2.74657151832 15.3672461377 2.62944284518 15.1980225286 2.52544357125 15.0370902814 2.43392186775 14.8851001348 2.3541982177 14.7426695741 2.28556687714 14.610381741 2.2272973772 14.4887844047 2.17863606475 14.3783889921 2.13880767917 14.2796696815 2.10701696297 14.1930625598 2.08245030365 14.1189648439 2.06427740444 14.0577341689 2.05165298127 14.009687943 2.04371848343 13.9751027703 2.0396038354 13.9542139425 2.03842919703 13.9472150001 1.6962096983 11.6057017737 1.57192097976 11.4483824468 1.46914785908 11.4350096444 1.36990908943 11.4473223981 1.27056725608 11.4587739243 1.17112983291 11.4693633613 1.07160430098 11.4790899126 0.97199814801 11.4879528464 0.872318867753 11.4959514958 0.772573959482 11.5030852591 0.672770927402 11.5093535995 0.572917280092 11.5147560456 0.473020529938 11.5192921909 0.373088192571 11.522961694 0.273127786296 11.5257642789 0.173146831533 11.5276997348 0.0731528502462 11.528767916 -0.0268466346206 11.5289687422 -0.126844099708 11.5283021983 -0.226832021811 11.5267683344 -0.326802878439 11.5243672659 -0.426749148387 11.5210991734 -0.526663312302 11.516964303 -0.626537853243 11.5119629655 -0.726365257252 11.5060955373 -0.826138013917 11.4993624598 -0.925848616937 11.4917642396 -1.02548956469 11.4833014483 -1.12505336078 11.4739747226 -1.22453251464 11.4637847642 -1.32391954205 11.4527323398 -1.42320696574 11.4408182807 -1.5233568426 11.4353213904 -1.63158239836 11.4857150723 -2.03842919703 13.9472150001 -2.0396038354 13.9542139425 -2.04371848343 13.9751027703 -2.05165298127 14.009687943 -2.06427740444 14.0577341689 -2.08245030365 14.1189648439 -2.10701696297 14.1930625598 -2.13880767917 14.2796696815 -2.17863606475 14.3783889921 -2.2272973772 14.4887844047 -2.28556687714 14.610381741 -2.3541982177 14.7426695741 -2.43392186775 14.8851001348 -2.52544357125 15.0370902814 -2.62944284518 15.1980225286 -2.74657151832 15.3672461377 -2.87745231312 15.5440782638 -3.02267747291 15.7278051589 -3.18280743652 15.9176834305 -3.3583695624 16.1129413522 -3.54985690424 16.3127802252 -3.7577270401 16.516375789 -3.98240095674 16.7228796784 -4.22426199105 16.931420926 -4.48365483034 17.1411075063 -4.76088457294 17.3510279209 -4.98048715239 17.297246825 -5.20741205291 17.23028902 -5.44328271992 17.1572338456 -5.68106079895 17.0799750643 -5.91482493115 17.0004366424 -6.13776784245 16.9212235347 -6.34704179627 16.8356541977 -6.44793724548 16.5028734606 -6.5345397812 16.1807661682 -6.60763199843 15.8698904058 -6.66801707442 15.5707652351 -6.71651707715 15.2838699638 -6.75397124852 15.0096434838 -6.78123426516 14.7484836785 -6.79917447924 14.5007468988 -6.80867214213 14.2667475111 -6.81061761353 14.046757515 -6.80590955882 13.8410062327 -6.79545313731 13.6496800703 -6.78015818417 13.4729223512 -6.7609373888 13.3108332212 -6.73870447233 13.1634696263 -6.71437236703 13.030845362 -6.68885140032 12.9129311953 -6.66304748626 12.8096550577 -6.63786032704 12.7209023103 -6.61418162728 12.6465160788 -6.59289332382 12.58629766 -6.5748658337 12.540006997 -6.56095632283 12.5073632237 -6.55200699809 12.4880452776 -6.54884342539 12.4816925792 -5.44939787312 10.386217012 -5.45747957842 10.1858879273 -5.53276444357 10.1146605782 -5.62028754976 10.0662907199 -5.70738781938 10.0171635346 -5.79405869954 9.96728271829 -5.88029366964 9.91665202368 -5.96608624188 9.86527525994 -6.05142996175 9.81315629235 -6.1363184085 9.76029904201 -6.22074519564 9.7067074856 -6.3047039714 9.65238565501 -6.38818841922 9.5973376371 -6.47119225825 9.54156757335 -6.55370924378 9.48507965955 -6.63573316771 9.42787814553 -6.71725785908 9.36996733477 -6.79827718445 9.31135158414 -6.87878504841 9.25203530353 -6.95877539404 9.19202295555 -7.03824220335 9.13131905515 -7.11717949773 9.06992816935 -7.19558133842 9.0078549168 -7.27344182694 8.94510396754 -7.35075510552 8.88168004257 -7.4275153576 8.81758791352 -7.50371680818 8.75283240229 -7.57935372433 8.68741838071 -7.65442041558 8.62135077012 -7.72891123438 8.55463454106 -7.80282057647 8.48727471285 -7.87614288137 8.41927635324 -7.95393484267 8.35596265492 -8.07111181952 8.33311861436 -9.84709114985 10.0853753394 -9.85215532736 10.0903471676 -9.86776229246 10.1048280549 -9.89451009051 10.1281442666 -9.93296432642 10.1595940301 -9.98365699847 10.1984489246 -10.047085388 10.243955316 -10.1237110066 10.2953358351 -10.2139586022 10.3517908973 -10.3182152264 10.4125002604 -10.4368293631 10.4766246193 -10.5701101213 10.5433072345 -10.7183264922 10.611675593 -10.8817066723 10.6808430969 -11.0604374538 10.7499107804 -11.2546636827 10.8179690493 -11.4644877858 10.8840994435 -11.6899693674 10.9473764168 -11.9311248771 11.0068691343 -12.1879273473 11.0616432828 -12.4603062034 11.1107628917 -12.7481471458 11.1532921625 -13.0512921033 11.1882973036 -13.3695392601 11.2148483679 -13.7026431548 11.2320210893 -14.0503148518 11.2388987181 -14.1963653355 11.0663097399 -14.3405946262 10.8787566278 -14.4884772502 10.6810124507 -14.6354321848 10.4787463356 -14.777799829 10.2769952911 -14.9116041365 10.0818679854 -15.0306139273 9.88963279386 -14.9166364509 9.56110266505 -14.7973694579 9.24960869817 -14.6737741153 8.95514239593 -14.5468053041 8.67765159223 -14.4174098211 8.4170408558 -14.2865246015 8.17317196365 -14.1550749632 7.94586444374 -14.0239728758 7.73489618559 -13.8941152573 7.54000411813 -13.7663823014 7.36088495327 -13.6416358357 7.19719599436 -13.5207177164 7.04855600787 -13.4044482588 6.91454615712 -13.2936247086 6.79471099643 -13.1890197535 6.6885595242 -13.0913800802 6.59556629319 -13.0014249762 6.51517257629 -12.9198449806 6.44678758603 -12.8473005847 6.38978974578 -12.7844209844 6.34352801089 -12.7318028866 6.30732323753 -12.6900093717 6.28046959728 -12.6595688125 6.2622360353 -12.6409738528 6.25186776969 -12.6346804463 6.24858783008 -10.5135206752 5.19955036629 -10.4023084305 5.03273042508 -10.4213487805 4.93085495575 -10.4637253715 4.84027812735 -10.5053147348 4.74933714559 -10.5461137416 4.65803885233 -10.5861193223 4.5663901163 -10.6253284672 4.4743978326 -10.6637382264 4.38206892217 -10.7013457102 4.28941033128 -10.7381480893 4.19642903101 -10.7741425948 4.10313201671 -10.8093265188 4.00952630748 -10.8436972142 3.91561894566 -10.8772520951 3.82141699627 -10.9099886372 3.7269275465 -10.9419043774 3.63215770515 -10.9729969148 3.53711460216 -11.0032639099 3.44180538797 -11.0327030858 3.34623723309 -11.0613122276 3.25041732749 -11.089089183 3.15435288008 -11.1160318621 3.05805111816 -11.1421382379 2.96151928691 -11.1674063465 2.8647646488 -11.1918342866 2.76779448306 -11.2154202206 2.67061608515 -11.238162374 2.57323676617 -11.2600590358 2.47566385237 -11.2811085586 2.37790468454 -11.3013093588 2.27996661749 -11.3206599166 2.1818570195 -11.3463800771 2.08491019398 -11.4277508526 1.99755407805 -13.8944989737 2.37126508839 -13.9015183467 2.37231073305 -13.9226562987 2.37485247301 -13.9580006472 2.37799372326 -14.0075964847 2.38083428365 -14.0714460519 2.3824721486 -14.1495086827 2.38200532063 -14.2417008217 2.37853362528 -14.3478961133 2.37116052427 -14.4679255623 2.35899492456 -14.6015777672 2.34115298034 -14.7485992234 2.31675988524 -14.9086946991 2.28495165216 -15.0815276801 2.24487687792 -15.2667208855 2.19569849009 -15.4638568522 2.13659547334 -15.6724785878 2.06676457269 -15.892090291 1.98542197105 -16.1221581386 1.8918049385 -16.3621111379 1.78517345076 -16.6113420431 1.66481177441 -16.8692083353 1.53003001633 -17.1350332634 1.38016563512 -17.4081069457 1.21458491192 -17.6876875298 1.03268437863 -17.9730024099 0.83389220102 -17.9897144772 0.608418464221 -17.9961574711 0.371908959203 -17.9995659161 0.125007333923 -17.9995659161 -0.125007333923 -17.9961574711 -0.371908959203 -17.9897144772 -0.608418464221 -17.9730024099 -0.83389220102 -17.6876875298 -1.03268437863 -17.4081069457 -1.21458491192 -17.1350332634 -1.38016563512 -16.8692083353 -1.53003001633 -16.6113420431 -1.66481177441 -16.3621111379 -1.78517345076 -16.1221581386 -1.8918049385 -15.892090291 -1.98542197105 -15.6724785878 -2.06676457269 -15.4638568522 -2.13659547334 -15.2667208855 -2.19569849009 -15.0815276801 -2.24487687792 -14.9086946991 -2.28495165216 -14.7485992234 -2.31675988524 -14.6015777672 -2.34115298034 -14.4679255623 -2.35899492456 -14.3478961133 -2.37116052427 -14.2417008217 -2.37853362528 -14.1495086827 -2.38200532063 -14.0714460519 -2.3824721486 -14.0075964847 -2.38083428365 -13.9580006472 -2.37799372326 -13.9226562987 -2.37485247301 -13.9015183467 -2.37231073305 -13.8944989737 -2.37126508839 -11.5618359208 -1.97316779314 -11.3738090237 -2.04275904328 -11.3293320919 -2.13636966619 -11.3103757503 -2.23455619487 -11.2905684841 -2.33257460901 -11.2699117835 -2.4304175343 -11.2484072028 -2.52807760962 -11.2260563597 -2.62554748761 -11.2028609357 -2.72281983524 -11.178822676 -2.81988733431 -11.1539433891 -2.91674268205 -11.1282249467 -3.01337859165 -11.1016692837 -3.10978779281 -11.074278398 -3.20596303227 -11.0460543503 -3.3018970744 -11.0169992641 -3.39758270169 -10.9871153253 -3.49301271533 -10.9564047821 -3.58817993575 -10.924869945 -3.68307720313 -10.8925131866 -3.77769737799 -10.8593369411 -3.87203334165 -10.8253437046 -3.96607799687 -10.7905360344 -4.05982426828 -10.7549165494 -4.15326510298 -10.7184879292 -4.24639347104 -10.6812529146 -4.33920236605 -10.6432143069 -4.43168480563 -10.604374968 -4.52383383194 -10.5647378197 -4.61564251227 -10.5243058442 -4.70710393947 -10.4830820834 -4.79821123253 -10.4410696387 -4.8889575371 -10.4048937714 -4.98250709758 -10.419377475 -5.10100822172 -12.6346804463 -6.24858783008 -12.6409738528 -6.25186776969 -12.6595688125 -6.2622360353 -12.6900093717 -6.28046959728 -12.7318028866 -6.30732323753 -12.7844209844 -6.34352801089 -12.8473005847 -6.38978974578 -12.9198449806 -6.44678758603 -13.0014249762 -6.51517257629 -13.0913800802 -6.59556629319 -13.1890197535 -6.6885595242 -13.2936247086 -6.79471099643 -13.4044482588 -6.91454615712 -13.5207177164 -7.04855600787 -13.6416358357 -7.19719599436 -13.7663823014 -7.36088495327 -13.8941152573 -7.54000411813 -14.0239728758 -7.73489618559 -14.1550749632 -7.94586444374 -14.2865246015 -8.17317196365 -14.4174098211 -8.4170408558 -14.5468053041 -8.67765159223 -14.6737741153 -8.95514239593 -14.7973694579 -9.24960869817 -14.9166364509 -9.56110266505 -15.0306139273 -9.88963279386 -14.9116041365 -10.0818679854 -14.777799829 -10.2769952911 -14.6354321848 -10.4787463356 -14.4884772502 -10.6810124507 -14.3405946262 -10.8787566278 -14.1963653355 -11.0663097399 -14.0503148518 -11.2388987181 -13.7026431548 -11.2320210893 -13.3695392601 -11.2148483679 -13.0512921033 -11.1882973036 -12.7481471458 -11.1532921625 -12.4603062034 -11.1107628917 -12.1879273473 -11.0616432828 -11.9311248771 -11.0068691343 -11.6899693674 -10.9473764168 -11.4644877858 -10.8840994435 -11.2546636827 -10.8179690493 -11.0604374538 -10.7499107804 -10.8817066723 -10.6808430969 -10.7183264922 -10.611675593 -10.5701101213 -10.5433072345 -10.4368293631 -10.4766246193 -10.3182152264 -10.4125002604 -10.2139586022 -10.3517908973 -10.1237110066 -10.2953358351 -10.047085388 -10.243955316 -9.98365699847 -10.1984489246 -9.93296432642 -10.1595940301 -9.89451009051 -10.1281442666 -9.86776229246 -10.1048280549 -9.85215532736 -10.0903471676 -9.84709114985 -10.0853753394 -8.19392281702 -8.39220292109 -8.00090115129 -8.33798398792 -7.90989561406 -8.38757368818 -7.83684701796 -8.45586600042 -7.76320882471 -8.52352214427 -7.68898657442 -8.59053702968 -7.61418585112 -8.65690561486 -7.53881228236 -8.72262290663 -7.46287153881 -8.78768396082 -7.38636933377 -8.85208388263 -7.30931142282 -8.915817827 -7.23170360333 -8.97888099897 -7.15355171404 -9.04126865404 -7.07486163463 -9.10297609855 -6.99563928528 -9.16399869 -6.91589062618 -9.22433183741 -6.83562165715 -9.28397100169 -6.75483841715 -9.34291169595 -6.67354698381 -9.40114948583 -6.59175347301 -9.45867998988 -6.50946403841 -9.51549887986 -6.42668487097 -9.57160188105 -6.34342219849 -9.62698477259 -6.25968228515 -9.68164338782 -6.17547143104 -9.73557361455 -6.09079597168 -9.7887713954 -6.00566227754 -9.84123272808 -5.92007675356 -9.89295366571 -5.83404583868 -9.94393031714 -5.74757600536 -9.99415884718 -5.66067375906 -10.0436354769 -5.57334563777 -10.0923564841 -5.48909169434 -10.146776027 -5.43115604352 -10.2511587577 -6.54884342539 -12.4816925792 -6.55200699809 -12.4880452776 -6.56095632283 -12.5073632237 -6.5748658337 -12.540006997 -6.59289332382 -12.58629766 -6.61418162728 -12.6465160788 -6.63786032704 -12.7209023103 -6.66304748626 -12.8096550577 -6.68885140032 -12.9129311953 -6.71437236703 -13.030845362 -6.73870447233 -13.1634696263 -6.7609373888 -13.3108332212 -6.78015818417 -13.4729223512 -6.79545313731 -13.6496800703 -6.80590955882 -13.8410062327 -6.81061761353 -14.046757515 -6.80867214213 -14.2667475111 -6.79917447924 -14.5007468988 -6.78123426516 -14.7484836785 -6.75397124852 -15.0096434838 -6.71651707715 -15.2838699638 -6.66801707442 -15.5707652351 -6.60763199843 -15.8698904058 -6.5345397812 -16.1807661682 -6.44793724548 -16.5028734606 -6.34704179627 -16.8356541977 -6.13776784245 -16.9212235347 -5.91482493115 -17.0004366424 -5.68106079895 -17.0799750643 -5.44328271992 -17.1572338456 -5.20741205291 -17.23028902 -4.98048715239 -17.297246825 -4.76088457294 -17.3510279209 -4.48365483034 -17.1411075063 -4.22426199105 -16.931420926 -3.98240095674 -16.7228796784 -3.7577270401 -16.516375789 -3.54985690424 -16.3127802252 -3.3583695624 -16.1129413522 -3.18280743652 -15.9176834305 -3.02267747291 -15.7278051589 -2.87745231312 -15.5440782638 -2.74657151832 -15.3672461377 -2.62944284518 -15.1980225286 -2.52544357125 -15.0370902814 -2.43392186775 -14.8851001348 -2.3541982177 -14.7426695741 -2.28556687714 -14.610381741 -2.2272973772 -14.4887844047 -2.17863606475 -14.3783889921 -2.13880767917 -14.2796696815 -2.10701696297 -14.1930625598 -2.08245030365 -14.1189648439 -2.06427740444 -14.0577341689 -2.05165298127 -14.009687943 -2.04371848343 -13.9751027703 -2.0396038354 -13.9542139425 -2.03842919703 -13.9472150001 -1.6962096983 -11.6057017737 -1.57192097976 -11.4483824468 -1.46914785908 -11.4350096444 -1.36990908943 -11.4473223981 -1.27056725608 -11.4587739243 -1.17112983291 -11.4693633613 -1.07160430098 -11.4790899126 -0.97199814801 -11.4879528464 -0.872318867753 -11.4959514958 -0.772573959482 -11.5030852591 -0.672770927402 -11.5093535995 -0.572917280092 -11.5147560456 -0.473020529938 -11.5192921909 -0.373088192571 -11.522961694 -0.273127786296 -11.5257642789 -0.173146831533 -11.5276997348 -0.0731528502462 -11.528767916 0.0268466346206 -11.5289687422 0.126844099708 -11.5283021983 0.226832021811 -11.5267683344 0.326802878439 -11.5243672659 0.426749148387 -11.5210991734 0.526663312302 -11.516964303 0.626537853243 -11.5119629655 0.726365257252 -11.5060955373 0.826138013917 -11.4993624598 0.925848616937 -11.4917642396 1.02548956469 -11.4833014483 1.12505336078 -11.4739747226 1.22453251464 -11.4637847642 1.32391954205 -11.4527323398 1.42320696574 -11.4408182807 1.5233568426 -11.4353213904 1.63158239836 -11.4857150723 2.03842919703 -13.9472150001 2.0396038354 -13.9542139425 2.04371848343 -13.9751027703 2.05165298127 -14.009687943 2.06427740444 -14.0577341689 2.08245030365 -14.1189648439 2.10701696297 -14.1930625598 2.13880767917 -14.2796696815 2.17863606475 -14.3783889921 2.2272973772 -14.4887844047 2.28556687714 -14.610381741 2.3541982177 -14.7426695741 2.43392186775 -14.8851001348 2.52544357125 -15.0370902814 2.62944284518 -15.1980225286 2.74657151832 -15.3672461377 2.87745231312 -15.5440782638 3.02267747291 -15.7278051589 3.18280743652 -15.9176834305 3.3583695624 -16.1129413522 3.54985690424 -16.3127802252 3.7577270401 -16.516375789 3.98240095674 -16.7228796784 4.22426199105 -16.931420926 4.48365483034 -17.1411075063 4.76088457294 -17.3510279209 4.98048715239 -17.297246825 5.20741205291 -17.23028902 5.44328271992 -17.1572338456 5.68106079895 -17.0799750643 5.91482493115 -17.0004366424 6.13776784245 -16.9212235347 6.34704179627 -16.8356541977 6.44793724548 -16.5028734606 6.5345397812 -16.1807661682 6.60763199843 -15.8698904058 6.66801707442 -15.5707652351 6.71651707715 -15.2838699638 6.75397124852 -15.0096434838 6.78123426516 -14.7484836785 6.79917447924 -14.5007468988 6.80867214213 -14.2667475111 6.81061761353 -14.046757515 6.80590955882 -13.8410062327 6.79545313731 -13.6496800703 6.78015818417 -13.4729223512 6.7609373888 -13.3108332212 6.73870447233 -13.1634696263 6.71437236703 -13.030845362 6.68885140032 -12.9129311953 6.66304748626 -12.8096550577 6.63786032704 -12.7209023103 6.61418162728 -12.6465160788 6.59289332382 -12.58629766 6.5748658337 -12.540006997 6.56095632283 -12.5073632237 6.55200699809 -12.4880452776 6.54884342539 -12.4816925792 5.44939787312 -10.386217012 5.45747957842 -10.1858879273 5.53276444357 -10.1146605782 5.62028754976 -10.0662907199 5.70738781938 -10.0171635346 5.79405869954 -9.96728271829 5.88029366964 -9.91665202368 5.96608624188 -9.86527525994 6.05142996175 -9.81315629235 6.1363184085 -9.76029904201 6.22074519564 -9.7067074856 6.3047039714 -9.65238565501 6.38818841922 -9.5973376371 6.47119225825 -9.54156757335 6.55370924378 -9.48507965955 6.63573316771 -9.42787814553 6.71725785908 -9.36996733477 6.79827718445 -9.31135158414 6.87878504841 -9.25203530353 6.95877539404 -9.19202295555 7.03824220335 -9.13131905515 7.11717949773 -9.06992816935 7.19558133842 -9.0078549168 7.27344182694 -8.94510396754 7.35075510552 -8.88168004257 7.4275153576 -8.81758791352 7.50371680818 -8.75283240229 7.57935372433 -8.68741838071 7.65442041558 -8.62135077012 7.72891123438 -8.55463454106 7.80282057647 -8.48727471285 7.87614288137 -8.41927635324 7.95393484267 -8.35596265492 8.07111181952 -8.33311861436 9.84709114985 -10.0853753394 9.85215532736 -10.0903471676 9.86776229246 -10.1048280549 9.89451009051 -10.1281442666 9.93296432642 -10.1595940301 9.98365699847 -10.1984489246 10.047085388 -10.243955316 10.1237110066 -10.2953358351 10.2139586022 -10.3517908973 10.3182152264 -10.4125002604 10.4368293631 -10.4766246193 10.5701101213 -10.5433072345 10.7183264922 -10.611675593 10.8817066723 -10.6808430969 11.0604374538 -10.7499107804 11.2546636827 -10.8179690493 11.4644877858 -10.8840994435 11.6899693674 -10.9473764168 11.9311248771 -11.0068691343 12.1879273473 -11.0616432828 12.4603062034 -11.1107628917 12.7481471458 -11.1532921625 13.0512921033 -11.1882973036 13.3695392601 -11.2148483679 13.7026431548 -11.2320210893 14.0503148518 -11.2388987181 14.1963653355 -11.0663097399 14.3405946262 -10.8787566278 14.4884772502 -10.6810124507 14.6354321848 -10.4787463356 14.777799829 -10.2769952911 14.9116041365 -10.0818679854 15.0306139273 -9.88963279386 14.9166364509 -9.56110266505 14.7973694579 -9.24960869817 14.6737741153 -8.95514239593 14.5468053041 -8.67765159223 14.4174098211 -8.4170408558 14.2865246015 -8.17317196365 14.1550749632 -7.94586444374 14.0239728758 -7.73489618559 13.8941152573 -7.54000411813 13.7663823014 -7.36088495327 13.6416358357 -7.19719599436 13.5207177164 -7.04855600787 13.4044482588 -6.91454615712 13.2936247086 -6.79471099643 13.1890197535 -6.6885595242 13.0913800802 -6.59556629319 13.0014249762 -6.51517257629 12.9198449806 -6.44678758603 12.8473005847 -6.38978974578 12.7844209844 -6.34352801089 12.7318028866 -6.30732323753 12.6900093717 -6.28046959728 12.6595688125 -6.2622360353 12.6409738528 -6.25186776969 12.6346804463 -6.24858783008 10.5135206752 -5.19955036629 10.4023084305 -5.03273042508 10.4213487805 -4.93085495575 10.4637253715 -4.84027812735 10.5053147348 -4.74933714559 10.5461137416 -4.65803885233 10.5861193223 -4.5663901163 10.6253284672 -4.4743978326 10.6637382264 -4.38206892217 10.7013457102 -4.28941033128 10.7381480893 -4.19642903101 10.7741425948 -4.10313201671 10.8093265188 -4.00952630748 10.8436972142 -3.91561894566 10.8772520951 -3.82141699627 10.9099886372 -3.7269275465 10.9419043774 -3.63215770515 10.9729969148 -3.53711460216 11.0032639099 -3.44180538797 11.0327030858 -3.34623723309 11.0613122276 -3.25041732749 11.089089183 -3.15435288008 11.1160318621 -3.05805111816 11.1421382379 -2.96151928691 11.1674063465 -2.8647646488 11.1918342866 -2.76779448306 11.2154202206 -2.67061608515 11.238162374 -2.57323676617 11.2600590358 -2.47566385237 11.2811085586 -2.37790468454 11.3013093588 -2.27996661749 11.3206599166 -2.1818570195 11.3463800771 -2.08491019398 11.4277508526 -1.99755407805 Z" /></svg>