<?xml version="1.0" encoding="utf-8" ?>
<svg baseProfile="full" height="156.73489051147922mm" version="1.1" viewBox="-78.47016116585849 -78.36744525573961 156.94032233171697 156.73489051147922" width="156.94032233171697mm" xmlns="http://www.w3.org/2000/svg" xmlns:ev="http://www.w3.org/2001/xml-events" xmlns:xlink="http://www.w3.org/1999/xlink"><defs /><path d="M 71.9122717698 -3.55319136839 71.9123095908 -3.55242583593 71.9125735633 -3.54707816519 71.9132851991 -3.53262110611 71.9146544904 -3.50463543342 71.9168706843 -3.45885978089 71.920091209 -3.39123583452 72.1190073754 -3.30686978029 72.6417857924 -3.20688082623 73.230379743 -3.07484324563 73.8832122172 -2.9064955959 74.5985025931 -2.69764643927 75.3742695604 -2.44418295428 76.2083343852 -2.1420794301 77.0983245116 -1.78740563059 78.0416774936 -1.37633501541 78.4658544208 -0.898627297196 78.4701611659 -0.36283274962 78.4701611659 0.36283274962 78.4658544208 0.898627297196 78.0416774936 1.37633501541 77.0983245116 1.78740563059 76.2083343852 2.1420794301 75.3742695604 2.44418295428 74.5985025931 2.69764643927 73.8832122172 2.9064955959 73.230379743 3.07484324563 72.6417857924 3.20688082623 72.1190073754 3.30686978029 71.920091209 3.39123583452 71.9168706843 3.45885978089 71.9146544904 3.50463543342 71.9132851991 3.53262110611 71.9125735633 3.54707816519 71.9123095908 3.55242583593 71.9122717698 3.55319136839 71.9122717698 3.55319136839 71.9072674236 3.65306606444 71.9021243674 3.75293371368 71.8968426111 3.85279412347 71.8914221649 3.95264710117 71.8858630393 4.05249245417 71.880165245 4.15232998986 71.8743287931 4.25215951565 71.8683536946 4.35198083898 71.8622399613 4.45179376729 71.8559876048 4.55159810803 71.8495966373 4.65139366869 71.843067071 4.75118025675 71.8363989186 4.85095767972 71.8295921929 4.95072574514 71.822646907 5.05048426056 71.8155630745 5.15023303352 71.8083407088 5.24997187163 71.8009798239 5.34970058247 71.7934804342 5.44941897368 71.7905549915 5.48782416071 71.7904965675 5.48858839694 71.7900882176 5.49392698422 71.788982292 5.50835923668 71.7868332512 5.53629585171 71.7832947592 5.58198831227 71.7780143613 5.64948266242 71.9647881438 5.75811427144 72.470912358 5.92283629218 73.0383163725 6.1276031001 73.6649015124 6.3764448833 74.3483758699 6.67329685771 75.0862582847 7.0219910899 75.8758826478 7.42624847906 76.7144025221 7.88967091011 77.5987960745 8.41573359033 77.959755587 8.94283790639 77.8968755089 9.47494733221 77.8059255054 10.1948907422 77.7344998571 10.7259206115 77.2537950386 11.1466979958 76.2663598673 11.4362937168 75.3389351647 11.676625467 74.4735835786 11.8718107732 73.6721663675 12.0260462404 72.9363405297 12.1435989033 72.2675562792 12.2287974766 71.6670548707 12.2860235183 71.1358667788 12.3197025202 70.9279452554 12.3784725165 70.9162745976 12.4451595891 70.9083386686 12.4902965242 70.9034726396 12.5178899038 70.9009546653 12.532143773 70.9000225335 12.5374161912 70.8998890641 12.538170947 70.8998890641 12.538170947 70.88240656 12.6366308904 70.8647873229 12.7350664575 70.8470313868 12.8334774585 70.8291387859 12.9318637036 70.8111095547 13.030225003 70.7929437281 13.1285611669 70.774641341 13.2268720057 70.7562024288 13.3251573297 70.737627027 13.4234169493 70.7189151714 13.5216506749 70.7000668983 13.6198583171 70.6810822438 13.7180396865 70.6619612447 13.8161945936 70.6427039379 13.9143228491 70.6233103604 14.0124242637 70.6037805496 14.1104986481 70.5841145434 14.2085458132 70.5643123795 14.3065655699 70.5443740962 14.4045577291 70.5366582753 14.4422934245 70.5365045278 14.4430443121 70.5354302955 14.4482896232 70.5325242495 14.4624694638 70.5268907683 14.489916444 70.5176533945 14.5348051152 70.5039553489 14.6011054429 70.6756412136 14.7322894214 71.1571293436 14.9591467441 71.6943951219 15.2334134845 72.2848513055 15.5588250176 72.9257308457 15.9389982768 73.6140918616 16.3774241399 74.3468229149 16.8774600135 75.1206485778 17.4423226275 75.9321352862 18.07508105 76.2241848367 18.643269214 76.0951095919 19.1633018346 75.9146439207 19.8661692177 75.7772257944 20.3840597504 75.2475740868 20.74127089 74.2316291686 20.9048246193 73.2813959314 21.0270241451 72.3984046954 21.1122130443 71.5839760685 21.1647881083 70.8392191819 21.1891904018 70.1650302823 21.1898962661 69.562091682 21.1714082802 69.0308710686 21.1382461919 68.8172232349 21.1704932924 68.7972864972 21.2351917962 68.7837559873 21.2789781774 68.775469961 21.3057440998 68.7711853581 21.3195699872 68.7695997672 21.3246840037 68.7693727543 21.3254160799 68.7693727543 21.3254160799 68.7396878019 21.4209084984 68.7098702498 21.5163595957 68.6799201556 21.6117691877 68.6498375769 21.7071370904 68.6196225719 21.8024631197 68.5892751988 21.8977470918 68.5587955162 21.9929888229 68.5281835829 22.0881881292 68.4974394578 22.1833448272 68.4665632004 22.2784587332 68.4355548701 22.3735296638 68.4044145269 22.4685574356 68.3731422306 22.5635418653 68.3417380418 22.6584827697 68.310202021 22.7533799655 68.2785342289 22.8482332698 68.2467347267 22.9430424996 68.2148035758 23.037807472 68.1827408377 23.1325280042 68.1703563215 23.1689990936 68.1701096752 23.1697247905 68.1683865017 23.1747941038 68.1637261655 23.188497908 68.1546970872 23.2150223982 68.1399065105 23.2583993589 68.1180068437 23.3224600683 68.2718972019 23.4741275665 68.7211558923 23.7595425158 69.219810432 24.0989838382 69.7648258126 24.495833187 70.3530034823 24.9533321716 70.9809872349 25.4745754277 71.6452693721 26.0625039214 72.3421971305 26.7198984975 73.0679793647 27.449373684 73.2865131574 28.0496850292 73.0932783395 28.5494396194 72.8261430522 29.2241463372 72.6248996137 29.7207300902 72.0546539409 30.0087415521 71.0262213341 30.0436739496 70.068165308 30.0458140914 69.1814597215 30.0196631039 68.3668637048 29.9697486245 67.6249210304 29.9006157098 66.9559598433 29.8168177334 66.360092753 29.7229072863 65.8372172846 29.6234270937 65.6212124945 29.6286427424 65.5933240912 29.6903323434 65.5744123847 29.7320776334 65.5628370366 29.757593984 65.5568533759 29.770773847 65.5546393316 29.7756488107 65.5543223553 29.776346662 65.5543223553 29.776346662 65.512903104 29.8673655832 65.4713574776 29.9583268899 65.4296855561 30.0492304066 65.38788742 30.140075958 65.3459631498 30.2308633688 65.3039128265 30.321592464 65.2617365311 30.4122630684 65.2194343451 30.5028750071 65.17700635 30.5934281055 65.1344526277 30.6839221888 65.0917732602 30.7743570824 65.04896833 30.8647326119 65.0060379194 30.955048603 64.9629821115 31.0453048814 64.9198009892 31.1355012731 64.8764946358 31.225637604 64.8330631348 31.3157137003 64.7895065701 31.4057293881 64.7458250257 31.495684494 64.7289671255 31.5303158065 64.7286314702 31.5310048681 64.726286531 31.5358182374 64.7199454009 31.548829888 64.7076631195 31.5740135811 64.6875525961 31.6151947507 64.6577966789 31.6760055663 64.7914645876 31.8457646971 65.2014087606 32.1852361087 65.6535879818 32.5844988208 66.1445673412 33.0465274339 66.6707672272 33.5741371116 67.2284700376 34.1699774433 67.8138271324 34.8365265735 68.4228660194 35.5760856065 69.0514977599 36.3907732976 69.1930693863 37.0137405553 68.938722424 37.4853356868 68.5891304035 38.1212412112 68.3272353822 38.5886867621 67.725388859 38.8029564336 66.7006875601 38.7087165946 65.7499178611 38.590763601 64.8734818008 38.4536851435 64.0715650601 38.3020683019 63.344137477 38.1404904463 62.69095392 37.9735101733 62.1115555197 37.8056582889 61.6052712547 37.6414288542 61.3903160328 37.6195307971 61.3549157808 37.6772386134 61.3309211266 37.7162844639 61.3162390068 37.7401488347 61.3086506542 37.752474819 61.3058430734 37.7570338489 61.3054411325 37.7576864697 61.3054411325 37.7576864697 61.2529407887 37.8427964708 61.2003222872 37.9278334728 61.1475857296 38.0127973114 61.0947312176 38.097687823 61.041758853 38.1825048436 60.9886687382 38.2672482097 60.9354609755 38.3519177578 60.8821356676 38.4365133247 60.8286929173 38.521034747 60.7751328277 38.6054818618 60.7214555021 38.6898545061 60.6676610441 38.7741525173 60.6137495575 38.8583757326 60.5597211463 38.9425239897 60.5055759146 39.0265971262 60.4513139669 39.1105949799 60.3969354079 39.1945173887 60.3424403425 39.2783641909 60.2878288758 39.3621352247 60.2667634508 39.3943806039 60.2663440799 39.3950221632 60.2634143561 39.3995036789 60.2554924355 39.4116179744 60.2401506498 39.4350637085 60.2150373348 39.4733996353 60.1778944357 39.5300015341 60.2892318722 39.7151750948 60.6533964633 40.1033493016 61.0519692295 40.5561367919 61.4811695299 41.0760582021 61.9370931457 41.6654578532 62.4157197074 42.3264985025 62.9129203289 43.0611563911 63.4244654373 43.8712165934 63.9460327861 44.7582686775 64.0084095771 45.394067282 63.6969616738 45.8300656177 63.2704261952 46.4171413389 62.952009832 46.8480767921 62.3280539375 46.9852255123 61.3232440982 46.7632996554 60.3947549324 46.5271137156 59.5424103185 46.2812695973 58.7658195599 46.0303414815 58.0643790356 45.7788668645 57.4372742037 45.5313376734 56.8834819523 45.2921914763 56.401773296 45.0658027956 56.1912576145 45.0171363783 56.1489037969 45.0699523231 56.1202046049 45.1056829579 56.1026472593 45.1275189934 56.0935738877 45.1387967109 56.0902170475 45.1429679083 56.089736481 45.1435650065 56.089736481 45.1435650065 56.0269830064 45.2214238519 55.9641214551 45.2991954648 55.9011519484 45.3768796949 55.8380746076 45.4544763925 55.7748895545 45.5319854078 55.711596911 45.6094065914 55.6481967992 45.6867397939 55.5846893413 45.7639848662 55.5210746599 45.8411416591 55.4573528776 45.918210024 55.3935241175 45.995189812 55.3295885026 46.0720808748 55.2655461562 46.148883064 55.2013972019 46.2255962315 55.1371417635 46.3022202292 55.0727799649 46.3787549094 55.0083119302 46.4552001243 54.9437377838 46.5315557267 54.8790576503 46.6078215691 54.8541169149 46.637172486 54.8536204421 46.6377564254 54.8501521372 46.6418354112 54.8407743595 46.6528613019 54.8226150187 46.6741993238 54.792894964 46.7090854274 54.7489508487 46.7605857637 54.8362019552 46.9582534565 55.1488438712 47.3890087195 55.4875244518 47.8881802588 55.8481769481 48.4577949949 56.2266341058 49.0996894346 56.618636192 49.8155053957 57.0198391894 50.606686049 57.4258231473 51.4744722872 57.8321006757 52.419899423 57.8142989122 53.0585024506 57.4506617873 53.4520280364 56.9539095699 53.9810154193 56.5839934809 54.3686446654 55.9477683726 54.4265095171 54.9786964442 54.0803975456 54.0871306403 53.729703453 53.2723194566 53.3789707824 52.5333019802 53.0326886789 51.8689106509 52.6952832052 51.2777743618 52.3711087794 50.7583218938 52.0644397479 50.3087856796 51.7794621061 50.1060294966 51.7047948268 50.0573900583 51.7518859613 50.0244389321 51.7837378868 50.0042832504 51.8032012198 49.9938679523 51.813252814 49.9900147921 51.8169703966 49.9894631788 51.8175025556 49.9894631788 51.8175025556 49.9174462332 51.8868823649 49.8453329963 51.9561620839 49.7731236072 52.0253415787 49.7008182051 52.0944207161 49.6284169295 52.1633993627 49.5559199201 52.2322773855 49.4833273167 52.3010546516 49.4106392594 52.3697310283 49.3378558884 52.4383063832 49.2649773441 52.5067805839 49.192003767 52.5751534984 49.118935298 52.6434249949 49.0457720779 52.7115949415 48.972514248 52.7796632069 48.8991619495 52.8476296596 48.8257153239 52.9154941686 48.752174513 52.983256603 48.6785396585 53.050916832 48.6048109025 53.1184747252 48.5763881869 53.1444682984 48.575822442 53.1449854087 48.5718702532 53.1485975366 48.5611845115 53.1583611377 48.5404939992 53.1772549339 48.5066359079 53.2081410397 48.4565836014 53.2537276224 48.5183723758 53.4607721096 48.7745610669 53.927315161 49.0480082668 54.464998516 49.3344252537 55.0753234133 49.629447458 55.759589583 49.9286429616 56.5188920104 50.2275211239 57.354118037 50.5215413217 58.2659448037 50.8061217905 59.2548370405 50.7084222167 59.8861733398 50.2983306451 60.2310200422 49.7391957681 60.6935766399 49.3236137511 61.031786534 48.6851530788 61.009454954 47.7671019046 60.5446152604 46.9265199879 60.0849436704 46.1620922935 59.6348537112 45.4723028464 59.1986786955 44.8554385603 58.7806634511 44.3095933864 58.3849562149 43.8326727776 58.0156007028 43.4223984601 57.6765283675 43.2305993617 57.577037774 43.1764413757 57.6176614427 43.1397579741 57.6451323351 43.1173218235 57.6619160171 43.1057288543 57.6705829686 43.1014401408 57.6737883079 43.10082618 57.6742471351 43.10082618 57.6742471351 43.0206815137 57.7340537473 42.94045386 57.7937489898 42.8601433737 57.8533327475 42.7797502096 57.9128049053 42.6992745229 57.9721653487 42.6187164687 58.0314139631 42.5380762026 58.0905506342 42.45735388 58.1495752479 42.3765496566 58.2084876904 42.2956636884 58.267287848 42.2146961313 58.3259756073 42.1336471415 58.3845508551 42.0525168755 58.4430134784 41.9713054896 58.5013633644 41.8900131406 58.5596004006 41.8086399853 58.6177244746 41.7271861805 58.6757354743 41.6456518836 58.7336332879 41.5640372516 58.7914178035 41.5325807991 58.8136440987 41.5319547041 58.8140862248 41.5275809599 58.8171745294 41.5157557747 58.825521863 41.4928603928 58.8416734672 41.4553982271 58.8680724828 41.4000270842 58.9070263842 41.4353790805 59.1201824507 41.631074298 59.6151556278 41.8349756916 60.1828712107 42.0426402021 60.824281081 42.2495747765 61.5401276945 42.4512452057 62.3309419354 42.6430850458 63.1970413218 42.8205046094 64.1385285642 42.9789000145 65.1552904807 42.8028434112 65.7694035013 42.3527647818 66.0601328816 41.7400651362 66.4489639003 41.2853711679 66.7324206704 40.6547438378 66.630244841 39.8021916332 66.0540082249 39.0258500828 65.492608433 38.3238613591 64.9502593729 37.6941783329 64.4310701856 37.1345694082 63.9390375206 36.6426236539 63.4780380135 36.2157562273 63.0518209778 35.8512140775 62.6640013223 35.6733968501 62.5412564407 35.6145744203 62.5747719841 35.5747372625 62.597428611 35.5503744745 62.6112679533 35.5377866623 62.618413579 35.533130031 62.6210561249 35.5324634051 62.6214343844 35.5324634051 62.6214343844 35.4454549474 62.6707246134 35.3583781149 62.7198939499 35.2712330757 62.7689422988 35.1840199979 62.8178695658 35.0967390497 62.8666756563 35.0093903995 62.9153604763 34.9219742157 62.9639239317 34.834490667 63.012365929 34.7469399222 63.0606863747 34.6593221501 63.1088851755 34.5716375197 63.1569622386 34.4838862002 63.2049174711 34.396068361 63.2527507806 34.3081841712 63.3004620747 34.2202338006 63.3480512615 34.1322174187 63.3955182492 34.0441351954 63.4428629461 33.9559873006 63.490085261 33.8677739042 63.5371851027 33.8337798017 63.555293598 33.8331032306 63.5556537673 33.8283769075 63.5581695442 33.8155987691 63.5649689679 33.7908595913 63.5781236597 33.750384152 63.5996192567 33.6905674086 63.6313261506 33.6989251048 63.8472321979 33.8310406183 64.3628294781 33.9621805587 64.951624075 34.0878175995 65.6140035015 34.2034010622 66.3501412299 34.3043659539 67.1599956713 34.3861420428 68.0433095129 34.4441629597 68.9996094148 34.473875311 70.0282060682 34.2222381959 70.6154108808 33.7392705176 70.8474379631 33.0826687428 71.1564113053 32.5960336187 71.3806446688 31.9831850006 71.2002359638 31.2095770231 70.521690021 30.509719209 69.8674156373 29.8812402374 69.2413606448 29.3215941097 68.6473452095 28.8280659134 68.089054773 28.3977778573 67.5700332326 28.0276955671 67.0936763707 27.7146346325 66.6632255426 27.5536035599 66.5191621329 27.4910443511 66.5450409909 27.4486816929 66.5625260437 27.4227764832 66.5732027917 27.4093923453 66.5787144008 27.4044412341 66.5807524788 27.4037324563 66.5810442053 27.4037324563 66.5810442053 27.3112323825 66.6190407147 27.2186796249 66.6569087153 27.1260743622 66.6946481338 27.033416773 66.7322588976 26.940707036 66.7697409341 26.84794533 66.8070941709 26.7551318341 66.844318536 26.6622667271 66.8814139576 26.5693501884 66.9183803642 26.476382397 66.9552176844 26.3833635324 66.9919258472 26.2902937739 67.0285047818 26.1971733012 67.0649544176 26.1040022937 67.1012746842 26.0107809314 67.1374655117 25.917509394 67.1735268303 25.8241878613 67.2094585702 25.7308165135 67.2452606624 25.6373955306 67.2809330376 25.6013998855 67.2946381512 25.6006835082 67.2949106836 25.5956791431 67.2968142575 25.5821495704 67.3019585403 25.5559567483 67.3119088622 25.5131063573 67.3281620424 25.4497873593 67.3521218921 25.4310189495 67.5673729528 25.4974712184 68.0954630589 25.5537815505 68.6960510274 25.5954097502 69.3689538908 25.6178192809 70.1137734025 25.6164863584 70.9298961561 25.5869090385 71.8164940658 25.5246162842 72.7725252065 25.425177 73.7967350131 25.1019278409 74.3477710471 24.5936878024 74.5174366258 23.9035389007 74.7416795973 23.3926371474 74.90315326 22.80723223 74.6473568326 22.1247687397 73.8772026379 21.5124318376 73.1403719602 20.9673741071 72.4404842966 20.4865908315 71.7810105916 20.0669265981 71.1652669572 19.7050821398 70.5964086633 19.3976214048 70.0774244074 19.1409788434 69.6111308734 18.9992734819 69.4480209017 18.9339640901 69.4658549493 18.889744016 69.4778926783 18.8627049253 69.4852384532 18.8487355375 69.4890291243 18.8435680284 69.4904305927 18.8428282764 69.4906311854 18.8428282764 69.4906311854 18.7462953679 69.5167347477 18.6497262976 69.5427042113 18.5531212517 69.5685395263 18.4564804166 69.5942406427 18.3598039787 69.619807511 18.2630921245 69.6452400818 18.1663450407 69.6705383061 18.0695629137 69.6957021351 17.9727459303 69.7207315203 17.8758942773 69.7456264133 17.7790081414 69.7703867662 17.6820877097 69.7950125312 17.585133169 69.8195036607 17.4881447063 69.8438601076 17.3911225088 69.8680818248 17.2940667636 69.8921687657 17.196977658 69.9161208837 17.0998553792 69.9399381327 17.0027001145 69.9636204667 16.9652705996 69.9727060609 16.9645257138 69.9728866584 16.9593222285 69.9741480087 16.945254591 69.9775560223 16.9180212011 69.9841450519 16.8734716345 69.9948994927 16.8076489603 70.0107344371 16.7620504336 70.2219358734 16.7617914658 70.7541905091 16.742384142 71.357100218 16.6993469992 72.0299144383 16.6282291863 72.7716694846 16.5246194706 73.5811898071 16.3841551937 74.4570896063 16.2025311622 75.3977748035 15.9755084596 76.4014453629 15.5857450886 76.9076224508 15.0602479391 77.0122507982 14.3474359709 77.1482269534 13.8203248143 77.2443943793 13.2715957828 76.9172442919 12.6910396365 76.0676276371 12.1758805652 75.2598609254 11.7228399617 74.4971782372 11.3285017778 73.7826465568 10.9893198629 73.1191603695 10.7016255057 72.509436557 10.4616351654 71.9560095989 10.2654583836 71.4612270866 10.1453135114 71.2816428946 10.0782839049 71.2911508782 10.0329037917 71.2975514412 10.0051572426 71.3014503958 9.99082291052 71.3034603478 9.98552049823 71.3042031046 9.98476143851 71.3043094 9.98476143851 71.3043094 9.88571807693 71.3181083464 9.78665564569 71.3317697192 9.68757433586 71.3452934922 9.58847433859 71.3586796393 9.48935584504 71.3719281346 9.3902190464 71.3850389526 9.29106413392 71.398012068 9.19189129886 71.4108474558 9.09270073254 71.4235450912 8.99349262628 71.4361049497 8.89426717147 71.4485270071 8.79502455952 71.4608112394 8.69576498185 71.472957623 8.59648862995 71.4849661344 8.49719569532 71.4968367504 8.39788636949 71.5085694482 8.29856084405 71.5201642051 8.19921931057 71.5316209987 8.09986196071 71.5429398069 8.06158886183 71.5472625963 8.06082721477 71.5473484108 8.05550667141 71.5479476454 8.04112282402 71.5495656432 8.01327835317 71.5526894675 7.9677321844 71.5577755652 7.90044389686 71.5652358777 7.8287343692 71.7690569168 7.7617682489 72.2970821084 7.66694933426 72.8928053116 7.53992557039 73.5549202065 7.37640198417 74.2819128673 7.17214946238 75.0720641395 6.92301343417 75.9234523651 6.6249224448 76.8339564515 6.27389660741 77.8012592793 5.82376582589 78.254594706 5.28929896922 78.2925357708 4.56506540508 78.3381006845 4.03005770289 78.3674452557 3.52665834211 77.9741008606 3.05716525705 77.0584207078 2.64730838285 76.1924569257 2.2934296273 75.3790071745 1.99175548369 74.6206861101 1.73840498884 73.9199209434 1.52939784452 73.2789473213 1.36066268998 72.6998055347 1.22804551287 72.1843370598 1.13135588636 71.9911107975 1.06366316197 71.9921427704 1.01783868128 71.9928052268 0.989822253398 71.9931958723 0.975349038041 71.993393407 0.969995344744 71.9934657384 0.96922894809 71.9934760603 0.96922894809 71.9934760603 0.869237106437 71.9947527731 0.769243588016 71.995890607 0.669248585714 71.9968895601 0.569252292424 71.9977496303 0.46925490104 71.998470816 0.369256604457 71.9990531157 0.269257595573 71.9994965284 0.169258067289 71.9998010532 0.0692582125035 71.9999666896 -0.0307417758818 71.9999934371 -0.130741704966 71.9998812958 -0.230741381848 71.9996302658 -0.330740613626 71.9992403477 -0.430739207403 71.9987115422 -0.530736970278 71.9980438503 -0.630733709355 71.9972372733 -0.730729231739 71.9962918128 -0.830723344538 71.9952074705 -0.930715854861 71.9939842487 -0.96922894809 71.9934760603 -0.969995344744 71.9934657384 -0.975349038041 71.993393407 -0.989822253398 71.9931958723 -1.01783868128 71.9928052268 -1.06366316197 71.9921427704 -1.13135588636 71.9911107975 -1.22804551287 72.1843370598 -1.36066268998 72.6998055347 -1.52939784452 73.2789473213 -1.73840498884 73.9199209434 -1.99175548369 74.6206861101 -2.2934296273 75.3790071745 -2.64730838285 76.1924569257 -3.05716525705 77.0584207078 -3.52665834211 77.9741008606 -4.03005770289 78.3674452557 -4.56506540508 78.3381006845 -5.28929896922 78.2925357708 -5.82376582589 78.254594706 -6.27389660741 77.8012592793 -6.6249224448 76.8339564515 -6.92301343417 75.9234523651 -7.17214946238 75.0720641395 -7.37640198417 74.2819128673 -7.53992557039 73.5549202065 -7.66694933426 72.8928053116 -7.7617682489 72.2970821084 -7.8287343692 71.7690569168 -7.90044389686 71.5652358777 -7.9677321844 71.5577755652 -8.01327835317 71.5526894675 -8.04112282402 71.5495656432 -8.05550667141 71.5479476454 -8.06082721477 71.5473484108 -8.06158886183 71.5472625963 -8.06158886183 71.5472625963 -8.16095225248 71.5359969409 -8.26029990056 71.5245932918 -8.35963161442 71.5130516708 -8.45894720245 71.5013721003 -8.55824647307 71.4895546028 -8.65752923472 71.4775992011 -8.7567952959 71.4655059182 -8.85604446512 71.4532747775 -8.95527655092 71.4409058026 -9.05449136188 71.4283990173 -9.15368870662 71.4157544458 -9.25286839378 71.4029721124 -9.35203023205 71.3900520419 -9.45117403014 71.376994259 -9.55029959681 71.3637987891 -9.64940674082 71.3504656576 -9.74849527102 71.3369948901 -9.84756499626 71.3233865127 -9.94661572542 71.3096405517 -9.98476143851 71.3043094 -9.98552049823 71.3042031046 -9.99082291052 71.3034603478 -10.0051572426 71.3014503958 -10.0329037917 71.2975514412 -10.0782839049 71.2911508782 -10.1453135114 71.2816428946 -10.2654583836 71.4612270866 -10.4616351654 71.9560095989 -10.7016255057 72.509436557 -10.9893198629 73.1191603695 -11.3285017778 73.7826465568 -11.7228399617 74.4971782372 -12.1758805652 75.2598609254 -12.6910396365 76.0676276371 -13.2715957828 76.9172442919 -13.8203248143 77.2443943793 -14.3474359709 77.1482269534 -15.0602479391 77.0122507982 -15.5857450886 76.9076224508 -15.9755084596 76.4014453629 -16.2025311622 75.3977748035 -16.3841551937 74.4570896063 -16.5246194706 73.5811898071 -16.6282291863 72.7716694846 -16.6993469992 72.0299144383 -16.742384142 71.357100218 -16.7617914658 70.7541905091 -16.7620504336 70.2219358734 -16.8076489603 70.0107344371 -16.8734716345 69.9948994927 -16.9180212011 69.9841450519 -16.945254591 69.9775560223 -16.9593222285 69.9741480087 -16.9645257138 69.9728866584 -16.9652705996 69.9727060609 -16.9652705996 69.9727060609 -17.0624385193 69.9490757035 -17.1595735252 69.9253104136 -17.2566754302 69.9014102368 -17.3537440468 69.8773752194 -17.4507791878 69.8532054077 -17.5477806661 69.8289008484 -17.6447482945 69.8044615882 -17.741681886 69.7798876744 -17.8385812535 69.7551791544 -17.9354462102 69.7303360758 -18.0322765692 69.7053584865 -18.1290721438 69.6802464347 -18.2258327471 69.654999969 -18.3225581926 69.6296191378 -18.4192482936 69.6041039903 -18.5159028637 69.5784545757 -18.6125217164 69.5526709434 -18.7091046653 69.5267531431 -18.8056515242 69.5007012249 -18.8428282764 69.4906311854 -18.8435680284 69.4904305927 -18.8487355375 69.4890291243 -18.8627049253 69.4852384532 -18.889744016 69.4778926783 -18.9339640901 69.4658549493 -18.9992734819 69.4480209017 -19.1409788434 69.6111308734 -19.3976214048 70.0774244074 -19.7050821398 70.5964086633 -20.0669265981 71.1652669572 -20.4865908315 71.7810105916 -20.9673741071 72.4404842966 -21.5124318376 73.1403719602 -22.1247687397 73.8772026379 -22.80723223 74.6473568326 -23.3926371474 74.90315326 -23.9035389007 74.7416795973 -24.5936878024 74.5174366258 -25.1019278409 74.3477710471 -25.425177 73.7967350131 -25.5246162842 72.7725252065 -25.5869090385 71.8164940658 -25.6164863584 70.9298961561 -25.6178192809 70.1137734025 -25.5954097502 69.3689538908 -25.5537815505 68.6960510274 -25.4974712184 68.0954630589 -25.4310189495 67.5673729528 -25.4497873593 67.3521218921 -25.5131063573 67.3281620424 -25.5559567483 67.3119088622 -25.5821495704 67.3019585403 -25.5956791431 67.2968142575 -25.6006835082 67.2949106836 -25.6013998855 67.2946381512 -25.6013998855 67.2946381512 -25.694839938 67.2590157567 -25.7882304248 67.2232636188 -25.8815711658 67.1873818063 -25.9748619809 67.1513703886 -26.0681026902 67.1152294351 -26.1612931139 67.0789590156 -26.254433072 67.0425591999 -26.3475223851 67.0060300582 -26.4405608735 66.9693716612 -26.5335483577 66.9325840794 -26.6264846584 66.8956673839 -26.7193695962 66.8586216458 -26.8122029921 66.8214469367 -26.9049846669 66.7841433281 -26.9977144417 66.7467108922 -27.0903921376 66.709149701 -27.1830175758 66.6714598271 -27.2755905776 66.6336413431 -27.3681109644 66.5956943221 -27.4037324563 66.5810442053 -27.4044412341 66.5807524788 -27.4093923453 66.5787144008 -27.4227764832 66.5732027917 -27.4486816929 66.5625260437 -27.4910443511 66.5450409909 -27.5536035599 66.5191621329 -27.7146346325 66.6632255426 -28.0276955671 67.0936763707 -28.3977778573 67.5700332326 -28.8280659134 68.089054773 -29.3215941097 68.6473452095 -29.8812402374 69.2413606448 -30.509719209 69.8674156373 -31.2095770231 70.521690021 -31.9831850006 71.2002359638 -32.5960336187 71.3806446688 -33.0826687428 71.1564113053 -33.7392705176 70.8474379631 -34.2222381959 70.6154108808 -34.473875311 70.0282060682 -34.4441629597 68.9996094148 -34.3861420428 68.0433095129 -34.3043659539 67.1599956713 -34.2034010622 66.3501412299 -34.0878175995 65.6140035015 -33.9621805587 64.951624075 -33.8310406183 64.3628294781 -33.6989251048 63.8472321979 -33.6905674086 63.6313261506 -33.750384152 63.5996192567 -33.7908595913 63.5781236597 -33.8155987691 63.5649689679 -33.8283769075 63.5581695442 -33.8331032306 63.5556537673 -33.8337798017 63.555293598 -33.8337798017 63.555293598 -33.9220183815 63.5082409528 -34.0101915254 63.4610657995 -34.0982990632 63.413768229 -34.186340825 63.3663483325 -34.2743166409 63.3188062016 -34.3622263412 63.271141928 -34.4500697564 63.2233556036 -34.537846717 63.1754473206 -34.6255570536 63.1274171713 -34.7132005972 63.0792652486 -34.8007771786 63.0309916451 -34.8882866288 62.9825964542 -34.9757287791 62.934079769 -35.0631034608 62.8854416832 -35.1504105054 62.8366822907 -35.2376497444 62.7878016854 -35.3248210096 62.7387999618 -35.4119241327 62.6896772142 -35.4989589459 62.6404335375 -35.5324634051 62.6214343844 -35.533130031 62.6210561249 -35.5377866623 62.618413579 -35.5503744745 62.6112679533 -35.5747372625 62.597428611 -35.6145744203 62.5747719841 -35.6733968501 62.5412564407 -35.8512140775 62.6640013223 -36.2157562273 63.0518209778 -36.6426236539 63.4780380135 -37.1345694082 63.9390375206 -37.6941783329 64.4310701856 -38.3238613591 64.9502593729 -39.0258500828 65.492608433 -39.8021916332 66.0540082249 -40.6547438378 66.630244841 -41.2853711679 66.7324206704 -41.7400651362 66.4489639003 -42.3527647818 66.0601328816 -42.8028434112 65.7694035013 -42.9789000145 65.1552904807 -42.8205046094 64.1385285642 -42.6430850458 63.1970413218 -42.4512452057 62.3309419354 -42.2495747765 61.5401276945 -42.0426402021 60.824281081 -41.8349756916 60.1828712107 -41.631074298 59.6151556278 -41.4353790805 59.1201824507 -41.4000270842 58.9070263842 -41.4553982271 58.8680724828 -41.4928603928 58.8416734672 -41.5157557747 58.825521863 -41.5275809599 58.8171745294 -41.5319547041 58.8140862248 -41.5325807991 58.8136440987 -41.5325807991 58.8136440987 -41.6142263312 58.7559032511 -41.695791589 58.6980490627 -41.7772764151 58.6400816451 -41.8586806523 58.58200111 -41.9400041436 58.5238075695 -42.0212467322 58.4655011359 -42.1024082612 58.4070819217 -42.1834885742 58.3485500395 -42.2644875148 58.2899056022 -42.3454049266 58.231148723 -42.4262406537 58.1722795152 -42.50699454 58.1132980924 -42.5876664298 58.0542045684 -42.6682561675 57.994999057 -42.7487635976 57.9356816727 -42.8291885648 57.8762525297 -42.9095309141 57.8167117427 -42.9897904903 57.7570594266 -43.0699671387 57.6972956964 -43.10082618 57.6742471351 -43.1014401408 57.6737883079 -43.1057288543 57.6705829686 -43.1173218235 57.6619160171 -43.1397579741 57.6451323351 -43.1764413757 57.6176614427 -43.2305993617 57.577037774 -43.4223984601 57.6765283675 -43.8326727776 58.0156007028 -44.3095933864 58.3849562149 -44.8554385603 58.7806634511 -45.4723028464 59.1986786955 -46.1620922935 59.6348537112 -46.9265199879 60.0849436704 -47.7671019046 60.5446152604 -48.6851530788 61.009454954 -49.3236137511 61.031786534 -49.7391957681 60.6935766399 -50.2983306451 60.2310200422 -50.7084222167 59.8861733398 -50.8061217905 59.2548370405 -50.5215413217 58.2659448037 -50.2275211239 57.354118037 -49.9286429616 56.5188920104 -49.629447458 55.759589583 -49.3344252537 55.0753234133 -49.0480082668 54.464998516 -48.7745610669 53.927315161 -48.5183723758 53.4607721096 -48.4565836014 53.2537276224 -48.5066359079 53.2081410397 -48.5404939992 53.1772549339 -48.5611845115 53.1583611377 -48.5718702532 53.1485975366 -48.575822442 53.1449854087 -48.5763881869 53.1444682984 -48.5763881869 53.1444682984 -48.6501530725 53.0769498561 -48.7238241113 53.0093290277 -48.7974011613 52.9416059437 -48.8708840805 52.8737807348 -48.9442727272 52.8058535316 -49.0175669599 52.7378244653 -49.090766637 52.6696936672 -49.1638716174 52.6014612685 -49.2368817602 52.533127401 -49.3097969244 52.4646921965 -49.3826169695 52.3961557869 -49.4553417548 52.3275183046 -49.5279711402 52.2587798818 -49.6005049856 52.1899406512 -49.672943151 52.1210007456 -49.7452854967 52.0519602979 -49.8175318831 51.9828194414 -49.8896821709 51.9135783094 -49.9617362209 51.8442370355 -49.9894631788 51.8175025556 -49.9900147921 51.8169703966 -49.9938679523 51.813252814 -50.0042832504 51.8032012198 -50.0244389321 51.7837378868 -50.0573900583 51.7518859613 -50.1060294966 51.7047948268 -50.3087856796 51.7794621061 -50.7583218938 52.0644397479 -51.2777743618 52.3711087794 -51.8689106509 52.6952832052 -52.5333019802 53.0326886789 -53.2723194566 53.3789707824 -54.0871306403 53.729703453 -54.9786964442 54.0803975456 -55.9477683726 54.4265095171 -56.5839934809 54.3686446654 -56.9539095699 53.9810154193 -57.4506617873 53.4520280364 -57.8142989122 53.0585024506 -57.8321006757 52.419899423 -57.4258231473 51.4744722872 -57.0198391894 50.606686049 -56.618636192 49.8155053957 -56.2266341058 49.0996894346 -55.8481769481 48.4577949949 -55.4875244518 47.8881802588 -55.1488438712 47.3890087195 -54.8362019552 46.9582534565 -54.7489508487 46.7605857637 -54.792894964 46.7090854274 -54.8226150187 46.6741993238 -54.8407743595 46.6528613019 -54.8501521372 46.6418354112 -54.8536204421 46.6377564254 -54.8541169149 46.637172486 -54.8541169149 46.637172486 -54.9188378376 46.5609412552 -54.9834528212 46.4846202077 -55.0479617411 46.4082094909 -55.1123644728 46.3317092521 -55.1766608921 46.2551196388 -55.2408508749 46.1784407989 -55.3049342975 46.1016728802 -55.3689110362 46.0248160308 -55.4327809676 45.9478703989 -55.4965439685 45.8708361331 -55.5601999159 45.7937133819 -55.623748687 45.7165022941 -55.6871901592 45.6392030186 -55.7505242102 45.5618157045 -55.8137507177 45.4843405011 -55.8768695598 45.4067775579 -55.9398806148 45.3291270245 -56.0027837611 45.2513890506 -56.0655788773 45.1735637863 -56.089736481 45.1435650065 -56.0902170475 45.1429679083 -56.0935738877 45.1387967109 -56.1026472593 45.1275189934 -56.1202046049 45.1056829579 -56.1489037969 45.0699523231 -56.1912576145 45.0171363783 -56.401773296 45.0658027956 -56.8834819523 45.2921914763 -57.4372742037 45.5313376734 -58.0643790356 45.7788668645 -58.7658195599 46.0303414815 -59.5424103185 46.2812695973 -60.3947549324 46.5271137156 -61.3232440982 46.7632996554 -62.3280539375 46.9852255123 -62.952009832 46.8480767921 -63.2704261952 46.4171413389 -63.6969616738 45.8300656177 -64.0084095771 45.394067282 -63.9460327861 44.7582686775 -63.4244654373 43.8712165934 -62.9129203289 43.0611563911 -62.4157197074 42.3264985025 -61.9370931457 41.6654578532 -61.4811695299 41.0760582021 -61.0519692295 40.5561367919 -60.6533964633 40.1033493016 -60.2892318722 39.7151750948 -60.1778944357 39.5300015341 -60.2150373348 39.4733996353 -60.2401506498 39.4350637085 -60.2554924355 39.4116179744 -60.2634143561 39.3995036789 -60.2663440799 39.3950221632 -60.2667634508 39.3943806039 -60.2667634508 39.3943806039 -60.3214197231 39.3106387965 -60.3759596346 39.2268211585 -60.4303830802 39.1429278515 -60.4846899548 39.0589590373 -60.5388801537 38.9749148778 -60.5929535724 38.8907955353 -60.6469101066 38.806601172 -60.7007496521 38.7223319503 -60.7544721052 38.6379880328 -60.8080773622 38.5535695821 -60.8615653196 38.4690767611 -60.9149358744 38.3845097327 -60.9681889235 38.2998686603 -61.0213243642 38.2151537068 -61.0743420941 38.130365036 -61.1272420108 38.0455028111 -61.1800240124 37.9605671961 -61.2326879969 37.8755583546 -61.2852338628 37.7904764508 -61.3054411325 37.7576864697 -61.3058430734 37.7570338489 -61.3086506542 37.752474819 -61.3162390068 37.7401488347 -61.3309211266 37.7162844639 -61.3549157808 37.6772386134 -61.3903160328 37.6195307971 -61.6052712547 37.6414288542 -62.1115555197 37.8056582889 -62.69095392 37.9735101733 -63.344137477 38.1404904463 -64.0715650601 38.3020683019 -64.8734818008 38.4536851435 -65.7499178611 38.590763601 -66.7006875601 38.7087165946 -67.725388859 38.8029564336 -68.3272353822 38.5886867621 -68.5891304035 38.1212412112 -68.938722424 37.4853356868 -69.1930693863 37.0137405553 -69.0514977599 36.3907732976 -68.4228660194 35.5760856065 -67.8138271324 34.8365265735 -67.2284700376 34.1699774433 -66.6707672272 33.5741371116 -66.1445673412 33.0465274339 -65.6535879818 32.5844988208 -65.2014087606 32.1852361087 -64.7914645876 31.8457646971 -64.6577966789 31.6760055663 -64.6875525961 31.6151947507 -64.7076631195 31.5740135811 -64.7199454009 31.548829888 -64.726286531 31.5358182374 -64.7286314702 31.5310048681 -64.7289671255 31.5303158065 -64.7289671255 31.5303158065 -64.7726967853 31.440384081 -64.8163014977 31.3503917066 -64.8597811787 31.260338857 -64.9031357444 31.1702257057 -64.9463651111 31.0800524268 -64.9894691956 30.989819194 -65.0324479146 30.8995261815 -65.0753011852 30.8091735634 -65.1180289247 30.7187615141 -65.1606310508 30.6282902079 -65.2031074813 30.5377598193 -65.2454581342 30.4471705231 -65.2876829278 30.3565224939 -65.3297817806 30.2658159066 -65.3717546116 30.1750509362 -65.4136013396 30.0842277577 -65.455321884 29.9933465464 -65.4969161644 29.9024074776 -65.5383841003 29.8114107267 -65.5543223553 29.776346662 -65.5546393316 29.7756488107 -65.5568533759 29.770773847 -65.5628370366 29.757593984 -65.5744123847 29.7320776334 -65.5933240912 29.6903323434 -65.6212124945 29.6286427424 -65.8372172846 29.6234270937 -66.360092753 29.7229072863 -66.9559598433 29.8168177334 -67.6249210304 29.9006157098 -68.3668637048 29.9697486245 -69.1814597215 30.0196631039 -70.068165308 30.0458140914 -71.0262213341 30.0436739496 -72.0546539409 30.0087415521 -72.6248996137 29.7207300902 -72.8261430522 29.2241463372 -73.0932783395 28.5494396194 -73.2865131574 28.0496850292 -73.0679793647 27.449373684 -72.3421971305 26.7198984975 -71.6452693721 26.0625039214 -70.9809872349 25.4745754277 -70.3530034823 24.9533321716 -69.7648258126 24.495833187 -69.219810432 24.0989838382 -68.7211558923 23.7595425158 -68.2718972019 23.4741275665 -68.1180068437 23.3224600683 -68.1399065105 23.2583993589 -68.1546970872 23.2150223982 -68.1637261655 23.188497908 -68.1683865017 23.1747941038 -68.1701096752 23.1697247905 -68.1703563215 23.1689990936 -68.1703563215 23.1689990936 -68.2024697258 23.074295727 -68.2344515668 22.9795478497 -68.2663017827 22.8847556447 -68.298020312 22.7899192946 -68.3296070937 22.6950389826 -68.3610620667 22.6001148915 -68.3923851704 22.5051472046 -68.4235763444 22.4101361049 -68.4546355285 22.3150817758 -68.4855626628 22.2199844007 -68.5163576875 22.1248441629 -68.5470205434 22.0296612461 -68.5775511713 21.9344358337 -68.6079495123 21.8391681096 -68.6382155077 21.7438582575 -68.6683490991 21.6485064612 -68.6983502285 21.5531129046 -68.728218838 21.4576777719 -68.7579548698 21.362201247 -68.7693727543 21.3254160799 -68.7695997672 21.3246840037 -68.7711853581 21.3195699872 -68.775469961 21.3057440998 -68.7837559873 21.2789781774 -68.7972864972 21.2351917962 -68.8172232349 21.1704932924 -69.0308710686 21.1382461919 -69.562091682 21.1714082802 -70.1650302823 21.1898962661 -70.8392191819 21.1891904018 -71.5839760685 21.1647881083 -72.3984046954 21.1122130443 -73.2813959314 21.0270241451 -74.2316291686 20.9048246193 -75.2475740868 20.74127089 -75.7772257944 20.3840597504 -75.9146439207 19.8661692177 -76.0951095919 19.1633018346 -76.2241848367 18.643269214 -75.9321352862 18.07508105 -75.1206485778 17.4423226275 -74.3468229149 16.8774600135 -73.6140918616 16.3774241399 -72.9257308457 15.9389982768 -72.2848513055 15.5588250176 -71.6943951219 15.2334134845 -71.1571293436 14.9591467441 -70.6756412136 14.7322894214 -70.5039553489 14.6011054429 -70.5176533945 14.5348051152 -70.5268907683 14.489916444 -70.5325242495 14.4624694638 -70.5354302955 14.4482896232 -70.5365045278 14.4430443121 -70.5366582753 14.4422934245 -70.5366582753 14.4422934245 -70.5566489766 14.3443119454 -70.5765035734 14.2463027959 -70.5962220272 14.1482661652 -70.6158043001 14.0502022422 -70.6352503543 13.9521112163 -70.6545601521 13.8539932766 -70.6737336565 13.7558486123 -70.6927708305 13.6576774128 -70.7116716372 13.5594798676 -70.7304360402 13.4612561659 -70.7490640034 13.3630064973 -70.7675554908 13.2647310513 -70.7859104667 13.1664300175 -70.8041288957 13.0681035854 -70.8222107427 12.9697519449 -70.8401559729 12.8713752855 -70.8579645515 12.7729737971 -70.8756364442 12.6745476695 -70.893171617 12.5760970925 -70.8998890641 12.538170947 -70.9000225335 12.5374161912 -70.9009546653 12.532143773 -70.9034726396 12.5178899038 -70.9083386686 12.4902965242 -70.9162745976 12.4451595891 -70.9279452554 12.3784725165 -71.1358667788 12.3197025202 -71.6670548707 12.2860235183 -72.2675562792 12.2287974766 -72.9363405297 12.1435989033 -73.6721663675 12.0260462404 -74.4735835786 11.8718107732 -75.3389351647 11.676625467 -76.2663598673 11.4362937168 -77.2537950386 11.1466979958 -77.7344998571 10.7259206115 -77.8059255054 10.1948907422 -77.8968755089 9.47494733221 -77.959755587 8.94283790639 -77.5987960745 8.41573359033 -76.7144025221 7.88967091011 -75.8758826478 7.42624847906 -75.0862582847 7.0219910899 -74.3483758699 6.67329685771 -73.6649015124 6.3764448833 -73.0383163725 6.1276031001 -72.470912358 5.92283629218 -71.9647881438 5.75811427144 -71.7780143613 5.64948266242 -71.7832947592 5.58198831227 -71.7868332512 5.53629585171 -71.788982292 5.50835923668 -71.7900882176 5.49392698422 -71.7904965675 5.48858839694 -71.7905549915 5.48782416071 -71.7905549915 5.48782416071 -71.7981077246 5.38810979557 -71.8055219583 5.2883850367 -71.8127976783 5.18865007648 -71.8199348705 5.08890510729 -71.8269335213 4.98915032153 -71.833793617 4.88938591165 -71.8405151444 4.78961207008 -71.8470980907 4.6898289893 -71.853542443 4.59003686177 -71.859848189 4.49023588001 -71.8660153164 4.39042623653 -71.8720438135 4.29060812387 -71.8779336685 4.19078173457 -71.8836848701 4.09094726121 -71.8892974072 3.99110489635 -71.894771269 3.89125483261 -71.900106445 3.79139726259 -71.9053029247 3.69153237892 -71.9103606983 3.59166037424 -71.9122717698 3.55319136839 -71.9123095908 3.55242583593 -71.9125735633 3.54707816519 -71.9132851991 3.53262110611 -71.9146544904 3.50463543342 -71.9168706843 3.45885978089 -71.920091209 3.39123583452 -72.1190073754 3.30686978029 -72.6417857924 3.20688082623 -73.230379743 3.07484324563 -73.8832122172 2.9064955959 -74.5985025931 2.69764643927 -75.3742695604 2.44418295428 -76.2083343852 2.1420794301 -77.0983245116 1.78740563059 -78.0416774936 1.37633501541 -78.4658544208 0.898627297196 -78.4701611659 0.36283274962 -78.4701611659 -0.36283274962 -78.4658544208 -0.898627297196 -78.0416774936 -1.37633501541 -77.0983245116 -1.78740563059 -76.2083343852 -2.1420794301 -75.3742695604 -2.44418295428 -74.5985025931 -2.69764643927 -73.8832122172 -2.9064955959 -73.230379743 -3.07484324563 -72.6417857924 -3.20688082623 -72.1190073754 -3.30686978029 -71.920091209 -3.39123583452 -71.9168706843 -3.45885978089 -71.9146544904 -3.50463543342 -71.9132851991 -3.53262110611 -71.9125735633 -3.54707816519 -71.9123095908 -3.55242583593 -71.9122717698 -3.55319136839 -71.9122717698 -3.55319136839 -71.9072674236 -3.65306606444 -71.9021243674 -3.75293371368 -71.8968426111 -3.85279412347 -71.8914221649 -3.95264710117 -71.8858630393 -4.05249245417 -71.880165245 -4.15232998986 -71.8743287931 -4.25215951565 -71.8683536946 -4.35198083898 -71.8622399613 -4.45179376729 -71.8559876048 -4.55159810803 -71.8495966373 -4.65139366869 -71.843067071 -4.75118025675 -71.8363989186 -4.85095767972 -71.8295921929 -4.95072574514 -71.822646907 -5.05048426056 -71.8155630745 -5.15023303352 -71.8083407088 -5.24997187163 -71.8009798239 -5.34970058247 -71.7934804342 -5.44941897368 -71.7905549915 -5.48782416071 -71.7904965675 -5.48858839694 -71.7900882176 -5.49392698422 -71.788982292 -5.50835923668 -71.7868332512 -5.53629585171 -71.7832947592 -5.58198831227 -71.7780143613 -5.64948266242 -71.9647881438 -5.75811427144 -72.470912358 -5.92283629218 -73.0383163725 -6.1276031001 -73.6649015124 -6.3764448833 -74.3483758699 -6.67329685771 -75.0862582847 -7.0219910899 -75.8758826478 -7.42624847906 -76.7144025221 -7.88967091011 -77.5987960745 -8.41573359033 -77.959755587 -8.94283790639 -77.8968755089 -9.47494733221 -77.8059255054 -10.1948907422 -77.7344998571 -10.7259206115 -77.2537950386 -11.1466979958 -76.2663598673 -11.4362937168 -75.3389351647 -11.676625467 -74.4735835786 -11.8718107732 -73.6721663675 -12.0260462404 -72.9363405297 -12.1435989033 -72.2675562792 -12.2287974766 -71.6670548707 -12.2860235183 -71.1358667788 -12.3197025202 -70.9279452554 -12.3784725165 -70.9162745976 -12.4451595891 -70.9083386686 -12.4902965242 -70.9034726396 -12.5178899038 -70.9009546653 -12.532143773 -70.9000225335 -12.5374161912 -70.8998890641 -12.538170947 -70.8998890641 -12.538170947 -70.88240656 -12.6366308904 -70.8647873229 -12.7350664575 -70.8470313868 -12.8334774585 -70.8291387859 -12.9318637036 -70.8111095547 -13.030225003 -70.7929437281 -13.1285611669 -70.774641341 -13.2268720057 -70.7562024288 -13.3251573297 -70.737627027 -13.4234169493 -70.7189151714 -13.5216506749 -70.7000668983 -13.6198583171 -70.6810822438 -13.7180396865 -70.6619612447 -13.8161945936 -70.6427039379 -13.9143228491 -70.6233103604 -14.0124242637 -70.6037805496 -14.1104986481 -70.5841145434 -14.2085458132 -70.5643123795 -14.3065655699 -70.5443740962 -14.4045577291 -70.5366582753 -14.4422934245 -70.5365045278 -14.4430443121 -70.5354302955 -14.4482896232 -70.5325242495 -14.4624694638 -70.5268907683 -14.489916444 -70.5176533945 -14.5348051152 -70.5039553489 -14.6011054429 -70.6756412136 -14.7322894214 -71.1571293436 -14.9591467441 -71.6943951219 -15.2334134845 -72.2848513055 -15.5588250176 -72.9257308457 -15.9389982768 -73.6140918616 -16.3774241399 -74.3468229149 -16.8774600135 -75.1206485778 -17.4423226275 -75.9321352862 -18.07508105 -76.2241848367 -18.643269214 -76.0951095919 -19.1633018346 -75.9146439207 -19.8661692177 -75.7772257944 -20.3840597504 -75.2475740868 -20.74127089 -74.2316291686 -20.9048246193 -73.2813959314 -21.0270241451 -72.3984046954 -21.1122130443 -71.5839760685 -21.1647881083 -70.8392191819 -21.1891904018 -70.1650302823 -21.1898962661 -69.562091682 -21.1714082802 -69.0308710686 -21.1382461919 -68.8172232349 -21.1704932924 -68.7972864972 -21.2351917962 -68.7837559873 -21.2789781774 -68.775469961 -21.3057440998 -68.7711853581 -21.3195699872 -68.7695997672 -21.3246840037 -68.7693727543 -21.3254160799 -68.7693727543 -21.3254160799 -68.7396878019 -21.4209084984 -68.7098702498 -21.5163595957 -68.6799201556 -21.6117691877 -68.6498375769 -21.7071370904 -68.6196225719 -21.8024631197 -68.5892751988 -21.8977470918 -68.5587955162 -21.9929888229 -68.5281835829 -22.0881881292 -68.4974394578 -22.1833448272 -68.4665632004 -22.2784587332 -68.4355548701 -22.3735296638 -68.4044145269 -22.4685574356 -68.3731422306 -22.5635418653 -68.3417380418 -22.6584827697 -68.310202021 -22.7533799655 -68.2785342289 -22.8482332698 -68.2467347267 -22.9430424996 -68.2148035758 -23.037807472 -68.1827408377 -23.1325280042 -68.1703563215 -23.1689990936 -68.1701096752 -23.1697247905 -68.1683865017 -23.1747941038 -68.1637261655 -23.188497908 -68.1546970872 -23.2150223982 -68.1399065105 -23.2583993589 -68.1180068437 -23.3224600683 -68.2718972019 -23.4741275665 -68.7211558923 -23.7595425158 -69.219810432 -24.0989838382 -69.7648258126 -24.495833187 -70.3530034823 -24.9533321716 -70.9809872349 -25.4745754277 -71.6452693721 -26.0625039214 -72.3421971305 -26.7198984975 -73.0679793647 -27.449373684 -73.2865131574 -28.0496850292 -73.0932783395 -28.5494396194 -72.8261430522 -29.2241463372 -72.6248996137 -29.7207300902 -72.0546539409 -30.0087415521 -71.0262213341 -30.0436739496 -70.068165308 -30.0458140914 -69.1814597215 -30.0196631039 -68.3668637048 -29.9697486245 -67.6249210304 -29.9006157098 -66.9559598433 -29.8168177334 -66.360092753 -29.7229072863 -65.8372172846 -29.6234270937 -65.6212124945 -29.6286427424 -65.5933240912 -29.6903323434 -65.5744123847 -29.7320776334 -65.5628370366 -29.757593984 -65.5568533759 -29.770773847 -65.5546393316 -29.7756488107 -65.5543223553 -29.776346662 -65.5543223553 -29.776346662 -65.512903104 -29.8673655832 -65.4713574776 -29.9583268899 -65.4296855561 -30.0492304066 -65.38788742 -30.140075958 -65.3459631498 -30.2308633688 -65.3039128265 -30.321592464 -65.2617365311 -30.4122630684 -65.2194343451 -30.5028750071 -65.17700635 -30.5934281055 -65.1344526277 -30.6839221888 -65.0917732602 -30.7743570824 -65.04896833 -30.8647326119 -65.0060379194 -30.955048603 -64.9629821115 -31.0453048814 -64.9198009892 -31.1355012731 -64.8764946358 -31.225637604 -64.8330631348 -31.3157137003 -64.7895065701 -31.4057293881 -64.7458250257 -31.495684494 -64.7289671255 -31.5303158065 -64.7286314702 -31.5310048681 -64.726286531 -31.5358182374 -64.7199454009 -31.548829888 -64.7076631195 -31.5740135811 -64.6875525961 -31.6151947507 -64.6577966789 -31.6760055663 -64.7914645876 -31.8457646971 -65.2014087606 -32.1852361087 -65.6535879818 -32.5844988208 -66.1445673412 -33.0465274339 -66.6707672272 -33.5741371116 -67.2284700376 -34.1699774433 -67.8138271324 -34.8365265735 -68.4228660194 -35.5760856065 -69.0514977599 -36.3907732976 -69.1930693863 -37.0137405553 -68.938722424 -37.4853356868 -68.5891304035 -38.1212412112 -68.3272353822 -38.5886867621 -67.725388859 -38.8029564336 -66.7006875601 -38.7087165946 -65.7499178611 -38.590763601 -64.8734818008 -38.4536851435 -64.0715650601 -38.3020683019 -63.344137477 -38.1404904463 -62.69095392 -37.9735101733 -62.1115555197 -37.8056582889 -61.6052712547 -37.6414288542 -61.3903160328 -37.6195307971 -61.3549157808 -37.6772386134 -61.3309211266 -37.7162844639 -61.3162390068 -37.7401488347 -61.3086506542 -37.752474819 -61.3058430734 -37.7570338489 -61.3054411325 -37.7576864697 -61.3054411325 -37.7576864697 -61.2529407887 -37.8427964708 -61.2003222872 -37.9278334728 -61.1475857296 -38.0127973114 -61.0947312176 -38.097687823 -61.041758853 -38.1825048436 -60.9886687382 -38.2672482097 -60.9354609755 -38.3519177578 -60.8821356676 -38.4365133247 -60.8286929173 -38.521034747 -60.7751328277 -38.6054818618 -60.7214555021 -38.6898545061 -60.6676610441 -38.7741525173 -60.6137495575 -38.8583757326 -60.5597211463 -38.9425239897 -60.5055759146 -39.0265971262 -60.4513139669 -39.1105949799 -60.3969354079 -39.1945173887 -60.3424403425 -39.2783641909 -60.2878288758 -39.3621352247 -60.2667634508 -39.3943806039 -60.2663440799 -39.3950221632 -60.2634143561 -39.3995036789 -60.2554924355 -39.4116179744 -60.2401506498 -39.4350637085 -60.2150373348 -39.4733996353 -60.1778944357 -39.5300015341 -60.2892318722 -39.7151750948 -60.6533964633 -40.1033493016 -61.0519692295 -40.5561367919 -61.4811695299 -41.0760582021 -61.9370931457 -41.6654578532 -62.4157197074 -42.3264985025 -62.9129203289 -43.0611563911 -63.4244654373 -43.8712165934 -63.9460327861 -44.7582686775 -64.0084095771 -45.394067282 -63.6969616738 -45.8300656177 -63.2704261952 -46.4171413389 -62.952009832 -46.8480767921 -62.3280539375 -46.9852255123 -61.3232440982 -46.7632996554 -60.3947549324 -46.5271137156 -59.5424103185 -46.2812695973 -58.7658195599 -46.0303414815 -58.0643790356 -45.7788668645 -57.4372742037 -45.5313376734 -56.8834819523 -45.2921914763 -56.401773296 -45.0658027956 -56.1912576145 -45.0171363783 -56.1489037969 -45.0699523231 -56.1202046049 -45.1056829579 -56.1026472593 -45.1275189934 -56.0935738877 -45.1387967109 -56.0902170475 -45.1429679083 -56.089736481 -45.1435650065 -56.089736481 -45.1435650065 -56.0269830064 -45.2214238519 -55.9641214551 -45.2991954648 -55.9011519484 -45.3768796949 -55.8380746076 -45.4544763925 -55.7748895545 -45.5319854078 -55.711596911 -45.6094065914 -55.6481967992 -45.6867397939 -55.5846893413 -45.7639848662 -55.5210746599 -45.8411416591 -55.4573528776 -45.918210024 -55.3935241175 -45.995189812 -55.3295885026 -46.0720808748 -55.2655461562 -46.148883064 -55.2013972019 -46.2255962315 -55.1371417635 -46.3022202292 -55.0727799649 -46.3787549094 -55.0083119302 -46.4552001243 -54.9437377838 -46.5315557267 -54.8790576503 -46.6078215691 -54.8541169149 -46.637172486 -54.8536204421 -46.6377564254 -54.8501521372 -46.6418354112 -54.8407743595 -46.6528613019 -54.8226150187 -46.6741993238 -54.792894964 -46.7090854274 -54.7489508487 -46.7605857637 -54.8362019552 -46.9582534565 -55.1488438712 -47.3890087195 -55.4875244518 -47.8881802588 -55.8481769481 -48.4577949949 -56.2266341058 -49.0996894346 -56.618636192 -49.8155053957 -57.0198391894 -50.606686049 -57.4258231473 -51.4744722872 -57.8321006757 -52.419899423 -57.8142989122 -53.0585024506 -57.4506617873 -53.4520280364 -56.9539095699 -53.9810154193 -56.5839934809 -54.3686446654 -55.9477683726 -54.4265095171 -54.9786964442 -54.0803975456 -54.0871306403 -53.729703453 -53.2723194566 -53.3789707824 -52.5333019802 -53.0326886789 -51.8689106509 -52.6952832052 -51.2777743618 -52.3711087794 -50.7583218938 -52.0644397479 -50.3087856796 -51.7794621061 -50.1060294966 -51.7047948268 -50.0573900583 -51.7518859613 -50.0244389321 -51.7837378868 -50.0042832504 -51.8032012198 -49.9938679523 -51.813252814 -49.9900147921 -51.8169703966 -49.9894631788 -51.8175025556 -49.9894631788 -51.8175025556 -49.9174462332 -51.8868823649 -49.8453329963 -51.9561620839 -49.7731236072 -52.0253415787 -49.7008182051 -52.0944207161 -49.6284169295 -52.1633993627 -49.5559199201 -52.2322773855 -49.4833273167 -52.3010546516 -49.4106392594 -52.3697310283 -49.3378558884 -52.4383063832 -49.2649773441 -52.5067805839 -49.192003767 -52.5751534984 -49.118935298 -52.6434249949 -49.0457720779 -52.7115949415 -48.972514248 -52.7796632069 -48.8991619495 -52.8476296596 -48.8257153239 -52.9154941686 -48.752174513 -52.983256603 -48.6785396585 -53.050916832 -48.6048109025 -53.1184747252 -48.5763881869 -53.1444682984 -48.575822442 -53.1449854087 -48.5718702532 -53.1485975366 -48.5611845115 -53.1583611377 -48.5404939992 -53.1772549339 -48.5066359079 -53.2081410397 -48.4565836014 -53.2537276224 -48.5183723758 -53.4607721096 -48.7745610669 -53.927315161 -49.0480082668 -54.464998516 -49.3344252537 -55.0753234133 -49.629447458 -55.759589583 -49.9286429616 -56.5188920104 -50.2275211239 -57.354118037 -50.5215413217 -58.2659448037 -50.8061217905 -59.2548370405 -50.7084222167 -59.8861733398 -50.2983306451 -60.2310200422 -49.7391957681 -60.6935766399 -49.3236137511 -61.031786534 -48.6851530788 -61.009454954 -47.7671019046 -60.5446152604 -46.9265199879 -60.0849436704 -46.1620922935 -59.6348537112 -45.4723028464 -59.1986786955 -44.8554385603 -58.7806634511 -44.3095933864 -58.3849562149 -43.8326727776 -58.0156007028 -43.4223984601 -57.6765283675 -43.2305993617 -57.577037774 -43.1764413757 -57.6176614427 -43.1397579741 -57.6451323351 -43.1173218235 -57.6619160171 -43.1057288543 -57.6705829686 -43.1014401408 -57.6737883079 -43.10082618 -57.6742471351 -43.10082618 -57.6742471351 -43.0206815137 -57.7340537473 -42.94045386 -57.7937489898 -42.8601433737 -57.8533327475 -42.7797502096 -57.9128049053 -42.6992745229 -57.9721653487 -42.6187164687 -58.0314139631 -42.5380762026 -58.0905506342 -42.45735388 -58.1495752479 -42.3765496566 -58.2084876904 -42.2956636884 -58.267287848 -42.2146961313 -58.3259756073 -42.1336471415 -58.3845508551 -42.0525168755 -58.4430134784 -41.9713054896 -58.5013633644 -41.8900131406 -58.5596004006 -41.8086399853 -58.6177244746 -41.7271861805 -58.6757354743 -41.6456518836 -58.7336332879 -41.5640372516 -58.7914178035 -41.5325807991 -58.8136440987 -41.5319547041 -58.8140862248 -41.5275809599 -58.8171745294 -41.5157557747 -58.825521863 -41.4928603928 -58.8416734672 -41.4553982271 -58.8680724828 -41.4000270842 -58.9070263842 -41.4353790805 -59.1201824507 -41.631074298 -59.6151556278 -41.8349756916 -60.1828712107 -42.0426402021 -60.824281081 -42.2495747765 -61.5401276945 -42.4512452057 -62.3309419354 -42.6430850458 -63.1970413218 -42.8205046094 -64.1385285642 -42.9789000145 -65.1552904807 -42.8028434112 -65.7694035013 -42.3527647818 -66.0601328816 -41.7400651362 -66.4489639003 -41.2853711679 -66.7324206704 -40.6547438378 -66.630244841 -39.8021916332 -66.0540082249 -39.0258500828 -65.492608433 -38.3238613591 -64.9502593729 -37.6941783329 -64.4310701856 -37.1345694082 -63.9390375206 -36.6426236539 -63.4780380135 -36.2157562273 -63.0518209778 -35.8512140775 -62.6640013223 -35.6733968501 -62.5412564407 -35.6145744203 -62.5747719841 -35.5747372625 -62.597428611 -35.5503744745 -62.6112679533 -35.5377866623 -62.618413579 -35.533130031 -62.6210561249 -35.5324634051 -62.6214343844 -35.5324634051 -62.6214343844 -35.4454549474 -62.6707246134 -35.3583781149 -62.7198939499 -35.2712330757 -62.7689422988 -35.1840199979 -62.8178695658 -35.0967390497 -62.8666756563 -35.0093903995 -62.9153604763 -34.9219742157 -62.9639239317 -34.834490667 -63.012365929 -34.7469399222 -63.0606863747 -34.6593221501 -63.1088851755 -34.5716375197 -63.1569622386 -34.4838862002 -63.2049174711 -34.396068361 -63.2527507806 -34.3081841712 -63.3004620747 -34.2202338006 -63.3480512615 -34.1322174187 -63.3955182492 -34.0441351954 -63.4428629461 -33.9559873006 -63.490085261 -33.8677739042 -63.5371851027 -33.8337798017 -63.555293598 -33.8331032306 -63.5556537673 -33.8283769075 -63.5581695442 -33.8155987691 -63.5649689679 -33.7908595913 -63.5781236597 -33.750384152 -63.5996192567 -33.6905674086 -63.6313261506 -33.6989251048 -63.8472321979 -33.8310406183 -64.3628294781 -33.9621805587 -64.951624075 -34.0878175995 -65.6140035015 -34.2034010622 -66.3501412299 -34.3043659539 -67.1599956713 -34.3861420428 -68.0433095129 -34.4441629597 -68.9996094148 -34.473875311 -70.0282060682 -34.2222381959 -70.6154108808 -33.7392705176 -70.8474379631 -33.0826687428 -71.1564113053 -32.5960336187 -71.3806446688 -31.9831850006 -71.2002359638 -31.2095770231 -70.521690021 -30.509719209 -69.8674156373 -29.8812402374 -69.2413606448 -29.3215941097 -68.6473452095 -28.8280659134 -68.089054773 -28.3977778573 -67.5700332326 -28.0276955671 -67.0936763707 -27.7146346325 -66.6632255426 -27.5536035599 -66.5191621329 -27.4910443511 -66.5450409909 -27.4486816929 -66.5625260437 -27.4227764832 -66.5732027917 -27.4093923453 -66.5787144008 -27.4044412341 -66.5807524788 -27.4037324563 -66.5810442053 -27.4037324563 -66.5810442053 -27.3112323825 -66.6190407147 -27.2186796249 -66.6569087153 -27.1260743622 -66.6946481338 -27.033416773 -66.7322588976 -26.940707036 -66.7697409341 -26.84794533 -66.8070941709 -26.7551318341 -66.844318536 -26.6622667271 -66.8814139576 -26.5693501884 -66.9183803642 -26.476382397 -66.9552176844 -26.3833635324 -66.9919258472 -26.2902937739 -67.0285047818 -26.1971733012 -67.0649544176 -26.1040022937 -67.1012746842 -26.0107809314 -67.1374655117 -25.917509394 -67.1735268303 -25.8241878613 -67.2094585702 -25.7308165135 -67.2452606624 -25.6373955306 -67.2809330376 -25.6013998855 -67.2946381512 -25.6006835082 -67.2949106836 -25.5956791431 -67.2968142575 -25.5821495704 -67.3019585403 -25.5559567483 -67.3119088622 -25.5131063573 -67.3281620424 -25.4497873593 -67.3521218921 -25.4310189495 -67.5673729528 -25.4974712184 -68.0954630589 -25.5537815505 -68.6960510274 -25.5954097502 -69.3689538908 -25.6178192809 -70.1137734025 -25.6164863584 -70.9298961561 -25.5869090385 -71.8164940658 -25.5246162842 -72.7725252065 -25.425177 -73.7967350131 -25.1019278409 -74.3477710471 -24.5936878024 -74.5174366258 -23.9035389007 -74.7416795973 -23.3926371474 -74.90315326 -22.80723223 -74.6473568326 -22.1247687397 -73.8772026379 -21.5124318376 -73.1403719602 -20.9673741071 -72.4404842966 -20.4865908315 -71.7810105916 -20.0669265981 -71.1652669572 -19.7050821398 -70.5964086633 -19.3976214048 -70.0774244074 -19.1409788434 -69.6111308734 -18.9992734819 -69.4480209017 -18.9339640901 -69.4658549493 -18.889744016 -69.4778926783 -18.8627049253 -69.4852384532 -18.8487355375 -69.4890291243 -18.8435680284 -69.4904305927 -18.8428282764 -69.4906311854 -18.8428282764 -69.4906311854 -18.7462953679 -69.5167347477 -18.6497262976 -69.5427042113 -18.5531212517 -69.5685395263 -18.4564804166 -69.5942406427 -18.3598039787 -69.619807511 -18.2630921245 -69.6452400818 -18.1663450407 -69.6705383061 -18.0695629137 -69.6957021351 -17.9727459303 -69.7207315203 -17.8758942773 -69.7456264133 -17.7790081414 -69.7703867662 -17.6820877097 -69.7950125312 -17.585133169 -69.8195036607 -17.4881447063 -69.8438601076 -17.3911225088 -69.8680818248 -17.2940667636 -69.8921687657 -17.196977658 -69.9161208837 -17.0998553792 -69.9399381327 -17.0027001145 -69.9636204667 -16.9652705996 -69.9727060609 -16.9645257138 -69.9728866584 -16.9593222285 -69.9741480087 -16.945254591 -69.9775560223 -16.9180212011 -69.9841450519 -16.8734716345 -69.9948994927 -16.8076489603 -70.0107344371 -16.7620504336 -70.2219358734 -16.7617914658 -70.7541905091 -16.742384142 -71.357100218 -16.6993469992 -72.0299144383 -16.6282291863 -72.7716694846 -16.5246194706 -73.5811898071 -16.3841551937 -74.4570896063 -16.2025311622 -75.3977748035 -15.9755084596 -76.4014453629 -15.5857450886 -76.9076224508 -15.0602479391 -77.0122507982 -14.3474359709 -77.1482269534 -13.8203248143 -77.2443943793 -13.2715957828 -76.9172442919 -12.6910396365 -76.0676276371 -12.1758805652 -75.2598609254 -11.7228399617 -74.4971782372 -11.3285017778 -73.7826465568 -10.9893198629 -73.1191603695 -10.7016255057 -72.509436557 -10.4616351654 -71.9560095989 -10.2654583836 -71.4612270866 -10.1453135114 -71.2816428946 -10.0782839049 -71.2911508782 -10.0329037917 -71.2975514412 -10.0051572426 -71.3014503958 -9.99082291052 -71.3034603478 -9.98552049823 -71.3042031046 -9.98476143851 -71.3043094 -9.98476143851 -71.3043094 -9.88571807693 -71.3181083464 -9.78665564569 -71.3317697192 -9.68757433586 -71.3452934922 -9.58847433859 -71.3586796393 -9.48935584504 -71.3719281346 -9.3902190464 -71.3850389526 -9.29106413392 -71.398012068 -9.19189129886 -71.4108474558 -9.09270073254 -71.4235450912 -8.99349262628 -71.4361049497 -8.89426717147 -71.4485270071 -8.79502455952 -71.4608112394 -8.69576498185 -71.472957623 -8.59648862995 -71.4849661344 -8.49719569532 -71.4968367504 -8.39788636949 -71.5085694482 -8.29856084405 -71.5201642051 -8.19921931057 -71.5316209987 -8.09986196071 -71.5429398069 -8.06158886183 -71.5472625963 -8.06082721477 -71.5473484108 -8.05550667141 -71.5479476454 -8.04112282402 -71.5495656432 -8.01327835317 -71.5526894675 -7.9677321844 -71.5577755652 -7.90044389686 -71.5652358777 -7.8287343692 -71.7690569168 -7.7617682489 -72.2970821084 -7.66694933426 -72.8928053116 -7.53992557039 -73.5549202065 -7.37640198417 -74.2819128673 -7.17214946238 -75.0720641395 -6.92301343417 -75.9234523651 -6.6249224448 -76.8339564515 -6.27389660741 -77.8012592793 -5.82376582589 -78.254594706 -5.28929896922 -78.2925357708 -4.56506540508 -78.3381006845 -4.03005770289 -78.3674452557 -3.52665834211 -77.9741008606 -3.05716525705 -77.0584207078 -2.64730838285 -76.1924569257 -2.2934296273 -75.3790071745 -1.99175548369 -74.6206861101 -1.73840498884 -73.9199209434 -1.52939784452 -73.2789473213 -1.36066268998 -72.6998055347 -1.22804551287 -72.1843370598 -1.13135588636 -71.9911107975 -1.06366316197 -71.9921427704 -1.01783868128 -71.9928052268 -0.989822253398 -71.9931958723 -0.975349038041 -71.993393407 -0.969995344744 -71.9934657384 -0.96922894809 -71.9934760603 -0.96922894809 -71.9934760603 -0.869237106437 -71.9947527731 -0.769243588016 -71.995890607 -0.669248585714 -71.9968895601 -0.569252292424 -71.9977496303 -0.46925490104 -71.998470816 -0.369256604457 -71.9990531157 -0.269257595573 -71.9994965284 -0.169258067289 -71.9998010532 -0.0692582125035 -71.9999666896 0.0307417758818 -71.9999934371 0.130741704966 -71.9998812958 0.230741381848 -71.9996302658 0.330740613626 -71.9992403477 0.430739207403 -71.9987115422 0.530736970278 -71.9980438503 0.630733709355 -71.9972372733 0.730729231739 -71.9962918128 0.830723344538 -71.9952074705 0.930715854861 -71.9939842487 0.96922894809 -71.9934760603 0.969995344744 -71.9934657384 0.975349038041 -71.993393407 0.989822253398 -71.9931958723 1.01783868128 -71.9928052268 1.06366316197 -71.9921427704 1.13135588636 -71.9911107975 1.22804551287 -72.1843370598 1.36066268998 -72.6998055347 1.52939784452 -73.2789473213 1.73840498884 -73.9199209434 1.99175548369 -74.6206861101 2.2934296273 -75.3790071745 2.64730838285 -76.1924569257 3.05716525705 -77.0584207078 3.52665834211 -77.9741008606 4.03005770289 -78.3674452557 4.56506540508 -78.3381006845 5.28929896922 -78.2925357708 5.82376582589 -78.254594706 6.27389660741 -77.8012592793 6.6249224448 -76.8339564515 6.92301343417 -75.9234523651 7.17214946238 -75.0720641395 7.37640198417 -74.2819128673 7.53992557039 -73.5549202065 7.66694933426 -72.8928053116 7.7617682489 -72.2970821084 7.8287343692 -71.7690569168 7.90044389686 -71.5652358777 7.9677321844 -71.5577755652 8.01327835317 -71.5526894675 8.04112282402 -71.5495656432 8.05550667141 -71.5479476454 8.06082721477 -71.5473484108 8.06158886183 -71.5472625963 8.06158886183 -71.5472625963 8.16095225248 -71.5359969409 8.26029990056 -71.5245932918 8.35963161442 -71.5130516708 8.45894720245 -71.5013721003 8.55824647307 -71.4895546028 8.65752923472 -71.4775992011 8.7567952959 -71.4655059182 8.85604446512 -71.4532747775 8.95527655092 -71.4409058026 9.05449136188 -71.4283990173 9.15368870662 -71.4157544458 9.25286839378 -71.4029721124 9.35203023205 -71.3900520419 9.45117403014 -71.376994259 9.55029959681 -71.3637987891 9.64940674082 -71.3504656576 9.74849527102 -71.3369948901 9.84756499626 -71.3233865127 9.94661572542 -71.3096405517 9.98476143851 -71.3043094 9.98552049823 -71.3042031046 9.99082291052 -71.3034603478 10.0051572426 -71.3014503958 10.0329037917 -71.2975514412 10.0782839049 -71.2911508782 10.1453135114 -71.2816428946 10.2654583836 -71.4612270866 10.4616351654 -71.9560095989 10.7016255057 -72.509436557 10.9893198629 -73.1191603695 11.3285017778 -73.7826465568 11.7228399617 -74.4971782372 12.1758805652 -75.2598609254 12.6910396365 -76.0676276371 13.2715957828 -76.9172442919 13.8203248143 -77.2443943793 14.3474359709 -77.1482269534 15.0602479391 -77.0122507982 15.5857450886 -76.9076224508 15.9755084596 -76.4014453629 16.2025311622 -75.3977748035 16.3841551937 -74.4570896063 16.5246194706 -73.5811898071 16.6282291863 -72.7716694846 16.6993469992 -72.0299144383 16.742384142 -71.357100218 16.7617914658 -70.7541905091 16.7620504336 -70.2219358734 16.8076489603 -70.0107344371 16.8734716345 -69.9948994927 16.9180212011 -69.9841450519 16.945254591 -69.9775560223 16.9593222285 -69.9741480087 16.9645257138 -69.9728866584 16.9652705996 -69.9727060609 16.9652705996 -69.9727060609 17.0624385193 -69.9490757035 17.1595735252 -69.9253104136 17.2566754302 -69.9014102368 17.3537440468 -69.8773752194 17.4507791878 -69.8532054077 17.5477806661 -69.8289008484 17.6447482945 -69.8044615882 17.741681886 -69.7798876744 17.8385812535 -69.7551791544 17.9354462102 -69.7303360758 18.0322765692 -69.7053584865 18.1290721438 -69.6802464347 18.2258327471 -69.654999969 18.3225581926 -69.6296191378 18.4192482936 -69.6041039903 18.5159028637 -69.5784545757 18.6125217164 -69.5526709434 18.7091046653 -69.5267531431 18.8056515242 -69.5007012249 18.8428282764 -69.4906311854 18.8435680284 -69.4904305927 18.8487355375 -69.4890291243 18.8627049253 -69.4852384532 18.889744016 -69.4778926783 18.9339640901 -69.4658549493 18.9992734819 -69.4480209017 19.1409788434 -69.6111308734 19.3976214048 -70.0774244074 19.7050821398 -70.5964086633 20.0669265981 -71.1652669572 20.4865908315 -71.7810105916 20.9673741071 -72.4404842966 21.5124318376 -73.1403719602 22.1247687397 -73.8772026379 22.80723223 -74.6473568326 23.3926371474 -74.90315326 23.9035389007 -74.7416795973 24.5936878024 -74.5174366258 25.1019278409 -74.3477710471 25.425177 -73.7967350131 25.5246162842 -72.7725252065 25.5869090385 -71.8164940658 25.6164863584 -70.9298961561 25.6178192809 -70.1137734025 25.5954097502 -69.3689538908 25.5537815505 -68.6960510274 25.4974712184 -68.0954630589 25.4310189495 -67.5673729528 25.4497873593 -67.3521218921 25.5131063573 -67.3281620424 25.5559567483 -67.3119088622 25.5821495704 -67.3019585403 25.5956791431 -67.2968142575 25.6006835082 -67.2949106836 25.6013998855 -67.2946381512 25.6013998855 -67.2946381512 25.694839938 -67.2590157567 25.7882304248 -67.2232636188 25.8815711658 -67.1873818063 25.9748619809 -67.1513703886 26.0681026902 -67.1152294351 26.1612931139 -67.0789590156 26.254433072 -67.0425591999 26.3475223851 -67.0060300582 26.4405608735 -66.9693716612 26.5335483577 -66.9325840794 26.6264846584 -66.8956673839 26.7193695962 -66.8586216458 26.8122029921 -66.8214469367 26.9049846669 -66.7841433281 26.9977144417 -66.7467108922 27.0903921376 -66.709149701 27.1830175758 -66.6714598271 27.2755905776 -66.6336413431 27.3681109644 -66.5956943221 27.4037324563 -66.5810442053 27.4044412341 -66.5807524788 27.4093923453 -66.5787144008 27.4227764832 -66.5732027917 27.4486816929 -66.5625260437 27.4910443511 -66.5450409909 27.5536035599 -66.5191621329 27.7146346325 -66.6632255426 28.0276955671 -67.0936763707 28.3977778573 -67.5700332326 28.8280659134 -68.089054773 29.3215941097 -68.6473452095 29.8812402374 -69.2413606448 30.509719209 -69.8674156373 31.2095770231 -70.521690021 31.9831850006 -71.2002359638 32.5960336187 -71.3806446688 33.0826687428 -71.1564113053 33.7392705176 -70.8474379631 34.2222381959 -70.6154108808 34.473875311 -70.0282060682 34.4441629597 -68.9996094148 34.3861420428 -68.0433095129 34.3043659539 -67.1599956713 34.2034010622 -66.3501412299 34.0878175995 -65.6140035015 33.9621805587 -64.951624075 33.8310406183 -64.3628294781 33.6989251048 -63.8472321979 33.6905674086 -63.6313261506 33.750384152 -63.5996192567 33.7908595913 -63.5781236597 33.8155987691 -63.5649689679 33.8283769075 -63.5581695442 33.8331032306 -63.5556537673 33.8337798017 -63.555293598 33.8337798017 -63.555293598 33.9220183815 -63.5082409528 34.0101915254 -63.4610657995 34.0982990632 -63.413768229 34.186340825 -63.3663483325 34.2743166409 -63.3188062016 34.3622263412 -63.271141928 34.4500697564 -63.2233556036 34.537846717 -63.1754473206 34.6255570536 -63.1274171713 34.7132005972 -63.0792652486 34.8007771786 -63.0309916451 34.8882866288 -62.9825964542 34.9757287791 -62.934079769 35.0631034608 -62.8854416832 35.1504105054 -62.8366822907 35.2376497444 -62.7878016854 35.3248210096 -62.7387999618 35.4119241327 -62.6896772142 35.4989589459 -62.6404335375 35.5324634051 -62.6214343844 35.533130031 -62.6210561249 35.5377866623 -62.618413579 35.5503744745 -62.6112679533 35.5747372625 -62.597428611 35.6145744203 -62.5747719841 35.6733968501 -62.5412564407 35.8512140775 -62.6640013223 36.2157562273 -63.0518209778 36.6426236539 -63.4780380135 37.1345694082 -63.9390375206 37.6941783329 -64.4310701856 38.3238613591 -64.9502593729 39.0258500828 -65.492608433 39.8021916332 -66.0540082249 40.6547438378 -66.630244841 41.2853711679 -66.7324206704 41.7400651362 -66.4489639003 42.3527647818 -66.0601328816 42.8028434112 -65.7694035013 42.9789000145 -65.1552904807 42.8205046094 -64.1385285642 42.6430850458 -63.1970413218 42.4512452057 -62.3309419354 42.2495747765 -61.5401276945 42.0426402021 -60.824281081 41.8349756916 -60.1828712107 41.631074298 -59.6151556278 41.4353790805 -59.1201824507 41.4000270842 -58.9070263842 41.4553982271 -58.8680724828 41.4928603928 -58.8416734672 41.5157557747 -58.825521863 41.5275809599 -58.8171745294 41.5319547041 -58.8140862248 41.5325807991 -58.8136440987 41.5325807991 -58.8136440987 41.6142263312 -58.7559032511 41.695791589 -58.6980490627 41.7772764151 -58.6400816451 41.8586806523 -58.58200111 41.9400041436 -58.5238075695 42.0212467322 -58.4655011359 42.1024082612 -58.4070819217 42.1834885742 -58.3485500395 42.2644875148 -58.2899056022 42.3454049266 -58.231148723 42.4262406537 -58.1722795152 42.50699454 -58.1132980924 42.5876664298 -58.0542045684 42.6682561675 -57.994999057 42.7487635976 -57.9356816727 42.8291885648 -57.8762525297 42.9095309141 -57.8167117427 42.9897904903 -57.7570594266 43.0699671387 -57.6972956964 43.10082618 -57.6742471351 43.1014401408 -57.6737883079 43.1057288543 -57.6705829686 43.1173218235 -57.6619160171 43.1397579741 -57.6451323351 43.1764413757 -57.6176614427 43.2305993617 -57.577037774 43.4223984601 -57.6765283675 43.8326727776 -58.0156007028 44.3095933864 -58.3849562149 44.8554385603 -58.7806634511 45.4723028464 -59.1986786955 46.1620922935 -59.6348537112 46.9265199879 -60.0849436704 47.7671019046 -60.5446152604 48.6851530788 -61.009454954 49.3236137511 -61.031786534 49.7391957681 -60.6935766399 50.2983306451 -60.2310200422 50.7084222167 -59.8861733398 50.8061217905 -59.2548370405 50.5215413217 -58.2659448037 50.2275211239 -57.354118037 49.9286429616 -56.5188920104 49.629447458 -55.759589583 49.3344252537 -55.0753234133 49.0480082668 -54.464998516 48.7745610669 -53.927315161 48.5183723758 -53.4607721096 48.4565836014 -53.2537276224 48.5066359079 -53.2081410397 48.5404939992 -53.1772549339 48.5611845115 -53.1583611377 48.5718702532 -53.1485975366 48.575822442 -53.1449854087 48.5763881869 -53.1444682984 48.5763881869 -53.1444682984 48.6501530725 -53.0769498561 48.7238241113 -53.0093290277 48.7974011613 -52.9416059437 48.8708840805 -52.8737807348 48.9442727272 -52.8058535316 49.0175669599 -52.7378244653 49.090766637 -52.6696936672 49.1638716174 -52.6014612685 49.2368817602 -52.533127401 49.3097969244 -52.4646921965 49.3826169695 -52.3961557869 49.4553417548 -52.3275183046 49.5279711402 -52.2587798818 49.6005049856 -52.1899406512 49.672943151 -52.1210007456 49.7452854967 -52.0519602979 49.8175318831 -51.9828194414 49.8896821709 -51.9135783094 49.9617362209 -51.8442370355 49.9894631788 -51.8175025556 49.9900147921 -51.8169703966 49.9938679523 -51.813252814 50.0042832504 -51.8032012198 50.0244389321 -51.7837378868 50.0573900583 -51.7518859613 50.1060294966 -51.7047948268 50.3087856796 -51.7794621061 50.7583218938 -52.0644397479 51.2777743618 -52.3711087794 51.8689106509 -52.6952832052 52.5333019802 -53.0326886789 53.2723194566 -53.3789707824 54.0871306403 -53.729703453 54.9786964442 -54.0803975456 55.9477683726 -54.4265095171 56.5839934809 -54.3686446654 56.9539095699 -53.9810154193 57.4506617873 -53.4520280364 57.8142989122 -53.0585024506 57.8321006757 -52.419899423 57.4258231473 -51.4744722872 57.0198391894 -50.606686049 56.618636192 -49.8155053957 56.2266341058 -49.0996894346 55.8481769481 -48.4577949949 55.4875244518 -47.8881802588 55.1488438712 -47.3890087195 54.8362019552 -46.9582534565 54.7489508487 -46.7605857637 54.792894964 -46.7090854274 54.8226150187 -46.6741993238 54.8407743595 -46.6528613019 54.8501521372 -46.6418354112 54.8536204421 -46.6377564254 54.8541169149 -46.637172486 54.8541169149 -46.637172486 54.9188378376 -46.5609412552 54.9834528212 -46.4846202077 55.0479617411 -46.4082094909 55.1123644728 -46.3317092521 55.1766608921 -46.2551196388 55.2408508749 -46.1784407989 55.3049342975 -46.1016728802 55.3689110362 -46.0248160308 55.4327809676 -45.9478703989 55.4965439685 -45.8708361331 55.5601999159 -45.7937133819 55.623748687 -45.7165022941 55.6871901592 -45.6392030186 55.7505242102 -45.5618157045 55.8137507177 -45.4843405011 55.8768695598 -45.4067775579 55.9398806148 -45.3291270245 56.0027837611 -45.2513890506 56.0655788773 -45.1735637863 56.089736481 -45.1435650065 56.0902170475 -45.1429679083 56.0935738877 -45.1387967109 56.1026472593 -45.1275189934 56.1202046049 -45.1056829579 56.1489037969 -45.0699523231 56.1912576145 -45.0171363783 56.401773296 -45.0658027956 56.8834819523 -45.2921914763 57.4372742037 -45.5313376734 58.0643790356 -45.7788668645 58.7658195599 -46.0303414815 59.5424103185 -46.2812695973 60.3947549324 -46.5271137156 61.3232440982 -46.7632996554 62.3280539375 -46.9852255123 62.952009832 -46.8480767921 63.2704261952 -46.4171413389 63.6969616738 -45.8300656177 64.0084095771 -45.394067282 63.9460327861 -44.7582686775 63.4244654373 -43.8712165934 62.9129203289 -43.0611563911 62.4157197074 -42.3264985025 61.9370931457 -41.6654578532 61.4811695299 -41.0760582021 61.0519692295 -40.5561367919 60.6533964633 -40.1033493016 60.2892318722 -39.7151750948 60.1778944357 -39.5300015341 60.2150373348 -39.4733996353 60.2401506498 -39.4350637085 60.2554924355 -39.4116179744 60.2634143561 -39.3995036789 60.2663440799 -39.3950221632 60.2667634508 -39.3943806039 60.2667634508 -39.3943806039 60.3214197231 -39.3106387965 60.3759596346 -39.2268211585 60.4303830802 -39.1429278515 60.4846899548 -39.0589590373 60.5388801537 -38.9749148778 60.5929535724 -38.8907955353 60.6469101066 -38.806601172 60.7007496521 -38.7223319503 60.7544721052 -38.6379880328 60.8080773622 -38.5535695821 60.8615653196 -38.4690767611 60.9149358744 -38.3845097327 60.9681889235 -38.2998686603 61.0213243642 -38.2151537068 61.0743420941 -38.130365036 61.1272420108 -38.0455028111 61.1800240124 -37.9605671961 61.2326879969 -37.8755583546 61.2852338628 -37.7904764508 61.3054411325 -37.7576864697 61.3058430734 -37.7570338489 61.3086506542 -37.752474819 61.3162390068 -37.7401488347 61.3309211266 -37.7162844639 61.3549157808 -37.6772386134 61.3903160328 -37.6195307971 61.6052712547 -37.6414288542 62.1115555197 -37.8056582889 62.69095392 -37.9735101733 63.344137477 -38.1404904463 64.0715650601 -38.3020683019 64.8734818008 -38.4536851435 65.7499178611 -38.590763601 66.7006875601 -38.7087165946 67.725388859 -38.8029564336 68.3272353822 -38.5886867621 68.5891304035 -38.1212412112 68.938722424 -37.4853356868 69.1930693863 -37.0137405553 69.0514977599 -36.3907732976 68.4228660194 -35.5760856065 67.8138271324 -34.8365265735 67.2284700376 -34.1699774433 66.6707672272 -33.5741371116 66.1445673412 -33.0465274339 65.6535879818 -32.5844988208 65.2014087606 -32.1852361087 64.7914645876 -31.8457646971 64.6577966789 -31.6760055663 64.6875525961 -31.6151947507 64.7076631195 -31.5740135811 64.7199454009 -31.548829888 64.726286531 -31.5358182374 64.7286314702 -31.5310048681 64.7289671255 -31.5303158065 64.7289671255 -31.5303158065 64.7726967853 -31.440384081 64.8163014977 -31.3503917066 64.8597811787 -31.260338857 64.9031357444 -31.1702257057 64.9463651111 -31.0800524268 64.9894691956 -30.989819194 65.0324479146 -30.8995261815 65.0753011852 -30.8091735634 65.1180289247 -30.7187615141 65.1606310508 -30.6282902079 65.2031074813 -30.5377598193 65.2454581342 -30.4471705231 65.2876829278 -30.3565224939 65.3297817806 -30.2658159066 65.3717546116 -30.1750509362 65.4136013396 -30.0842277577 65.455321884 -29.9933465464 65.4969161644 -29.9024074776 65.5383841003 -29.8114107267 65.5543223553 -29.776346662 65.5546393316 -29.7756488107 65.5568533759 -29.770773847 65.5628370366 -29.757593984 65.5744123847 -29.7320776334 65.5933240912 -29.6903323434 65.6212124945 -29.6286427424 65.8372172846 -29.6234270937 66.360092753 -29.7229072863 66.9559598433 -29.8168177334 67.6249210304 -29.9006157098 68.3668637048 -29.9697486245 69.1814597215 -30.0196631039 70.068165308 -30.0458140914 71.0262213341 -30.0436739496 72.0546539409 -30.0087415521 72.6248996137 -29.7207300902 72.8261430522 -29.2241463372 73.0932783395 -28.5494396194 73.2865131574 -28.0496850292 73.0679793647 -27.449373684 72.3421971305 -26.7198984975 71.6452693721 -26.0625039214 70.9809872349 -25.4745754277 70.3530034823 -24.9533321716 69.7648258126 -24.495833187 69.219810432 -24.0989838382 68.7211558923 -23.7595425158 68.2718972019 -23.4741275665 68.1180068437 -23.3224600683 68.1399065105 -23.2583993589 68.1546970872 -23.2150223982 68.1637261655 -23.188497908 68.1683865017 -23.1747941038 68.1701096752 -23.1697247905 68.1703563215 -23.1689990936 68.1703563215 -23.1689990936 68.2024697258 -23.074295727 68.2344515668 -22.9795478497 68.2663017827 -22.8847556447 68.298020312 -22.7899192946 68.3296070937 -22.6950389826 68.3610620667 -22.6001148915 68.3923851704 -22.5051472046 68.4235763444 -22.4101361049 68.4546355285 -22.3150817758 68.4855626628 -22.2199844007 68.5163576875 -22.1248441629 68.5470205434 -22.0296612461 68.5775511713 -21.9344358337 68.6079495123 -21.8391681096 68.6382155077 -21.7438582575 68.6683490991 -21.6485064612 68.6983502285 -21.5531129046 68.728218838 -21.4576777719 68.7579548698 -21.362201247 68.7693727543 -21.3254160799 68.7695997672 -21.3246840037 68.7711853581 -21.3195699872 68.775469961 -21.3057440998 68.7837559873 -21.2789781774 68.7972864972 -21.2351917962 68.8172232349 -21.1704932924 69.0308710686 -21.1382461919 69.562091682 -21.1714082802 70.1650302823 -21.1898962661 70.8392191819 -21.1891904018 71.5839760685 -21.1647881083 72.3984046954 -21.1122130443 73.2813959314 -21.0270241451 74.2316291686 -20.9048246193 75.2475740868 -20.74127089 75.7772257944 -20.3840597504 75.9146439207 -19.8661692177 76.0951095919 -19.1633018346 76.2241848367 -18.643269214 75.9321352862 -18.07508105 75.1206485778 -17.4423226275 74.3468229149 -16.8774600135 73.6140918616 -16.3774241399 72.9257308457 -15.9389982768 72.2848513055 -15.5588250176 71.6943951219 -15.2334134845 71.1571293436 -14.9591467441 70.6756412136 -14.7322894214 70.5039553489 -14.6011054429 70.5176533945 -14.5348051152 70.5268907683 -14.489916444 70.5325242495 -14.4624694638 70.5354302955 -14.4482896232 70.5365045278 -14.4430443121 70.5366582753 -14.4422934245 70.5366582753 -14.4422934245 70.5566489766 -14.3443119454 70.5765035734 -14.2463027959 70.5962220272 -14.1482661652 70.6158043001 -14.0502022422 70.6352503543 -13.9521112163 70.6545601521 -13.8539932766 70.6737336565 -13.7558486123 70.6927708305 -13.6576774128 70.7116716372 -13.5594798676 70.7304360402 -13.4612561659 70.7490640034 -13.3630064973 70.7675554908 -13.2647310513 70.7859104667 -13.1664300175 70.8041288957 -13.0681035854 70.8222107427 -12.9697519449 70.8401559729 -12.8713752855 70.8579645515 -12.7729737971 70.8756364442 -12.6745476695 70.893171617 -12.5760970925 70.8998890641 -12.538170947 70.9000225335 -12.5374161912 70.9009546653 -12.532143773 70.9034726396 -12.5178899038 70.9083386686 -12.4902965242 70.9162745976 -12.4451595891 70.9279452554 -12.3784725165 71.1358667788 -12.3197025202 71.6670548707 -12.2860235183 72.2675562792 -12.2287974766 72.9363405297 -12.1435989033 73.6721663675 -12.0260462404 74.4735835786 -11.8718107732 75.3389351647 -11.676625467 76.2663598673 -11.4362937168 77.2537950386 -11.1466979958 77.7344998571 -10.7259206115 77.8059255054 -10.1948907422 77.8968755089 -9.47494733221 77.959755587 -8.94283790639 77.5987960745 -8.41573359033 76.7144025221 -7.88967091011 75.8758826478 -7.42624847906 75.0862582847 -7.0219910899 74.3483758699 -6.67329685771 73.6649015124 -6.3764448833 73.0383163725 -6.1276031001 72.470912358 -5.92283629218 71.9647881438 -5.75811427144 71.7780143613 -5.64948266242 71.7832947592 -5.58198831227 71.7868332512 -5.53629585171 71.788982292 -5.50835923668 71.7900882176 -5.49392698422 71.7904965675 -5.48858839694 71.7905549915 -5.48782416071 71.7905549915 -5.48782416071 71.7981077246 -5.38810979557 71.8055219583 -5.2883850367 71.8127976783 -5.18865007648 71.8199348705 -5.08890510729 71.8269335213 -4.98915032153 71.833793617 -4.88938591165 71.8405151444 -4.78961207008 71.8470980907 -4.6898289893 71.853542443 -4.59003686177 71.859848189 -4.49023588001 71.8660153164 -4.39042623653 71.8720438135 -4.29060812387 71.8779336685 -4.19078173457 71.8836848701 -4.09094726121 71.8892974072 -3.99110489635 71.894771269 -3.89125483261 71.900106445 -3.79139726259 71.9053029247 -3.69153237892 71.9103606983 -3.59166037424 Z" /></svg>