  0
SECTION
  2
HEADER
  9
$ACADVER
  1
AC1024
  9
$ACADMAINTVER
 70
6
  9
$DWGCODEPAGE
  3
ANSI_1252
  9
$LASTSAVEDBY
  1
ezdxf
  9
$INSBASE
 10
0.0
 20
0.0
 30
0.0
  9
$EXTMIN
 10
-100
 20
-100
 30
-100
  9
$EXTMAX
 10
100
 20
100
 30
100
  9
$LIMMIN
 10
0.0
 20
0.0
  9
$LIMMAX
 10
420.0
 20
297.0
  9
$ORTHOMODE
 70
0
  9
$REGENMODE
 70
1
  9
$FILLMODE
 70
1
  9
$QTEXTMODE
 70
0
  9
$MIRRTEXT
 70
1
  9
$LTSCALE
 40
1.0
  9
$ATTMODE
 70
1
  9
$TEXTSIZE
 40
2.5
  9
$TRACEWID
 40
1.0
  9
$TEXTSTYLE
  7
Standard
  9
$CLAYER
  8
0
  9
$CELTYPE
  6
ByLayer
  9
$CECOLOR
 62
256
  9
$CELTSCALE
 40
1.0
  9
$DISPSILH
 70
0
  9
$DIMSCALE
 40
1.0
  9
$DIMASZ
 40
2.5
  9
$DIMEXO
 40
0.625
  9
$DIMDLI
 40
3.75
  9
$DIMRND
 40
0.0
  9
$DIMDLE
 40
0.0
  9
$DIMEXE
 40
1.25
  9
$DIMTP
 40
0.0
  9
$DIMTM
 40
0.0
  9
$DIMTXT
 40
2.5
  9
$DIMCEN
 40
2.5
  9
$DIMTSZ
 40
0.0
  9
$DIMTOL
 70
0
  9
$DIMLIM
 70
0
  9
$DIMTIH
 70
0
  9
$DIMTOH
 70
0
  9
$DIMSE1
 70
0
  9
$DIMSE2
 70
0
  9
$DIMTAD
 70
1
  9
$DIMZIN
 70
8
  9
$DIMBLK
  1

  9
$DIMASO
 70
1
  9
$DIMSHO
 70
1
  9
$DIMPOST
  1

  9
$DIMAPOST
  1

  9
$DIMALT
 70
0
  9
$DIMALTD
 70
3
  9
$DIMALTF
 40
0.03937007874
  9
$DIMLFAC
 40
1.0
  9
$DIMTOFL
 70
1
  9
$DIMTVP
 40
0.0
  9
$DIMTIX
 70
0
  9
$DIMSOXD
 70
0
  9
$DIMSAH
 70
0
  9
$DIMBLK1
  1

  9
$DIMBLK2
  1

  9
$DIMSTYLE
  2
ISO-25
  9
$DIMCLRD
 70
0
  9
$DIMCLRE
 70
0
  9
$DIMCLRT
 70
0
  9
$DIMTFAC
 40
1.0
  9
$DIMGAP
 40
0.625
  9
$DIMJUST
 70
0
  9
$DIMSD1
 70
0
  9
$DIMSD2
 70
0
  9
$DIMTOLJ
 70
0
  9
$DIMTZIN
 70
8
  9
$DIMALTZ
 70
0
  9
$DIMALTTZ
 70
0
  9
$DIMUPT
 70
0
  9
$DIMDEC
 70
2
  9
$DIMTDEC
 70
2
  9
$DIMALTU
 70
2
  9
$DIMALTTD
 70
3
  9
$DIMTXSTY
  7
Standard
  9
$DIMAUNIT
 70
0
  9
$DIMADEC
 70
0
  9
$DIMALTRND
 40
0.0
  9
$DIMAZIN
 70
0
  9
$DIMDSEP
 70
44
  9
$DIMATFIT
 70
3
  9
$DIMFRAC
 70
0
  9
$DIMLDRBLK
  1

  9
$DIMLUNIT
 70
2
  9
$DIMLWD
 70
-2
  9
$DIMLWE
 70
-2
  9
$DIMTMOVE
 70
0
  9
$DIMFXL
 40
1.0
  9
$DIMFXLON
 70
0
  9
$DIMJOGANG
 40
0.785398163397
  9
$DIMTFILL
 70
0
  9
$DIMTFILLCLR
 70
0
  9
$DIMARCSYM
 70
0
  9
$DIMLTYPE
  6

  9
$DIMLTEX1
  6

  9
$DIMLTEX2
  6

  9
$DIMTXTDIRECTION
 70
0
  9
$LUNITS
 70
2
  9
$LUPREC
 70
4
  9
$SKETCHINC
 40
1.0
  9
$FILLETRAD
 40
10.0
  9
$AUNITS
 70
0
  9
$AUPREC
 70
2
  9
$MENU
  1
.
  9
$ELEVATION
 40
0.0
  9
$PELEVATION
 40
0.0
  9
$THICKNESS
 40
0.0
  9
$LIMCHECK
 70
0
  9
$CHAMFERA
 40
0.0
  9
$CHAMFERB
 40
0.0
  9
$CHAMFERC
 40
0.0
  9
$CHAMFERD
 40
0.0
  9
$SKPOLY
 70
0
  9
$TDCREATE
 40
2459053.4944560183
  9
$TDUCREATE
 40
2458532.153996898
  9
$TDUPDATE
 40
2459053.4944560183
  9
$TDUUPDATE
 40
2458532.1544311
  9
$TDINDWG
 40
0.0
  9
$TDUSRTIMER
 40
0.0
  9
$USRTIMER
 70
1
  9
$ANGBASE
 50
0.0
  9
$ANGDIR
 70
0
  9
$PDMODE
 70
0
  9
$PDSIZE
 40
0.0
  9
$PLINEWID
 40
0.0
  9
$SPLFRAME
 70
0
  9
$SPLINETYPE
 70
6
  9
$SPLINESEGS
 70
8
  9
$HANDSEED
  5
2E
  9
$SURFTAB1
 70
6
  9
$SURFTAB2
 70
6
  9
$SURFTYPE
 70
6
  9
$SURFU
 70
6
  9
$SURFV
 70
6
  9
$UCSBASE
  2

  9
$UCSNAME
  2

  9
$UCSORG
 10
0.0
 20
0.0
 30
0.0
  9
$UCSXDIR
 10
1.0
 20
0.0
 30
0.0
  9
$UCSYDIR
 10
0.0
 20
1.0
 30
0.0
  9
$UCSORTHOREF
  2

  9
$UCSORTHOVIEW
 70
0
  9
$UCSORGTOP
 10
0.0
 20
0.0
 30
0.0
  9
$UCSORGBOTTOM
 10
0.0
 20
0.0
 30
0.0
  9
$UCSORGLEFT
 10
0.0
 20
0.0
 30
0.0
  9
$UCSORGRIGHT
 10
0.0
 20
0.0
 30
0.0
  9
$UCSORGFRONT
 10
0.0
 20
0.0
 30
0.0
  9
$UCSORGBACK
 10
0.0
 20
0.0
 30
0.0
  9
$PUCSBASE
  2

  9
$PUCSNAME
  2

  9
$PUCSORG
 10
0.0
 20
0.0
 30
0.0
  9
$PUCSXDIR
 10
1.0
 20
0.0
 30
0.0
  9
$PUCSYDIR
 10
0.0
 20
1.0
 30
0.0
  9
$PUCSORTHOREF
  2

  9
$PUCSORTHOVIEW
 70
0
  9
$PUCSORGTOP
 10
0.0
 20
0.0
 30
0.0
  9
$PUCSORGBOTTOM
 10
0.0
 20
0.0
 30
0.0
  9
$PUCSORGLEFT
 10
0.0
 20
0.0
 30
0.0
  9
$PUCSORGRIGHT
 10
0.0
 20
0.0
 30
0.0
  9
$PUCSORGFRONT
 10
0.0
 20
0.0
 30
0.0
  9
$PUCSORGBACK
 10
0.0
 20
0.0
 30
0.0
  9
$USERI1
 70
0
  9
$USERI2
 70
0
  9
$USERI3
 70
0
  9
$USERI4
 70
0
  9
$USERI5
 70
0
  9
$USERR1
 40
0.0
  9
$USERR2
 40
0.0
  9
$USERR3
 40
0.0
  9
$USERR4
 40
0.0
  9
$USERR5
 40
0.0
  9
$WORLDVIEW
 70
1
  9
$SHADEDGE
 70
3
  9
$SHADEDIF
 70
70
  9
$TILEMODE
 70
1
  9
$MAXACTVP
 70
64
  9
$PINSBASE
 10
0.0
 20
0.0
 30
0.0
  9
$PLIMCHECK
 70
0
  9
$PEXTMIN
 10
1e+20
 20
1e+20
 30
1e+20
  9
$PEXTMAX
 10
-1e+20
 20
-1e+20
 30
-1e+20
  9
$PLIMMIN
 10
0.0
 20
0.0
  9
$PLIMMAX
 10
420.0
 20
297.0
  9
$UNITMODE
 70
0
  9
$VISRETAIN
 70
1
  9
$PLINEGEN
 70
0
  9
$PSLTSCALE
 70
1
  9
$TREEDEPTH
 70
3020
  9
$CMLSTYLE
  2
Standard
  9
$CMLJUST
 70
0
  9
$CMLSCALE
 40
20.0
  9
$PROXYGRAPHICS
 70
1
  9
$MEASUREMENT
 70
1
  9
$CELWEIGHT
370
-1
  9
$ENDCAPS
280
0
  9
$JOINSTYLE
280
0
  9
$LWDISPLAY
290
0
  9
$INSUNITS
 70
4
  9
$HYPERLINKBASE
  1

  9
$STYLESHEET
  1

  9
$XEDIT
290
1
  9
$CEPSNTYPE
380
0
  9
$PSTYLEMODE
290
1
  9
$FINGERPRINTGUID
  2
FD9DE070-CC00-11EA-80C8-708BCDAABA80
  9
$VERSIONGUID
  2
FD9F4000-CC00-11EA-85F8-708BCDAABA80
  9
$EXTNAMES
290
1
  9
$PSVPSCALE
 40
0.0
  9
$OLESTARTUP
290
0
  9
$SORTENTS
280
127
  9
$INDEXCTL
280
0
  9
$HIDETEXT
280
1
  9
$XCLIPFRAME
280
2
  9
$HALOGAP
280
0
  9
$OBSCOLOR
 70
257
  9
$OBSLTYPE
280
0
  9
$INTERSECTIONDISPLAY
280
0
  9
$INTERSECTIONCOLOR
 70
257
  9
$DIMASSOC
280
2
  9
$PROJECTNAME
  1

  9
$CAMERADISPLAY
290
0
  9
$LENSLENGTH
 40
50.0
  9
$CAMERAHEIGHT
 40
0.0
  9
$STEPSPERSEC
 40
24.0
  9
$STEPSIZE
 40
100.0
  9
$3DDWFPREC
 40
2.0
  9
$PSOLWIDTH
 40
0.005
  9
$PSOLHEIGHT
 40
0.08
  9
$LOFTANG1
 40
1.570796326795
  9
$LOFTANG2
 40
1.570796326795
  9
$LOFTMAG1
 40
0.0
  9
$LOFTMAG2
 40
0.0
  9
$LOFTPARAM
 70
7
  9
$LOFTNORMALS
280
1
  9
$LATITUDE
 40
37.795
  9
$LONGITUDE
 40
-122.394
  9
$NORTHDIRECTION
 40
0.0
  9
$TIMEZONE
 70
-8000
  9
$LIGHTGLYPHDISPLAY
280
1
  9
$TILEMODELIGHTSYNCH
280
1
  9
$CMATERIAL
347
20
  9
$SOLIDHIST
280
0
  9
$SHOWHIST
280
1
  9
$DWFFRAME
280
2
  9
$DGNFRAME
280
2
  9
$REALWORLDSCALE
290
1
  9
$INTERFERECOLOR
 62
256
  9
$CSHADOW
280
0
  9
$SHADOWPLANELOCATION
 40
0.0
  0
ENDSEC
  0
SECTION
  2
CLASSES
  0
CLASS
  1
ACDBDICTIONARYWDFLT
  2
AcDbDictionaryWithDefault
  3
ObjectDBX Classes
 90
0
 91
0
280
0
281
0
  0
CLASS
  1
SUN
  2
AcDbSun
  3
SCENEOE
 90
1153
 91
0
280
0
281
0
  0
CLASS
  1
VISUALSTYLE
  2
AcDbVisualStyle
  3
ObjectDBX Classes
 90
4095
 91
0
280
0
281
0
  0
CLASS
  1
MATERIAL
  2
AcDbMaterial
  3
ObjectDBX Classes
 90
1153
 91
0
280
0
281
0
  0
CLASS
  1
SCALE
  2
AcDbScale
  3
ObjectDBX Classes
 90
1153
 91
0
280
0
281
0
  0
CLASS
  1
TABLESTYLE
  2
AcDbTableStyle
  3
ObjectDBX Classes
 90
4095
 91
0
280
0
281
0
  0
CLASS
  1
MLEADERSTYLE
  2
AcDbMLeaderStyle
  3
ACDB_MLEADERSTYLE_CLASS
 90
4095
 91
0
280
0
281
0
  0
CLASS
  1
DICTIONARYVAR
  2
AcDbDictionaryVar
  3
ObjectDBX Classes
 90
0
 91
0
280
0
281
0
  0
CLASS
  1
CELLSTYLEMAP
  2
AcDbCellStyleMap
  3
ObjectDBX Classes
 90
1152
 91
0
280
0
281
0
  0
CLASS
  1
MENTALRAYRENDERSETTINGS
  2
AcDbMentalRayRenderSettings
  3
SCENEOE
 90
1024
 91
0
280
0
281
0
  0
CLASS
  1
ACDBDETAILVIEWSTYLE
  2
AcDbDetailViewStyle
  3
ObjectDBX Classes
 90
1025
 91
0
280
0
281
0
  0
CLASS
  1
ACDBSECTIONVIEWSTYLE
  2
AcDbSectionViewStyle
  3
ObjectDBX Classes
 90
1025
 91
0
280
0
281
0
  0
CLASS
  1
RASTERVARIABLES
  2
AcDbRasterVariables
  3
ISM
 90
0
 91
0
280
0
281
0
  0
CLASS
  1
ACDBPLACEHOLDER
  2
AcDbPlaceHolder
  3
ObjectDBX Classes
 90
0
 91
0
280
0
281
0
  0
CLASS
  1
LAYOUT
  2
AcDbLayout
  3
ObjectDBX Classes
 90
0
 91
0
280
0
281
0
  0
ENDSEC
  0
SECTION
  2
TABLES
  0
TABLE
  2
VPORT
  5
8
330
0
100
AcDbSymbolTable
 70
1
  0
VPORT
  5
23
330
8
100
AcDbSymbolTableRecord
100
AcDbViewportTableRecord
  2
*Active
 70
0
 10
0.0
 20
0.0
 11
1.0
 21
1.0
 12
70.0
 22
50.0
 13
0.0
 23
0.0
 14
0.5
 24
0.5
 15
0.5
 25
0.5
 16
0.0
 26
0.0
 36
1.0
 17
0.0
 27
0.0
 37
0.0
 40
1.0
 41
1.34
 42
50.0
 43
0.0
 44
0.0
 50
0.0
 51
0.0
 71
0
 72
1000
 73
1
 74
3
 75
0
 76
0
 77
0
 78
0
281
0
 65
0
146
0.0
  0
ENDTAB
  0
TABLE
  2
LTYPE
  5
2
330
0
100
AcDbSymbolTable
 70
3
  0
LTYPE
  5
24
330
2
100
AcDbSymbolTableRecord
100
AcDbLinetypeTableRecord
  2
ByBlock
 70
0
  3

 72
65
 73
0
 40
0.0
  0
LTYPE
  5
25
330
2
100
AcDbSymbolTableRecord
100
AcDbLinetypeTableRecord
  2
ByLayer
 70
0
  3

 72
65
 73
0
 40
0.0
  0
LTYPE
  5
26
330
2
100
AcDbSymbolTableRecord
100
AcDbLinetypeTableRecord
  2
Continuous
 70
0
  3

 72
65
 73
0
 40
0.0
  0
ENDTAB
  0
TABLE
  2
LAYER
  5
1
330
0
100
AcDbSymbolTable
 70
2
  0
LAYER
  5
27
330
1
100
AcDbSymbolTableRecord
100
AcDbLayerTableRecord
  2
0
 70
0
 62
7
  6
Continuous
370
-3
390
13
347
21
  0
LAYER
  5
28
330
1
100
AcDbSymbolTableRecord
100
AcDbLayerTableRecord
  2
Defpoints
 70
0
 62
7
  6
Continuous
290
0
370
-3
390
13
347
21
  0
ENDTAB
  0
TABLE
  2
STYLE
  5
5
330
0
100
AcDbSymbolTable
 70
1
  0
STYLE
  5
29
330
5
100
AcDbSymbolTableRecord
100
AcDbTextStyleTableRecord
  2
Standard
 70
0
 40
0.0
 41
1.0
 50
0.0
 71
0
 42
2.5
  3
txt
  4

  0
ENDTAB
  0
TABLE
  2
VIEW
  5
7
330
0
100
AcDbSymbolTable
 70
0
  0
ENDTAB
  0
TABLE
  2
UCS
  5
6
330
0
100
AcDbSymbolTable
 70
0
  0
ENDTAB
  0
TABLE
  2
APPID
  5
3
330
0
100
AcDbSymbolTable
 70
1
  0
APPID
  5
2A
330
3
100
AcDbSymbolTableRecord
100
AcDbRegAppTableRecord
  2
ACAD
 70
0
  0
ENDTAB
  0
TABLE
  2
DIMSTYLE
  5
4
330
0
100
AcDbSymbolTable
 70
1
100
AcDbDimStyleTable
  0
DIMSTYLE
105
2B
330
4
100
AcDbSymbolTableRecord
100
AcDbDimStyleTableRecord
  2
Standard
 70
0
 40
1.0
 41
2.5
 42
0.625
 43
3.75
 44
1.25
 45
0.0
 46
0.0
 47
0.0
 48
0.0
 49
2.5
140
2.5
141
2.5
142
0.0
143
0.03937007874
144
1.0
145
0.0
146
1.0
147
0.625
148
0.0
 69
0
 70
0
 71
0
 72
0
 73
0
 74
0
 75
0
 76
0
 77
1
 78
8
 79
0
170
0
171
3
172
1
173
0
174
0
175
0
176
0
177
0
178
0
179
0
271
0
272
2
273
2
274
3
275
0
276
0
277
2
278
44
279
0
280
0
281
0
282
0
283
0
284
8
285
0
286
0
288
0
289
3
290
0
371
-2
372
-2
  0
ENDTAB
  0
TABLE
  2
BLOCK_RECORD
  5
9
330
0
100
AcDbSymbolTable
 70
2
  0
BLOCK_RECORD
  5
17
330
9
100
AcDbSymbolTableRecord
100
AcDbBlockTableRecord
  2
*Model_Space
340
1A
 70
0
280
1
281
0
  0
BLOCK_RECORD
  5
1B
330
9
100
AcDbSymbolTableRecord
100
AcDbBlockTableRecord
  2
*Paper_Space
340
1E
 70
0
280
1
281
0
  0
ENDTAB
  0
ENDSEC
  0
SECTION
  2
BLOCKS
  0
BLOCK
  5
18
330
17
100
AcDbEntity
  8
0
100
AcDbBlockBegin
  2
*Model_Space
 70
0
 10
0.0
 20
0.0
 30
0.0
  3
*Model_Space
  1

  0
ENDBLK
  5
19
330
17
100
AcDbEntity
  8
0
100
AcDbBlockEnd
  0
BLOCK
  5
1C
330
1B
100
AcDbEntity
  8
0
100
AcDbBlockBegin
  2
*Paper_Space
 70
0
 10
0.0
 20
0.0
 30
0.0
  3
*Paper_Space
  1

  0
ENDBLK
  5
1D
330
1B
100
AcDbEntity
  8
0
100
AcDbBlockEnd
  0
ENDSEC
  0
SECTION
  2
ENTITIES
  0
LWPOLYLINE
  5
2D
330
17
100
AcDbEntity
  8
0
100
AcDbPolyline
 90
1500
 70
1
 10
71.85798201063528
 20
-4.520002362744597
 10
71.91907602456666
 20
-3.4126974334972844
 10
71.91907602456666
 20
-3.412697433497285
 10
71.9286883141543
 20
-3.2037161867498702
 10
71.95340121628914
 20
-3.195316918402483
 10
72.50012835101944
 20
-3.0952561123706417
 10
73.12545267592108
 20
-2.9583410672105375
 10
73.82738055068667
 20
-2.7790370029858997
 10
74.603630337112
 20
-2.55190634108525
 10
75.45163685415275
 20
-2.271621972983139
 10
76.36855640509725
 20
-1.932980333116165
 10
77.35127236849725
 20
-1.5309142522168004
 10
78.39640134354902
 20
-1.0605055677965556
 10
78.46445087433808
 20
-1.0137997773646998
 10
78.47099868463252
 20
-0.014367894761821542
 10
78.47099868463252
 20
0.014367894761821542
 10
78.46445087433808
 20
1.0137997773646998
 10
78.39640134354902
 20
1.0605055677965556
 10
77.35127236849725
 20
1.5309142522168004
 10
76.36855640509725
 20
1.932980333116165
 10
75.45163685415275
 20
2.271621972983139
 10
74.603630337112
 20
2.55190634108525
 10
73.82738055068667
 20
2.7790370029858997
 10
73.12545267592108
 20
2.9583410672105375
 10
72.50012835101944
 20
3.0952561123706417
 10
71.95340121628914
 20
3.195316918402483
 10
71.9286883141543
 20
3.2037161867498702
 10
71.91907602456666
 20
3.412697433497285
 10
71.91907602456666
 20
3.4126974334972844
 10
71.85798201063528
 20
4.520002362744597
 10
71.85786687138362
 20
4.521832448743436
 10
71.779697033443
 20
5.628063058205125
 10
71.779697033443
 20
5.628063058205124
 10
71.76304123184703
 20
5.836601164738237
 10
71.7865065579056
 20
5.8480315502812825
 10
72.31638164150606
 20
6.015826426643946
 10
72.919615091997
 20
6.230035775444758
 10
73.59353529765389
 20
6.495900863840749
 10
74.33519710236105
 20
6.818530428417958
 10
75.14138788855591
 20
7.202888069425023
 10
76.00863420322658
 20
7.653779911052494
 10
76.93320891570649
 20
8.175842550180832
 10
77.91113889510994
 20
8.773531315555145
 10
77.97279804728234
 20
8.82839768461543
 10
77.85403219656298
 20
9.820769406545116
 10
77.85043064714297
 20
9.849278605785402
 10
77.71867243871455
 20
10.840009011241156
 10
77.64530571106017
 20
10.877817644828786
 10
76.54946004862647
 20
11.213527622333128
 10
75.52410085209526
 20
11.489256322725103
 10
74.5719684339365
 20
11.710307179876168
 10
73.69551975539811
 20
11.882098023154587
 10
72.89692391009572
 20
12.010147796159224
 10
72.17805818811786
 20
12.10006310400863
 10
71.54050472695987
 20
12.157524613476768
 10
70.98554775461338
 20
12.188273330493237
 10
70.9599770136317
 20
12.19350902016565
 10
70.92424822440935
 20
12.399637648026811
 10
70.92424822440935
 20
12.399637648026811
 10
70.72485384770148
 20
13.490554036853617
 10
70.72451024576125
 20
13.492355261303011
 10
70.50830934098934
 20
14.58006563343773
 10
70.50830934098934
 20
14.58006563343773
 10
70.46564812015063
 20
14.784871829241888
 10
70.4874958079235
 20
14.7991530679724
 10
70.99216239379368
 20
15.032035789229841
 10
71.5637916180055
 20
15.320161232278313
 10
72.19907603033002
 20
15.668394493581545
 10
72.89445340361155
 20
16.08143489987237
 10
73.64611434866717
 20
16.56380426418158
 10
74.4500104346138
 20
17.119835473877355
 10
75.30186280064366
 20
17.75366143155051
 10
76.19717124443659
 20
18.469204369006974
 10
76.25146761632915
 20
18.531366041280027
 10
76.00926111300913
 20
19.50102730766756
 10
76.00211481275491
 20
19.5288603095219
 10
75.74722411184798
 20
20.495264827502833
 10
75.66969722445054
 20
20.52358003950878
 10
74.54041701535793
 20
20.719296963208553
 10
73.48858511274472
 20
20.864339876775613
 10
72.51625552438242
 20
20.964313847144115
 10
71.625186803572
 20
21.02490192137747
 10
70.81683923293099
 20
21.051851384072584
 10
70.09237260560602
 20
21.05095991742917
 10
69.45264460713011
 20
21.028061688875187
 10
68.89820980013656
 20
20.989013391240547
 10
68.87218448616855
 20
20.991002932284196
 10
68.81090266166089
 20
21.191028169662463
 10
68.81090266166089
 20
21.191028169662463
 10
68.4763524906096
 20
22.248351614935096
 10
68.47578584478869
 20
22.250095571449485
 10
68.12496349060592
 20
23.302131863921993
 10
68.12496349060592
 20
23.302131863921993
 10
68.05696964346167
 20
23.49997623294407
 10
68.07685514186144
 20
23.516883101196065
 10
68.54835433646899
 20
23.811180967716666
 10
69.07936440006111
 20
24.16867859465812
 10
69.66599420437043
 20
24.59378818231338
 10
70.30412062965132
 20
25.090725536372236
 10
70.98939759144373
 20
25.663499370954945
 10
71.7172655271667
 20
26.315901004385175
 10
72.48296132606228
 20
27.051494466621364
 10
73.28152868525471
 20
27.87360703659166
 10
73.3276059906476
 20
27.942083685372157
 10
72.96577857597143
 20
28.873742358799042
 10
72.955200226307
 20
28.90046022020156
 10
72.58119681153919
 20
29.82729807415704
 10
72.50073240972527
 20
29.845673316773276
 10
71.35582707747045
 20
29.898310613866116
 10
70.29411048621337
 20
29.910380327216878
 10
69.31691794609752
 20
29.887700761568546
 10
68.42528186904093
 20
29.836130556632614
 10
67.61993069713373
 20
29.761554699892674
 10
66.90128843594994
 20
29.66987051771795
 10
66.26947479284708
 20
29.566973669884874
 10
65.72430591931604
 20
29.458744172579138
 10
65.69823646710977
 20
29.45745618874328
 10
65.61236805829725
 20
29.64822351815591
 10
65.61236805829725
 20
29.64822351815591
 10
65.14793814895062
 20
30.655279397528012
 10
65.14715739559212
 20
30.656938582871373
 10
64.66724627009505
 20
31.656709554893357
 10
64.66724627009505
 20
31.656709554893357
 10
64.5749921002323
 20
31.844471973247387
 10
64.5926018030702
 20
31.86373783960886
 10
65.02349778245619
 20
32.21480959823256
 10
65.50551433951573
 20
32.636041457931405
 10
66.03423803336023
 20
33.131323139793196
 10
66.60504987571555
 20
33.704320442690594
 10
67.21313562719264
 20
34.358465762016934
 10
67.85349650053838
 20
35.09694905569658
 10
68.52096025214658
 20
35.9227092741741
 10
69.21019264244303
 20
36.83842627032356
 10
69.24732421470499
 20
36.91213797795425
 10
68.77158212314733
 20
37.791101244594635
 10
68.7577385509661
 20
37.816282608910534
 10
68.27052067960709
 20
38.688937012217586
 10
68.1883877350604
 20
38.69708249689122
 10
67.04591312066634
 20
38.605810045757984
 10
65.99105574564824
 20
38.48471621230279
 10
65.02441116388302
 20
38.339740780936026
 10
64.14626936415299
 20
38.17682558976919
 10
63.356615460054066
 20
38.001900519404444
 10
62.6551309827664
 20
37.82086953602077
 10
62.04119577361549
 20
37.63959681366654
 10
61.51389047235067
 20
37.463892960515395
 10
61.488188012740515
 20
37.459347764074515
 10
61.37908721572543
 20
37.6378486707778
 10
61.379087215725434
 20
37.6378486707778
 10
60.79210190519083
 20
38.578755111445645
 10
60.791119357241605
 20
38.58030335927396
 10
60.189687945564344
 20
39.5120420253824
 10
60.189687945564344
 20
39.5120420253824
 10
60.074628356351774
 20
39.6867613675671
 10
60.08968454809454
 20
39.70808239781666
 10
60.47318182525926
 20
40.11039143718987
 10
60.89860318673866
 20
40.58871445158693
 10
61.36108248162217
 20
41.14635733966538
 10
61.85557769731155
 20
41.78637808164262
 10
62.376882362919694
 20
42.51157862325933
 10
62.9196373003825
 20
43.324497254498525
 10
63.47834270261696
 20
44.227401497286756
 10
64.04737051749498
 20
45.222281515563274
 10
64.07497076955008
 20
45.300065804381596
 10
63.492816738089346
 20
46.11247188845335
 10
63.47592626479437
 20
46.135719630524754
 10
62.883177653725355
 20
46.940428301944756
 10
62.80067145204524
 20
46.93821556951661
 10
61.67864506266218
 20
46.70447279123517
 10
60.64728263482835
 20
46.45212513306558
 10
59.70643057391366
 20
46.187140185137146
 10
58.85563187226844
 20
45.91544927762494
 10
58.0941285497618
 20
45.6429336664902
 10
57.420864685623606
 20
45.37541084864822
 10
56.83449003542006
 20
45.118621030891426
 10
56.33336422601931
 20
44.878213776619454
 10
56.30843410214727
 20
44.870483048036604
 10
56.177821501672184
 20
45.03390246610054
 10
56.177821501672184
 20
45.03390246610054
 10
55.477537898944796
 20
45.893820811424554
 10
55.476369051772934
 20
45.895233704944694
 10
54.76290228655534
 20
46.74424598978137
 10
54.76290228655534
 20
46.74424598978137
 10
54.626851836448104
 20
46.90316682739821
 10
54.63911707195781
 20
46.92620677615225
 10
54.96916766575022
 20
47.373408442396276
 10
55.33128468264454
 20
47.9012791718182
 10
55.720226003815014
 20
48.51248890464858
 10
56.13060610788988
 20
49.20943957627483
 10
56.55690840164014
 20
49.99425849442682
 10
56.99349783363014
 20
50.86879225079688
 10
57.43463376854319
 20
51.83460117861818
 10
57.87448309944142
 20
52.89295436682102
 10
57.89211675882716
 20
52.97358453212623
 10
57.21273170430145
 20
53.70662130437567
 10
57.193060702746465
 20
53.72756879342259
 10
56.50412935165485
 20
54.45164099649758
 10
56.42255106492864
 20
54.43910494307986
 10
55.338667926983206
 20
54.066578100894894
 10
54.34706564792665
 20
53.68695629132542
 10
53.446843906900895
 20
53.306140797758495
 10
52.636805907107934
 20
52.929958901812654
 10
51.91546252848954
 20
52.56415048388847
 10
51.28103705082661
 20
52.21435482623592
 10
50.7314704380874
 20
51.886097641901394
 10
50.264427173923025
 20
51.58477835252079
 10
50.24066254873507
 20
51.57398401000383
 10
50.09059798353368
 20
51.719744717583545
 10
50.09059798353368
 20
51.719744717583545
 10
49.28805997935764
 20
52.48511354156762
 10
49.28672326638128
 20
52.48636879860475
 10
48.472472944715214
 20
53.239265271262425
 10
48.472472944715214
 20
53.239265271262425
 10
48.317577230584114
 20
53.37988132776749
 10
48.32685807976988
 20
53.40427684127076
 10
48.59825689516318
 20
53.88931849696361
 10
48.89135876579779
 20
54.45841210467273
 10
49.20062827627809
 20
55.113549539649306
 10
49.520421329348004
 20
55.85643881249487
 10
49.844998209407294
 20
56.68849904401478
 10
50.1685368597761
 20
57.610856005756595
 10
50.485146350152334
 20
58.62433823487295
 10
50.788880510369246
 20
59.72947373099461
 10
50.79626948374329
 20
59.81167818691371
 10
50.03036771430743
 20
60.45378521954753
 10
50.00822640793784
 20
60.47210210115426
 10
49.233977175777994
 20
61.104118784701996
 10
49.15461334231984
 20
61.08145711134577
 10
48.12596694037785
 20
60.57602117609528
 10
47.18976297039377
 20
60.07511207783791
 10
46.344368583879344
 20
59.58447172645419
 10
45.58786606908861
 20
59.109731455293954
 10
44.91805865034893
 20
58.65639924785433
 10
44.33247682793143
 20
58.2298472368702
 10
43.828385246434614
 20
57.835299497846236
 10
43.4027900787806
 20
57.47782015854996
 10
43.380565734612254
 20
57.46413243532861
 10
43.21341581252201
 20
57.589935698992335
 10
43.21341581252201
 20
57.589935698992335
 10
42.32127991063614
 20
58.24868467807308
 10
42.31979641261745
 20
58.24976250247388
 10
41.41760374848516
 20
58.894669535820185
 10
41.41760374848516
 20
58.89466953582018
 10
41.24630556827225
 20
59.01476321200242
 10
41.2524556665983
 20
59.04012955843381
 10
41.46092258214796
 20
59.555361806915364
 10
41.68038691493237
 20
60.15670334675806
 10
41.905107249793566
 20
60.84543657517112
 10
42.1292699243765
 20
61.62254864162268
 10
42.347002619453455
 20
62.48872809961076
 10
42.552388090412144
 20
63.44436214644833
 10
42.73947801545498
 20
64.48953445668162
 10
42.90230693584197
 20
65.62402361377232
 10
42.89933469468024
 20
65.7065059469289
 10
42.05899493876578
 20
66.2475568284663
 10
42.03473250920962
 20
66.26295423446795
 10
41.18737576888676
 20
66.79294811784038
 10
41.11147800375996
 20
66.76051821267194
 10
40.15429070606362
 20
66.13014421098761
 10
39.288249541019816
 20
65.51584745975046
 10
38.51101488350616
 20
64.9231199419856
 10
37.81997835028861
 20
64.35730823328325
 10
37.21227015454472
 20
63.823601556047066
 10
36.68476696252179
 20
63.32702017175439
 10
36.23410023763729
 20
62.87240413157678
 10
35.85666505652578
 20
62.464402405093345
 10
35.83633148456076
 20
62.448037164739446
 10
35.654732259703536
 20
62.55189899186798
 10
35.654732259703536
 20
62.55189899186797
 10
34.68706797621674
 20
63.09363926112774
 10
34.68546108880567
 20
63.09452265495753
 10
33.70955419946429
 20
63.62126967982781
 10
33.70955419946429
 20
63.62126967982781
 10
33.5245550278001
 20
63.718947026673355
 10
33.52747738454195
 20
63.74488416359651
 10
33.669724752457654
 20
64.28218148452339
 10
33.81209046376222
 20
64.9062874411923
 10
33.94871764908213
 20
65.6177547286005
 10
34.073714765891616
 20
66.41683406714587
 10
34.18116950131767
 20
67.30347258411912
 10
34.26516274129788
 20
68.27731279626569
 10
34.319782581127285
 20
69.33769219592789
 10
34.33913835234057
 20
70.48364344226931
 10
34.32585177066172
 20
70.56510285699696
 10
33.424326688214066
 20
70.99656489182797
 10
33.3983257684791
 20
71.00879999593391
 10
32.49122484197451
 20
71.42841275898729
 10
32.419990098274255
 20
71.38672606098379
 10
31.549357320304193
 20
70.64135536743937
 10
30.767136946721312
 20
69.92335878995253
 10
30.070319473054912
 20
69.23789177283994
 10
29.455646980344596
 20
68.58993181524126
 10
28.91962192887066
 20
67.98426754132943
 10
28.458516407695637
 20
67.42548816880183
 10
28.06838182289014
 20
66.91797339399866
 10
27.745059006596104
 20
66.46588371128311
 10
27.726936879410978
 20
66.44709904341319
 10
27.533752280044897
 20
66.52738147094864
 10
27.5337522800449
 20
66.52738147094864
 10
26.505820258762387
 20
66.94356946272123
 10
26.5041153235333
 20
66.94424449433161
 10
25.469884843606273
 20
67.34452439548025
 10
25.469884843606273
 20
67.34452439548025
 10
25.274102227941093
 20
67.4182449828797
 10
25.273750755787187
 20
67.44434386615126
 10
25.347535250102446
 20
67.99523275980658
 10
25.410557147614732
 20
68.63226060954224
 10
25.456936491063743
 20
69.35524169181318
 10
25.480796770898046
 20
70.16368634393663
 10
25.476278921305166
 20
71.0568011008302
 10
25.4375553067373
 20
72.03348943639628
 10
25.358843673850853
 20
73.09235310891475
 10
25.234421043815814
 20
74.23169410879403
 10
25.211029658949947
 20
74.31084594146097
 10
24.26253683906427
 20
74.62591471555338
 10
24.235207479186922
 20
74.63479456286298
 10
23.2826678899874
 20
74.93740866165942
 10
23.217219582175403
 20
74.88712259495081
 10
22.446871722931032
 20
74.03851015064637
 10
21.76080822337629
 20
73.22813698184717
 10
21.155397161375433
 20
72.46074068972487
 10
20.626782461569945
 20
71.7408511988337
 10
20.170893989633555
 20
71.07278101565211
 10
19.783458048826454
 20
70.460615939393
 10
19.46000825955744
 20
69.90820624113749
 10
19.195896802037527
 20
69.41915832655155
 10
19.18027191640364
 20
69.39825047659933
 10
18.9785485790636
 20
69.45368740270109
 10
18.9785485790636
 20
69.45368740270109
 10
17.90655992201782
 20
69.7377595837376
 10
17.90478382681775
 20
69.73821560747683
 10
16.828540188792864
 20
70.0057157317471
 10
16.828540188792864
 20
70.0057157317471
 10
16.6250617379306
 20
70.05431694199864
 10
16.621441979806768
 20
70.08016597663868
 10
16.625599974969504
 20
70.63595859608444
 10
16.608284165718292
 20
71.27586202915451
 10
16.563684237344532
 20
71.9989550627328
 10
16.48603138933722
 20
72.80401537332894
 10
16.36961220391233
 20
73.68952141690572
 10
16.208782429330476
 20
74.6536549173941
 10
15.997980653198852
 20
75.69430395011874
 10
15.73174184111762
 20
76.80906661535845
 10
15.6986145491774
 20
76.8846625942805
 10
14.71811229022545
 20
77.07836928485392
 10
14.689885490536751
 20
77.08375383487052
 10
13.706929356983544
 20
77.26459686429912
 10
13.648299643970928
 20
77.20650447019683
 10
12.990385549376036
 20
76.26803340031556
 10
12.411298555071872
 20
75.37806370916942
 10
11.906841598839355
 20
74.5408404399845
 10
11.472621261533746
 20
73.76037450311334
 10
11.104059002671905
 20
73.04043427653654
 10
10.796402738462266
 20
72.3845377054882
 10
10.544738741126052
 20
71.79594491471545
 10
10.344003837837887
 20
71.2776513460152
 10
10.331122607535546
 20
71.25495004326415
 10
10.124041829755065
 20
71.28466719449119
 10
10.124041829755065
 20
71.28466719449119
 10
9.024902438442616
 20
71.43214357680017
 10
9.023083193353887
 20
71.43237340090147
 10
7.921799402319575
 20
71.56287511153675
 10
7.921799402319575
 20
71.56287511153675
 10
7.7138340929824665
 20
71.58559047452177
 10
7.707003134636656
 20
71.61078200581257
 10
7.6414690565792895
 20
72.16271316942567
 10
7.544088621220433
 20
72.79540052643085
 10
7.409212788537062
 20
73.50720190222216
 10
7.231271444488774
 20
74.29618158927313
 10
7.004786923331472
 20
75.16011396025026
 10
6.72438737035584
 20
76.09648766441282
 10
6.384819920915507
 20
77.10251040044395
 10
5.980963671897961
 20
78.17511425788629
 10
5.938622910066571
 20
78.24596218931704
 10
4.941574318395679
 20
78.31525192614636
 10
4.912895232388594
 20
78.31705626129964
 10
3.9150243598973686
 20
78.37327621875589
 10
3.864137867282035
 20
78.30829364901766
 10
3.329033235627212
 20
77.294764202947
 10
2.8660552944036066
 20
76.33923334312544
 10
2.4705080314871966
 20
75.44538660796589
 10
2.1375299707914284
 20
74.61665263916693
 10
1.8621063719948099
 20
73.85619625663949
 10
1.6390817074541646
 20
73.16691207154096
 10
1.4631723936255252
 20
72.55141864816974
 10
1.3289797539071828
 20
72.01205322454716
 10
1.3190453236331252
 20
71.98791648210276
 10
1.1098728929818673
 20
71.99144520122806
 10
1.1098728929818678
 20
71.99144520122806
 10
0.0009168521977906963
 20
71.99999999416238
 10
-0.0009168521977978017
 20
71.99999999416238
 10
-1.1098728929818749
 20
71.99144520122806
 10
-1.1098728929818744
 20
71.99144520122806
 10
-1.3190453236331314
 20
71.98791648210276
 10
-1.328979753907189
 20
72.01205322454716
 10
-1.4631723936255323
 20
72.55141864816974
 10
-1.6390817074541717
 20
73.16691207154096
 10
-1.862106371994817
 20
73.85619625663949
 10
-2.1375299707914355
 20
74.61665263916693
 10
-2.4705080314872037
 20
75.44538660796589
 10
-2.8660552944036146
 20
76.33923334312544
 10
-3.329033235627219
 20
77.294764202947
 10
-3.864137867282043
 20
78.30829364901766
 10
-3.9150243598973766
 20
78.37327621875589
 10
-4.912895232388602
 20
78.31705626129964
 10
-4.941574318395687
 20
78.31525192614636
 10
-5.938622910066579
 20
78.24596218931704
 10
-5.980963671897969
 20
78.17511425788629
 10
-6.384819920915514
 20
77.10251040044395
 10
-6.724387370355848
 20
76.09648766441282
 10
-7.004786923331479
 20
75.16011396025026
 10
-7.231271444488781
 20
74.29618158927313
 10
-7.4092127885370695
 20
73.50720190222216
 10
-7.54408862122044
 20
72.79540052643085
 10
-7.641469056579297
 20
72.16271316942567
 10
-7.707003134636661
 20
71.61078200581257
 10
-7.713834092982472
 20
71.58559047452177
 10
-7.921799402319582
 20
71.56287511153675
 10
-7.921799402319582
 20
71.56287511153675
 10
-9.023083193353894
 20
71.43237340090147
 10
-9.024902438442638
 20
71.43214357680017
 10
-10.124041829755086
 20
71.28466719449118
 10
-10.124041829755086
 20
71.28466719449118
 10
-10.331122607535567
 20
71.25495004326413
 10
-10.34400383783791
 20
71.27765134601519
 10
-10.544738741126075
 20
71.79594491471545
 10
-10.79640273846229
 20
72.38453770548819
 10
-11.104059002671926
 20
73.04043427653653
 10
-11.472621261533769
 20
73.76037450311333
 10
-11.906841598839378
 20
74.5408404399845
 10
-12.411298555071895
 20
75.37806370916942
 10
-12.99038554937606
 20
76.26803340031555
 10
-13.648299643970953
 20
77.20650447019683
 10
-13.706929356983567
 20
77.26459686429912
 10
-14.689885490536776
 20
77.08375383487052
 10
-14.718112290225475
 20
77.07836928485392
 10
-15.698614549177423
 20
76.8846625942805
 10
-15.731741841117644
 20
76.80906661535845
 10
-15.997980653198875
 20
75.69430395011872
 10
-16.2087824293305
 20
74.6536549173941
 10
-16.369612203912354
 20
73.68952141690572
 10
-16.486031389337242
 20
72.80401537332892
 10
-16.563684237344553
 20
71.99895506273279
 10
-16.608284165718317
 20
71.2758620291545
 10
-16.62559997496953
 20
70.63595859608444
 10
-16.62144197980679
 20
70.08016597663867
 10
-16.625061737930622
 20
70.05431694199862
 10
-16.828540188792886
 20
70.00571573174709
 10
-16.828540188792886
 20
70.00571573174709
 10
-17.904783826817773
 20
69.73821560747683
 10
-17.906559922017827
 20
69.7377595837376
 10
-18.978548579063606
 20
69.45368740270109
 10
-18.978548579063606
 20
69.45368740270109
 10
-19.18027191640365
 20
69.39825047659933
 10
-19.195896802037534
 20
69.41915832655155
 10
-19.460008259557448
 20
69.90820624113749
 10
-19.78345804882646
 20
70.460615939393
 10
-20.170893989633562
 20
71.07278101565211
 10
-20.626782461569956
 20
71.7408511988337
 10
-21.15539716137544
 20
72.46074068972487
 10
-21.760808223376298
 20
73.22813698184717
 10
-22.44687172293104
 20
74.03851015064637
 10
-23.217219582175414
 20
74.88712259495081
 10
-23.282667889987408
 20
74.93740866165942
 10
-24.23520747918693
 20
74.63479456286298
 10
-24.26253683906428
 20
74.62591471555338
 10
-25.211029658949954
 20
74.31084594146097
 10
-25.234421043815825
 20
74.23169410879403
 10
-25.35884367385086
 20
73.09235310891475
 10
-25.437555306737305
 20
72.03348943639628
 10
-25.476278921305173
 20
71.0568011008302
 10
-25.480796770898056
 20
70.16368634393663
 10
-25.45693649106375
 20
69.35524169181318
 10
-25.41055714761474
 20
68.63226060954224
 10
-25.347535250102453
 20
67.99523275980658
 10
-25.273750755787194
 20
67.44434386615126
 10
-25.274102227941103
 20
67.4182449828797
 10
-25.46988484360628
 20
67.34452439548025
 10
-25.46988484360628
 20
67.34452439548025
 10
-26.504115323533306
 20
66.94424449433161
 10
-26.50582025876239
 20
66.94356946272123
 10
-27.533752280044904
 20
66.52738147094864
 10
-27.5337522800449
 20
66.52738147094864
 10
-27.72693687941098
 20
66.44709904341317
 10
-27.745059006596108
 20
66.4658837112831
 10
-28.068381822890142
 20
66.91797339399865
 10
-28.45851640769564
 20
67.42548816880183
 10
-28.919621928870665
 20
67.98426754132942
 10
-29.455646980344603
 20
68.58993181524124
 10
-30.070319473054912
 20
69.23789177283993
 10
-30.76713694672132
 20
69.92335878995252
 10
-31.549357320304193
 20
70.64135536743936
 10
-32.419990098274255
 20
71.38672606098379
 10
-32.491224841974514
 20
71.42841275898728
 10
-33.398325768479104
 20
71.0087999959339
 10
-33.42432668821407
 20
70.99656489182796
 10
-34.32585177066173
 20
70.56510285699694
 10
-34.33913835234057
 20
70.48364344226931
 10
-34.319782581127285
 20
69.33769219592787
 10
-34.265162741297885
 20
68.27731279626568
 10
-34.18116950131767
 20
67.3034725841191
 10
-34.07371476589162
 20
66.41683406714586
 10
-33.94871764908213
 20
65.61775472860049
 10
-33.81209046376222
 20
64.9062874411923
 10
-33.66972475245766
 20
64.28218148452338
 10
-33.52747738454195
 20
63.744884163596495
 10
-33.524555027800105
 20
63.71894702667334
 10
-33.7095541994643
 20
63.62126967982781
 10
-33.7095541994643
 20
63.62126967982781
 10
-34.68546108880567
 20
63.09452265495753
 10
-34.68706797621677
 20
63.09363926112773
 10
-35.65473225970356
 20
62.55189899186797
 10
-35.65473225970356
 20
62.55189899186797
 10
-35.83633148456078
 20
62.448037164739446
 10
-35.8566650565258
 20
62.46440240509333
 10
-36.23410023763732
 20
62.87240413157677
 10
-36.68476696252181
 20
63.327020171754384
 10
-37.21227015454475
 20
63.82360155604705
 10
-37.819978350288636
 20
64.35730823328325
 10
-38.511014883506185
 20
64.92311994198559
 10
-39.28824954101984
 20
65.51584745975045
 10
-40.15429070606364
 20
66.13014421098761
 10
-41.11147800375999
 20
66.76051821267193
 10
-41.18737576888678
 20
66.79294811784038
 10
-42.03473250920964
 20
66.26295423446794
 10
-42.0589949387658
 20
66.24755682846629
 10
-42.89933469468026
 20
65.7065059469289
 10
-42.902306935842
 20
65.62402361377231
 10
-42.739478015455
 20
64.48953445668162
 10
-42.552388090412165
 20
63.44436214644831
 10
-42.347002619453484
 20
62.48872809961075
 10
-42.12926992437653
 20
61.62254864162267
 10
-41.905107249793595
 20
60.84543657517111
 10
-41.68038691493239
 20
60.15670334675805
 10
-41.46092258214799
 20
59.55536180691536
 10
-41.25245566659832
 20
59.0401295584338
 10
-41.24630556827227
 20
59.01476321200241
 10
-41.417603748485185
 20
58.89466953582017
 10
-41.417603748485185
 20
58.89466953582017
 10
-42.319796412617464
 20
58.249762502473864
 10
-42.32127991063615
 20
58.24868467807308
 10
-43.213415812522015
 20
57.589935698992335
 10
-43.213415812522015
 20
57.589935698992335
 10
-43.38056573461226
 20
57.46413243532861
 10
-43.402790078780605
 20
57.47782015854996
 10
-43.82838524643462
 20
57.835299497846236
 10
-44.33247682793144
 20
58.22984723687021
 10
-44.91805865034894
 20
58.65639924785433
 10
-45.58786606908862
 20
59.109731455293954
 10
-46.34436858387935
 20
59.58447172645419
 10
-47.18976297039378
 20
60.07511207783791
 10
-48.12596694037786
 20
60.57602117609528
 10
-49.154613342319855
 20
61.08145711134577
 10
-49.233977175778
 20
61.104118784701996
 10
-50.00822640793785
 20
60.47210210115426
 10
-50.03036771430744
 20
60.45378521954753
 10
-50.796269483743295
 20
59.81167818691371
 10
-50.78888051036926
 20
59.72947373099461
 10
-50.48514635015234
 20
58.62433823487295
 10
-50.168536859776104
 20
57.610856005756595
 10
-49.8449982094073
 20
56.68849904401478
 10
-49.52042132934801
 20
55.85643881249487
 10
-49.200628276278096
 20
55.113549539649306
 10
-48.8913587657978
 20
54.458412104672725
 10
-48.59825689516319
 20
53.88931849696361
 10
-48.326858079769885
 20
53.40427684127076
 10
-48.31757723058412
 20
53.37988132776749
 10
-48.47247294471522
 20
53.239265271262425
 10
-48.47247294471522
 20
53.239265271262425
 10
-49.28672326638129
 20
52.48636879860475
 10
-49.28805997935765
 20
52.48511354156761
 10
-50.090597983533684
 20
51.719744717583524
 10
-50.090597983533684
 20
51.719744717583524
 10
-50.240662548735074
 20
51.57398401000381
 10
-50.26442717392303
 20
51.58477835252078
 10
-50.73147043808741
 20
51.88609764190138
 10
-51.281037050826626
 20
52.214354826235905
 10
-51.91546252848955
 20
52.56415048388845
 10
-52.63680590710794
 20
52.92995890181263
 10
-53.44684390690091
 20
53.30614079775848
 10
-54.347065647926655
 20
53.6869562913254
 10
-55.33866792698321
 20
54.06657810089488
 10
-56.42255106492865
 20
54.43910494307985
 10
-56.50412935165487
 20
54.45164099649756
 10
-57.19306070274648
 20
53.72756879342257
 10
-57.21273170430146
 20
53.70662130437565
 10
-57.89211675882717
 20
52.97358453212621
 10
-57.87448309944143
 20
52.89295436682101
 10
-57.4346337685432
 20
51.834601178618165
 10
-56.993497833630144
 20
50.86879225079686
 10
-56.55690840164016
 20
49.99425849442681
 10
-56.13060610788989
 20
49.20943957627481
 10
-55.72022600381502
 20
48.512488904648556
 10
-55.33128468264455
 20
47.90127917181819
 10
-54.96916766575022
 20
47.37340844239626
 10
-54.63911707195782
 20
46.926206776152235
 10
-54.62685183644811
 20
46.903166827398195
 10
-54.762902286555345
 20
46.74424598978135
 10
-54.762902286555345
 20
46.74424598978135
 10
-55.47636905177294
 20
45.89523370494468
 10
-55.47753789894479
 20
45.89382081142456
 10
-56.17782150167218
 20
45.03390246610055
 10
-56.17782150167218
 20
45.03390246610055
 10
-56.30843410214726
 20
44.870483048036604
 10
-56.333364226019306
 20
44.87821377661946
 10
-56.83449003542005
 20
45.11862103089143
 10
-57.4208646856236
 20
45.37541084864823
 10
-58.09412854976179
 20
45.64293366649021
 10
-58.855631872268425
 20
45.915449277624944
 10
-59.70643057391365
 20
46.18714018513715
 10
-60.647282634828336
 20
46.452125133065586
 10
-61.67864506266216
 20
46.704472791235176
 10
-62.800671452045236
 20
46.938215569516615
 10
-62.88317765372535
 20
46.94042830194476
 10
-63.47592626479436
 20
46.13571963052476
 10
-63.49281673808934
 20
46.112471888453356
 10
-64.07497076955008
 20
45.3000658043816
 10
-64.04737051749498
 20
45.22228151556328
 10
-63.47834270261695
 20
44.22740149728676
 10
-62.91963730038248
 20
43.32449725449853
 10
-62.37688236291969
 20
42.51157862325934
 10
-61.85557769731154
 20
41.786378081642624
 10
-61.36108248162216
 20
41.146357339665386
 10
-60.898603186738654
 20
40.58871445158694
 10
-60.47318182525925
 20
40.110391437189875
 10
-60.08968454809453
 20
39.70808239781667
 10
-60.07462835635177
 20
39.686761367567115
 10
-60.18968794556434
 20
39.51204202538241
 10
-60.18968794556434
 20
39.51204202538241
 10
-60.7911193572416
 20
38.58030335927397
 10
-60.79210190519083
 20
38.57875511144564
 10
-61.379087215725434
 20
37.637848670777785
 10
-61.379087215725434
 20
37.63784867077779
 10
-61.488188012740515
 20
37.45934776407451
 10
-61.51389047235067
 20
37.46389296051538
 10
-62.04119577361549
 20
37.639596813666536
 10
-62.6551309827664
 20
37.820869536020766
 10
-63.356615460054066
 20
38.00190051940444
 10
-64.14626936415299
 20
38.17682558976918
 10
-65.02441116388302
 20
38.33974078093602
 10
-65.99105574564824
 20
38.484716212302786
 10
-67.04591312066634
 20
38.60581004575797
 10
-68.1883877350604
 20
38.69708249689121
 10
-68.27052067960709
 20
38.68893701221758
 10
-68.7577385509661
 20
37.81628260891053
 10
-68.77158212314733
 20
37.79110124459463
 10
-69.24732421470499
 20
36.912137977954245
 10
-69.21019264244303
 20
36.83842627032355
 10
-68.52096025214658
 20
35.92270927417409
 10
-67.85349650053838
 20
35.09694905569657
 10
-67.21313562719264
 20
34.35846576201693
 10
-66.60504987571555
 20
33.70432044269059
 10
-66.03423803336023
 20
33.13132313979319
 10
-65.50551433951573
 20
32.6360414579314
 10
-65.02349778245619
 20
32.214809598232556
 10
-64.5926018030702
 20
31.863737839608845
 10
-64.5749921002323
 20
31.84447197324738
 10
-64.66724627009505
 20
31.65670955489335
 10
-64.66724627009505
 20
31.65670955489335
 10
-65.14715739559212
 20
30.656938582871366
 10
-65.14793814895063
 20
30.655279397528
 10
-65.61236805829725
 20
29.648223518155895
 10
-65.61236805829725
 20
29.6482235181559
 10
-65.69823646710977
 20
29.457456188743265
 10
-65.72430591931605
 20
29.458744172579124
 10
-66.26947479284709
 20
29.566973669884863
 10
-66.90128843594995
 20
29.669870517717936
 10
-67.61993069713374
 20
29.761554699892656
 10
-68.42528186904094
 20
29.836130556632597
 10
-69.31691794609752
 20
29.887700761568528
 10
-70.29411048621337
 20
29.91038032721686
 10
-71.35582707747048
 20
29.8983106138661
 10
-72.50073240972527
 20
29.845673316773258
 10
-72.5811968115392
 20
29.82729807415702
 10
-72.95520022630701
 20
28.90046022020154
 10
-72.96577857597144
 20
28.873742358799024
 10
-73.32760599064761
 20
27.94208368537214
 10
-73.28152868525471
 20
27.873607036591643
 10
-72.48296132606228
 20
27.05149446662135
 10
-71.7172655271667
 20
26.315901004385157
 10
-70.98939759144373
 20
25.663499370954927
 10
-70.30412062965134
 20
25.09072553637222
 10
-69.66599420437045
 20
24.59378818231336
 10
-69.07936440006112
 20
24.168678594658108
 10
-68.548354336469
 20
23.81118096771665
 10
-68.07685514186146
 20
23.51688310119605
 10
-68.05696964346167
 20
23.499976232944057
 10
-68.12496349060592
 20
23.302131863921975
 10
-68.12496349060592
 20
23.30213186392198
 10
-68.4757858447887
 20
22.25009557144947
 10
-68.4763524906096
 20
22.2483516149351
 10
-68.81090266166089
 20
21.191028169662466
 10
-68.81090266166089
 20
21.191028169662466
 10
-68.87218448616855
 20
20.991002932284196
 10
-68.89820980013656
 20
20.989013391240547
 10
-69.45264460713011
 20
21.02806168887519
 10
-70.09237260560602
 20
21.050959917429175
 10
-70.81683923293099
 20
21.051851384072584
 10
-71.625186803572
 20
21.024901921377474
 10
-72.51625552438242
 20
20.964313847144115
 10
-73.48858511274472
 20
20.864339876775617
 10
-74.54041701535793
 20
20.719296963208556
 10
-75.66969722445054
 20
20.52358003950878
 10
-75.74722411184798
 20
20.495264827502837
 10
-76.00211481275491
 20
19.528860309521903
 10
-76.00926111300913
 20
19.501027307667563
 10
-76.25146761632915
 20
18.53136604128003
 10
-76.19717124443659
 20
18.469204369006974
 10
-75.30186280064366
 20
17.753661431550512
 10
-74.4500104346138
 20
17.11983547387736
 10
-73.64611434866717
 20
16.56380426418158
 10
-72.89445340361155
 20
16.081434899872374
 10
-72.19907603033002
 20
15.668394493581545
 10
-71.5637916180055
 20
15.320161232278316
 10
-70.99216239379368
 20
15.032035789229845
 10
-70.4874958079235
 20
14.7991530679724
 10
-70.46564812015063
 20
14.784871829241892
 10
-70.50830934098934
 20
14.580065633437734
 10
-70.50830934098934
 20
14.580065633437734
 10
-70.72451024576125
 20
13.492355261303015
 10
-70.72485384770148
 20
13.490554036853602
 10
-70.92424822440935
 20
12.399637648026799
 10
-70.92424822440935
 20
12.3996376480268
 10
-70.9599770136317
 20
12.193509020165637
 10
-70.98554775461338
 20
12.188273330493226
 10
-71.54050472695987
 20
12.157524613476756
 10
-72.17805818811786
 20
12.100063104008619
 10
-72.89692391009572
 20
12.010147796159211
 10
-73.69551975539811
 20
11.882098023154574
 10
-74.5719684339365
 20
11.710307179876153
 10
-75.52410085209526
 20
11.48925632272509
 10
-76.54946004862647
 20
11.213527622333116
 10
-77.64530571106017
 20
10.877817644828772
 10
-77.71867243871455
 20
10.840009011241142
 10
-77.85043064714297
 20
9.84927860578539
 10
-77.85403219656298
 20
9.820769406545104
 10
-77.97279804728234
 20
8.828397684615416
 10
-77.91113889510994
 20
8.77353131555513
 10
-76.93320891570649
 20
8.17584255018082
 10
-76.00863420322658
 20
7.653779911052482
 10
-75.14138788855591
 20
7.202888069425009
 10
-74.33519710236105
 20
6.8185304284179455
 10
-73.59353529765389
 20
6.4959008638407365
 10
-72.919615091997
 20
6.2300357754447475
 10
-72.31638164150606
 20
6.015826426643933
 10
-71.7865065579056
 20
5.848031550281272
 10
-71.76304123184703
 20
5.836601164738225
 10
-71.779697033443
 20
5.628063058205112
 10
-71.779697033443
 20
5.628063058205113
 10
-71.85786687138362
 20
4.521832448743424
 10
-71.85798201063528
 20
4.520002362744574
 10
-71.91907602456666
 20
3.4126974334972613
 10
-71.91907602456666
 20
3.4126974334972617
 10
-71.9286883141543
 20
3.203716186749847
 10
-71.95340121628914
 20
3.19531691840246
 10
-72.50012835101944
 20
3.095256112370618
 10
-73.12545267592108
 20
2.958341067210514
 10
-73.82738055068667
 20
2.779037002985876
 10
-74.603630337112
 20
2.551906341085226
 10
-75.45163685415275
 20
2.2716219729831146
 10
-76.36855640509725
 20
1.9329803331161404
 10
-77.35127236849725
 20
1.5309142522167756
 10
-78.39640134354902
 20
1.0605055677965303
 10
-78.46445087433808
 20
1.0137997773646745
 10
-78.47099868463252
 20
0.014367894761796304
 10
-78.47099868463252
 20
-0.014367894761846781
 10
-78.46445087433808
 20
-1.0137997773647252
 10
-78.39640134354902
 20
-1.060505567796581
 10
-77.35127236849725
 20
-1.5309142522168253
 10
-76.36855640509725
 20
-1.9329803331161897
 10
-75.45163685415275
 20
-2.2716219729831635
 10
-74.603630337112
 20
-2.551906341085274
 10
-73.82738055068667
 20
-2.7790370029859233
 10
-73.12545267592108
 20
-2.958341067210561
 10
-72.50012835101944
 20
-3.0952561123706652
 10
-71.95340121628914
 20
-3.195316918402506
 10
-71.9286883141543
 20
-3.2037161867498933
 10
-71.91907602456666
 20
-3.412697433497308
 10
-71.91907602456666
 20
-3.4126974334973075
 10
-71.85798201063528
 20
-4.52000236274462
 10
-71.85786687138362
 20
-4.521832448743438
 10
-71.779697033443
 20
-5.628063058205127
 10
-71.779697033443
 20
-5.628063058205126
 10
-71.76304123184703
 20
-5.836601164738239
 10
-71.7865065579056
 20
-5.848031550281286
 10
-72.31638164150606
 20
-6.015826426643947
 10
-72.919615091997
 20
-6.230035775444762
 10
-73.59353529765389
 20
-6.495900863840751
 10
-74.33519710236105
 20
-6.81853042841796
 10
-75.14138788855591
 20
-7.202888069425025
 10
-76.00863420322658
 20
-7.653779911052496
 10
-76.93320891570649
 20
-8.175842550180834
 10
-77.91113889510994
 20
-8.773531315555147
 10
-77.97279804728234
 20
-8.828397684615432
 10
-77.85403219656298
 20
-9.82076940654512
 10
-77.85043064714297
 20
-9.849278605785406
 10
-77.71867243871455
 20
-10.840009011241158
 10
-77.64530571106017
 20
-10.877817644828788
 10
-76.54946004862647
 20
-11.21352762233313
 10
-75.52410085209526
 20
-11.489256322725105
 10
-74.5719684339365
 20
-11.710307179876168
 10
-73.69551975539811
 20
-11.882098023154589
 10
-72.89692391009572
 20
-12.010147796159226
 10
-72.17805818811786
 20
-12.100063104008633
 10
-71.54050472695987
 20
-12.15752461347677
 10
-70.98554775461338
 20
-12.18827333049324
 10
-70.9599770136317
 20
-12.193509020165651
 10
-70.92424822440935
 20
-12.399637648026815
 10
-70.92424822440935
 20
-12.399637648026813
 10
-70.72485384770148
 20
-13.490554036853617
 10
-70.72451024576125
 20
-13.492355261303029
 10
-70.50830934098934
 20
-14.580065633437748
 10
-70.50830934098934
 20
-14.580065633437748
 10
-70.46564812015063
 20
-14.784871829241906
 10
-70.4874958079235
 20
-14.799153067972414
 10
-70.99216239379368
 20
-15.032035789229859
 10
-71.5637916180055
 20
-15.32016123227833
 10
-72.19907603033002
 20
-15.668394493581559
 10
-72.89445340361155
 20
-16.081434899872388
 10
-73.64611434866717
 20
-16.5638042641816
 10
-74.4500104346138
 20
-17.119835473877373
 10
-75.30186280064366
 20
-17.753661431550526
 10
-76.19717124443659
 20
-18.46920436900699
 10
-76.25146761632915
 20
-18.531366041280044
 10
-76.00926111300913
 20
-19.501027307667577
 10
-76.00211481275491
 20
-19.528860309521917
 10
-75.74722411184798
 20
-20.49526482750285
 10
-75.66969722445054
 20
-20.523580039508797
 10
-74.54041701535793
 20
-20.71929696320857
 10
-73.48858511274472
 20
-20.86433987677563
 10
-72.51625552438242
 20
-20.964313847144133
 10
-71.625186803572
 20
-21.024901921377488
 10
-70.81683923293099
 20
-21.0518513840726
 10
-70.09237260560602
 20
-21.05095991742919
 10
-69.45264460713011
 20
-21.028061688875205
 10
-68.89820980013656
 20
-20.98901339124056
 10
-68.87218448616855
 20
-20.99100293228421
 10
-68.81090266166089
 20
-21.19102816966248
 10
-68.81090266166089
 20
-21.19102816966248
 10
-68.4763524906096
 20
-22.248351614935114
 10
-68.47578584478869
 20
-22.25009557144951
 10
-68.12496349060591
 20
-23.302131863922018
 10
-68.12496349060591
 20
-23.302131863922018
 10
-68.05696964346166
 20
-23.499976232944096
 10
-68.07685514186144
 20
-23.51688310119609
 10
-68.54835433646899
 20
-23.81118096771669
 10
-69.07936440006111
 20
-24.168678594658147
 10
-69.66599420437043
 20
-24.593788182313403
 10
-70.30412062965132
 20
-25.09072553637226
 10
-70.98939759144372
 20
-25.66349937095497
 10
-71.71726552716669
 20
-26.315901004385204
 10
-72.48296132606228
 20
-27.051494466621392
 10
-73.2815286852547
 20
-27.873607036591686
 10
-73.3276059906476
 20
-27.942083685372182
 10
-72.96577857597143
 20
-28.873742358799067
 10
-72.955200226307
 20
-28.900460220201584
 10
-72.58119681153919
 20
-29.827298074157063
 10
-72.50073240972526
 20
-29.8456733167733
 10
-71.35582707747045
 20
-29.898310613866144
 10
-70.29411048621336
 20
-29.9103803272169
 10
-69.3169179460975
 20
-29.88770076156857
 10
-68.42528186904093
 20
-29.83613055663264
 10
-67.61993069713373
 20
-29.7615546998927
 10
-66.90128843594994
 20
-29.669870517717975
 10
-66.26947479284708
 20
-29.5669736698849
 10
-65.72430591931604
 20
-29.458744172579163
 10
-65.69823646710975
 20
-29.457456188743304
 10
-65.61236805829724
 20
-29.648223518155934
 10
-65.61236805829724
 20
-29.648223518155934
 10
-65.14793814895062
 20
-30.655279397528037
 10
-65.14715739559212
 20
-30.65693858287138
 10
-64.66724627009505
 20
-31.656709554893364
 10
-64.66724627009505
 20
-31.656709554893364
 10
-64.57499210023228
 20
-31.844471973247387
 10
-64.5926018030702
 20
-31.86373783960886
 10
-65.02349778245618
 20
-32.21480959823256
 10
-65.50551433951571
 20
-32.63604145793141
 10
-66.03423803336021
 20
-33.1313231397932
 10
-66.60504987571555
 20
-33.7043204426906
 10
-67.21313562719263
 20
-34.358465762016934
 10
-67.85349650053837
 20
-35.096949055696584
 10
-68.52096025214658
 20
-35.9227092741741
 10
-69.21019264244303
 20
-36.838426270323566
 10
-69.24732421470497
 20
-36.91213797795426
 10
-68.77158212314731
 20
-37.79110124459464
 10
-68.75773855096608
 20
-37.81628260891054
 10
-68.27052067960707
 20
-38.68893701221759
 10
-68.1883877350604
 20
-38.69708249689123
 10
-67.04591312066634
 20
-38.605810045757984
 10
-65.99105574564823
 20
-38.4847162123028
 10
-65.024411163883
 20
-38.339740780936026
 10
-64.14626936415299
 20
-38.176825589769194
 10
-63.35661546005405
 20
-38.00190051940445
 10
-62.65513098276639
 20
-37.82086953602078
 10
-62.041195773615485
 20
-37.63959681366654
 10
-61.51389047235066
 20
-37.463892960515395
 10
-61.48818801274051
 20
-37.459347764074515
 10
-61.37908721572542
 20
-37.6378486707778
 10
-61.37908721572542
 20
-37.6378486707778
 10
-60.792101905190826
 20
-38.57875511144565
 10
-60.7911193572416
 20
-38.58030335927398
 10
-60.18968794556433
 20
-39.512042025382414
 10
-60.18968794556433
 20
-39.512042025382414
 10
-60.07462835635175
 20
-39.68676136756712
 10
-60.089684548094525
 20
-39.708082397816675
 10
-60.473181825259246
 20
-40.11039143718988
 10
-60.89860318673864
 20
-40.588714451586945
 10
-61.36108248162215
 20
-41.14635733966539
 10
-61.85557769731153
 20
-41.78637808164263
 10
-62.37688236291968
 20
-42.511578623259346
 10
-62.919637300382476
 20
-43.324497254498546
 10
-63.47834270261694
 20
-44.22740149728677
 10
-64.04737051749497
 20
-45.22228151556329
 10
-64.07497076955006
 20
-45.30006580438161
 10
-63.492816738089324
 20
-46.11247188845337
 10
-63.475926264794346
 20
-46.135719630524775
 10
-62.88317765372533
 20
-46.94042830194477
 10
-62.80067145204523
 20
-46.93821556951662
 10
-61.678645062662156
 20
-46.70447279123518
 10
-60.64728263482833
 20
-46.4521251330656
 10
-59.70643057391364
 20
-46.18714018513716
 10
-58.85563187226842
 20
-45.91544927762495
 10
-58.09412854976178
 20
-45.642933666490215
 10
-57.420864685623584
 20
-45.37541084864824
 10
-56.834490035420046
 20
-45.11862103089144
 10
-56.3333642260193
 20
-44.87821377661947
 10
-56.308434102147245
 20
-44.87048304803661
 10
-56.17782150167217
 20
-45.03390246610056
 10
-56.17782150167217
 20
-45.03390246610056
 10
-55.477537898944774
 20
-45.89382081142457
 10
-55.476369051772934
 20
-45.895233704944694
 10
-54.76290228655534
 20
-46.74424598978137
 10
-54.76290228655534
 20
-46.74424598978137
 10
-54.626851836448104
 20
-46.90316682739821
 10
-54.63911707195781
 20
-46.92620677615225
 10
-54.96916766575022
 20
-47.373408442396276
 10
-55.33128468264454
 20
-47.9012791718182
 10
-55.720226003815014
 20
-48.51248890464858
 10
-56.13060610788988
 20
-49.20943957627483
 10
-56.55690840164014
 20
-49.99425849442682
 10
-56.99349783363014
 20
-50.86879225079688
 10
-57.43463376854319
 20
-51.83460117861818
 10
-57.87448309944142
 20
-52.89295436682102
 10
-57.89211675882716
 20
-52.97358453212623
 10
-57.21273170430145
 20
-53.70662130437567
 10
-57.193060702746465
 20
-53.72756879342259
 10
-56.50412935165485
 20
-54.45164099649758
 10
-56.42255106492864
 20
-54.43910494307986
 10
-55.338667926983206
 20
-54.066578100894894
 10
-54.34706564792665
 20
-53.68695629132542
 10
-53.446843906900895
 20
-53.306140797758495
 10
-52.636805907107934
 20
-52.929958901812654
 10
-51.91546252848954
 20
-52.56415048388847
 10
-51.28103705082661
 20
-52.21435482623592
 10
-50.7314704380874
 20
-51.886097641901394
 10
-50.264427173923025
 20
-51.58477835252079
 10
-50.24066254873507
 20
-51.57398401000383
 10
-50.09059798353368
 20
-51.719744717583545
 10
-50.09059798353368
 20
-51.719744717583545
 10
-49.28805997935764
 20
-52.48511354156762
 10
-49.286723266381266
 20
-52.486368798604765
 10
-48.47247294471521
 20
-53.23926527126243
 10
-48.47247294471521
 20
-53.23926527126243
 10
-48.31757723058411
 20
-53.3798813277675
 10
-48.32685807976987
 20
-53.40427684127077
 10
-48.598256895163175
 20
-53.88931849696362
 10
-48.89135876579778
 20
-54.458412104672746
 10
-49.20062827627808
 20
-55.11354953964931
 10
-49.520421329348
 20
-55.85643881249488
 10
-49.84499820940729
 20
-56.68849904401479
 10
-50.16853685977609
 20
-57.61085600575661
 10
-50.48514635015232
 20
-58.624338234872965
 10
-50.78888051036924
 20
-59.72947373099463
 10
-50.79626948374328
 20
-59.81167818691372
 10
-50.030367714307424
 20
-60.453785219547534
 10
-50.00822640793783
 20
-60.47210210115427
 10
-49.23397717577799
 20
-61.104118784702
 10
-49.154613342319834
 20
-61.081457111345784
 10
-48.125966940377836
 20
-60.576021176095296
 10
-47.189762970393765
 20
-60.07511207783792
 10
-46.34436858387934
 20
-59.5844717264542
 10
-45.587866069088605
 20
-59.10973145529396
 10
-44.918058650348925
 20
-58.65639924785434
 10
-44.33247682793142
 20
-58.229847236870214
 10
-43.82838524643461
 20
-57.83529949784624
 10
-43.40279007878059
 20
-57.477820158549974
 10
-43.38056573461225
 20
-57.464132435328615
 10
-43.213415812522
 20
-57.58993569899234
 10
-43.213415812522
 20
-57.58993569899234
 10
-42.32127991063613
 20
-58.2486846780731
 10
-42.319796412617436
 20
-58.2497625024739
 10
-41.41760374848514
 20
-58.894669535820206
 10
-41.41760374848514
 20
-58.894669535820206
 10
-41.24630556827223
 20
-59.014763212002435
 10
-41.25245566659829
 20
-59.040129558433826
 10
-41.46092258214795
 20
-59.555361806915386
 10
-41.680386914932356
 20
-60.15670334675807
 10
-41.90510724979355
 20
-60.845436575171135
 10
-42.12926992437649
 20
-61.62254864162269
 10
-42.34700261945344
 20
-62.48872809961078
 10
-42.55238809041212
 20
-63.44436214644834
 10
-42.73947801545496
 20
-64.48953445668165
 10
-42.902306935841956
 20
-65.62402361377234
 10
-42.89933469468022
 20
-65.70650594692893
 10
-42.05899493876576
 20
-66.24755682846632
 10
-42.0347325092096
 20
-66.26295423446797
 10
-41.18737576888674
 20
-66.79294811784041
 10
-41.11147800375995
 20
-66.76051821267195
 10
-40.1542907060636
 20
-66.13014421098764
 10
-39.288249541019795
 20
-65.51584745975047
 10
-38.51101488350614
 20
-64.92311994198562
 10
-37.819978350288594
 20
-64.35730823328326
 10
-37.212270154544704
 20
-63.82360155604708
 10
-36.68476696252178
 20
-63.327020171754405
 10
-36.23410023763727
 20
-62.8724041315768
 10
-35.85666505652576
 20
-62.46440240509336
 10
-35.83633148456074
 20
-62.44803716473946
 10
-35.654732259703515
 20
-62.55189899186799
 10
-35.654732259703515
 20
-62.55189899186799
 10
-34.687067976216724
 20
-63.09363926112775
 10
-34.68546108880563
 20
-63.094522654957544
 10
-33.70955419946426
 20
-63.62126967982783
 10
-33.70955419946426
 20
-63.62126967982783
 10
-33.52455502780006
 20
-63.71894702667337
 10
-33.52747738454192
 20
-63.744884163596524
 10
-33.66972475245762
 20
-64.2821814845234
 10
-33.81209046376218
 20
-64.90628744119233
 10
-33.94871764908209
 20
-65.61775472860052
 10
-34.07371476589158
 20
-66.41683406714589
 10
-34.181169501317626
 20
-67.30347258411913
 10
-34.26516274129784
 20
-68.2773127962657
 10
-34.31978258112725
 20
-69.3376921959279
 10
-34.33913835234053
 20
-70.48364344226934
 10
-34.325851770661686
 20
-70.56510285699697
 10
-33.42432668821403
 20
-70.99656489182799
 10
-33.39832576847906
 20
-71.00879999593393
 10
-32.49122484197447
 20
-71.4284127589873
 10
-32.41999009827421
 20
-71.38672606098379
 10
-31.54935732030415
 20
-70.64135536743939
 10
-30.767136946721276
 20
-69.92335878995254
 10
-30.070319473054866
 20
-69.23789177283996
 10
-29.455646980344557
 20
-68.58993181524127
 10
-28.919621928870626
 20
-67.98426754132944
 10
-28.4585164076956
 20
-67.42548816880186
 10
-28.068381822890103
 20
-66.91797339399868
 10
-27.745059006596065
 20
-66.46588371128313
 10
-27.726936879410943
 20
-66.4470990434132
 10
-27.53375228004486
 20
-66.52738147094865
 10
-27.53375228004486
 20
-66.52738147094865
 10
-26.505820258762352
 20
-66.94356946272124
 10
-26.504115323533306
 20
-66.94424449433161
 10
-25.46988484360628
 20
-67.34452439548025
 10
-25.46988484360628
 20
-67.34452439548025
 10
-25.274102227941103
 20
-67.4182449828797
 10
-25.273750755787194
 20
-67.44434386615126
 10
-25.347535250102453
 20
-67.99523275980658
 10
-25.41055714761474
 20
-68.63226060954224
 10
-25.45693649106375
 20
-69.35524169181318
 10
-25.480796770898056
 20
-70.16368634393663
 10
-25.476278921305173
 20
-71.0568011008302
 10
-25.437555306737305
 20
-72.03348943639628
 10
-25.35884367385086
 20
-73.09235310891475
 10
-25.234421043815825
 20
-74.23169410879403
 10
-25.211029658949954
 20
-74.31084594146097
 10
-24.26253683906428
 20
-74.62591471555338
 10
-24.23520747918693
 20
-74.63479456286298
 10
-23.282667889987408
 20
-74.93740866165942
 10
-23.217219582175414
 20
-74.88712259495081
 10
-22.44687172293104
 20
-74.03851015064637
 10
-21.760808223376298
 20
-73.22813698184717
 10
-21.15539716137544
 20
-72.46074068972487
 10
-20.626782461569956
 20
-71.7408511988337
 10
-20.170893989633562
 20
-71.07278101565211
 10
-19.78345804882646
 20
-70.460615939393
 10
-19.460008259557448
 20
-69.90820624113749
 10
-19.195896802037534
 20
-69.41915832655155
 10
-19.18027191640365
 20
-69.39825047659933
 10
-18.978548579063606
 20
-69.45368740270109
 10
-18.978548579063606
 20
-69.45368740270109
 10
-17.906559922017827
 20
-69.7377595837376
 10
-17.90478382681776
 20
-69.73821560747683
 10
-16.82854018879287
 20
-70.0057157317471
 10
-16.82854018879287
 20
-70.0057157317471
 10
-16.625061737930608
 20
-70.05431694199864
 10
-16.621441979806775
 20
-70.08016597663868
 10
-16.625599974969514
 20
-70.63595859608444
 10
-16.608284165718302
 20
-71.27586202915451
 10
-16.56368423734454
 20
-71.9989550627328
 10
-16.48603138933723
 20
-72.80401537332894
 10
-16.36961220391234
 20
-73.68952141690572
 10
-16.208782429330487
 20
-74.6536549173941
 10
-15.99798065319886
 20
-75.69430395011874
 10
-15.731741841117628
 20
-76.80906661535845
 10
-15.698614549177409
 20
-76.8846625942805
 10
-14.71811229022546
 20
-77.07836928485392
 10
-14.68988549053676
 20
-77.08375383487052
 10
-13.706929356983553
 20
-77.26459686429912
 10
-13.648299643970937
 20
-77.20650447019683
 10
-12.990385549376045
 20
-76.26803340031556
 10
-12.41129855507188
 20
-75.37806370916942
 10
-11.906841598839364
 20
-74.5408404399845
 10
-11.472621261533755
 20
-73.76037450311334
 10
-11.104059002671912
 20
-73.04043427653654
 10
-10.796402738462273
 20
-72.3845377054882
 10
-10.54473874112606
 20
-71.79594491471545
 10
-10.344003837837894
 20
-71.2776513460152
 10
-10.331122607535553
 20
-71.25495004326415
 10
-10.124041829755072
 20
-71.28466719449119
 10
-10.124041829755072
 20
-71.28466719449119
 10
-9.024902438442624
 20
-71.43214357680017
 10
-9.02308319335388
 20
-71.43237340090147
 10
-7.921799402319568
 20
-71.56287511153675
 10
-7.921799402319568
 20
-71.56287511153675
 10
-7.713834092982459
 20
-71.58559047452177
 10
-7.707003134636649
 20
-71.61078200581257
 10
-7.641469056579282
 20
-72.16271316942567
 10
-7.544088621220426
 20
-72.79540052643085
 10
-7.409212788537055
 20
-73.50720190222216
 10
-7.231271444488767
 20
-74.29618158927313
 10
-7.004786923331464
 20
-75.16011396025026
 10
-6.724387370355833
 20
-76.09648766441282
 10
-6.384819920915499
 20
-77.10251040044395
 10
-5.980963671897954
 20
-78.17511425788629
 10
-5.938622910066563
 20
-78.24596218931704
 10
-4.941574318395672
 20
-78.31525192614636
 10
-4.912895232388587
 20
-78.31705626129964
 10
-3.9150243598973606
 20
-78.37327621875589
 10
-3.864137867282028
 20
-78.30829364901766
 10
-3.329033235627204
 20
-77.294764202947
 10
-2.8660552944035995
 20
-76.33923334312544
 10
-2.4705080314871886
 20
-75.44538660796589
 10
-2.1375299707914213
 20
-74.61665263916693
 10
-1.8621063719948028
 20
-73.85619625663949
 10
-1.6390817074541575
 20
-73.16691207154096
 10
-1.463172393625518
 20
-72.55141864816974
 10
-1.3289797539071757
 20
-72.01205322454716
 10
-1.319045323633118
 20
-71.98791648210276
 10
-1.1098728929818602
 20
-71.99144520122806
 10
-1.1098728929818606
 20
-71.99144520122806
 10
-0.0009168521977835908
 20
-71.99999999416238
 10
0.0009168521978208943
 20
-71.99999999416238
 10
1.109872892981898
 20
-71.99144520122806
 10
1.1098728929818975
 20
-71.99144520122806
 10
1.3190453236331545
 20
-71.98791648210276
 10
1.3289797539072121
 20
-72.01205322454716
 10
1.4631723936255554
 20
-72.55141864816974
 10
1.6390817074541948
 20
-73.16691207154096
 10
1.862106371994841
 20
-73.8561962566395
 10
2.1375299707914595
 20
-74.61665263916693
 10
2.4705080314872276
 20
-75.44538660796589
 10
2.8660552944036386
 20
-76.33923334312544
 10
3.329033235627244
 20
-77.294764202947
 10
3.864137867282068
 20
-78.30829364901766
 10
3.9150243598974015
 20
-78.3732762187559
 10
4.912895232388627
 20
-78.31705626129964
 10
4.941574318395712
 20
-78.31525192614636
 10
5.938622910066604
 20
-78.24596218931703
 10
5.980963671897994
 20
-78.17511425788629
 10
6.384819920915539
 20
-77.10251040044395
 10
6.724387370355872
 20
-76.09648766441282
 10
7.004786923331503
 20
-75.16011396025026
 10
7.231271444488805
 20
-74.29618158927313
 10
7.4092127885370935
 20
-73.50720190222215
 10
7.544088621220463
 20
-72.79540052643085
 10
7.64146905657932
 20
-72.16271316942567
 10
7.707003134636684
 20
-71.61078200581257
 10
7.713834092982495
 20
-71.58559047452177
 10
7.921799402319605
 20
-71.56287511153675
 10
7.921799402319605
 20
-71.56287511153675
 10
9.023083193353916
 20
-71.43237340090147
 10
9.024902438442659
 20
-71.43214357680017
 10
10.124041829755107
 20
-71.28466719449118
 10
10.124041829755107
 20
-71.28466719449118
 10
10.331122607535589
 20
-71.25495004326413
 10
10.344003837837931
 20
-71.27765134601519
 10
10.544738741126096
 20
-71.79594491471545
 10
10.79640273846231
 20
-72.38453770548819
 10
11.10405900267195
 20
-73.04043427653653
 10
11.472621261533792
 20
-73.76037450311333
 10
11.906841598839403
 20
-74.5408404399845
 10
12.41129855507192
 20
-75.37806370916942
 10
12.990385549376082
 20
-76.26803340031555
 10
13.648299643970976
 20
-77.20650447019683
 10
13.706929356983592
 20
-77.26459686429912
 10
14.689885490536799
 20
-77.08375383487052
 10
14.718112290225498
 20
-77.07836928485392
 10
15.698614549177448
 20
-76.8846625942805
 10
15.731741841117667
 20
-76.80906661535845
 10
15.997980653198898
 20
-75.69430395011872
 10
16.208782429330522
 20
-74.6536549173941
 10
16.369612203912375
 20
-73.68952141690572
 10
16.486031389337267
 20
-72.80401537332892
 10
16.563684237344578
 20
-71.99895506273279
 10
16.608284165718338
 20
-71.2758620291545
 10
16.62559997496955
 20
-70.63595859608444
 10
16.62144197980681
 20
-70.08016597663867
 10
16.625061737930643
 20
-70.05431694199862
 10
16.828540188792907
 20
-70.00571573174709
 10
16.828540188792907
 20
-70.00571573174709
 10
17.904783826817795
 20
-69.73821560747683
 10
17.906559922017802
 20
-69.7377595837376
 10
18.978548579063578
 20
-69.4536874027011
 10
18.978548579063578
 20
-69.4536874027011
 10
19.180271916403626
 20
-69.39825047659933
 10
19.195896802037513
 20
-69.41915832655157
 10
19.460008259557423
 20
-69.9082062411375
 10
19.783458048826432
 20
-70.460615939393
 10
20.170893989633537
 20
-71.07278101565211
 10
20.62678246156993
 20
-71.74085119883371
 10
21.155397161375415
 20
-72.46074068972487
 10
21.760808223376273
 20
-73.22813698184719
 10
22.446871722931014
 20
-74.03851015064639
 10
23.217219582175385
 20
-74.88712259495082
 10
23.282667889987383
 20
-74.93740866165942
 10
24.235207479186904
 20
-74.634794562863
 10
24.262536839064254
 20
-74.62591471555339
 10
25.21102965894993
 20
-74.31084594146097
 10
25.234421043815797
 20
-74.23169410879404
 10
25.358843673850835
 20
-73.09235310891476
 10
25.43755530673728
 20
-72.0334894363963
 10
25.47627892130515
 20
-71.0568011008302
 10
25.48079677089803
 20
-70.16368634393665
 10
25.456936491063725
 20
-69.35524169181318
 10
25.410557147614718
 20
-68.63226060954224
 10
25.34753525010243
 20
-67.9952327598066
 10
25.273750755787173
 20
-67.44434386615127
 10
25.27410222794108
 20
-67.4182449828797
 10
25.46988484360626
 20
-67.34452439548026
 10
25.46988484360626
 20
-67.34452439548026
 10
26.50411532353328
 20
-66.94424449433161
 10
26.505820258762384
 20
-66.94356946272123
 10
27.533752280044894
 20
-66.52738147094864
 10
27.533752280044894
 20
-66.52738147094864
 10
27.726936879410975
 20
-66.44709904341319
 10
27.7450590065961
 20
-66.46588371128311
 10
28.068381822890135
 20
-66.91797339399866
 10
28.458516407695633
 20
-67.42548816880183
 10
28.919621928870658
 20
-67.98426754132943
 10
29.45564698034459
 20
-68.58993181524126
 10
30.070319473054905
 20
-69.23789177283994
 10
30.767136946721312
 20
-69.92335878995253
 10
31.549357320304185
 20
-70.64135536743937
 10
32.41999009827425
 20
-71.38672606098379
 10
32.49122484197451
 20
-71.42841275898729
 10
33.3983257684791
 20
-71.00879999593391
 10
33.424326688214066
 20
-70.99656489182797
 10
34.32585177066172
 20
-70.56510285699696
 10
34.33913835234056
 20
-70.48364344226931
 10
34.319782581127285
 20
-69.33769219592789
 10
34.26516274129788
 20
-68.27731279626569
 10
34.18116950131766
 20
-67.30347258411912
 10
34.073714765891616
 20
-66.41683406714587
 10
33.94871764908212
 20
-65.6177547286005
 10
33.81209046376221
 20
-64.9062874411923
 10
33.669724752457654
 20
-64.28218148452339
 10
33.527477384541946
 20
-63.74488416359651
 10
33.5245550278001
 20
-63.718947026673355
 10
33.70955419946429
 20
-63.62126967982781
 10
33.70955419946429
 20
-63.62126967982781
 10
34.68546108880566
 20
-63.09452265495753
 10
34.68706797621676
 20
-63.09363926112773
 10
35.65473225970355
 20
-62.55189899186797
 10
35.65473225970355
 20
-62.55189899186797
 10
35.83633148456077
 20
-62.448037164739446
 10
35.85666505652579
 20
-62.46440240509333
 10
36.234100237637314
 20
-62.87240413157677
 10
36.684766962521806
 20
-63.327020171754384
 10
37.21227015454473
 20
-63.82360155604705
 10
37.81997835028862
 20
-64.35730823328325
 10
38.51101488350617
 20
-64.92311994198559
 10
39.28824954101983
 20
-65.51584745975045
 10
40.154290706063634
 20
-66.13014421098761
 10
41.111478003759984
 20
-66.76051821267193
 10
41.187375768886774
 20
-66.79294811784038
 10
42.03473250920963
 20
-66.26295423446794
 10
42.05899493876579
 20
-66.24755682846629
 10
42.899334694680256
 20
-65.7065059469289
 10
42.90230693584199
 20
-65.62402361377231
 10
42.73947801545499
 20
-64.48953445668162
 10
42.55238809041216
 20
-63.44436214644831
 10
42.34700261945347
 20
-62.48872809961075
 10
42.129269924376516
 20
-61.62254864162267
 10
41.90510724979358
 20
-60.84543657517111
 10
41.680386914932384
 20
-60.15670334675805
 10
41.46092258214798
 20
-59.55536180691536
 10
41.252455666598316
 20
-59.0401295584338
 10
41.24630556827226
 20
-59.01476321200241
 10
41.41760374848518
 20
-58.89466953582017
 10
41.41760374848518
 20
-58.89466953582017
 10
42.31979641261746
 20
-58.249762502473864
 10
42.321279910636164
 20
-58.24868467807307
 10
43.21341581252203
 20
-57.58993569899231
 10
43.21341581252203
 20
-57.58993569899231
 10
43.380565734612276
 20
-57.464132435328594
 10
43.402790078780626
 20
-57.477820158549946
 10
43.82838524643464
 20
-57.83529949784622
 10
44.33247682793145
 20
-58.22984723687019
 10
44.918058650348954
 20
-58.65639924785432
 10
45.58786606908863
 20
-59.10973145529393
 10
46.344368583879366
 20
-59.584471726454176
 10
47.1897629703938
 20
-60.07511207783789
 10
48.12596694037787
 20
-60.57602117609527
 10
49.15461334231987
 20
-61.081457111345756
 10
49.23397717577802
 20
-61.104118784701974
 10
50.00822640793787
 20
-60.47210210115425
 10
50.03036771430746
 20
-60.45378521954751
 10
50.796269483743316
 20
-59.81167818691369
 10
50.788880510369275
 20
-59.7294737309946
 10
50.485146350152355
 20
-58.62433823487294
 10
50.168536859776125
 20
-57.61085600575658
 10
49.844998209407315
 20
-56.68849904401477
 10
49.520421329348025
 20
-55.85643881249485
 10
49.20062827627811
 20
-55.11354953964929
 10
48.89135876579781
 20
-54.45841210467271
 10
48.59825689516321
 20
-53.8893184969636
 10
48.326858079769906
 20
-53.40427684127074
 10
48.317577230584135
 20
-53.379881327767464
 10
48.472472944715236
 20
-53.239265271262404
 10
48.472472944715236
 20
-53.239265271262404
 10
49.2867232663813
 20
-52.48636879860474
 10
49.28805997935766
 20
-52.4851135415676
 10
50.090597983533705
 20
-51.71974471758351
 10
50.090597983533705
 20
-51.71974471758351
 10
50.24066254873509
 20
-51.573984010003805
 10
50.264427173923046
 20
-51.58477835252076
 10
50.73147043808743
 20
-51.88609764190136
 10
51.28103705082664
 20
-52.21435482623589
 10
51.91546252848956
 20
-52.56415048388843
 10
52.63680590710796
 20
-52.92995890181262
 10
53.446843906900924
 20
-53.30614079775846
 10
54.34706564792667
 20
-53.68695629132539
 10
55.33866792698323
 20
-54.066578100894866
 10
56.42255106492867
 20
-54.439104943079826
 10
56.50412935165488
 20
-54.45164099649755
 10
57.19306070274649
 20
-53.727568793422556
 10
57.212731704301476
 20
-53.70662130437564
 10
57.892116758827186
 20
-52.97358453212619
 10
57.87448309944145
 20
-52.89295436682099
 10
57.434633768543215
 20
-51.83460117861815
 10
56.99349783363016
 20
-50.868792250796844
 10
56.55690840164017
 20
-49.99425849442679
 10
56.13060610788991
 20
-49.2094395762748
 10
55.720226003815036
 20
-48.51248890464854
 10
55.331284682644565
 20
-47.901279171818175
 10
54.969167665750234
 20
-47.37340844239624
 10
54.639117071957834
 20
-46.92620677615221
 10
54.626851836448125
 20
-46.903166827398174
 10
54.76290228655537
 20
-46.744245989781334
 10
54.76290228655537
 20
-46.744245989781334
 10
55.476369051772956
 20
-45.89523370494466
 10
55.47753789894482
 20
-45.89382081142451
 10
56.17782150167222
 20
-45.03390246610051
 10
56.17782150167222
 20
-45.03390246610051
 10
56.30843410214729
 20
-44.87048304803656
 10
56.333364226019334
 20
-44.87821377661941
 10
56.834490035420096
 20
-45.11862103089139
 10
57.42086468562363
 20
-45.37541084864818
 10
58.09412854976182
 20
-45.642933666490165
 10
58.85563187226846
 20
-45.915449277624894
 10
59.70643057391368
 20
-46.1871401851371
 10
60.64728263482837
 20
-46.452125133065536
 10
61.6786450626622
 20
-46.704472791235126
 10
62.80067145204527
 20
-46.93821556951656
 10
62.883177653725376
 20
-46.94042830194471
 10
63.475926264794396
 20
-46.13571963052471
 10
63.492816738089374
 20
-46.11247188845331
 10
64.0749707695501
 20
-45.30006580438155
 10
64.04737051749501
 20
-45.222281515563225
 10
63.478342702616985
 20
-44.22740149728671
 10
62.91963730038252
 20
-43.32449725449848
 10
62.376882362919716
 20
-42.51157862325929
 10
61.855577697311574
 20
-41.786378081642575
 10
61.36108248162219
 20
-41.14635733966533
 10
60.89860318673868
 20
-40.58871445158689
 10
60.47318182525928
 20
-40.11039143718982
 10
60.08968454809456
 20
-39.70808239781662
 10
60.074628356351795
 20
-39.68676136756706
 10
60.189687945564366
 20
-39.512042025382364
 10
60.189687945564366
 20
-39.512042025382364
 10
60.79111935724163
 20
-38.58030335927392
 10
60.79210190519083
 20
-38.578755111445645
 10
61.379087215725434
 20
-37.6378486707778
 10
61.37908721572543
 20
-37.6378486707778
 10
61.488188012740515
 20
-37.459347764074515
 10
61.51389047235067
 20
-37.463892960515395
 10
62.04119577361549
 20
-37.63959681366654
 10
62.6551309827664
 20
-37.82086953602077
 10
63.356615460054066
 20
-38.001900519404444
 10
64.14626936415299
 20
-38.17682558976919
 10
65.02441116388302
 20
-38.339740780936026
 10
65.99105574564824
 20
-38.48471621230279
 10
67.04591312066634
 20
-38.605810045757984
 10
68.1883877350604
 20
-38.69708249689122
 10
68.27052067960709
 20
-38.688937012217586
 10
68.7577385509661
 20
-37.816282608910534
 10
68.77158212314733
 20
-37.791101244594635
 10
69.24732421470499
 20
-36.91213797795425
 10
69.21019264244303
 20
-36.83842627032356
 10
68.52096025214658
 20
-35.9227092741741
 10
67.85349650053838
 20
-35.09694905569658
 10
67.21313562719264
 20
-34.358465762016934
 10
66.60504987571555
 20
-33.704320442690594
 10
66.03423803336023
 20
-33.131323139793196
 10
65.50551433951573
 20
-32.636041457931405
 10
65.02349778245619
 20
-32.21480959823256
 10
64.5926018030702
 20
-31.86373783960886
 10
64.5749921002323
 20
-31.844471973247387
 10
64.66724627009505
 20
-31.656709554893357
 10
64.66724627009505
 20
-31.656709554893357
 10
65.14715739559212
 20
-30.656938582871373
 10
65.14793814895063
 20
-30.655279397528005
 10
65.61236805829725
 20
-29.648223518155902
 10
65.61236805829725
 20
-29.648223518155906
 10
65.69823646710977
 20
-29.457456188743272
 10
65.72430591931605
 20
-29.45874417257913
 10
66.26947479284709
 20
-29.56697366988487
 10
66.90128843594995
 20
-29.669870517717943
 10
67.61993069713374
 20
-29.761554699892663
 10
68.42528186904094
 20
-29.836130556632604
 10
69.31691794609752
 20
-29.88770076156854
 10
70.29411048621337
 20
-29.910380327216867
 10
71.35582707747048
 20
-29.89831061386611
 10
72.50073240972527
 20
-29.84567331677327
 10
72.5811968115392
 20
-29.827298074157028
 10
72.95520022630701
 20
-28.90046022020155
 10
72.96577857597144
 20
-28.87374235879903
 10
73.32760599064761
 20
-27.942083685372147
 10
73.28152868525471
 20
-27.873607036591654
 10
72.48296132606228
 20
-27.051494466621357
 10
71.7172655271667
 20
-26.315901004385164
 10
70.98939759144373
 20
-25.663499370954938
 10
70.30412062965134
 20
-25.090725536372226
 10
69.66599420437045
 20
-24.593788182313368
 10
69.07936440006112
 20
-24.168678594658115
 10
68.548354336469
 20
-23.811180967716655
 10
68.07685514186146
 20
-23.516883101196058
 10
68.05696964346167
 20
-23.499976232944064
 10
68.12496349060592
 20
-23.302131863921982
 10
68.12496349060592
 20
-23.302131863921986
 10
68.4757858447887
 20
-22.250095571449478
 10
68.47635249060961
 20
-22.248351614935075
 10
68.8109026616609
 20
-21.19102816966244
 10
68.8109026616609
 20
-21.19102816966244
 10
68.87218448616856
 20
-20.991002932284175
 10
68.89820980013656
 20
-20.989013391240523
 10
69.45264460713013
 20
-21.028061688875166
 10
70.09237260560603
 20
-21.05095991742915
 10
70.816839232931
 20
-21.05185138407256
 10
71.625186803572
 20
-21.02490192137745
 10
72.51625552438243
 20
-20.96431384714409
 10
73.48858511274473
 20
-20.86433987677559
 10
74.54041701535795
 20
-20.71929696320853
 10
75.66969722445056
 20
-20.523580039508754
 10
75.74722411184798
 20
-20.495264827502808
 10
76.00211481275491
 20
-19.528860309521875
 10
76.00926111300913
 20
-19.501027307667535
 10
76.25146761632915
 20
-18.531366041280002
 10
76.1971712444366
 20
-18.46920436900695
 10
75.30186280064368
 20
-17.753661431550487
 10
74.45001043461382
 20
-17.11983547387733
 10
73.64611434866718
 20
-16.563804264181556
 10
72.89445340361155
 20
-16.08143489987235
 10
72.19907603033003
 20
-15.66839449358152
 10
71.56379161800551
 20
-15.32016123227829
 10
70.99216239379369
 20
-15.03203578922982
 10
70.4874958079235
 20
-14.799153067972375
 10
70.46564812015065
 20
-14.784871829241867
 10
70.50830934098936
 20
-14.580065633437709
 10
70.50830934098936
 20
-14.580065633437709
 10
70.72451024576127
 20
-13.49235526130299
 10
70.72485384770148
 20
-13.490554036853581
 10
70.92424822440937
 20
-12.399637648026777
 10
70.92424822440937
 20
-12.39963764802678
 10
70.9599770136317
 20
-12.193509020165616
 10
70.98554775461338
 20
-12.188273330493203
 10
71.54050472695987
 20
-12.157524613476733
 10
72.17805818811786
 20
-12.100063104008596
 10
72.89692391009574
 20
-12.010147796159188
 10
73.69551975539811
 20
-11.882098023154551
 10
74.5719684339365
 20
-11.710307179876132
 10
75.52410085209526
 20
-11.489256322725065
 10
76.54946004862647
 20
-11.21352762233309
 10
77.64530571106017
 20
-10.877817644828749
 10
77.71867243871455
 20
-10.840009011241118
 10
77.85043064714297
 20
-9.849278605785365
 10
77.85403219656298
 20
-9.820769406545079
 10
77.97279804728234
 20
-8.828397684615393
 10
77.91113889510994
 20
-8.773531315555108
 10
76.93320891570649
 20
-8.175842550180795
 10
76.00863420322658
 20
-7.653779911052457
 10
75.14138788855591
 20
-7.202888069424987
 10
74.33519710236105
 20
-6.8185304284179225
 10
73.59353529765387
 20
-6.495900863840713
 10
72.919615091997
 20
-6.230035775444724
 10
72.31638164150606
 20
-6.01582642664391
 10
71.7865065579056
 20
-5.848031550281249
 10
71.76304123184703
 20
-5.8366011647382035
 10
71.77969703344299
 20
-5.628063058205091
 10
71.77969703344299
 20
-5.6280630582050915
 10
71.85786687138362
 20
-4.521832448743402
  0
ENDSEC
  0
SECTION
  2
OBJECTS
  0
DICTIONARY
  5
A
330
0
100
AcDbDictionary
281
1
  3
ACAD_COLOR
350
B
  3
ACAD_GROUP
350
C
  3
ACAD_LAYOUT
350
D
  3
ACAD_MATERIAL
350
E
  3
ACAD_MLEADERSTYLE
350
F
  3
ACAD_MLINESTYLE
350
10
  3
ACAD_PLOTSETTINGS
350
11
  3
ACAD_PLOTSTYLENAME
350
12
  3
ACAD_SCALELIST
350
14
  3
ACAD_TABLESTYLE
350
15
  3
ACAD_VISUALSTYLE
350
16
  0
DICTIONARY
  5
B
330
A
100
AcDbDictionary
281
1
  0
DICTIONARY
  5
C
330
A
100
AcDbDictionary
281
1
  0
DICTIONARY
  5
D
330
A
100
AcDbDictionary
281
1
  3
Model
350
1A
  3
Layout1
350
1E
  0
DICTIONARY
  5
E
330
A
100
AcDbDictionary
281
1
  3
ByBlock
350
1F
  3
ByLayer
350
20
  3
Global
350
21
  0
DICTIONARY
  5
F
330
A
100
AcDbDictionary
281
1
  3
Standard
350
2C
  0
DICTIONARY
  5
10
330
A
100
AcDbDictionary
281
1
  3
Standard
350
22
  0
DICTIONARY
  5
11
330
A
100
AcDbDictionary
281
1
  0
ACDBDICTIONARYWDFLT
  5
12
330
A
100
AcDbDictionary
281
1
  3
Normal
350
13
100
AcDbDictionaryWithDefault
340
13
  0
ACDBPLACEHOLDER
  5
13
330
12
  0
DICTIONARY
  5
14
330
A
100
AcDbDictionary
281
1
  0
DICTIONARY
  5
15
330
A
100
AcDbDictionary
281
1
  0
DICTIONARY
  5
16
330
A
100
AcDbDictionary
281
1
  0
LAYOUT
  5
1A
330
D
100
AcDbPlotSettings
  1

  2
Adobe PDF
  4
A4
  6

 40
3.175
 41
3.175
 42
3.175
 43
3.175
 44
209.91
 45
297.03
 46
0.0
 47
0.0
 48
0.0
 49
0.0
140
0.0
141
0.0
142
1.0
143
1.0
 70
1024
 72
0
 73
1
 74
5
  7

 75
16
 76
0
 77
2
 78
300
147
1.0
148
0.0
149
0.0
100
AcDbLayout
  1
Model
 70
1
 71
0
 10
-3.175
 20
-3.175
 11
293.857
 21
206.735
 12
0.0
 22
0.0
 32
0.0
 14
29.068
 24
20.356
 34
0.0
 15
261.614
 25
183.204
 35
0.0
146
0.0
 13
0.0
 23
0.0
 33
0.0
 16
1.0
 26
0.0
 36
0.0
 17
0.0
 27
1.0
 37
0.0
 76
1
330
17
  0
LAYOUT
  5
1E
330
D
100
AcDbPlotSettings
  1

  2
Adobe PDF
  4
A4
  6

 40
3.175
 41
3.175
 42
3.175
 43
3.175
 44
209.91
 45
297.03
 46
0.0
 47
0.0
 48
0.0
 49
0.0
140
0.0
141
0.0
142
1.0
143
1.0
 70
0
 72
0
 73
1
 74
5
  7

 75
16
 76
0
 77
2
 78
300
147
1.0
148
0.0
149
0.0
100
AcDbLayout
  1
Layout1
 70
1
 71
1
 10
-3.175
 20
-3.175
 11
293.857
 21
206.735
 12
0.0
 22
0.0
 32
0.0
 14
29.068
 24
20.356
 34
0.0
 15
261.614
 25
183.204
 35
0.0
146
0.0
 13
0.0
 23
0.0
 33
0.0
 16
1.0
 26
0.0
 36
0.0
 17
0.0
 27
1.0
 37
0.0
 76
1
330
1B
  0
MATERIAL
  5
1F
102
{ACAD_REACTORS
330
E
102
}
330
E
100
AcDbMaterial
  1
ByBlock
  2

 70
0
 40
1.0
 71
1
 41
1.0
 91
-1023410177
 42
1.0
 72
1
  3

 73
1
 74
1
 75
1
 44
0.5
 73
0
 45
1.0
 46
1.0
 77
1
  4

 78
1
 79
1
170
1
 48
1.0
171
1
  6

172
1
173
1
174
1
140
1.0
141
1.0
175
1
  7

176
1
177
1
178
1
143
1.0
179
1
  8

270
1
271
1
272
1
145
1.0
146
1.0
273
1
  9

274
1
275
1
276
1
 42
1.0
 72
1
  3

 73
1
 74
1
 75
1
 94
63
  0
MATERIAL
  5
20
102
{ACAD_REACTORS
330
E
102
}
330
E
100
AcDbMaterial
  1
ByLayer
  2

 70
0
 40
1.0
 71
1
 41
1.0
 91
-1023410177
 42
1.0
 72
1
  3

 73
1
 74
1
 75
1
 44
0.5
 73
0
 45
1.0
 46
1.0
 77
1
  4

 78
1
 79
1
170
1
 48
1.0
171
1
  6

172
1
173
1
174
1
140
1.0
141
1.0
175
1
  7

176
1
177
1
178
1
143
1.0
179
1
  8

270
1
271
1
272
1
145
1.0
146
1.0
273
1
  9

274
1
275
1
276
1
 42
1.0
 72
1
  3

 73
1
 74
1
 75
1
 94
63
  0
MATERIAL
  5
21
102
{ACAD_REACTORS
330
E
102
}
330
E
100
AcDbMaterial
  1
Global
  2

 70
0
 40
1.0
 71
1
 41
1.0
 91
-1023410177
 42
1.0
 72
1
  3

 73
1
 74
1
 75
1
 44
0.5
 73
0
 45
1.0
 46
1.0
 77
1
  4

 78
1
 79
1
170
1
 48
1.0
171
1
  6

172
1
173
1
174
1
140
1.0
141
1.0
175
1
  7

176
1
177
1
178
1
143
1.0
179
1
  8

270
1
271
1
272
1
145
1.0
146
1.0
273
1
  9

274
1
275
1
276
1
 42
1.0
 72
1
  3

 73
1
 74
1
 75
1
 94
63
  0
MLINESTYLE
  5
22
102
{ACAD_REACTORS
330
10
102
}
330
10
100
AcDbMlineStyle
  2
Standard
 70
0
  3

 62
256
 51
90.0
 52
90.0
 71
2
 49
0.5
 62
256
  6
BYLAYER
 49
-0.5
 62
256
  6
BYLAYER
  0
MLEADERSTYLE
  5
2C
102
{ACAD_REACTORS
330
F
102
}
330
F
100
AcDbMLeaderStyle
179
2
170
2
171
1
172
0
 90
2
 40
0.0
 41
0.0
173
1
 91
-1056964608
 92
-2
290
1
 42
2.0
291
1
 43
8.0
  3
Standard
 44
4.0
300

342
29
174
1
175
1
176
0
178
1
 93
-1056964608
 45
4.0
292
0
297
0
 46
4.0
 94
-1056964608
 47
1.0
 49
0.0
140
1.0
294
1
141
0.0
177
0
142
1.0
295
0
296
0
143
3.75
271
0
272
9
272
9
  0
ENDSEC
  0
EOF
