<?xml version="1.0" encoding="utf-8" ?>
<svg baseProfile="full" height="156.7465524375118mm" version="1.1" viewBox="-78.47099868463252 -78.3732762187559 156.94199736926504 156.7465524375118" width="156.94199736926504mm" xmlns="http://www.w3.org/2000/svg" xmlns:ev="http://www.w3.org/2001/xml-events" xmlns:xlink="http://www.w3.org/1999/xlink"><defs /><path d="M 71.85798201063528 -4.520002362744597 71.91907602456666 -3.4126974334972844 71.91907602456666 -3.412697433497285 71.9286883141543 -3.2037161867498702 71.95340121628914 -3.195316918402483 72.50012835101944 -3.0952561123706417 73.12545267592108 -2.9583410672105375 73.82738055068667 -2.7790370029858997 74.603630337112 -2.55190634108525 75.45163685415275 -2.271621972983139 76.36855640509725 -1.932980333116165 77.35127236849725 -1.5309142522168004 78.39640134354902 -1.0605055677965556 78.46445087433808 -1.0137997773646998 78.47099868463252 -0.014367894761821542 78.47099868463252 0.014367894761821542 78.46445087433808 1.0137997773646998 78.39640134354902 1.0605055677965556 77.35127236849725 1.5309142522168004 76.36855640509725 1.932980333116165 75.45163685415275 2.271621972983139 74.603630337112 2.55190634108525 73.82738055068667 2.7790370029858997 73.12545267592108 2.9583410672105375 72.50012835101944 3.0952561123706417 71.95340121628914 3.195316918402483 71.9286883141543 3.2037161867498702 71.91907602456666 3.412697433497285 71.91907602456666 3.4126974334972844 71.85798201063528 4.520002362744597 71.85786687138362 4.521832448743436 71.779697033443 5.628063058205125 71.779697033443 5.628063058205124 71.76304123184703 5.836601164738237 71.7865065579056 5.8480315502812825 72.31638164150606 6.015826426643946 72.919615091997 6.230035775444758 73.59353529765389 6.495900863840749 74.33519710236105 6.818530428417958 75.14138788855591 7.202888069425023 76.00863420322658 7.653779911052494 76.93320891570649 8.175842550180832 77.91113889510994 8.773531315555145 77.97279804728234 8.82839768461543 77.85403219656298 9.820769406545116 77.85043064714297 9.849278605785402 77.71867243871455 10.840009011241156 77.64530571106017 10.877817644828786 76.54946004862647 11.213527622333128 75.52410085209526 11.489256322725103 74.5719684339365 11.710307179876168 73.69551975539811 11.882098023154587 72.89692391009572 12.010147796159224 72.17805818811786 12.10006310400863 71.54050472695987 12.157524613476768 70.98554775461338 12.188273330493237 70.9599770136317 12.19350902016565 70.92424822440935 12.399637648026811 70.92424822440935 12.399637648026811 70.72485384770148 13.490554036853617 70.72451024576125 13.492355261303011 70.50830934098934 14.58006563343773 70.50830934098934 14.58006563343773 70.46564812015063 14.784871829241888 70.4874958079235 14.7991530679724 70.99216239379368 15.032035789229841 71.5637916180055 15.320161232278313 72.19907603033002 15.668394493581545 72.89445340361155 16.08143489987237 73.64611434866717 16.56380426418158 74.4500104346138 17.119835473877355 75.30186280064366 17.75366143155051 76.19717124443659 18.469204369006974 76.25146761632915 18.531366041280027 76.00926111300913 19.50102730766756 76.00211481275491 19.5288603095219 75.74722411184798 20.495264827502833 75.66969722445054 20.52358003950878 74.54041701535793 20.719296963208553 73.48858511274472 20.864339876775613 72.51625552438242 20.964313847144115 71.625186803572 21.02490192137747 70.81683923293099 21.051851384072584 70.09237260560602 21.05095991742917 69.45264460713011 21.028061688875187 68.89820980013656 20.989013391240547 68.87218448616855 20.991002932284196 68.81090266166089 21.191028169662463 68.81090266166089 21.191028169662463 68.4763524906096 22.248351614935096 68.47578584478869 22.250095571449485 68.12496349060592 23.302131863921993 68.12496349060592 23.302131863921993 68.05696964346167 23.49997623294407 68.07685514186144 23.516883101196065 68.54835433646899 23.811180967716666 69.07936440006111 24.16867859465812 69.66599420437043 24.59378818231338 70.30412062965132 25.090725536372236 70.98939759144373 25.663499370954945 71.7172655271667 26.315901004385175 72.48296132606228 27.051494466621364 73.28152868525471 27.87360703659166 73.3276059906476 27.942083685372157 72.96577857597143 28.873742358799042 72.955200226307 28.90046022020156 72.58119681153919 29.82729807415704 72.50073240972527 29.845673316773276 71.35582707747045 29.898310613866116 70.29411048621337 29.910380327216878 69.31691794609752 29.887700761568546 68.42528186904093 29.836130556632614 67.61993069713373 29.761554699892674 66.90128843594994 29.66987051771795 66.26947479284708 29.566973669884874 65.72430591931604 29.458744172579138 65.69823646710977 29.45745618874328 65.61236805829725 29.64822351815591 65.61236805829725 29.64822351815591 65.14793814895062 30.655279397528012 65.14715739559212 30.656938582871373 64.66724627009505 31.656709554893357 64.66724627009505 31.656709554893357 64.5749921002323 31.844471973247387 64.5926018030702 31.86373783960886 65.02349778245619 32.21480959823256 65.50551433951573 32.636041457931405 66.03423803336023 33.131323139793196 66.60504987571555 33.704320442690594 67.21313562719264 34.358465762016934 67.85349650053838 35.09694905569658 68.52096025214658 35.9227092741741 69.21019264244303 36.83842627032356 69.24732421470499 36.91213797795425 68.77158212314733 37.791101244594635 68.7577385509661 37.816282608910534 68.27052067960709 38.688937012217586 68.1883877350604 38.69708249689122 67.04591312066634 38.605810045757984 65.99105574564824 38.48471621230279 65.02441116388302 38.339740780936026 64.14626936415299 38.17682558976919 63.356615460054066 38.001900519404444 62.6551309827664 37.82086953602077 62.04119577361549 37.63959681366654 61.51389047235067 37.463892960515395 61.488188012740515 37.459347764074515 61.37908721572543 37.6378486707778 61.379087215725434 37.6378486707778 60.79210190519083 38.578755111445645 60.791119357241605 38.58030335927396 60.189687945564344 39.5120420253824 60.189687945564344 39.5120420253824 60.074628356351774 39.6867613675671 60.08968454809454 39.70808239781666 60.47318182525926 40.11039143718987 60.89860318673866 40.58871445158693 61.36108248162217 41.14635733966538 61.85557769731155 41.78637808164262 62.376882362919694 42.51157862325933 62.9196373003825 43.324497254498525 63.47834270261696 44.227401497286756 64.04737051749498 45.222281515563274 64.07497076955008 45.300065804381596 63.492816738089346 46.11247188845335 63.47592626479437 46.135719630524754 62.883177653725355 46.940428301944756 62.80067145204524 46.93821556951661 61.67864506266218 46.70447279123517 60.64728263482835 46.45212513306558 59.70643057391366 46.187140185137146 58.85563187226844 45.91544927762494 58.0941285497618 45.6429336664902 57.420864685623606 45.37541084864822 56.83449003542006 45.118621030891426 56.33336422601931 44.878213776619454 56.30843410214727 44.870483048036604 56.177821501672184 45.03390246610054 56.177821501672184 45.03390246610054 55.477537898944796 45.893820811424554 55.476369051772934 45.895233704944694 54.76290228655534 46.74424598978137 54.76290228655534 46.74424598978137 54.626851836448104 46.90316682739821 54.63911707195781 46.92620677615225 54.96916766575022 47.373408442396276 55.33128468264454 47.9012791718182 55.720226003815014 48.51248890464858 56.13060610788988 49.20943957627483 56.55690840164014 49.99425849442682 56.99349783363014 50.86879225079688 57.43463376854319 51.83460117861818 57.87448309944142 52.89295436682102 57.89211675882716 52.97358453212623 57.21273170430145 53.70662130437567 57.193060702746465 53.72756879342259 56.50412935165485 54.45164099649758 56.42255106492864 54.43910494307986 55.338667926983206 54.066578100894894 54.34706564792665 53.68695629132542 53.446843906900895 53.306140797758495 52.636805907107934 52.929958901812654 51.91546252848954 52.56415048388847 51.28103705082661 52.21435482623592 50.7314704380874 51.886097641901394 50.264427173923025 51.58477835252079 50.24066254873507 51.57398401000383 50.09059798353368 51.719744717583545 50.09059798353368 51.719744717583545 49.28805997935764 52.48511354156762 49.28672326638128 52.48636879860475 48.472472944715214 53.239265271262425 48.472472944715214 53.239265271262425 48.317577230584114 53.37988132776749 48.32685807976988 53.40427684127076 48.59825689516318 53.88931849696361 48.89135876579779 54.45841210467273 49.20062827627809 55.113549539649306 49.520421329348004 55.85643881249487 49.844998209407294 56.68849904401478 50.1685368597761 57.610856005756595 50.485146350152334 58.62433823487295 50.788880510369246 59.72947373099461 50.79626948374329 59.81167818691371 50.03036771430743 60.45378521954753 50.00822640793784 60.47210210115426 49.233977175777994 61.104118784701996 49.15461334231984 61.08145711134577 48.12596694037785 60.57602117609528 47.18976297039377 60.07511207783791 46.344368583879344 59.58447172645419 45.58786606908861 59.109731455293954 44.91805865034893 58.65639924785433 44.33247682793143 58.2298472368702 43.828385246434614 57.835299497846236 43.4027900787806 57.47782015854996 43.380565734612254 57.46413243532861 43.21341581252201 57.589935698992335 43.21341581252201 57.589935698992335 42.32127991063614 58.24868467807308 42.31979641261745 58.24976250247388 41.41760374848516 58.894669535820185 41.41760374848516 58.89466953582018 41.24630556827225 59.01476321200242 41.2524556665983 59.04012955843381 41.46092258214796 59.555361806915364 41.68038691493237 60.15670334675806 41.905107249793566 60.84543657517112 42.1292699243765 61.62254864162268 42.347002619453455 62.48872809961076 42.552388090412144 63.44436214644833 42.73947801545498 64.48953445668162 42.90230693584197 65.62402361377232 42.89933469468024 65.7065059469289 42.05899493876578 66.2475568284663 42.03473250920962 66.26295423446795 41.18737576888676 66.79294811784038 41.11147800375996 66.76051821267194 40.15429070606362 66.13014421098761 39.288249541019816 65.51584745975046 38.51101488350616 64.9231199419856 37.81997835028861 64.35730823328325 37.21227015454472 63.823601556047066 36.68476696252179 63.32702017175439 36.23410023763729 62.87240413157678 35.85666505652578 62.464402405093345 35.83633148456076 62.448037164739446 35.654732259703536 62.55189899186798 35.654732259703536 62.55189899186797 34.68706797621674 63.09363926112774 34.68546108880567 63.09452265495753 33.70955419946429 63.62126967982781 33.70955419946429 63.62126967982781 33.5245550278001 63.718947026673355 33.52747738454195 63.74488416359651 33.669724752457654 64.28218148452339 33.81209046376222 64.9062874411923 33.94871764908213 65.6177547286005 34.073714765891616 66.41683406714587 34.18116950131767 67.30347258411912 34.26516274129788 68.27731279626569 34.319782581127285 69.33769219592789 34.33913835234057 70.48364344226931 34.32585177066172 70.56510285699696 33.424326688214066 70.99656489182797 33.3983257684791 71.00879999593391 32.49122484197451 71.42841275898729 32.419990098274255 71.38672606098379 31.549357320304193 70.64135536743937 30.767136946721312 69.92335878995253 30.070319473054912 69.23789177283994 29.455646980344596 68.58993181524126 28.91962192887066 67.98426754132943 28.458516407695637 67.42548816880183 28.06838182289014 66.91797339399866 27.745059006596104 66.46588371128311 27.726936879410978 66.44709904341319 27.533752280044897 66.52738147094864 27.5337522800449 66.52738147094864 26.505820258762387 66.94356946272123 26.5041153235333 66.94424449433161 25.469884843606273 67.34452439548025 25.469884843606273 67.34452439548025 25.274102227941093 67.4182449828797 25.273750755787187 67.44434386615126 25.347535250102446 67.99523275980658 25.410557147614732 68.63226060954224 25.456936491063743 69.35524169181318 25.480796770898046 70.16368634393663 25.476278921305166 71.0568011008302 25.4375553067373 72.03348943639628 25.358843673850853 73.09235310891475 25.234421043815814 74.23169410879403 25.211029658949947 74.31084594146097 24.26253683906427 74.62591471555338 24.235207479186922 74.63479456286298 23.2826678899874 74.93740866165942 23.217219582175403 74.88712259495081 22.446871722931032 74.03851015064637 21.76080822337629 73.22813698184717 21.155397161375433 72.46074068972487 20.626782461569945 71.7408511988337 20.170893989633555 71.07278101565211 19.783458048826454 70.460615939393 19.46000825955744 69.90820624113749 19.195896802037527 69.41915832655155 19.18027191640364 69.39825047659933 18.9785485790636 69.45368740270109 18.9785485790636 69.45368740270109 17.90655992201782 69.7377595837376 17.90478382681775 69.73821560747683 16.828540188792864 70.0057157317471 16.828540188792864 70.0057157317471 16.6250617379306 70.05431694199864 16.621441979806768 70.08016597663868 16.625599974969504 70.63595859608444 16.608284165718292 71.27586202915451 16.563684237344532 71.9989550627328 16.48603138933722 72.80401537332894 16.36961220391233 73.68952141690572 16.208782429330476 74.6536549173941 15.997980653198852 75.69430395011874 15.73174184111762 76.80906661535845 15.6986145491774 76.8846625942805 14.71811229022545 77.07836928485392 14.689885490536751 77.08375383487052 13.706929356983544 77.26459686429912 13.648299643970928 77.20650447019683 12.990385549376036 76.26803340031556 12.411298555071872 75.37806370916942 11.906841598839355 74.5408404399845 11.472621261533746 73.76037450311334 11.104059002671905 73.04043427653654 10.796402738462266 72.3845377054882 10.544738741126052 71.79594491471545 10.344003837837887 71.2776513460152 10.331122607535546 71.25495004326415 10.124041829755065 71.28466719449119 10.124041829755065 71.28466719449119 9.024902438442616 71.43214357680017 9.023083193353887 71.43237340090147 7.921799402319575 71.56287511153675 7.921799402319575 71.56287511153675 7.7138340929824665 71.58559047452177 7.707003134636656 71.61078200581257 7.6414690565792895 72.16271316942567 7.544088621220433 72.79540052643085 7.409212788537062 73.50720190222216 7.231271444488774 74.29618158927313 7.004786923331472 75.16011396025026 6.72438737035584 76.09648766441282 6.384819920915507 77.10251040044395 5.980963671897961 78.17511425788629 5.938622910066571 78.24596218931704 4.941574318395679 78.31525192614636 4.912895232388594 78.31705626129964 3.9150243598973686 78.37327621875589 3.864137867282035 78.30829364901766 3.329033235627212 77.294764202947 2.8660552944036066 76.33923334312544 2.4705080314871966 75.44538660796589 2.1375299707914284 74.61665263916693 1.8621063719948099 73.85619625663949 1.6390817074541646 73.16691207154096 1.4631723936255252 72.55141864816974 1.3289797539071828 72.01205322454716 1.3190453236331252 71.98791648210276 1.1098728929818673 71.99144520122806 1.1098728929818678 71.99144520122806 0.0009168521977906963 71.99999999416238 -0.0009168521977978017 71.99999999416238 -1.1098728929818749 71.99144520122806 -1.1098728929818744 71.99144520122806 -1.3190453236331314 71.98791648210276 -1.328979753907189 72.01205322454716 -1.4631723936255323 72.55141864816974 -1.6390817074541717 73.16691207154096 -1.862106371994817 73.85619625663949 -2.1375299707914355 74.61665263916693 -2.4705080314872037 75.44538660796589 -2.8660552944036146 76.33923334312544 -3.329033235627219 77.294764202947 -3.864137867282043 78.30829364901766 -3.9150243598973766 78.37327621875589 -4.912895232388602 78.31705626129964 -4.941574318395687 78.31525192614636 -5.938622910066579 78.24596218931704 -5.980963671897969 78.17511425788629 -6.384819920915514 77.10251040044395 -6.724387370355848 76.09648766441282 -7.004786923331479 75.16011396025026 -7.231271444488781 74.29618158927313 -7.4092127885370695 73.50720190222216 -7.54408862122044 72.79540052643085 -7.641469056579297 72.16271316942567 -7.707003134636661 71.61078200581257 -7.713834092982472 71.58559047452177 -7.921799402319582 71.56287511153675 -7.921799402319582 71.56287511153675 -9.023083193353894 71.43237340090147 -9.024902438442638 71.43214357680017 -10.124041829755086 71.28466719449118 -10.124041829755086 71.28466719449118 -10.331122607535567 71.25495004326413 -10.34400383783791 71.27765134601519 -10.544738741126075 71.79594491471545 -10.79640273846229 72.38453770548819 -11.104059002671926 73.04043427653653 -11.472621261533769 73.76037450311333 -11.906841598839378 74.5408404399845 -12.411298555071895 75.37806370916942 -12.99038554937606 76.26803340031555 -13.648299643970953 77.20650447019683 -13.706929356983567 77.26459686429912 -14.689885490536776 77.08375383487052 -14.718112290225475 77.07836928485392 -15.698614549177423 76.8846625942805 -15.731741841117644 76.80906661535845 -15.997980653198875 75.69430395011872 -16.2087824293305 74.6536549173941 -16.369612203912354 73.68952141690572 -16.486031389337242 72.80401537332892 -16.563684237344553 71.99895506273279 -16.608284165718317 71.2758620291545 -16.62559997496953 70.63595859608444 -16.62144197980679 70.08016597663867 -16.625061737930622 70.05431694199862 -16.828540188792886 70.00571573174709 -16.828540188792886 70.00571573174709 -17.904783826817773 69.73821560747683 -17.906559922017827 69.7377595837376 -18.978548579063606 69.45368740270109 -18.978548579063606 69.45368740270109 -19.18027191640365 69.39825047659933 -19.195896802037534 69.41915832655155 -19.460008259557448 69.90820624113749 -19.78345804882646 70.460615939393 -20.170893989633562 71.07278101565211 -20.626782461569956 71.7408511988337 -21.15539716137544 72.46074068972487 -21.760808223376298 73.22813698184717 -22.44687172293104 74.03851015064637 -23.217219582175414 74.88712259495081 -23.282667889987408 74.93740866165942 -24.23520747918693 74.63479456286298 -24.26253683906428 74.62591471555338 -25.211029658949954 74.31084594146097 -25.234421043815825 74.23169410879403 -25.35884367385086 73.09235310891475 -25.437555306737305 72.03348943639628 -25.476278921305173 71.0568011008302 -25.480796770898056 70.16368634393663 -25.45693649106375 69.35524169181318 -25.41055714761474 68.63226060954224 -25.347535250102453 67.99523275980658 -25.273750755787194 67.44434386615126 -25.274102227941103 67.4182449828797 -25.46988484360628 67.34452439548025 -25.46988484360628 67.34452439548025 -26.504115323533306 66.94424449433161 -26.50582025876239 66.94356946272123 -27.533752280044904 66.52738147094864 -27.5337522800449 66.52738147094864 -27.72693687941098 66.44709904341317 -27.745059006596108 66.4658837112831 -28.068381822890142 66.91797339399865 -28.45851640769564 67.42548816880183 -28.919621928870665 67.98426754132942 -29.455646980344603 68.58993181524124 -30.070319473054912 69.23789177283993 -30.76713694672132 69.92335878995252 -31.549357320304193 70.64135536743936 -32.419990098274255 71.38672606098379 -32.491224841974514 71.42841275898728 -33.398325768479104 71.0087999959339 -33.42432668821407 70.99656489182796 -34.32585177066173 70.56510285699694 -34.33913835234057 70.48364344226931 -34.319782581127285 69.33769219592787 -34.265162741297885 68.27731279626568 -34.18116950131767 67.3034725841191 -34.07371476589162 66.41683406714586 -33.94871764908213 65.61775472860049 -33.81209046376222 64.9062874411923 -33.66972475245766 64.28218148452338 -33.52747738454195 63.744884163596495 -33.524555027800105 63.71894702667334 -33.7095541994643 63.62126967982781 -33.7095541994643 63.62126967982781 -34.68546108880567 63.09452265495753 -34.68706797621677 63.09363926112773 -35.65473225970356 62.55189899186797 -35.65473225970356 62.55189899186797 -35.83633148456078 62.448037164739446 -35.8566650565258 62.46440240509333 -36.23410023763732 62.87240413157677 -36.68476696252181 63.327020171754384 -37.21227015454475 63.82360155604705 -37.819978350288636 64.35730823328325 -38.511014883506185 64.92311994198559 -39.28824954101984 65.51584745975045 -40.15429070606364 66.13014421098761 -41.11147800375999 66.76051821267193 -41.18737576888678 66.79294811784038 -42.03473250920964 66.26295423446794 -42.0589949387658 66.24755682846629 -42.89933469468026 65.7065059469289 -42.902306935842 65.62402361377231 -42.739478015455 64.48953445668162 -42.552388090412165 63.44436214644831 -42.347002619453484 62.48872809961075 -42.12926992437653 61.62254864162267 -41.905107249793595 60.84543657517111 -41.68038691493239 60.15670334675805 -41.46092258214799 59.55536180691536 -41.25245566659832 59.0401295584338 -41.24630556827227 59.01476321200241 -41.417603748485185 58.89466953582017 -41.417603748485185 58.89466953582017 -42.319796412617464 58.249762502473864 -42.32127991063615 58.24868467807308 -43.213415812522015 57.589935698992335 -43.213415812522015 57.589935698992335 -43.38056573461226 57.46413243532861 -43.402790078780605 57.47782015854996 -43.82838524643462 57.835299497846236 -44.33247682793144 58.22984723687021 -44.91805865034894 58.65639924785433 -45.58786606908862 59.109731455293954 -46.34436858387935 59.58447172645419 -47.18976297039378 60.07511207783791 -48.12596694037786 60.57602117609528 -49.154613342319855 61.08145711134577 -49.233977175778 61.104118784701996 -50.00822640793785 60.47210210115426 -50.03036771430744 60.45378521954753 -50.796269483743295 59.81167818691371 -50.78888051036926 59.72947373099461 -50.48514635015234 58.62433823487295 -50.168536859776104 57.610856005756595 -49.8449982094073 56.68849904401478 -49.52042132934801 55.85643881249487 -49.200628276278096 55.113549539649306 -48.8913587657978 54.458412104672725 -48.59825689516319 53.88931849696361 -48.326858079769885 53.40427684127076 -48.31757723058412 53.37988132776749 -48.47247294471522 53.239265271262425 -48.47247294471522 53.239265271262425 -49.28672326638129 52.48636879860475 -49.28805997935765 52.48511354156761 -50.090597983533684 51.719744717583524 -50.090597983533684 51.719744717583524 -50.240662548735074 51.57398401000381 -50.26442717392303 51.58477835252078 -50.73147043808741 51.88609764190138 -51.281037050826626 52.214354826235905 -51.91546252848955 52.56415048388845 -52.63680590710794 52.92995890181263 -53.44684390690091 53.30614079775848 -54.347065647926655 53.6869562913254 -55.33866792698321 54.06657810089488 -56.42255106492865 54.43910494307985 -56.50412935165487 54.45164099649756 -57.19306070274648 53.72756879342257 -57.21273170430146 53.70662130437565 -57.89211675882717 52.97358453212621 -57.87448309944143 52.89295436682101 -57.4346337685432 51.834601178618165 -56.993497833630144 50.86879225079686 -56.55690840164016 49.99425849442681 -56.13060610788989 49.20943957627481 -55.72022600381502 48.512488904648556 -55.33128468264455 47.90127917181819 -54.96916766575022 47.37340844239626 -54.63911707195782 46.926206776152235 -54.62685183644811 46.903166827398195 -54.762902286555345 46.74424598978135 -54.762902286555345 46.74424598978135 -55.47636905177294 45.89523370494468 -55.47753789894479 45.89382081142456 -56.17782150167218 45.03390246610055 -56.17782150167218 45.03390246610055 -56.30843410214726 44.870483048036604 -56.333364226019306 44.87821377661946 -56.83449003542005 45.11862103089143 -57.4208646856236 45.37541084864823 -58.09412854976179 45.64293366649021 -58.855631872268425 45.915449277624944 -59.70643057391365 46.18714018513715 -60.647282634828336 46.452125133065586 -61.67864506266216 46.704472791235176 -62.800671452045236 46.938215569516615 -62.88317765372535 46.94042830194476 -63.47592626479436 46.13571963052476 -63.49281673808934 46.112471888453356 -64.07497076955008 45.3000658043816 -64.04737051749498 45.22228151556328 -63.47834270261695 44.22740149728676 -62.91963730038248 43.32449725449853 -62.37688236291969 42.51157862325934 -61.85557769731154 41.786378081642624 -61.36108248162216 41.146357339665386 -60.898603186738654 40.58871445158694 -60.47318182525925 40.110391437189875 -60.08968454809453 39.70808239781667 -60.07462835635177 39.686761367567115 -60.18968794556434 39.51204202538241 -60.18968794556434 39.51204202538241 -60.7911193572416 38.58030335927397 -60.79210190519083 38.57875511144564 -61.379087215725434 37.637848670777785 -61.379087215725434 37.63784867077779 -61.488188012740515 37.45934776407451 -61.51389047235067 37.46389296051538 -62.04119577361549 37.639596813666536 -62.6551309827664 37.820869536020766 -63.356615460054066 38.00190051940444 -64.14626936415299 38.17682558976918 -65.02441116388302 38.33974078093602 -65.99105574564824 38.484716212302786 -67.04591312066634 38.60581004575797 -68.1883877350604 38.69708249689121 -68.27052067960709 38.68893701221758 -68.7577385509661 37.81628260891053 -68.77158212314733 37.79110124459463 -69.24732421470499 36.912137977954245 -69.21019264244303 36.83842627032355 -68.52096025214658 35.92270927417409 -67.85349650053838 35.09694905569657 -67.21313562719264 34.35846576201693 -66.60504987571555 33.70432044269059 -66.03423803336023 33.13132313979319 -65.50551433951573 32.6360414579314 -65.02349778245619 32.214809598232556 -64.5926018030702 31.863737839608845 -64.5749921002323 31.84447197324738 -64.66724627009505 31.65670955489335 -64.66724627009505 31.65670955489335 -65.14715739559212 30.656938582871366 -65.14793814895063 30.655279397528 -65.61236805829725 29.648223518155895 -65.61236805829725 29.6482235181559 -65.69823646710977 29.457456188743265 -65.72430591931605 29.458744172579124 -66.26947479284709 29.566973669884863 -66.90128843594995 29.669870517717936 -67.61993069713374 29.761554699892656 -68.42528186904094 29.836130556632597 -69.31691794609752 29.887700761568528 -70.29411048621337 29.91038032721686 -71.35582707747048 29.8983106138661 -72.50073240972527 29.845673316773258 -72.5811968115392 29.82729807415702 -72.95520022630701 28.90046022020154 -72.96577857597144 28.873742358799024 -73.32760599064761 27.94208368537214 -73.28152868525471 27.873607036591643 -72.48296132606228 27.05149446662135 -71.7172655271667 26.315901004385157 -70.98939759144373 25.663499370954927 -70.30412062965134 25.09072553637222 -69.66599420437045 24.59378818231336 -69.07936440006112 24.168678594658108 -68.548354336469 23.81118096771665 -68.07685514186146 23.51688310119605 -68.05696964346167 23.499976232944057 -68.12496349060592 23.302131863921975 -68.12496349060592 23.30213186392198 -68.4757858447887 22.25009557144947 -68.4763524906096 22.2483516149351 -68.81090266166089 21.191028169662466 -68.81090266166089 21.191028169662466 -68.87218448616855 20.991002932284196 -68.89820980013656 20.989013391240547 -69.45264460713011 21.02806168887519 -70.09237260560602 21.050959917429175 -70.81683923293099 21.051851384072584 -71.625186803572 21.024901921377474 -72.51625552438242 20.964313847144115 -73.48858511274472 20.864339876775617 -74.54041701535793 20.719296963208556 -75.66969722445054 20.52358003950878 -75.74722411184798 20.495264827502837 -76.00211481275491 19.528860309521903 -76.00926111300913 19.501027307667563 -76.25146761632915 18.53136604128003 -76.19717124443659 18.469204369006974 -75.30186280064366 17.753661431550512 -74.4500104346138 17.11983547387736 -73.64611434866717 16.56380426418158 -72.89445340361155 16.081434899872374 -72.19907603033002 15.668394493581545 -71.5637916180055 15.320161232278316 -70.99216239379368 15.032035789229845 -70.4874958079235 14.7991530679724 -70.46564812015063 14.784871829241892 -70.50830934098934 14.580065633437734 -70.50830934098934 14.580065633437734 -70.72451024576125 13.492355261303015 -70.72485384770148 13.490554036853602 -70.92424822440935 12.399637648026799 -70.92424822440935 12.3996376480268 -70.9599770136317 12.193509020165637 -70.98554775461338 12.188273330493226 -71.54050472695987 12.157524613476756 -72.17805818811786 12.100063104008619 -72.89692391009572 12.010147796159211 -73.69551975539811 11.882098023154574 -74.5719684339365 11.710307179876153 -75.52410085209526 11.48925632272509 -76.54946004862647 11.213527622333116 -77.64530571106017 10.877817644828772 -77.71867243871455 10.840009011241142 -77.85043064714297 9.84927860578539 -77.85403219656298 9.820769406545104 -77.97279804728234 8.828397684615416 -77.91113889510994 8.77353131555513 -76.93320891570649 8.17584255018082 -76.00863420322658 7.653779911052482 -75.14138788855591 7.202888069425009 -74.33519710236105 6.8185304284179455 -73.59353529765389 6.4959008638407365 -72.919615091997 6.2300357754447475 -72.31638164150606 6.015826426643933 -71.7865065579056 5.848031550281272 -71.76304123184703 5.836601164738225 -71.779697033443 5.628063058205112 -71.779697033443 5.628063058205113 -71.85786687138362 4.521832448743424 -71.85798201063528 4.520002362744574 -71.91907602456666 3.4126974334972613 -71.91907602456666 3.4126974334972617 -71.9286883141543 3.203716186749847 -71.95340121628914 3.19531691840246 -72.50012835101944 3.095256112370618 -73.12545267592108 2.958341067210514 -73.82738055068667 2.779037002985876 -74.603630337112 2.551906341085226 -75.45163685415275 2.2716219729831146 -76.36855640509725 1.9329803331161404 -77.35127236849725 1.5309142522167756 -78.39640134354902 1.0605055677965303 -78.46445087433808 1.0137997773646745 -78.47099868463252 0.014367894761796304 -78.47099868463252 -0.014367894761846781 -78.46445087433808 -1.0137997773647252 -78.39640134354902 -1.060505567796581 -77.35127236849725 -1.5309142522168253 -76.36855640509725 -1.9329803331161897 -75.45163685415275 -2.2716219729831635 -74.603630337112 -2.551906341085274 -73.82738055068667 -2.7790370029859233 -73.12545267592108 -2.958341067210561 -72.50012835101944 -3.0952561123706652 -71.95340121628914 -3.195316918402506 -71.9286883141543 -3.2037161867498933 -71.91907602456666 -3.412697433497308 -71.91907602456666 -3.4126974334973075 -71.85798201063528 -4.52000236274462 -71.85786687138362 -4.521832448743438 -71.779697033443 -5.628063058205127 -71.779697033443 -5.628063058205126 -71.76304123184703 -5.836601164738239 -71.7865065579056 -5.848031550281286 -72.31638164150606 -6.015826426643947 -72.919615091997 -6.230035775444762 -73.59353529765389 -6.495900863840751 -74.33519710236105 -6.81853042841796 -75.14138788855591 -7.202888069425025 -76.00863420322658 -7.653779911052496 -76.93320891570649 -8.175842550180834 -77.91113889510994 -8.773531315555147 -77.97279804728234 -8.828397684615432 -77.85403219656298 -9.82076940654512 -77.85043064714297 -9.849278605785406 -77.71867243871455 -10.840009011241158 -77.64530571106017 -10.877817644828788 -76.54946004862647 -11.21352762233313 -75.52410085209526 -11.489256322725105 -74.5719684339365 -11.710307179876168 -73.69551975539811 -11.882098023154589 -72.89692391009572 -12.010147796159226 -72.17805818811786 -12.100063104008633 -71.54050472695987 -12.15752461347677 -70.98554775461338 -12.18827333049324 -70.9599770136317 -12.193509020165651 -70.92424822440935 -12.399637648026815 -70.92424822440935 -12.399637648026813 -70.72485384770148 -13.490554036853617 -70.72451024576125 -13.492355261303029 -70.50830934098934 -14.580065633437748 -70.50830934098934 -14.580065633437748 -70.46564812015063 -14.784871829241906 -70.4874958079235 -14.799153067972414 -70.99216239379368 -15.032035789229859 -71.5637916180055 -15.32016123227833 -72.19907603033002 -15.668394493581559 -72.89445340361155 -16.081434899872388 -73.64611434866717 -16.5638042641816 -74.4500104346138 -17.119835473877373 -75.30186280064366 -17.753661431550526 -76.19717124443659 -18.46920436900699 -76.25146761632915 -18.531366041280044 -76.00926111300913 -19.501027307667577 -76.00211481275491 -19.528860309521917 -75.74722411184798 -20.49526482750285 -75.66969722445054 -20.523580039508797 -74.54041701535793 -20.71929696320857 -73.48858511274472 -20.86433987677563 -72.51625552438242 -20.964313847144133 -71.625186803572 -21.024901921377488 -70.81683923293099 -21.0518513840726 -70.09237260560602 -21.05095991742919 -69.45264460713011 -21.028061688875205 -68.89820980013656 -20.98901339124056 -68.87218448616855 -20.99100293228421 -68.81090266166089 -21.19102816966248 -68.81090266166089 -21.19102816966248 -68.4763524906096 -22.248351614935114 -68.47578584478869 -22.25009557144951 -68.12496349060591 -23.302131863922018 -68.12496349060591 -23.302131863922018 -68.05696964346166 -23.499976232944096 -68.07685514186144 -23.51688310119609 -68.54835433646899 -23.81118096771669 -69.07936440006111 -24.168678594658147 -69.66599420437043 -24.593788182313403 -70.30412062965132 -25.09072553637226 -70.98939759144372 -25.66349937095497 -71.71726552716669 -26.315901004385204 -72.48296132606228 -27.051494466621392 -73.2815286852547 -27.873607036591686 -73.3276059906476 -27.942083685372182 -72.96577857597143 -28.873742358799067 -72.955200226307 -28.900460220201584 -72.58119681153919 -29.827298074157063 -72.50073240972526 -29.8456733167733 -71.35582707747045 -29.898310613866144 -70.29411048621336 -29.9103803272169 -69.3169179460975 -29.88770076156857 -68.42528186904093 -29.83613055663264 -67.61993069713373 -29.7615546998927 -66.90128843594994 -29.669870517717975 -66.26947479284708 -29.5669736698849 -65.72430591931604 -29.458744172579163 -65.69823646710975 -29.457456188743304 -65.61236805829724 -29.648223518155934 -65.61236805829724 -29.648223518155934 -65.14793814895062 -30.655279397528037 -65.14715739559212 -30.65693858287138 -64.66724627009505 -31.656709554893364 -64.66724627009505 -31.656709554893364 -64.57499210023228 -31.844471973247387 -64.5926018030702 -31.86373783960886 -65.02349778245618 -32.21480959823256 -65.50551433951571 -32.63604145793141 -66.03423803336021 -33.1313231397932 -66.60504987571555 -33.7043204426906 -67.21313562719263 -34.358465762016934 -67.85349650053837 -35.096949055696584 -68.52096025214658 -35.9227092741741 -69.21019264244303 -36.838426270323566 -69.24732421470497 -36.91213797795426 -68.77158212314731 -37.79110124459464 -68.75773855096608 -37.81628260891054 -68.27052067960707 -38.68893701221759 -68.1883877350604 -38.69708249689123 -67.04591312066634 -38.605810045757984 -65.99105574564823 -38.4847162123028 -65.024411163883 -38.339740780936026 -64.14626936415299 -38.176825589769194 -63.35661546005405 -38.00190051940445 -62.65513098276639 -37.82086953602078 -62.041195773615485 -37.63959681366654 -61.51389047235066 -37.463892960515395 -61.48818801274051 -37.459347764074515 -61.37908721572542 -37.6378486707778 -61.37908721572542 -37.6378486707778 -60.792101905190826 -38.57875511144565 -60.7911193572416 -38.58030335927398 -60.18968794556433 -39.512042025382414 -60.18968794556433 -39.512042025382414 -60.07462835635175 -39.68676136756712 -60.089684548094525 -39.708082397816675 -60.473181825259246 -40.11039143718988 -60.89860318673864 -40.588714451586945 -61.36108248162215 -41.14635733966539 -61.85557769731153 -41.78637808164263 -62.37688236291968 -42.511578623259346 -62.919637300382476 -43.324497254498546 -63.47834270261694 -44.22740149728677 -64.04737051749497 -45.22228151556329 -64.07497076955006 -45.30006580438161 -63.492816738089324 -46.11247188845337 -63.475926264794346 -46.135719630524775 -62.88317765372533 -46.94042830194477 -62.80067145204523 -46.93821556951662 -61.678645062662156 -46.70447279123518 -60.64728263482833 -46.4521251330656 -59.70643057391364 -46.18714018513716 -58.85563187226842 -45.91544927762495 -58.09412854976178 -45.642933666490215 -57.420864685623584 -45.37541084864824 -56.834490035420046 -45.11862103089144 -56.3333642260193 -44.87821377661947 -56.308434102147245 -44.87048304803661 -56.17782150167217 -45.03390246610056 -56.17782150167217 -45.03390246610056 -55.477537898944774 -45.89382081142457 -55.476369051772934 -45.895233704944694 -54.76290228655534 -46.74424598978137 -54.76290228655534 -46.74424598978137 -54.626851836448104 -46.90316682739821 -54.63911707195781 -46.92620677615225 -54.96916766575022 -47.373408442396276 -55.33128468264454 -47.9012791718182 -55.720226003815014 -48.51248890464858 -56.13060610788988 -49.20943957627483 -56.55690840164014 -49.99425849442682 -56.99349783363014 -50.86879225079688 -57.43463376854319 -51.83460117861818 -57.87448309944142 -52.89295436682102 -57.89211675882716 -52.97358453212623 -57.21273170430145 -53.70662130437567 -57.193060702746465 -53.72756879342259 -56.50412935165485 -54.45164099649758 -56.42255106492864 -54.43910494307986 -55.338667926983206 -54.066578100894894 -54.34706564792665 -53.68695629132542 -53.446843906900895 -53.306140797758495 -52.636805907107934 -52.929958901812654 -51.91546252848954 -52.56415048388847 -51.28103705082661 -52.21435482623592 -50.7314704380874 -51.886097641901394 -50.264427173923025 -51.58477835252079 -50.24066254873507 -51.57398401000383 -50.09059798353368 -51.719744717583545 -50.09059798353368 -51.719744717583545 -49.28805997935764 -52.48511354156762 -49.286723266381266 -52.486368798604765 -48.47247294471521 -53.23926527126243 -48.47247294471521 -53.23926527126243 -48.31757723058411 -53.3798813277675 -48.32685807976987 -53.40427684127077 -48.598256895163175 -53.88931849696362 -48.89135876579778 -54.458412104672746 -49.20062827627808 -55.11354953964931 -49.520421329348 -55.85643881249488 -49.84499820940729 -56.68849904401479 -50.16853685977609 -57.61085600575661 -50.48514635015232 -58.624338234872965 -50.78888051036924 -59.72947373099463 -50.79626948374328 -59.81167818691372 -50.030367714307424 -60.453785219547534 -50.00822640793783 -60.47210210115427 -49.23397717577799 -61.104118784702 -49.154613342319834 -61.081457111345784 -48.125966940377836 -60.576021176095296 -47.189762970393765 -60.07511207783792 -46.34436858387934 -59.5844717264542 -45.587866069088605 -59.10973145529396 -44.918058650348925 -58.65639924785434 -44.33247682793142 -58.229847236870214 -43.82838524643461 -57.83529949784624 -43.40279007878059 -57.477820158549974 -43.38056573461225 -57.464132435328615 -43.213415812522 -57.58993569899234 -43.213415812522 -57.58993569899234 -42.32127991063613 -58.2486846780731 -42.319796412617436 -58.2497625024739 -41.41760374848514 -58.894669535820206 -41.41760374848514 -58.894669535820206 -41.24630556827223 -59.014763212002435 -41.25245566659829 -59.040129558433826 -41.46092258214795 -59.555361806915386 -41.680386914932356 -60.15670334675807 -41.90510724979355 -60.845436575171135 -42.12926992437649 -61.62254864162269 -42.34700261945344 -62.48872809961078 -42.55238809041212 -63.44436214644834 -42.73947801545496 -64.48953445668165 -42.902306935841956 -65.62402361377234 -42.89933469468022 -65.70650594692893 -42.05899493876576 -66.24755682846632 -42.0347325092096 -66.26295423446797 -41.18737576888674 -66.79294811784041 -41.11147800375995 -66.76051821267195 -40.1542907060636 -66.13014421098764 -39.288249541019795 -65.51584745975047 -38.51101488350614 -64.92311994198562 -37.819978350288594 -64.35730823328326 -37.212270154544704 -63.82360155604708 -36.68476696252178 -63.327020171754405 -36.23410023763727 -62.8724041315768 -35.85666505652576 -62.46440240509336 -35.83633148456074 -62.44803716473946 -35.654732259703515 -62.55189899186799 -35.654732259703515 -62.55189899186799 -34.687067976216724 -63.09363926112775 -34.68546108880563 -63.094522654957544 -33.70955419946426 -63.62126967982783 -33.70955419946426 -63.62126967982783 -33.52455502780006 -63.71894702667337 -33.52747738454192 -63.744884163596524 -33.66972475245762 -64.2821814845234 -33.81209046376218 -64.90628744119233 -33.94871764908209 -65.61775472860052 -34.07371476589158 -66.41683406714589 -34.181169501317626 -67.30347258411913 -34.26516274129784 -68.2773127962657 -34.31978258112725 -69.3376921959279 -34.33913835234053 -70.48364344226934 -34.325851770661686 -70.56510285699697 -33.42432668821403 -70.99656489182799 -33.39832576847906 -71.00879999593393 -32.49122484197447 -71.4284127589873 -32.41999009827421 -71.38672606098379 -31.54935732030415 -70.64135536743939 -30.767136946721276 -69.92335878995254 -30.070319473054866 -69.23789177283996 -29.455646980344557 -68.58993181524127 -28.919621928870626 -67.98426754132944 -28.4585164076956 -67.42548816880186 -28.068381822890103 -66.91797339399868 -27.745059006596065 -66.46588371128313 -27.726936879410943 -66.4470990434132 -27.53375228004486 -66.52738147094865 -27.53375228004486 -66.52738147094865 -26.505820258762352 -66.94356946272124 -26.504115323533306 -66.94424449433161 -25.46988484360628 -67.34452439548025 -25.46988484360628 -67.34452439548025 -25.274102227941103 -67.4182449828797 -25.273750755787194 -67.44434386615126 -25.347535250102453 -67.99523275980658 -25.41055714761474 -68.63226060954224 -25.45693649106375 -69.35524169181318 -25.480796770898056 -70.16368634393663 -25.476278921305173 -71.0568011008302 -25.437555306737305 -72.03348943639628 -25.35884367385086 -73.09235310891475 -25.234421043815825 -74.23169410879403 -25.211029658949954 -74.31084594146097 -24.26253683906428 -74.62591471555338 -24.23520747918693 -74.63479456286298 -23.282667889987408 -74.93740866165942 -23.217219582175414 -74.88712259495081 -22.44687172293104 -74.03851015064637 -21.760808223376298 -73.22813698184717 -21.15539716137544 -72.46074068972487 -20.626782461569956 -71.7408511988337 -20.170893989633562 -71.07278101565211 -19.78345804882646 -70.460615939393 -19.460008259557448 -69.90820624113749 -19.195896802037534 -69.41915832655155 -19.18027191640365 -69.39825047659933 -18.978548579063606 -69.45368740270109 -18.978548579063606 -69.45368740270109 -17.906559922017827 -69.7377595837376 -17.90478382681776 -69.73821560747683 -16.82854018879287 -70.0057157317471 -16.82854018879287 -70.0057157317471 -16.625061737930608 -70.05431694199864 -16.621441979806775 -70.08016597663868 -16.625599974969514 -70.63595859608444 -16.608284165718302 -71.27586202915451 -16.56368423734454 -71.9989550627328 -16.48603138933723 -72.80401537332894 -16.36961220391234 -73.68952141690572 -16.208782429330487 -74.6536549173941 -15.99798065319886 -75.69430395011874 -15.731741841117628 -76.80906661535845 -15.698614549177409 -76.8846625942805 -14.71811229022546 -77.07836928485392 -14.68988549053676 -77.08375383487052 -13.706929356983553 -77.26459686429912 -13.648299643970937 -77.20650447019683 -12.990385549376045 -76.26803340031556 -12.41129855507188 -75.37806370916942 -11.906841598839364 -74.5408404399845 -11.472621261533755 -73.76037450311334 -11.104059002671912 -73.04043427653654 -10.796402738462273 -72.3845377054882 -10.54473874112606 -71.79594491471545 -10.344003837837894 -71.2776513460152 -10.331122607535553 -71.25495004326415 -10.124041829755072 -71.28466719449119 -10.124041829755072 -71.28466719449119 -9.024902438442624 -71.43214357680017 -9.02308319335388 -71.43237340090147 -7.921799402319568 -71.56287511153675 -7.921799402319568 -71.56287511153675 -7.713834092982459 -71.58559047452177 -7.707003134636649 -71.61078200581257 -7.641469056579282 -72.16271316942567 -7.544088621220426 -72.79540052643085 -7.409212788537055 -73.50720190222216 -7.231271444488767 -74.29618158927313 -7.004786923331464 -75.16011396025026 -6.724387370355833 -76.09648766441282 -6.384819920915499 -77.10251040044395 -5.980963671897954 -78.17511425788629 -5.938622910066563 -78.24596218931704 -4.941574318395672 -78.31525192614636 -4.912895232388587 -78.31705626129964 -3.9150243598973606 -78.37327621875589 -3.864137867282028 -78.30829364901766 -3.329033235627204 -77.294764202947 -2.8660552944035995 -76.33923334312544 -2.4705080314871886 -75.44538660796589 -2.1375299707914213 -74.61665263916693 -1.8621063719948028 -73.85619625663949 -1.6390817074541575 -73.16691207154096 -1.463172393625518 -72.55141864816974 -1.3289797539071757 -72.01205322454716 -1.319045323633118 -71.98791648210276 -1.1098728929818602 -71.99144520122806 -1.1098728929818606 -71.99144520122806 -0.0009168521977835908 -71.99999999416238 0.0009168521978208943 -71.99999999416238 1.109872892981898 -71.99144520122806 1.1098728929818975 -71.99144520122806 1.3190453236331545 -71.98791648210276 1.3289797539072121 -72.01205322454716 1.4631723936255554 -72.55141864816974 1.6390817074541948 -73.16691207154096 1.862106371994841 -73.8561962566395 2.1375299707914595 -74.61665263916693 2.4705080314872276 -75.44538660796589 2.8660552944036386 -76.33923334312544 3.329033235627244 -77.294764202947 3.864137867282068 -78.30829364901766 3.9150243598974015 -78.3732762187559 4.912895232388627 -78.31705626129964 4.941574318395712 -78.31525192614636 5.938622910066604 -78.24596218931703 5.980963671897994 -78.17511425788629 6.384819920915539 -77.10251040044395 6.724387370355872 -76.09648766441282 7.004786923331503 -75.16011396025026 7.231271444488805 -74.29618158927313 7.4092127885370935 -73.50720190222215 7.544088621220463 -72.79540052643085 7.64146905657932 -72.16271316942567 7.707003134636684 -71.61078200581257 7.713834092982495 -71.58559047452177 7.921799402319605 -71.56287511153675 7.921799402319605 -71.56287511153675 9.023083193353916 -71.43237340090147 9.024902438442659 -71.43214357680017 10.124041829755107 -71.28466719449118 10.124041829755107 -71.28466719449118 10.331122607535589 -71.25495004326413 10.344003837837931 -71.27765134601519 10.544738741126096 -71.79594491471545 10.79640273846231 -72.38453770548819 11.10405900267195 -73.04043427653653 11.472621261533792 -73.76037450311333 11.906841598839403 -74.5408404399845 12.41129855507192 -75.37806370916942 12.990385549376082 -76.26803340031555 13.648299643970976 -77.20650447019683 13.706929356983592 -77.26459686429912 14.689885490536799 -77.08375383487052 14.718112290225498 -77.07836928485392 15.698614549177448 -76.8846625942805 15.731741841117667 -76.80906661535845 15.997980653198898 -75.69430395011872 16.208782429330522 -74.6536549173941 16.369612203912375 -73.68952141690572 16.486031389337267 -72.80401537332892 16.563684237344578 -71.99895506273279 16.608284165718338 -71.2758620291545 16.62559997496955 -70.63595859608444 16.62144197980681 -70.08016597663867 16.625061737930643 -70.05431694199862 16.828540188792907 -70.00571573174709 16.828540188792907 -70.00571573174709 17.904783826817795 -69.73821560747683 17.906559922017802 -69.7377595837376 18.978548579063578 -69.4536874027011 18.978548579063578 -69.4536874027011 19.180271916403626 -69.39825047659933 19.195896802037513 -69.41915832655157 19.460008259557423 -69.9082062411375 19.783458048826432 -70.460615939393 20.170893989633537 -71.07278101565211 20.62678246156993 -71.74085119883371 21.155397161375415 -72.46074068972487 21.760808223376273 -73.22813698184719 22.446871722931014 -74.03851015064639 23.217219582175385 -74.88712259495082 23.282667889987383 -74.93740866165942 24.235207479186904 -74.634794562863 24.262536839064254 -74.62591471555339 25.21102965894993 -74.31084594146097 25.234421043815797 -74.23169410879404 25.358843673850835 -73.09235310891476 25.43755530673728 -72.0334894363963 25.47627892130515 -71.0568011008302 25.48079677089803 -70.16368634393665 25.456936491063725 -69.35524169181318 25.410557147614718 -68.63226060954224 25.34753525010243 -67.9952327598066 25.273750755787173 -67.44434386615127 25.27410222794108 -67.4182449828797 25.46988484360626 -67.34452439548026 25.46988484360626 -67.34452439548026 26.50411532353328 -66.94424449433161 26.505820258762384 -66.94356946272123 27.533752280044894 -66.52738147094864 27.533752280044894 -66.52738147094864 27.726936879410975 -66.44709904341319 27.7450590065961 -66.46588371128311 28.068381822890135 -66.91797339399866 28.458516407695633 -67.42548816880183 28.919621928870658 -67.98426754132943 29.45564698034459 -68.58993181524126 30.070319473054905 -69.23789177283994 30.767136946721312 -69.92335878995253 31.549357320304185 -70.64135536743937 32.41999009827425 -71.38672606098379 32.49122484197451 -71.42841275898729 33.3983257684791 -71.00879999593391 33.424326688214066 -70.99656489182797 34.32585177066172 -70.56510285699696 34.33913835234056 -70.48364344226931 34.319782581127285 -69.33769219592789 34.26516274129788 -68.27731279626569 34.18116950131766 -67.30347258411912 34.073714765891616 -66.41683406714587 33.94871764908212 -65.6177547286005 33.81209046376221 -64.9062874411923 33.669724752457654 -64.28218148452339 33.527477384541946 -63.74488416359651 33.5245550278001 -63.718947026673355 33.70955419946429 -63.62126967982781 33.70955419946429 -63.62126967982781 34.68546108880566 -63.09452265495753 34.68706797621676 -63.09363926112773 35.65473225970355 -62.55189899186797 35.65473225970355 -62.55189899186797 35.83633148456077 -62.448037164739446 35.85666505652579 -62.46440240509333 36.234100237637314 -62.87240413157677 36.684766962521806 -63.327020171754384 37.21227015454473 -63.82360155604705 37.81997835028862 -64.35730823328325 38.51101488350617 -64.92311994198559 39.28824954101983 -65.51584745975045 40.154290706063634 -66.13014421098761 41.111478003759984 -66.76051821267193 41.187375768886774 -66.79294811784038 42.03473250920963 -66.26295423446794 42.05899493876579 -66.24755682846629 42.899334694680256 -65.7065059469289 42.90230693584199 -65.62402361377231 42.73947801545499 -64.48953445668162 42.55238809041216 -63.44436214644831 42.34700261945347 -62.48872809961075 42.129269924376516 -61.62254864162267 41.90510724979358 -60.84543657517111 41.680386914932384 -60.15670334675805 41.46092258214798 -59.55536180691536 41.252455666598316 -59.0401295584338 41.24630556827226 -59.01476321200241 41.41760374848518 -58.89466953582017 41.41760374848518 -58.89466953582017 42.31979641261746 -58.249762502473864 42.321279910636164 -58.24868467807307 43.21341581252203 -57.58993569899231 43.21341581252203 -57.58993569899231 43.380565734612276 -57.464132435328594 43.402790078780626 -57.477820158549946 43.82838524643464 -57.83529949784622 44.33247682793145 -58.22984723687019 44.918058650348954 -58.65639924785432 45.58786606908863 -59.10973145529393 46.344368583879366 -59.584471726454176 47.1897629703938 -60.07511207783789 48.12596694037787 -60.57602117609527 49.15461334231987 -61.081457111345756 49.23397717577802 -61.104118784701974 50.00822640793787 -60.47210210115425 50.03036771430746 -60.45378521954751 50.796269483743316 -59.81167818691369 50.788880510369275 -59.7294737309946 50.485146350152355 -58.62433823487294 50.168536859776125 -57.61085600575658 49.844998209407315 -56.68849904401477 49.520421329348025 -55.85643881249485 49.20062827627811 -55.11354953964929 48.89135876579781 -54.45841210467271 48.59825689516321 -53.8893184969636 48.326858079769906 -53.40427684127074 48.317577230584135 -53.379881327767464 48.472472944715236 -53.239265271262404 48.472472944715236 -53.239265271262404 49.2867232663813 -52.48636879860474 49.28805997935766 -52.4851135415676 50.090597983533705 -51.71974471758351 50.090597983533705 -51.71974471758351 50.24066254873509 -51.573984010003805 50.264427173923046 -51.58477835252076 50.73147043808743 -51.88609764190136 51.28103705082664 -52.21435482623589 51.91546252848956 -52.56415048388843 52.63680590710796 -52.92995890181262 53.446843906900924 -53.30614079775846 54.34706564792667 -53.68695629132539 55.33866792698323 -54.066578100894866 56.42255106492867 -54.439104943079826 56.50412935165488 -54.45164099649755 57.19306070274649 -53.727568793422556 57.212731704301476 -53.70662130437564 57.892116758827186 -52.97358453212619 57.87448309944145 -52.89295436682099 57.434633768543215 -51.83460117861815 56.99349783363016 -50.868792250796844 56.55690840164017 -49.99425849442679 56.13060610788991 -49.2094395762748 55.720226003815036 -48.51248890464854 55.331284682644565 -47.901279171818175 54.969167665750234 -47.37340844239624 54.639117071957834 -46.92620677615221 54.626851836448125 -46.903166827398174 54.76290228655537 -46.744245989781334 54.76290228655537 -46.744245989781334 55.476369051772956 -45.89523370494466 55.47753789894482 -45.89382081142451 56.17782150167222 -45.03390246610051 56.17782150167222 -45.03390246610051 56.30843410214729 -44.87048304803656 56.333364226019334 -44.87821377661941 56.834490035420096 -45.11862103089139 57.42086468562363 -45.37541084864818 58.09412854976182 -45.642933666490165 58.85563187226846 -45.915449277624894 59.70643057391368 -46.1871401851371 60.64728263482837 -46.452125133065536 61.6786450626622 -46.704472791235126 62.80067145204527 -46.93821556951656 62.883177653725376 -46.94042830194471 63.475926264794396 -46.13571963052471 63.492816738089374 -46.11247188845331 64.0749707695501 -45.30006580438155 64.04737051749501 -45.222281515563225 63.478342702616985 -44.22740149728671 62.91963730038252 -43.32449725449848 62.376882362919716 -42.51157862325929 61.855577697311574 -41.786378081642575 61.36108248162219 -41.14635733966533 60.89860318673868 -40.58871445158689 60.47318182525928 -40.11039143718982 60.08968454809456 -39.70808239781662 60.074628356351795 -39.68676136756706 60.189687945564366 -39.512042025382364 60.189687945564366 -39.512042025382364 60.79111935724163 -38.58030335927392 60.79210190519083 -38.578755111445645 61.379087215725434 -37.6378486707778 61.37908721572543 -37.6378486707778 61.488188012740515 -37.459347764074515 61.51389047235067 -37.463892960515395 62.04119577361549 -37.63959681366654 62.6551309827664 -37.82086953602077 63.356615460054066 -38.001900519404444 64.14626936415299 -38.17682558976919 65.02441116388302 -38.339740780936026 65.99105574564824 -38.48471621230279 67.04591312066634 -38.605810045757984 68.1883877350604 -38.69708249689122 68.27052067960709 -38.688937012217586 68.7577385509661 -37.816282608910534 68.77158212314733 -37.791101244594635 69.24732421470499 -36.91213797795425 69.21019264244303 -36.83842627032356 68.52096025214658 -35.9227092741741 67.85349650053838 -35.09694905569658 67.21313562719264 -34.358465762016934 66.60504987571555 -33.704320442690594 66.03423803336023 -33.131323139793196 65.50551433951573 -32.636041457931405 65.02349778245619 -32.21480959823256 64.5926018030702 -31.86373783960886 64.5749921002323 -31.844471973247387 64.66724627009505 -31.656709554893357 64.66724627009505 -31.656709554893357 65.14715739559212 -30.656938582871373 65.14793814895063 -30.655279397528005 65.61236805829725 -29.648223518155902 65.61236805829725 -29.648223518155906 65.69823646710977 -29.457456188743272 65.72430591931605 -29.45874417257913 66.26947479284709 -29.56697366988487 66.90128843594995 -29.669870517717943 67.61993069713374 -29.761554699892663 68.42528186904094 -29.836130556632604 69.31691794609752 -29.88770076156854 70.29411048621337 -29.910380327216867 71.35582707747048 -29.89831061386611 72.50073240972527 -29.84567331677327 72.5811968115392 -29.827298074157028 72.95520022630701 -28.90046022020155 72.96577857597144 -28.87374235879903 73.32760599064761 -27.942083685372147 73.28152868525471 -27.873607036591654 72.48296132606228 -27.051494466621357 71.7172655271667 -26.315901004385164 70.98939759144373 -25.663499370954938 70.30412062965134 -25.090725536372226 69.66599420437045 -24.593788182313368 69.07936440006112 -24.168678594658115 68.548354336469 -23.811180967716655 68.07685514186146 -23.516883101196058 68.05696964346167 -23.499976232944064 68.12496349060592 -23.302131863921982 68.12496349060592 -23.302131863921986 68.4757858447887 -22.250095571449478 68.47635249060961 -22.248351614935075 68.8109026616609 -21.19102816966244 68.8109026616609 -21.19102816966244 68.87218448616856 -20.991002932284175 68.89820980013656 -20.989013391240523 69.45264460713013 -21.028061688875166 70.09237260560603 -21.05095991742915 70.816839232931 -21.05185138407256 71.625186803572 -21.02490192137745 72.51625552438243 -20.96431384714409 73.48858511274473 -20.86433987677559 74.54041701535795 -20.71929696320853 75.66969722445056 -20.523580039508754 75.74722411184798 -20.495264827502808 76.00211481275491 -19.528860309521875 76.00926111300913 -19.501027307667535 76.25146761632915 -18.531366041280002 76.1971712444366 -18.46920436900695 75.30186280064368 -17.753661431550487 74.45001043461382 -17.11983547387733 73.64611434866718 -16.563804264181556 72.89445340361155 -16.08143489987235 72.19907603033003 -15.66839449358152 71.56379161800551 -15.32016123227829 70.99216239379369 -15.03203578922982 70.4874958079235 -14.799153067972375 70.46564812015065 -14.784871829241867 70.50830934098936 -14.580065633437709 70.50830934098936 -14.580065633437709 70.72451024576127 -13.49235526130299 70.72485384770148 -13.490554036853581 70.92424822440937 -12.399637648026777 70.92424822440937 -12.39963764802678 70.9599770136317 -12.193509020165616 70.98554775461338 -12.188273330493203 71.54050472695987 -12.157524613476733 72.17805818811786 -12.100063104008596 72.89692391009574 -12.010147796159188 73.69551975539811 -11.882098023154551 74.5719684339365 -11.710307179876132 75.52410085209526 -11.489256322725065 76.54946004862647 -11.21352762233309 77.64530571106017 -10.877817644828749 77.71867243871455 -10.840009011241118 77.85043064714297 -9.849278605785365 77.85403219656298 -9.820769406545079 77.97279804728234 -8.828397684615393 77.91113889510994 -8.773531315555108 76.93320891570649 -8.175842550180795 76.00863420322658 -7.653779911052457 75.14138788855591 -7.202888069424987 74.33519710236105 -6.8185304284179225 73.59353529765387 -6.495900863840713 72.919615091997 -6.230035775444724 72.31638164150606 -6.01582642664391 71.7865065579056 -5.848031550281249 71.76304123184703 -5.8366011647382035 71.77969703344299 -5.628063058205091 71.77969703344299 -5.6280630582050915 71.85786687138362 -4.521832448743402 Z" /></svg>