<?xml version="1.0" encoding="utf-8" ?>
<svg baseProfile="full" height="95.67885304311727mm" version="1.1" viewBox="-47.9987253056569 -47.839426521558636 95.9974506113138 95.67885304311727" width="95.9974506113138mm" xmlns="http://www.w3.org/2000/svg" xmlns:ev="http://www.w3.org/2001/xml-events" xmlns:xlink="http://www.w3.org/1999/xlink"><defs /><path d="M 42.189450986 -2.85836039621 42.2107184651 -2.85934986989 42.274578448 -2.86051763782 42.3810207969 -2.85916109259 42.5299067589 -2.85257981013 42.7209691378 -2.83808098923 42.953812681 -2.81298488112 43.2279146822 -2.77463020069 43.542625797 -2.72037951133 43.8971710739 -2.64762457514 44.2906511948 -2.55379166052 44.7220439273 -2.43634679898 45.190205784 -2.29280098324 45.6938738879 -2.12071529876 46.2316680412 -1.91770598085 46.802092994 -1.6814493896 47.4035409102 -1.40968689519 47.9874135205 -1.09915586379 47.9942924907 -0.740194781078 47.9987253057 -0.349812852955 47.9987253057 0.349812852955 47.9942924907 0.740194781078 47.9874135205 1.09915586379 47.4035409102 1.40968689519 46.802092994 1.6814493896 46.2316680412 1.91770598085 45.6938738879 2.12071529876 45.190205784 2.29280098324 44.7220439273 2.43634679898 44.2906511948 2.55379166052 43.8971710739 2.64762457514 43.542625797 2.72037951133 43.2279146822 2.77463020069 42.953812681 2.81298488112 42.7209691378 2.83808098923 42.5299067589 2.85257981013 42.3810207969 2.85916109259 42.274578448 2.86051763782 42.2107184651 2.85934986989 42.189450986 2.85836039621 41.6335574055 2.82069827552 41.4538643613 2.90881778126 41.420015282 3.00668838356 41.4126552343 3.10641714002 41.4050550656 3.2061278847 41.3972148202 3.30582003945 41.3891345434 3.40549302624 41.3808142821 3.50514626713 41.3722540845 3.60477918431 41.3634540003 3.70439120008 41.3544140805 3.80398173687 41.3451343776 3.90355021723 41.3356149453 4.00309606384 41.3258558388 4.1026186995 41.3158571147 4.20211754715 41.305618831 4.30159202988 41.295141047 4.40104157091 41.2844238235 4.50046559361 41.2734672227 4.59986352149 41.2622713081 4.69923477822 41.2508361445 4.79857878761 41.2391617983 4.89789497365 41.2272483372 4.99718276047 41.2150958303 5.09644157239 41.202704348 5.19567083387 41.1900739621 5.29486996956 41.177204746 5.39403840428 41.1640967742 5.49317556302 41.1507501227 5.59228087096 41.1382422016 5.69150280316 41.1635695188 5.7960580209 41.8617968012 5.97578172559 41.882805258 5.97923563183 41.9455125397 5.99137061945 42.0493468262 6.01482812963 42.1936109471 6.05222072738 42.3774836803 6.1061268165 42.6000212592 6.17908540922 42.8601590875 6.27359095836 43.1567136569 6.39208826002 43.488384667 6.53696743428 43.8537573433 6.71055899182 44.2513049498 6.91512899378 44.6793914934 7.15287431223 45.1362746151 7.42591799872 45.6201086654 7.73630476769 46.128947957 8.085996602 46.6607501935 8.47686848707 47.1673007546 8.90200761202 47.0993971972 9.25455475216 47.0225681777 9.63732753257 46.8771078143 10.3216647382 46.7916069003 10.7025942505 46.7102460464 11.052280954 46.0745694217 11.2346321957 45.4297619858 11.3754079744 44.8226816794 11.4879037758 44.2544316081 11.5746631614 43.7259912351 11.6382698737 43.238214985 11.6813425457 42.791831059 11.7065293629 42.3874404629 11.7165026859 42.0255162491 11.7139536442 41.7064029747 11.7015867058 41.4303163735 11.682114234 41.197343246 11.6582510371 41.0074415641 11.6327089217 40.860440792 11.6081912553 40.7560424223 11.587387548 40.6938207258 11.5729680616 40.6732237153 11.5675784528 40.1373081385 11.4151625655 39.943220743 11.463996164 39.8897629049 11.5526904395 39.8618289174 11.6487096434 39.8336638012 11.7446613052 39.8052677195 11.8405448685 39.7766408369 11.9363597773 39.7477833194 12.0321054762 39.7186953345 12.12778141 39.6893770506 12.2233870238 39.6598286379 12.3189217634 39.6300502676 12.4143850749 39.6000421124 12.5097764046 39.5698043464 12.6050951996 39.5393371447 12.700340907 39.5086406842 12.7955129748 39.4777151427 12.890610851 39.4465606996 12.9856339842 39.4151775356 13.0805818234 39.3835658325 13.1754538182 39.3517257737 13.2702494185 39.3196575439 13.3649680745 39.2873613288 13.4596092371 39.2548373159 13.5541723576 39.2220856937 13.6486568876 39.1891066521 13.7430622793 39.1559003822 13.8373879853 39.1224670768 13.9316334587 39.0888069295 14.025798153 39.0559429368 14.1202513049 39.0589785392 14.2277875856 39.704581221 14.548753511 39.7244124851 14.5564998449 39.7832264564 14.5814072309 39.8799146241 14.6259405002 40.0132518696 14.6925101773 40.1818988362 14.7834675799 40.3844044908 14.9011000166 40.6192088749 15.0476260885 40.884646041 15.2251911018 41.1789471697 15.435862599 41.5002438622 15.6816260154 41.8465716047 15.964380467 42.215873399 16.285934677 42.6060035539 16.6480030461 43.0147316313 17.052201875 43.4397465431 17.5000457412 43.8786607902 17.9929440399 44.2857506119 18.5141106386 44.1460322382 18.8448358345 43.9912991811 19.2032704599 43.7067357701 19.8424103456 43.5439035572 20.1972389945 43.3916166794 20.5223683318 42.7319181592 20.5685701595 42.0719323826 20.5722066454 41.4547290452 20.5560250508 40.8808583108 20.5227427024 40.3507410487 20.475090524 39.8646685679 20.4158075699 39.422802568 20.3476355579 39.0251753061 20.2733134073 38.6716899804 20.195571793 38.3621213276 20.1171277215 38.0961164356 20.0406791378 37.8731957675 19.9688995722 37.6927543974 19.9044328335 37.5540634544 19.8498877579 37.4562717735 19.8078330199 37.3984077502 19.7807920158 37.3793813965 19.7712378235 36.8868659056 19.5107294754 36.6868667093 19.518142904 36.6161364765 19.5937844873 36.5688493987 19.6818976386 36.5213502855 19.7698966694 36.4736394126 19.8577810695 36.4257170563 19.9455503291 36.3775834947 20.0332039395 36.3292390069 20.1207413924 36.280683873 20.2081621803 36.2319183748 20.2954657962 36.1829427948 20.3826517339 36.1337574172 20.4697194879 36.084362527 20.5566685535 36.0347584108 20.6434984263 35.984945356 20.730208603 35.9349236516 20.8167985808 35.8846935876 20.9032678576 35.8342554551 20.9896159321 35.7836095468 21.0758423036 35.7327561561 21.161946472 35.6816955781 21.2479279383 35.6304281087 21.3337862038 35.5789540453 21.4195207707 35.5272736862 21.5051311418 35.4753873311 21.5906168209 35.4232952809 21.6759773122 35.3709978377 21.7612121208 35.3184953046 21.8463207525 35.2667115545 21.9318770681 35.2473227717 22.0376945603 35.8120849177 22.4858749553 35.8298722677 22.4975751649 35.8822224759 22.5341663769 35.9675387878 22.5978290879 36.0841216805 22.69066643 36.2301721989 22.8146998711 36.4037954602 22.9718650499 36.6030043218 23.1640077521 36.8257232069 23.3928800338 37.0697920826 23.6601364986 37.332970584 23.9673307333 37.6129422783 24.3159119083 37.9073190629 24.7072215477 38.213645691 25.1424904745 38.5294044174 25.6228359348 38.8520197582 26.1492589069 39.1788633573 26.7226415985 39.4687006609 27.3170581897 39.2632738341 27.6115071632 39.0373993166 27.9299383206 38.6261696446 28.4959474064 38.3931226819 28.8091674773 38.1765654475 29.0955297363 37.5216770226 29.0035629084 36.8753574508 28.8699011697 36.2750058298 28.7257493922 35.7205953372 28.5738799083 35.2119698541 28.417051468 34.7488448425 28.2580038374 34.3308084331 28.0994524402 33.9573227249 27.9440830506 33.6277252921 27.7945465454 33.3412308967 27.653453723 33.0969334041 27.5233701974 32.8938078983 27.4068113745 32.7307129937 27.3062375184 32.6063933395 27.2240489151 32.5194823131 27.1625811403 32.4685048984 27.1241004401 32.4518807444 27.1107992285 32.0242906298 26.7535838843 31.8271205574 26.7192531407 31.7422091803 26.7785361316 31.6776356843 26.8548922629 31.6128785135 26.9310926828 31.5479380434 27.0071369495 31.4828146504 27.0830246222 31.4175087123 27.1587552607 31.3520206077 27.234328426 31.2863507162 27.3097436799 31.2204994187 27.3850005852 31.1544670969 27.4600987053 31.0882541338 27.535037605 31.0218609133 27.6098168497 30.9552878203 27.6844360058 30.8885352409 27.7588946407 30.821603562 27.8331923226 30.7544931718 27.9073286207 30.6872044595 27.9813031052 30.619737815 28.0551153471 30.5520936297 28.1287649185 30.4842722958 28.2022513923 30.4162742065 28.2755743424 30.3480997561 28.3487333438 30.2797493398 28.4217279721 30.211223354 28.4945578042 30.142522196 28.5672224177 30.0736462642 28.6397213914 30.0045959579 28.7120543048 29.9361556488 28.7849745626 29.8951898637 28.8844485341 30.354428658 29.4402557649 30.3693947015 29.4553984948 30.4129931912 29.5020743214 30.4832089151 29.5820841081 30.5779422231 29.6971316778 30.6950131848 29.8488203009 30.8321658832 30.0386493493 30.9870728392 30.2680111236 31.1573395592 30.5381878568 31.3405092009 30.8503488993 31.5340673479 31.2055480901 31.7354468874 31.6047213185 31.9420329842 32.0486842784 32.1511681421 32.538130422 32.3601573458 33.0736291122 32.5662732771 33.6556239804 32.7667615945 34.2844314898 32.9266790991 34.9261192162 32.6645219575 35.1714231343 32.3773777798 35.435933854 31.8574545567 35.9040748268 31.5643781147 36.1619970996 31.293015114 36.3970768754 30.6715585511 36.1709607837 30.0671524508 35.9058424796 29.5098907929 35.6400206438 28.9991709409 35.3762014496 28.5342666112 35.1170509028 28.114329854 34.8651897403 27.7383932322 34.6231884148 27.4053721953 34.393562174 27.1140676448 34.1787662407 26.8631686866 33.9811911008 26.6512555661 33.8031579076 26.476802782 33.6469140073 26.3381823728 33.5146285939 26.2336673728 33.4083884992 26.1614354298 33.3301941244 26.1195725814 33.2819555193 26.1060771824 33.2654886151 25.7621001839 32.8271782996 25.5763765136 32.7526038019 25.480995027 32.7929372493 25.4019572845 32.8541992311 25.322772255 32.9152707162 25.2434403979 32.9761513503 25.163962173 33.0368407805 25.0843380412 33.0973386548 25.0045684642 33.1576446226 24.9246539044 33.2177583341 24.8445948254 33.2776794408 24.7643916911 33.3374075952 24.6840449668 33.396942451 24.6035551183 33.4562836631 24.5229226122 33.5154308872 24.4421479161 33.5743837806 24.3612314983 33.6331420014 24.2801738281 33.6917052088 24.1989753754 33.7500730634 24.117636611 33.8082452266 24.0361580065 33.8662213612 23.9545400344 33.924001131 23.872783168 33.9815842011 23.7908878812 34.0389702374 23.7088546489 34.0961589074 23.6266839468 34.1531498793 23.5443762513 34.2099428228 23.4619320396 34.2665374085 23.3793517898 34.3229333083 23.2972460916 34.3800305432 23.2364937056 34.4688135041 23.5701382093 35.1079561275 23.5816288582 35.1258795679 23.6145701663 35.1806000514 23.6666165381 35.2734601021 23.7353599613 35.4056897687 23.8183348035 35.578404053 23.913022708 35.7926005306 24.016857581 36.049157167 24.1272306633 36.348830332 24.2414956787 36.6922530167 24.3569740514 37.0799332546 24.470960184 37.5122527507 24.5807267893 37.9894657195 24.6835302668 38.5116979348 24.776616117 39.0789459926 24.8572243836 39.6910767883 24.9225951177 40.34782721 24.945603661 41.0087412388 24.6381737295 41.1941791431 24.3023094701 41.3932090375 23.6964158356 41.7430218904 23.3561187612 41.9343739242 23.0418098595 42.1078971026 22.4809457925 41.7575141052 21.9448686104 41.3725261779 21.4550519242 40.9966519734 21.010343621 40.6324132336 20.6094789947 40.2822667028 20.2510837433 39.9485995497 19.9336771434 39.6337249151 19.6556753952 39.3398775918 19.4153951338 39.0692098434 19.2110571012 38.8237873677 19.040789973 38.6055854117 18.9026343342 38.4164850422 18.7945467975 38.2582695788 18.7144042587 38.1326211947 18.6600082817 38.0411176892 18.6290896069 37.9852294378 18.6193127767 37.9663165237 18.3739823397 37.4660675009 18.2078220871 37.3545085126 18.1061391196 37.3741296512 18.0160914591 37.417620041 17.9259393369 37.4608934743 17.8356832756 37.5039496999 17.7453237985 37.5467884683 17.6548614297 37.5894095311 17.5642966936 37.6318126412 17.4736301153 37.6739975526 17.3828622206 37.7159640208 17.2919935357 37.7577118025 17.2010245876 37.7992406556 17.1099559036 37.8405503393 17.0187880118 37.881640614 16.9275214409 37.9225112416 16.83615672 37.963161985 16.7446943788 38.0035926086 16.6531349478 38.0438028779 16.5614789577 38.0837925597 16.4697269401 38.1235614223 16.3778794269 38.1631092349 16.2859369507 38.2024357684 16.1939000445 38.2415407946 16.1017692421 38.2804240869 16.0095450777 38.3190854197 15.9172280859 38.357524569 15.8248188021 38.3957413118 15.732317762 38.4337354265 15.6401350876 38.4725142152 15.5622512715 38.5467259242 15.7557196188 39.2412703407 15.7632326766 39.2611911511 15.7840771099 39.3215647438 15.8156794534 39.4232166288 15.8554285743 39.5668493213 15.9006808983 39.7530408238 15.9487656931 39.9822433168 15.9969904009 40.2547820592 16.042646012 40.5708545007 16.0830124717 40.9305296083 16.1153641111 41.3337474066 16.1369750958 41.780318734 16.1451248822 42.269925215 16.1371036743 42.8021194483 16.1102178724 43.3763254115 16.0617955063 43.9918390816 15.9891916424 44.6478292708 15.8742856406 45.2990844874 15.5350190825 45.4165518518 15.1651136211 45.5414023594 14.4997300345 45.7575985922 14.1270849428 45.8740173848 13.7835669472 45.9784001702 13.3078078272 45.5190636855 12.8634887087 45.0310319548 12.4625243336 44.5615328881 12.1032634661 44.1127935834 11.7839582509 43.6869541521 11.5027680976 43.2860638642 11.2577637111 42.912077453 11.0469312619 42.5668515852 10.8681766899 42.252141501 10.7193301355 41.9695978294 10.5981504902 41.7207635832 10.5023300612 41.507071338 10.429499341 41.3298405996 10.3772318769 41.1902753634 10.3430492311 41.0894618694 10.3244260244 41.0283665564 10.3187950573 41.0078342177 10.1828332992 40.4675097702 10.0434984646 40.3238419544 9.93995804977 40.3218932463 9.84283598624 40.3457113055 9.74565685149 40.3692954302 9.648421209 40.3926454837 9.55112962257 40.4157613306 9.45378265631 40.4386428369 9.35638087467 40.4612898698 9.2589248424 40.4837022981 9.16141512459 40.5058799919 9.06385228661 40.5278228224 8.96623689416 40.5495306626 8.86856951324 40.5710033865 8.77085071014 40.5922408697 8.67308105148 40.6132429889 8.57526110413 40.6340096224 8.47739143528 40.6545406499 8.37947261241 40.6748359522 8.28150520327 40.6948954117 8.18348977591 40.7147189121 8.08542689864 40.7343063384 7.98731714005 40.753657577 7.88916106901 40.7727725158 7.79095925465 40.791651044 7.69271226637 40.810293052 7.59442067383 40.8286984317 7.49608504695 40.8468670765 7.39770595591 40.8647988811 7.29947513056 40.8835644045 7.20786378084 40.9399614536 7.25270047656 41.6595527395 7.25590758671 41.680600285 7.26374414336 41.7439883712 7.27352128458 41.8499894153 7.28253887588 41.9987476958 7.28809093789 42.1902789544 7.28747108665 42.424470214 7.27797797813 42.7010798115 7.25692074893 43.0197376471 7.22162444484 43.3799456496 7.16943542912 43.7810784556 7.09772676221 44.2223843045 7.0039035449 44.702986145 6.8854082167 45.2218829545 6.73972580148 45.7779512672 6.56438909229 46.3699469108 6.35698376767 46.9965069484 6.10918516445 47.6096403749 5.75290955629 47.6540033118 5.36512953655 47.6992178663 4.66933645346 47.7723486662 4.28062972305 47.8087461577 3.92291601852 47.8394265216 3.55305480191 47.291211758 3.21991262446 46.7214655524 2.92532462781 46.1788609855 2.66721261978 45.6652331769 2.44342198579 45.1823120717 2.25172628962 44.7317194782 2.08983198392 44.3149662912 1.95538322346 43.9334499059 1.84596677348 43.5884518268 1.75911700585 43.2811354735 1.69232097542 43.0125441877 1.64302356866 42.7835994433 1.60863271696 42.5950992636 1.58652466664 42.4477168458 1.57404929757 42.3419993969 1.56853548246 42.2783671807 1.56729647879 42.2571127789 1.54664558073 41.7003276779 1.44022576509 41.5308300075 1.33935311596 41.5073966207 1.23940134958 41.5105013857 1.13944239684 41.5133654625 1.03947683733 41.5159888345 0.93950525068 41.5183714864 0.839528216542 41.5205134045 0.739546314611 41.5224145763 0.639560124606 41.5240749909 0.539570226272 41.5254946385 0.439577199377 41.526673511 0.339581623703 41.5276116014 0.23958407905 41.5283089045 0.139585145229 41.5287654161 0.0395854020592 41.5289811336 -0.060414570637 41.5289560557 -0.160414193034 41.5286901827 -0.26041288531 41.5281835159 -0.360410067648 41.5274360584 -0.460405160238 41.5264478145 -0.560397583284 41.5252187899 -0.660386757006 41.5237489918 -0.760372101641 41.5220384286 -0.86035303745 41.5200871103 -0.960328984718 41.5178950483 -1.06029936376 41.5154622552 -1.16026359492 41.512788745 -1.26022109859 41.5098745334 -1.36020691642 41.5078066482 -1.4615419442 41.5439242159 -1.56729647879 42.2571127789 -1.56853548246 42.2783671807 -1.57404929757 42.3419993969 -1.58652466664 42.4477168458 -1.60863271696 42.5950992636 -1.64302356866 42.7835994433 -1.69232097542 43.0125441877 -1.75911700585 43.2811354735 -1.84596677348 43.5884518268 -1.95538322346 43.9334499059 -2.08983198392 44.3149662912 -2.25172628962 44.7317194782 -2.44342198579 45.1823120717 -2.66721261978 45.6652331769 -2.92532462781 46.1788609855 -3.21991262446 46.7214655524 -3.55305480191 47.291211758 -3.92291601852 47.8394265216 -4.28062972305 47.8087461577 -4.66933645346 47.7723486662 -5.36512953655 47.6992178663 -5.75290955629 47.6540033118 -6.10918516445 47.6096403749 -6.35698376767 46.9965069484 -6.56438909229 46.3699469108 -6.73972580148 45.7779512672 -6.8854082167 45.2218829545 -7.0039035449 44.702986145 -7.09772676221 44.2223843045 -7.16943542912 43.7810784556 -7.22162444484 43.3799456496 -7.25692074893 43.0197376471 -7.27797797813 42.7010798115 -7.28747108665 42.424470214 -7.28809093789 42.1902789544 -7.28253887588 41.9987476958 -7.27352128458 41.8499894153 -7.26374414336 41.7439883712 -7.25590758671 41.680600285 -7.25270047656 41.6595527395 -7.15713797119 41.1106411658 -7.2259917113 40.9227215023 -7.31978797595 40.8788275882 -7.41820107336 40.8610833659 -7.5165711582 40.8431022209 -7.61489766009 40.8248842574 -7.71318000891 40.806429581 -7.81141763479 40.7877382988 -7.90960996813 40.7688105192 -8.00775643959 40.7496463519 -8.10585648008 40.730245908 -8.20390952079 40.7106093 -8.3019149932 40.6907366417 -8.39987232904 40.6706280485 -8.49778096034 40.6502836368 -8.59564031938 40.6297035246 -8.69344983876 40.6088878314 -8.79120895136 40.5878366777 -8.88891709034 40.5665501856 -8.98657368917 40.5450284786 -9.08417818162 40.5232716814 -9.18173000173 40.5012799202 -9.27922858389 40.4790533225 -9.37667336278 40.4565920172 -9.47406377338 40.4338961345 -9.571399251 40.4109658061 -9.66867923127 40.3878011647 -9.76590315013 40.3644023449 -9.86307044386 40.3407694822 -9.96044139416 40.3179585648 -10.067071273 40.33221814 -10.3187950573 41.0078342177 -10.3244260244 41.0283665564 -10.3430492311 41.0894618694 -10.3772318769 41.1902753634 -10.429499341 41.3298405996 -10.5023300612 41.507071338 -10.5981504902 41.7207635832 -10.7193301355 41.9695978294 -10.8681766899 42.252141501 -11.0469312619 42.5668515852 -11.2577637111 42.912077453 -11.5027680976 43.2860638642 -11.7839582509 43.6869541521 -12.1032634661 44.1127935834 -12.4625243336 44.5615328881 -12.8634887087 45.0310319548 -13.3078078272 45.5190636855 -13.7835669472 45.9784001702 -14.1270849428 45.8740173848 -14.4997300345 45.7575985922 -15.1651136211 45.5414023594 -15.5350190825 45.4165518518 -15.8742856406 45.2990844874 -15.9891916424 44.6478292708 -16.0617955063 43.9918390816 -16.1102178724 43.3763254115 -16.1371036743 42.8021194483 -16.1451248822 42.269925215 -16.1369750958 41.780318734 -16.1153641111 41.3337474066 -16.0830124717 40.9305296083 -16.042646012 40.5708545007 -15.9969904009 40.2547820592 -15.9487656931 39.9822433168 -15.9006808983 39.7530408238 -15.8554285743 39.5668493213 -15.8156794534 39.4232166288 -15.7840771099 39.3215647438 -15.7632326766 39.2611911511 -15.7557196188 39.2412703407 -15.54812025 38.7242223639 -15.5763986757 38.5260936985 -15.6590192091 38.4636576317 -15.7515925129 38.4258399298 -15.8440744851 38.3877994252 -15.9364645894 38.3495363387 -16.0287622902 38.3110508919 -16.1209670521 38.2723433082 -16.2130783407 38.233413812 -16.3050956219 38.1942626288 -16.397018362 38.1548899859 -16.4888460282 38.1152961114 -16.5805780879 38.0754812349 -16.6722140093 38.0354455873 -16.7637532611 37.9951894008 -16.8551953124 37.9547129087 -16.9465396331 37.9140163457 -17.0377856936 37.8730999478 -17.1289329648 37.8319639523 -17.2199809181 37.7906085976 -17.3109290257 37.7490341236 -17.4017767603 37.7072407713 -17.492523595 37.665228783 -17.5831690037 37.6229984024 -17.6737124608 37.5805498743 -17.7641534413 37.5378834448 -17.8544914209 37.4949993613 -17.9447258757 37.4518978724 -18.0348562825 37.4085792282 -18.1253567875 37.3660222251 -18.23262128 37.357800596 -18.6193127767 37.9663165237 -18.6290896069 37.9852294378 -18.6600082817 38.0411176892 -18.7144042587 38.1326211947 -18.7945467975 38.2582695788 -18.9026343342 38.4164850422 -19.040789973 38.6055854117 -19.2110571012 38.8237873677 -19.4153951338 39.0692098434 -19.6556753952 39.3398775918 -19.9336771434 39.6337249151 -20.2510837433 39.9485995497 -20.6094789947 40.2822667028 -21.010343621 40.6324132336 -21.4550519242 40.9966519734 -21.9448686104 41.3725261779 -22.4809457925 41.7575141052 -23.0418098595 42.1078971026 -23.3561187612 41.9343739242 -23.6964158356 41.7430218904 -24.3023094701 41.3932090375 -24.6381737295 41.1941791431 -24.945603661 41.0087412388 -24.9225951177 40.34782721 -24.8572243836 39.6910767883 -24.776616117 39.0789459926 -24.6835302668 38.5116979348 -24.5807267893 37.9894657195 -24.470960184 37.5122527507 -24.3569740514 37.0799332546 -24.2414956787 36.6922530167 -24.1272306633 36.348830332 -24.016857581 36.049157167 -23.913022708 35.7926005306 -23.8183348035 35.578404053 -23.7353599613 35.4056897687 -23.6666165381 35.2734601021 -23.6145701663 35.1806000514 -23.5816288582 35.1258795679 -23.5701382093 35.1079561275 -23.2595750658 34.6453692253 -23.2460422742 34.4456907313 -23.3138761624 34.3674412676 -23.3965637751 34.311202901 -23.4791157287 34.2547655896 -23.5615315446 34.1981296605 -23.6438107448 34.1412954421 -23.7259528523 34.084263264 -23.8079573909 34.0270334568 -23.889823885 33.9696063525 -23.9715518599 33.9119822839 -24.0531408419 33.8541615853 -24.1345903577 33.7961445917 -24.2158999352 33.7379316398 -24.2970691029 33.6795230669 -24.3780973901 33.6209192117 -24.458984327 33.5621204141 -24.5397294447 33.503127015 -24.6203322749 33.4439393564 -24.7007923503 33.3845577815 -24.7811092044 33.3249826347 -24.8612823714 33.2652142613 -24.9413113865 33.2052530079 -25.0211957857 33.1450992222 -25.1009351058 33.084753253 -25.1805288844 33.0242154502 -25.2599766601 32.9634861647 -25.3392779721 32.9025657488 -25.4184323607 32.8414545556 -25.4981071141 32.7810114121 -25.6013182473 32.7506679033 -26.1060771824 33.2654886151 -26.1195725814 33.2819555193 -26.1614354298 33.3301941244 -26.2336673728 33.4083884992 -26.3381823728 33.5146285939 -26.476802782 33.6469140073 -26.6512555661 33.8031579076 -26.8631686866 33.9811911008 -27.1140676448 34.1787662407 -27.4053721953 34.393562174 -27.7383932322 34.6231884148 -28.114329854 34.8651897403 -28.5342666112 35.1170509028 -28.9991709409 35.3762014496 -29.5098907929 35.6400206438 -30.0671524508 35.9058424796 -30.6715585511 36.1709607837 -31.293015114 36.3970768754 -31.5643781147 36.1619970996 -31.8574545567 35.9040748268 -32.3773777798 35.435933854 -32.6645219575 35.1714231343 -32.9266790991 34.9261192162 -32.7667615945 34.2844314898 -32.5662732771 33.6556239804 -32.3601573458 33.0736291122 -32.1511681421 32.538130422 -31.9420329842 32.0486842784 -31.7354468874 31.6047213185 -31.5340673479 31.2055480901 -31.3405092009 30.8503488993 -31.1573395592 30.5381878568 -30.9870728392 30.2680111236 -30.8321658832 30.0386493493 -30.6950131848 29.8488203009 -30.5779422231 29.6971316778 -30.4832089151 29.5820841081 -30.4129931912 29.5020743214 -30.3693947015 29.4553984948 -30.354428658 29.4402557649 -29.9544748393 29.0523472047 -29.8997222784 28.8598457904 -29.9498048551 28.7692028068 -30.0189929312 28.6970016621 -30.0880069497 28.6246341251 -30.1568465105 28.5521006153 -30.2255112143 28.4794015533 -30.2940006631 28.4065373607 -30.3623144598 28.3335084598 -30.4304522082 28.2603152743 -30.4984135133 28.1869582284 -30.566197981 28.1134377476 -30.6338052183 28.039754258 -30.7012348331 27.965908187 -30.7684864346 27.8918999626 -30.8355596327 27.8177300141 -30.9024540386 27.7433987715 -30.9691692643 27.6689066657 -31.0357049232 27.5942541288 -31.1020606292 27.5194415935 -31.1682359978 27.4444694936 -31.2342306452 27.3693382638 -31.3000441888 27.2940483399 -31.3656762469 27.2186001582 -31.4311264391 27.1429941564 -31.4963943857 27.0672307727 -31.5614797084 26.9913104464 -31.6263820298 26.9152336179 -31.6911009736 26.8390007281 -31.7564678063 26.7633130996 -31.8511147584 26.712173868 -32.4518807444 27.1107992285 -32.4685048984 27.1241004401 -32.5194823131 27.1625811403 -32.6063933395 27.2240489151 -32.7307129937 27.3062375184 -32.8938078983 27.4068113745 -33.0969334041 27.5233701974 -33.3412308967 27.653453723 -33.6277252921 27.7945465454 -33.9573227249 27.9440830506 -34.3308084331 28.0994524402 -34.7488448425 28.2580038374 -35.2119698541 28.417051468 -35.7205953372 28.5738799083 -36.2750058298 28.7257493922 -36.8753574508 28.8699011697 -37.5216770226 29.0035629084 -38.1765654475 29.0955297363 -38.3931226819 28.8091674773 -38.6261696446 28.4959474064 -39.0373993166 27.9299383206 -39.2632738341 27.6115071632 -39.4687006609 27.3170581897 -39.1788633573 26.7226415985 -38.8520197582 26.1492589069 -38.5294044174 25.6228359348 -38.213645691 25.1424904745 -37.9073190629 24.7072215477 -37.6129422783 24.3159119083 -37.332970584 23.9673307333 -37.0697920826 23.6601364986 -36.8257232069 23.3928800338 -36.6030043218 23.1640077521 -36.4037954602 22.9718650499 -36.2301721989 22.8146998711 -36.0841216805 22.69066643 -35.9675387878 22.5978290879 -35.8822224759 22.5341663769 -35.8298722677 22.4975751649 -35.8120849177 22.4858749553 -35.3402203249 22.1895982025 -35.2466409442 22.0126871035 -35.2767833605 21.9136121334 -35.3294480491 21.8286037471 -35.3819078887 21.7434687931 -35.4341625752 21.658207765 -35.4862118057 21.5728211573 -35.5380552782 21.487309465 -35.5896926923 21.4016731839 -35.6411237484 21.3159128106 -35.6923481485 21.2300288423 -35.7433655955 21.1440217771 -35.7941757935 21.0578921135 -35.844778448 20.9716403511 -35.8951732656 20.8852669898 -35.945359954 20.7987725306 -35.9953382222 20.7121574749 -36.0451077806 20.625422325 -36.0946683404 20.5385675838 -36.1440196144 20.4515937548 -36.1931613164 20.3645013424 -36.2420931614 20.2772908516 -36.2908148657 20.189962788 -36.3393261469 20.102517658 -36.3876267236 20.0149559685 -36.4357163158 19.9272782274 -36.4835946447 19.8394849429 -36.5312614326 19.7515766242 -36.5787164032 19.663553781 -36.6269184709 19.5759295801 -36.7088647159 19.5062296556 -37.3793813965 19.7712378235 -37.3984077502 19.7807920158 -37.4562717735 19.8078330199 -37.5540634544 19.8498877579 -37.6927543974 19.9044328335 -37.8731957675 19.9688995722 -38.0961164356 20.0406791378 -38.3621213276 20.1171277215 -38.6716899804 20.195571793 -39.0251753061 20.2733134073 -39.422802568 20.3476355579 -39.8646685679 20.4158075699 -40.3507410487 20.475090524 -40.8808583108 20.5227427024 -41.4547290452 20.5560250508 -42.0719323826 20.5722066454 -42.7319181592 20.5685701595 -43.3916166794 20.5223683318 -43.5439035572 20.1972389945 -43.7067357701 19.8424103456 -43.9912991811 19.2032704599 -44.1460322382 18.8448358345 -44.2857506119 18.5141106386 -43.8786607902 17.9929440399 -43.4397465431 17.5000457412 -43.0147316313 17.052201875 -42.6060035539 16.6480030461 -42.215873399 16.285934677 -41.8465716047 15.964380467 -41.5002438622 15.6816260154 -41.1789471697 15.435862599 -40.884646041 15.2251911018 -40.6192088749 15.0476260885 -40.3844044908 14.9011000166 -40.1818988362 14.7834675799 -40.0132518696 14.6925101773 -39.8799146241 14.6259405002 -39.7832264564 14.5814072309 -39.7244124851 14.5564998449 -39.704581221 14.548753511 -39.181428601 14.3570572814 -39.0531122687 14.2034683617 -39.0619971563 14.1002914566 -39.0958367577 14.006191103 -39.1294496717 13.9120095381 -39.1628357035 13.8177473078 -39.1959946594 13.7234049588 -39.2289263471 13.6289830381 -39.2616305758 13.5344820932 -39.2941071558 13.4399026719 -39.3263558987 13.3452453228 -39.3583766177 13.2505105946 -39.390169127 13.1556990367 -39.4217332424 13.0608111987 -39.4530687807 12.9658476309 -39.4841755603 12.8708088839 -39.5150534008 12.7756955088 -39.5457021232 12.680508057 -39.5761215498 12.5852470804 -39.6063115042 12.4899131315 -39.6362718114 12.3945067629 -39.6660022976 12.2990285279 -39.6955027904 12.2034789801 -39.7247731188 12.1078586735 -39.7538131132 12.0121681624 -39.782622605 11.9164080019 -39.8112014273 11.820578747 -39.8395494143 11.7246809535 -39.8676664018 11.6287151774 -39.8965970429 11.5329840021 -39.9622611367 11.4477696059 -40.6732237153 11.5675784528 -40.6938207258 11.5729680616 -40.7560424223 11.587387548 -40.860440792 11.6081912553 -41.0074415641 11.6327089217 -41.197343246 11.6582510371 -41.4303163735 11.682114234 -41.7064029747 11.7015867058 -42.0255162491 11.7139536442 -42.3874404629 11.7165026859 -42.791831059 11.7065293629 -43.238214985 11.6813425457 -43.7259912351 11.6382698737 -44.2544316081 11.5746631614 -44.8226816794 11.4879037758 -45.4297619858 11.3754079744 -46.0745694217 11.2346321957 -46.7102460464 11.052280954 -46.7916069003 10.7025942505 -46.8771078143 10.3216647382 -47.0225681777 9.63732753257 -47.0993971972 9.25455475216 -47.1673007546 8.90200761202 -46.6607501935 8.47686848707 -46.128947957 8.085996602 -45.6201086654 7.73630476769 -45.1362746151 7.42591799872 -44.6793914934 7.15287431223 -44.2513049498 6.91512899378 -43.8537573433 6.71055899182 -43.488384667 6.53696743428 -43.1567136569 6.39208826002 -42.8601590875 6.27359095836 -42.6000212592 6.17908540922 -42.3774836803 6.1061268165 -42.1936109471 6.05222072738 -42.0493468262 6.01482812963 -41.9455125397 5.99137061945 -41.882805258 5.97923563183 -41.8617968012 5.97578172559 -41.310220434 5.89704406435 -41.1527751893 5.77348989657 -41.1400142361 5.67072038246 -41.1535497974 5.57164069862 -41.1668467402 5.47252870903 -41.1799049873 5.37338498836 -41.1927244632 5.27421011147 -41.2053050934 5.17500465339 -41.2176468049 5.07576918935 -41.2297495263 4.97650429473 -41.2416131874 4.87721054511 -41.2532377193 4.7778885162 -41.2646230547 4.67853878391 -41.2757691276 4.57916192429 -41.2866758732 4.47975851355 -41.2973432285 4.38032912805 -41.3077711314 4.28087434432 -41.3179595217 4.18139473901 -41.3279083401 4.08189088894 -41.3376175291 3.98236337104 -41.3470870322 3.88281276241 -41.3563167947 3.78323964027 -41.365306763 3.68364458197 -41.3740568849 3.58402816497 -41.3825671097 3.48439096689 -41.3908373881 3.38473356545 -41.3988676722 3.28505653847 -41.4066579153 3.18536046393 -41.4142080723 3.08564591987 -41.422602879 2.98599168193 -41.4691149856 2.88898709189 -42.189450986 2.85836039621 -42.2107184651 2.85934986989 -42.274578448 2.86051763782 -42.3810207969 2.85916109259 -42.5299067589 2.85257981013 -42.7209691378 2.83808098923 -42.953812681 2.81298488112 -43.2279146822 2.77463020069 -43.542625797 2.72037951133 -43.8971710739 2.64762457514 -44.2906511948 2.55379166052 -44.7220439273 2.43634679898 -45.190205784 2.29280098324 -45.6938738879 2.12071529876 -46.2316680412 1.91770598085 -46.802092994 1.6814493896 -47.4035409102 1.40968689519 -47.9874135205 1.09915586379 -47.9942924907 0.740194781078 -47.9987253057 0.349812852955 -47.9987253057 -0.349812852955 -47.9942924907 -0.740194781078 -47.9874135205 -1.09915586379 -47.4035409102 -1.40968689519 -46.802092994 -1.6814493896 -46.2316680412 -1.91770598085 -45.6938738879 -2.12071529876 -45.190205784 -2.29280098324 -44.7220439273 -2.43634679898 -44.2906511948 -2.55379166052 -43.8971710739 -2.64762457514 -43.542625797 -2.72037951133 -43.2279146822 -2.77463020069 -42.953812681 -2.81298488112 -42.7209691378 -2.83808098923 -42.5299067589 -2.85257981013 -42.3810207969 -2.85916109259 -42.274578448 -2.86051763782 -42.2107184651 -2.85934986989 -42.189450986 -2.85836039621 -41.6335574055 -2.82069827552 -41.4538643613 -2.90881778126 -41.420015282 -3.00668838356 -41.4126552343 -3.10641714002 -41.4050550656 -3.2061278847 -41.3972148202 -3.30582003945 -41.3891345434 -3.40549302624 -41.3808142821 -3.50514626713 -41.3722540845 -3.60477918431 -41.3634540003 -3.70439120008 -41.3544140805 -3.80398173687 -41.3451343776 -3.90355021723 -41.3356149453 -4.00309606384 -41.3258558388 -4.1026186995 -41.3158571147 -4.20211754715 -41.305618831 -4.30159202988 -41.295141047 -4.40104157091 -41.2844238235 -4.50046559361 -41.2734672227 -4.59986352149 -41.2622713081 -4.69923477822 -41.2508361445 -4.79857878761 -41.2391617983 -4.89789497365 -41.2272483372 -4.99718276047 -41.2150958303 -5.09644157239 -41.202704348 -5.19567083387 -41.1900739621 -5.29486996956 -41.177204746 -5.39403840428 -41.1640967742 -5.49317556302 -41.1507501227 -5.59228087096 -41.1382422016 -5.69150280316 -41.1635695188 -5.7960580209 -41.8617968012 -5.97578172559 -41.882805258 -5.97923563183 -41.9455125397 -5.99137061945 -42.0493468262 -6.01482812963 -42.1936109471 -6.05222072738 -42.3774836803 -6.1061268165 -42.6000212592 -6.17908540922 -42.8601590875 -6.27359095836 -43.1567136569 -6.39208826002 -43.488384667 -6.53696743428 -43.8537573433 -6.71055899182 -44.2513049498 -6.91512899378 -44.6793914934 -7.15287431223 -45.1362746151 -7.42591799872 -45.6201086654 -7.73630476769 -46.128947957 -8.085996602 -46.6607501935 -8.47686848707 -47.1673007546 -8.90200761202 -47.0993971972 -9.25455475216 -47.0225681777 -9.63732753257 -46.8771078143 -10.3216647382 -46.7916069003 -10.7025942505 -46.7102460464 -11.052280954 -46.0745694217 -11.2346321957 -45.4297619858 -11.3754079744 -44.8226816794 -11.4879037758 -44.2544316081 -11.5746631614 -43.7259912351 -11.6382698737 -43.238214985 -11.6813425457 -42.791831059 -11.7065293629 -42.3874404629 -11.7165026859 -42.0255162491 -11.7139536442 -41.7064029747 -11.7015867058 -41.4303163735 -11.682114234 -41.197343246 -11.6582510371 -41.0074415641 -11.6327089217 -40.860440792 -11.6081912553 -40.7560424223 -11.587387548 -40.6938207258 -11.5729680616 -40.6732237153 -11.5675784528 -40.1373081385 -11.4151625655 -39.943220743 -11.463996164 -39.8897629049 -11.5526904395 -39.8618289174 -11.6487096434 -39.8336638012 -11.7446613052 -39.8052677195 -11.8405448685 -39.7766408369 -11.9363597773 -39.7477833194 -12.0321054762 -39.7186953345 -12.12778141 -39.6893770506 -12.2233870238 -39.6598286379 -12.3189217634 -39.6300502676 -12.4143850749 -39.6000421124 -12.5097764046 -39.5698043464 -12.6050951996 -39.5393371447 -12.700340907 -39.5086406842 -12.7955129748 -39.4777151427 -12.890610851 -39.4465606996 -12.9856339842 -39.4151775356 -13.0805818234 -39.3835658325 -13.1754538182 -39.3517257737 -13.2702494185 -39.3196575439 -13.3649680745 -39.2873613288 -13.4596092371 -39.2548373159 -13.5541723576 -39.2220856937 -13.6486568876 -39.1891066521 -13.7430622793 -39.1559003822 -13.8373879853 -39.1224670768 -13.9316334587 -39.0888069295 -14.025798153 -39.0559429368 -14.1202513049 -39.0589785392 -14.2277875856 -39.704581221 -14.548753511 -39.7244124851 -14.5564998449 -39.7832264564 -14.5814072309 -39.8799146241 -14.6259405002 -40.0132518696 -14.6925101773 -40.1818988362 -14.7834675799 -40.3844044908 -14.9011000166 -40.6192088749 -15.0476260885 -40.884646041 -15.2251911018 -41.1789471697 -15.435862599 -41.5002438622 -15.6816260154 -41.8465716047 -15.964380467 -42.215873399 -16.285934677 -42.6060035539 -16.6480030461 -43.0147316313 -17.052201875 -43.4397465431 -17.5000457412 -43.8786607902 -17.9929440399 -44.2857506119 -18.5141106386 -44.1460322382 -18.8448358345 -43.9912991811 -19.2032704599 -43.7067357701 -19.8424103456 -43.5439035572 -20.1972389945 -43.3916166794 -20.5223683318 -42.7319181592 -20.5685701595 -42.0719323826 -20.5722066454 -41.4547290452 -20.5560250508 -40.8808583108 -20.5227427024 -40.3507410487 -20.475090524 -39.8646685679 -20.4158075699 -39.422802568 -20.3476355579 -39.0251753061 -20.2733134073 -38.6716899804 -20.195571793 -38.3621213276 -20.1171277215 -38.0961164356 -20.0406791378 -37.8731957675 -19.9688995722 -37.6927543974 -19.9044328335 -37.5540634544 -19.8498877579 -37.4562717735 -19.8078330199 -37.3984077502 -19.7807920158 -37.3793813965 -19.7712378235 -36.8868659056 -19.5107294754 -36.6868667093 -19.518142904 -36.6161364765 -19.5937844873 -36.5688493987 -19.6818976386 -36.5213502855 -19.7698966694 -36.4736394126 -19.8577810695 -36.4257170563 -19.9455503291 -36.3775834947 -20.0332039395 -36.3292390069 -20.1207413924 -36.280683873 -20.2081621803 -36.2319183748 -20.2954657962 -36.1829427948 -20.3826517339 -36.1337574172 -20.4697194879 -36.084362527 -20.5566685535 -36.0347584108 -20.6434984263 -35.984945356 -20.730208603 -35.9349236516 -20.8167985808 -35.8846935876 -20.9032678576 -35.8342554551 -20.9896159321 -35.7836095468 -21.0758423036 -35.7327561561 -21.161946472 -35.6816955781 -21.2479279383 -35.6304281087 -21.3337862038 -35.5789540453 -21.4195207707 -35.5272736862 -21.5051311418 -35.4753873311 -21.5906168209 -35.4232952809 -21.6759773122 -35.3709978377 -21.7612121208 -35.3184953046 -21.8463207525 -35.2667115545 -21.9318770681 -35.2473227717 -22.0376945603 -35.8120849177 -22.4858749553 -35.8298722677 -22.4975751649 -35.8822224759 -22.5341663769 -35.9675387878 -22.5978290879 -36.0841216805 -22.69066643 -36.2301721989 -22.8146998711 -36.4037954602 -22.9718650499 -36.6030043218 -23.1640077521 -36.8257232069 -23.3928800338 -37.0697920826 -23.6601364986 -37.332970584 -23.9673307333 -37.6129422783 -24.3159119083 -37.9073190629 -24.7072215477 -38.213645691 -25.1424904745 -38.5294044174 -25.6228359348 -38.8520197582 -26.1492589069 -39.1788633573 -26.7226415985 -39.4687006609 -27.3170581897 -39.2632738341 -27.6115071632 -39.0373993166 -27.9299383206 -38.6261696446 -28.4959474064 -38.3931226819 -28.8091674773 -38.1765654475 -29.0955297363 -37.5216770226 -29.0035629084 -36.8753574508 -28.8699011697 -36.2750058298 -28.7257493922 -35.7205953372 -28.5738799083 -35.2119698541 -28.417051468 -34.7488448425 -28.2580038374 -34.3308084331 -28.0994524402 -33.9573227249 -27.9440830506 -33.6277252921 -27.7945465454 -33.3412308967 -27.653453723 -33.0969334041 -27.5233701974 -32.8938078983 -27.4068113745 -32.7307129937 -27.3062375184 -32.6063933395 -27.2240489151 -32.5194823131 -27.1625811403 -32.4685048984 -27.1241004401 -32.4518807444 -27.1107992285 -32.0242906298 -26.7535838843 -31.8271205574 -26.7192531407 -31.7422091803 -26.7785361316 -31.6776356843 -26.8548922629 -31.6128785135 -26.9310926828 -31.5479380434 -27.0071369495 -31.4828146504 -27.0830246222 -31.4175087123 -27.1587552607 -31.3520206077 -27.234328426 -31.2863507162 -27.3097436799 -31.2204994187 -27.3850005852 -31.1544670969 -27.4600987053 -31.0882541338 -27.535037605 -31.0218609133 -27.6098168497 -30.9552878203 -27.6844360058 -30.8885352409 -27.7588946407 -30.821603562 -27.8331923226 -30.7544931718 -27.9073286207 -30.6872044595 -27.9813031052 -30.619737815 -28.0551153471 -30.5520936297 -28.1287649185 -30.4842722958 -28.2022513923 -30.4162742065 -28.2755743424 -30.3480997561 -28.3487333438 -30.2797493398 -28.4217279721 -30.211223354 -28.4945578042 -30.142522196 -28.5672224177 -30.0736462642 -28.6397213914 -30.0045959579 -28.7120543048 -29.9361556488 -28.7849745626 -29.8951898637 -28.8844485341 -30.354428658 -29.4402557649 -30.3693947015 -29.4553984948 -30.4129931912 -29.5020743214 -30.4832089151 -29.5820841081 -30.5779422231 -29.6971316778 -30.6950131848 -29.8488203009 -30.8321658832 -30.0386493493 -30.9870728392 -30.2680111236 -31.1573395592 -30.5381878568 -31.3405092009 -30.8503488993 -31.5340673479 -31.2055480901 -31.7354468874 -31.6047213185 -31.9420329842 -32.0486842784 -32.1511681421 -32.538130422 -32.3601573458 -33.0736291122 -32.5662732771 -33.6556239804 -32.7667615945 -34.2844314898 -32.9266790991 -34.9261192162 -32.6645219575 -35.1714231343 -32.3773777798 -35.435933854 -31.8574545567 -35.9040748268 -31.5643781147 -36.1619970996 -31.293015114 -36.3970768754 -30.6715585511 -36.1709607837 -30.0671524508 -35.9058424796 -29.5098907929 -35.6400206438 -28.9991709409 -35.3762014496 -28.5342666112 -35.1170509028 -28.114329854 -34.8651897403 -27.7383932322 -34.6231884148 -27.4053721953 -34.393562174 -27.1140676448 -34.1787662407 -26.8631686866 -33.9811911008 -26.6512555661 -33.8031579076 -26.476802782 -33.6469140073 -26.3381823728 -33.5146285939 -26.2336673728 -33.4083884992 -26.1614354298 -33.3301941244 -26.1195725814 -33.2819555193 -26.1060771824 -33.2654886151 -25.7621001839 -32.8271782996 -25.5763765136 -32.7526038019 -25.480995027 -32.7929372493 -25.4019572845 -32.8541992311 -25.322772255 -32.9152707162 -25.2434403979 -32.9761513503 -25.163962173 -33.0368407805 -25.0843380412 -33.0973386548 -25.0045684642 -33.1576446226 -24.9246539044 -33.2177583341 -24.8445948254 -33.2776794408 -24.7643916911 -33.3374075952 -24.6840449668 -33.396942451 -24.6035551183 -33.4562836631 -24.5229226122 -33.5154308872 -24.4421479161 -33.5743837806 -24.3612314983 -33.6331420014 -24.2801738281 -33.6917052088 -24.1989753754 -33.7500730634 -24.117636611 -33.8082452266 -24.0361580065 -33.8662213612 -23.9545400344 -33.924001131 -23.872783168 -33.9815842011 -23.7908878812 -34.0389702374 -23.7088546489 -34.0961589074 -23.6266839468 -34.1531498793 -23.5443762513 -34.2099428228 -23.4619320396 -34.2665374085 -23.3793517898 -34.3229333083 -23.2972460916 -34.3800305432 -23.2364937056 -34.4688135041 -23.5701382093 -35.1079561275 -23.5816288582 -35.1258795679 -23.6145701663 -35.1806000514 -23.6666165381 -35.2734601021 -23.7353599613 -35.4056897687 -23.8183348035 -35.578404053 -23.913022708 -35.7926005306 -24.016857581 -36.049157167 -24.1272306633 -36.348830332 -24.2414956787 -36.6922530167 -24.3569740514 -37.0799332546 -24.470960184 -37.5122527507 -24.5807267893 -37.9894657195 -24.6835302668 -38.5116979348 -24.776616117 -39.0789459926 -24.8572243836 -39.6910767883 -24.9225951177 -40.34782721 -24.945603661 -41.0087412388 -24.6381737295 -41.1941791431 -24.3023094701 -41.3932090375 -23.6964158356 -41.7430218904 -23.3561187612 -41.9343739242 -23.0418098595 -42.1078971026 -22.4809457925 -41.7575141052 -21.9448686104 -41.3725261779 -21.4550519242 -40.9966519734 -21.010343621 -40.6324132336 -20.6094789947 -40.2822667028 -20.2510837433 -39.9485995497 -19.9336771434 -39.6337249151 -19.6556753952 -39.3398775918 -19.4153951338 -39.0692098434 -19.2110571012 -38.8237873677 -19.040789973 -38.6055854117 -18.9026343342 -38.4164850422 -18.7945467975 -38.2582695788 -18.7144042587 -38.1326211947 -18.6600082817 -38.0411176892 -18.6290896069 -37.9852294378 -18.6193127767 -37.9663165237 -18.3739823397 -37.4660675009 -18.2078220871 -37.3545085126 -18.1061391196 -37.3741296512 -18.0160914591 -37.417620041 -17.9259393369 -37.4608934743 -17.8356832756 -37.5039496999 -17.7453237985 -37.5467884683 -17.6548614297 -37.5894095311 -17.5642966936 -37.6318126412 -17.4736301153 -37.6739975526 -17.3828622206 -37.7159640208 -17.2919935357 -37.7577118025 -17.2010245876 -37.7992406556 -17.1099559036 -37.8405503393 -17.0187880118 -37.881640614 -16.9275214409 -37.9225112416 -16.83615672 -37.963161985 -16.7446943788 -38.0035926086 -16.6531349478 -38.0438028779 -16.5614789577 -38.0837925597 -16.4697269401 -38.1235614223 -16.3778794269 -38.1631092349 -16.2859369507 -38.2024357684 -16.1939000445 -38.2415407946 -16.1017692421 -38.2804240869 -16.0095450777 -38.3190854197 -15.9172280859 -38.357524569 -15.8248188021 -38.3957413118 -15.732317762 -38.4337354265 -15.6401350876 -38.4725142152 -15.5622512715 -38.5467259242 -15.7557196188 -39.2412703407 -15.7632326766 -39.2611911511 -15.7840771099 -39.3215647438 -15.8156794534 -39.4232166288 -15.8554285743 -39.5668493213 -15.9006808983 -39.7530408238 -15.9487656931 -39.9822433168 -15.9969904009 -40.2547820592 -16.042646012 -40.5708545007 -16.0830124717 -40.9305296083 -16.1153641111 -41.3337474066 -16.1369750958 -41.780318734 -16.1451248822 -42.269925215 -16.1371036743 -42.8021194483 -16.1102178724 -43.3763254115 -16.0617955063 -43.9918390816 -15.9891916424 -44.6478292708 -15.8742856406 -45.2990844874 -15.5350190825 -45.4165518518 -15.1651136211 -45.5414023594 -14.4997300345 -45.7575985922 -14.1270849428 -45.8740173848 -13.7835669472 -45.9784001702 -13.3078078272 -45.5190636855 -12.8634887087 -45.0310319548 -12.4625243336 -44.5615328881 -12.1032634661 -44.1127935834 -11.7839582509 -43.6869541521 -11.5027680976 -43.2860638642 -11.2577637111 -42.912077453 -11.0469312619 -42.5668515852 -10.8681766899 -42.252141501 -10.7193301355 -41.9695978294 -10.5981504902 -41.7207635832 -10.5023300612 -41.507071338 -10.429499341 -41.3298405996 -10.3772318769 -41.1902753634 -10.3430492311 -41.0894618694 -10.3244260244 -41.0283665564 -10.3187950573 -41.0078342177 -10.1828332992 -40.4675097702 -10.0434984646 -40.3238419544 -9.93995804977 -40.3218932463 -9.84283598624 -40.3457113055 -9.74565685149 -40.3692954302 -9.648421209 -40.3926454837 -9.55112962257 -40.4157613306 -9.45378265631 -40.4386428369 -9.35638087467 -40.4612898698 -9.2589248424 -40.4837022981 -9.16141512459 -40.5058799919 -9.06385228661 -40.5278228224 -8.96623689416 -40.5495306626 -8.86856951324 -40.5710033865 -8.77085071014 -40.5922408697 -8.67308105148 -40.6132429889 -8.57526110413 -40.6340096224 -8.47739143528 -40.6545406499 -8.37947261241 -40.6748359522 -8.28150520327 -40.6948954117 -8.18348977591 -40.7147189121 -8.08542689864 -40.7343063384 -7.98731714005 -40.753657577 -7.88916106901 -40.7727725158 -7.79095925465 -40.791651044 -7.69271226637 -40.810293052 -7.59442067383 -40.8286984317 -7.49608504695 -40.8468670765 -7.39770595591 -40.8647988811 -7.29947513056 -40.8835644045 -7.20786378084 -40.9399614536 -7.25270047656 -41.6595527395 -7.25590758671 -41.680600285 -7.26374414336 -41.7439883712 -7.27352128458 -41.8499894153 -7.28253887588 -41.9987476958 -7.28809093789 -42.1902789544 -7.28747108665 -42.424470214 -7.27797797813 -42.7010798115 -7.25692074893 -43.0197376471 -7.22162444484 -43.3799456496 -7.16943542912 -43.7810784556 -7.09772676221 -44.2223843045 -7.0039035449 -44.702986145 -6.8854082167 -45.2218829545 -6.73972580148 -45.7779512672 -6.56438909229 -46.3699469108 -6.35698376767 -46.9965069484 -6.10918516445 -47.6096403749 -5.75290955629 -47.6540033118 -5.36512953655 -47.6992178663 -4.66933645346 -47.7723486662 -4.28062972306 -47.8087461577 -3.92291601852 -47.8394265216 -3.55305480191 -47.291211758 -3.21991262446 -46.7214655524 -2.92532462781 -46.1788609855 -2.66721261978 -45.6652331769 -2.44342198579 -45.1823120717 -2.25172628962 -44.7317194782 -2.08983198392 -44.3149662912 -1.95538322346 -43.9334499059 -1.84596677348 -43.5884518268 -1.75911700585 -43.2811354735 -1.69232097542 -43.0125441877 -1.64302356866 -42.7835994433 -1.60863271696 -42.5950992636 -1.58652466664 -42.4477168458 -1.57404929757 -42.3419993969 -1.56853548246 -42.2783671807 -1.56729647879 -42.2571127789 -1.54664558073 -41.7003276779 -1.44022576509 -41.5308300075 -1.33935311596 -41.5073966207 -1.23940134958 -41.5105013857 -1.13944239684 -41.5133654625 -1.03947683733 -41.5159888345 -0.93950525068 -41.5183714864 -0.839528216542 -41.5205134045 -0.739546314611 -41.5224145763 -0.639560124606 -41.5240749909 -0.539570226273 -41.5254946385 -0.439577199377 -41.526673511 -0.339581623703 -41.5276116014 -0.23958407905 -41.5283089045 -0.139585145229 -41.5287654161 -0.0395854020592 -41.5289811336 0.0604145706369 -41.5289560557 0.160414193034 -41.5286901827 0.26041288531 -41.5281835159 0.360410067648 -41.5274360584 0.460405160238 -41.5264478145 0.560397583284 -41.5252187899 0.660386757006 -41.5237489918 0.760372101641 -41.5220384286 0.86035303745 -41.5200871103 0.960328984718 -41.5178950483 1.06029936376 -41.5154622552 1.16026359492 -41.512788745 1.26022109859 -41.5098745334 1.36020691642 -41.5078066482 1.4615419442 -41.5439242159 1.56729647879 -42.2571127789 1.56853548246 -42.2783671807 1.57404929757 -42.3419993969 1.58652466664 -42.4477168458 1.60863271696 -42.5950992636 1.64302356866 -42.7835994433 1.69232097542 -43.0125441877 1.75911700585 -43.2811354735 1.84596677348 -43.5884518268 1.95538322346 -43.9334499059 2.08983198392 -44.3149662912 2.25172628962 -44.7317194782 2.44342198579 -45.1823120717 2.66721261978 -45.6652331769 2.92532462781 -46.1788609855 3.21991262446 -46.7214655524 3.55305480191 -47.291211758 3.92291601852 -47.8394265216 4.28062972305 -47.8087461577 4.66933645346 -47.7723486662 5.36512953655 -47.6992178663 5.75290955629 -47.6540033118 6.10918516445 -47.6096403749 6.35698376767 -46.9965069484 6.56438909229 -46.3699469108 6.73972580148 -45.7779512672 6.8854082167 -45.2218829545 7.0039035449 -44.702986145 7.09772676221 -44.2223843045 7.16943542912 -43.7810784556 7.22162444484 -43.3799456496 7.25692074893 -43.0197376471 7.27797797813 -42.7010798115 7.28747108665 -42.424470214 7.28809093789 -42.1902789544 7.28253887588 -41.9987476958 7.27352128458 -41.8499894153 7.26374414336 -41.7439883712 7.25590758671 -41.680600285 7.25270047656 -41.6595527395 7.15713797119 -41.1106411658 7.2259917113 -40.9227215023 7.31978797595 -40.8788275882 7.41820107336 -40.8610833659 7.5165711582 -40.8431022209 7.61489766009 -40.8248842574 7.71318000891 -40.806429581 7.81141763479 -40.7877382988 7.90960996813 -40.7688105192 8.00775643959 -40.7496463519 8.10585648008 -40.730245908 8.20390952079 -40.7106093 8.3019149932 -40.6907366417 8.39987232904 -40.6706280485 8.49778096034 -40.6502836368 8.59564031938 -40.6297035246 8.69344983876 -40.6088878314 8.79120895136 -40.5878366777 8.88891709034 -40.5665501856 8.98657368917 -40.5450284786 9.08417818162 -40.5232716814 9.18173000173 -40.5012799202 9.27922858389 -40.4790533225 9.37667336278 -40.4565920172 9.47406377338 -40.4338961345 9.571399251 -40.4109658061 9.66867923127 -40.3878011647 9.76590315013 -40.3644023449 9.86307044386 -40.3407694822 9.96044139416 -40.3179585648 10.067071273 -40.33221814 10.3187950573 -41.0078342177 10.3244260244 -41.0283665564 10.3430492311 -41.0894618694 10.3772318769 -41.1902753634 10.429499341 -41.3298405996 10.5023300612 -41.507071338 10.5981504902 -41.7207635832 10.7193301355 -41.9695978294 10.8681766899 -42.252141501 11.0469312619 -42.5668515852 11.2577637111 -42.912077453 11.5027680976 -43.2860638642 11.7839582509 -43.6869541521 12.1032634661 -44.1127935834 12.4625243336 -44.5615328881 12.8634887087 -45.0310319548 13.3078078272 -45.5190636855 13.7835669472 -45.9784001702 14.1270849428 -45.8740173848 14.4997300345 -45.7575985922 15.1651136211 -45.5414023594 15.5350190825 -45.4165518518 15.8742856406 -45.2990844874 15.9891916424 -44.6478292708 16.0617955063 -43.9918390816 16.1102178724 -43.3763254115 16.1371036743 -42.8021194483 16.1451248822 -42.269925215 16.1369750958 -41.780318734 16.1153641111 -41.3337474066 16.0830124717 -40.9305296083 16.042646012 -40.5708545007 15.9969904009 -40.2547820592 15.9487656931 -39.9822433168 15.9006808983 -39.7530408238 15.8554285743 -39.5668493213 15.8156794534 -39.4232166288 15.7840771099 -39.3215647438 15.7632326766 -39.2611911511 15.7557196188 -39.2412703407 15.54812025 -38.7242223639 15.5763986757 -38.5260936985 15.6590192091 -38.4636576317 15.7515925129 -38.4258399298 15.8440744851 -38.3877994252 15.9364645894 -38.3495363387 16.0287622902 -38.3110508919 16.1209670521 -38.2723433082 16.2130783407 -38.233413812 16.3050956219 -38.1942626288 16.397018362 -38.1548899859 16.4888460282 -38.1152961114 16.5805780879 -38.0754812349 16.6722140093 -38.0354455873 16.7637532611 -37.9951894008 16.8551953124 -37.9547129087 16.9465396331 -37.9140163457 17.0377856936 -37.8730999478 17.1289329648 -37.8319639523 17.2199809181 -37.7906085976 17.3109290257 -37.7490341236 17.4017767603 -37.7072407713 17.492523595 -37.665228783 17.5831690037 -37.6229984024 17.6737124608 -37.5805498743 17.7641534413 -37.5378834448 17.8544914209 -37.4949993613 17.9447258757 -37.4518978724 18.0348562825 -37.4085792282 18.1253567875 -37.3660222251 18.23262128 -37.357800596 18.6193127767 -37.9663165237 18.6290896069 -37.9852294378 18.6600082817 -38.0411176892 18.7144042587 -38.1326211947 18.7945467975 -38.2582695788 18.9026343342 -38.4164850422 19.040789973 -38.6055854117 19.2110571012 -38.8237873677 19.4153951338 -39.0692098434 19.6556753952 -39.3398775918 19.9336771434 -39.6337249151 20.2510837433 -39.9485995497 20.6094789947 -40.2822667028 21.010343621 -40.6324132336 21.4550519242 -40.9966519734 21.9448686104 -41.3725261779 22.4809457925 -41.7575141052 23.0418098595 -42.1078971026 23.3561187612 -41.9343739242 23.6964158356 -41.7430218904 24.3023094701 -41.3932090375 24.6381737295 -41.1941791431 24.945603661 -41.0087412388 24.9225951177 -40.34782721 24.8572243836 -39.6910767883 24.776616117 -39.0789459926 24.6835302668 -38.5116979348 24.5807267893 -37.9894657195 24.470960184 -37.5122527507 24.3569740514 -37.0799332546 24.2414956787 -36.6922530167 24.1272306633 -36.348830332 24.016857581 -36.049157167 23.913022708 -35.7926005306 23.8183348035 -35.578404053 23.7353599613 -35.4056897687 23.6666165381 -35.2734601021 23.6145701663 -35.1806000514 23.5816288582 -35.1258795679 23.5701382093 -35.1079561275 23.2595750658 -34.6453692253 23.2460422742 -34.4456907313 23.3138761624 -34.3674412676 23.3965637751 -34.311202901 23.4791157287 -34.2547655896 23.5615315446 -34.1981296605 23.6438107448 -34.1412954421 23.7259528523 -34.084263264 23.8079573909 -34.0270334568 23.889823885 -33.9696063525 23.9715518599 -33.9119822839 24.0531408419 -33.8541615853 24.1345903577 -33.7961445917 24.2158999352 -33.7379316398 24.2970691029 -33.6795230669 24.3780973901 -33.6209192117 24.458984327 -33.5621204141 24.5397294447 -33.503127015 24.6203322749 -33.4439393564 24.7007923503 -33.3845577815 24.7811092044 -33.3249826347 24.8612823714 -33.2652142613 24.9413113865 -33.2052530079 25.0211957857 -33.1450992222 25.1009351058 -33.084753253 25.1805288844 -33.0242154502 25.2599766601 -32.9634861647 25.3392779721 -32.9025657488 25.4184323607 -32.8414545556 25.4981071141 -32.7810114121 25.6013182473 -32.7506679033 26.1060771824 -33.2654886151 26.1195725814 -33.2819555193 26.1614354298 -33.3301941244 26.2336673728 -33.4083884992 26.3381823728 -33.5146285939 26.476802782 -33.6469140073 26.6512555661 -33.8031579076 26.8631686866 -33.9811911008 27.1140676448 -34.1787662407 27.4053721953 -34.393562174 27.7383932322 -34.6231884148 28.114329854 -34.8651897403 28.5342666112 -35.1170509028 28.9991709409 -35.3762014496 29.5098907929 -35.6400206438 30.0671524508 -35.9058424796 30.6715585511 -36.1709607837 31.293015114 -36.3970768754 31.5643781147 -36.1619970996 31.8574545567 -35.9040748268 32.3773777798 -35.435933854 32.6645219575 -35.1714231343 32.9266790991 -34.9261192162 32.7667615945 -34.2844314898 32.5662732771 -33.6556239804 32.3601573458 -33.0736291122 32.1511681421 -32.538130422 31.9420329842 -32.0486842784 31.7354468874 -31.6047213185 31.5340673479 -31.2055480901 31.3405092009 -30.8503488993 31.1573395592 -30.5381878568 30.9870728392 -30.2680111236 30.8321658832 -30.0386493493 30.6950131848 -29.8488203009 30.5779422231 -29.6971316778 30.4832089151 -29.5820841081 30.4129931912 -29.5020743214 30.3693947015 -29.4553984948 30.354428658 -29.4402557649 29.9544748393 -29.0523472047 29.8997222784 -28.8598457904 29.9498048551 -28.7692028068 30.0189929312 -28.6970016621 30.0880069497 -28.6246341251 30.1568465105 -28.5521006153 30.2255112143 -28.4794015533 30.2940006631 -28.4065373607 30.3623144598 -28.3335084598 30.4304522082 -28.2603152743 30.4984135133 -28.1869582284 30.566197981 -28.1134377476 30.6338052183 -28.039754258 30.7012348331 -27.965908187 30.7684864346 -27.8918999626 30.8355596327 -27.8177300141 30.9024540386 -27.7433987715 30.9691692643 -27.6689066657 31.0357049232 -27.5942541288 31.1020606292 -27.5194415935 31.1682359978 -27.4444694936 31.2342306452 -27.3693382638 31.3000441888 -27.2940483399 31.3656762469 -27.2186001582 31.4311264391 -27.1429941564 31.4963943857 -27.0672307727 31.5614797084 -26.9913104464 31.6263820298 -26.9152336179 31.6911009736 -26.8390007281 31.7564678063 -26.7633130996 31.8511147584 -26.712173868 32.4518807444 -27.1107992285 32.4685048984 -27.1241004401 32.5194823131 -27.1625811403 32.6063933395 -27.2240489151 32.7307129937 -27.3062375184 32.8938078983 -27.4068113745 33.0969334041 -27.5233701974 33.3412308967 -27.653453723 33.6277252921 -27.7945465454 33.9573227249 -27.9440830506 34.3308084331 -28.0994524402 34.7488448425 -28.2580038374 35.2119698541 -28.417051468 35.7205953372 -28.5738799083 36.2750058298 -28.7257493922 36.8753574508 -28.8699011697 37.5216770226 -29.0035629084 38.1765654475 -29.0955297363 38.3931226819 -28.8091674773 38.6261696446 -28.4959474064 39.0373993166 -27.9299383206 39.2632738341 -27.6115071632 39.4687006609 -27.3170581897 39.1788633573 -26.7226415985 38.8520197582 -26.1492589069 38.5294044174 -25.6228359348 38.213645691 -25.1424904745 37.9073190629 -24.7072215477 37.6129422783 -24.3159119083 37.332970584 -23.9673307333 37.0697920826 -23.6601364986 36.8257232069 -23.3928800338 36.6030043218 -23.1640077521 36.4037954602 -22.9718650499 36.2301721989 -22.8146998711 36.0841216805 -22.69066643 35.9675387878 -22.5978290879 35.8822224759 -22.5341663769 35.8298722677 -22.4975751649 35.8120849177 -22.4858749553 35.3402203249 -22.1895982025 35.2466409442 -22.0126871035 35.2767833605 -21.9136121334 35.3294480491 -21.8286037471 35.3819078887 -21.7434687931 35.4341625752 -21.658207765 35.4862118057 -21.5728211573 35.5380552782 -21.487309465 35.5896926923 -21.4016731839 35.6411237484 -21.3159128106 35.6923481485 -21.2300288423 35.7433655955 -21.1440217771 35.7941757935 -21.0578921135 35.844778448 -20.9716403511 35.8951732656 -20.8852669898 35.945359954 -20.7987725306 35.9953382222 -20.7121574749 36.0451077806 -20.625422325 36.0946683404 -20.5385675838 36.1440196144 -20.4515937548 36.1931613164 -20.3645013424 36.2420931614 -20.2772908516 36.2908148657 -20.189962788 36.3393261469 -20.102517658 36.3876267236 -20.0149559685 36.4357163158 -19.9272782274 36.4835946447 -19.8394849429 36.5312614326 -19.7515766242 36.5787164032 -19.663553781 36.6269184709 -19.5759295801 36.7088647159 -19.5062296556 37.3793813965 -19.7712378235 37.3984077502 -19.7807920158 37.4562717735 -19.8078330199 37.5540634544 -19.8498877579 37.6927543974 -19.9044328335 37.8731957675 -19.9688995722 38.0961164356 -20.0406791378 38.3621213276 -20.1171277215 38.6716899804 -20.195571793 39.0251753061 -20.2733134073 39.422802568 -20.3476355579 39.8646685679 -20.4158075699 40.3507410487 -20.475090524 40.8808583108 -20.5227427024 41.4547290452 -20.5560250508 42.0719323826 -20.5722066454 42.7319181592 -20.5685701595 43.3916166794 -20.5223683318 43.5439035572 -20.1972389945 43.7067357701 -19.8424103456 43.9912991811 -19.2032704599 44.1460322382 -18.8448358345 44.2857506119 -18.5141106386 43.8786607902 -17.9929440399 43.4397465431 -17.5000457412 43.0147316313 -17.052201875 42.6060035539 -16.6480030461 42.215873399 -16.285934677 41.8465716047 -15.964380467 41.5002438622 -15.6816260154 41.1789471697 -15.435862599 40.884646041 -15.2251911018 40.6192088749 -15.0476260885 40.3844044908 -14.9011000166 40.1818988362 -14.7834675799 40.0132518696 -14.6925101773 39.8799146241 -14.6259405002 39.7832264564 -14.5814072309 39.7244124851 -14.5564998449 39.704581221 -14.548753511 39.181428601 -14.3570572814 39.0531122687 -14.2034683617 39.0619971563 -14.1002914566 39.0958367577 -14.006191103 39.1294496717 -13.9120095381 39.1628357035 -13.8177473078 39.1959946594 -13.7234049588 39.2289263471 -13.6289830381 39.2616305758 -13.5344820932 39.2941071558 -13.4399026719 39.3263558987 -13.3452453228 39.3583766177 -13.2505105946 39.390169127 -13.1556990367 39.4217332424 -13.0608111987 39.4530687807 -12.9658476309 39.4841755603 -12.8708088839 39.5150534008 -12.7756955088 39.5457021232 -12.680508057 39.5761215498 -12.5852470804 39.6063115042 -12.4899131315 39.6362718114 -12.3945067629 39.6660022976 -12.2990285279 39.6955027904 -12.2034789801 39.7247731188 -12.1078586735 39.7538131132 -12.0121681624 39.782622605 -11.9164080019 39.8112014273 -11.820578747 39.8395494143 -11.7246809535 39.8676664018 -11.6287151774 39.8965970429 -11.5329840021 39.9622611367 -11.4477696059 40.6732237153 -11.5675784528 40.6938207258 -11.5729680616 40.7560424223 -11.587387548 40.860440792 -11.6081912553 41.0074415641 -11.6327089217 41.197343246 -11.6582510371 41.4303163735 -11.682114234 41.7064029747 -11.7015867058 42.0255162491 -11.7139536442 42.3874404629 -11.7165026859 42.791831059 -11.7065293629 43.238214985 -11.6813425457 43.7259912351 -11.6382698737 44.2544316081 -11.5746631614 44.8226816794 -11.4879037758 45.4297619858 -11.3754079744 46.0745694217 -11.2346321957 46.7102460464 -11.052280954 46.7916069003 -10.7025942505 46.8771078143 -10.3216647382 47.0225681777 -9.63732753257 47.0993971972 -9.25455475216 47.1673007546 -8.90200761202 46.6607501935 -8.47686848707 46.128947957 -8.085996602 45.6201086654 -7.73630476769 45.1362746151 -7.42591799872 44.6793914934 -7.15287431223 44.2513049498 -6.91512899378 43.8537573433 -6.71055899182 43.488384667 -6.53696743428 43.1567136569 -6.39208826002 42.8601590875 -6.27359095836 42.6000212592 -6.17908540922 42.3774836803 -6.1061268165 42.1936109471 -6.05222072738 42.0493468262 -6.01482812963 41.9455125397 -5.99137061945 41.882805258 -5.97923563183 41.8617968012 -5.97578172559 41.310220434 -5.89704406435 41.1527751893 -5.77348989657 41.1400142361 -5.67072038246 41.1535497974 -5.57164069862 41.1668467402 -5.47252870903 41.1799049873 -5.37338498836 41.1927244632 -5.27421011147 41.2053050934 -5.17500465339 41.2176468049 -5.07576918935 41.2297495263 -4.97650429473 41.2416131874 -4.87721054511 41.2532377193 -4.7778885162 41.2646230547 -4.67853878391 41.2757691276 -4.57916192429 41.2866758732 -4.47975851355 41.2973432285 -4.38032912805 41.3077711314 -4.28087434432 41.3179595217 -4.18139473901 41.3279083401 -4.08189088894 41.3376175291 -3.98236337104 41.3470870322 -3.88281276241 41.3563167947 -3.78323964027 41.365306763 -3.68364458197 41.3740568849 -3.58402816497 41.3825671097 -3.48439096689 41.3908373881 -3.38473356545 41.3988676722 -3.28505653847 41.4066579153 -3.18536046393 41.4142080723 -3.08564591987 41.422602879 -2.98599168193 41.4691149856 -2.88898709189 Z" /></svg>