  0
SECTION
  2
HEADER
  9
$ACADVER
  1
AC1024
  9
$ACADMAINTVER
 70
6
  9
$DWGCODEPAGE
  3
ANSI_1252
  9
$LASTSAVEDBY
  1
ezdxf
  9
$INSBASE
 10
0.0
 20
0.0
 30
0.0
  9
$EXTMIN
 10
-100
 20
-100
 30
-100
  9
$EXTMAX
 10
100
 20
100
 30
100
  9
$LIMMIN
 10
0.0
 20
0.0
  9
$LIMMAX
 10
420.0
 20
297.0
  9
$ORTHOMODE
 70
0
  9
$REGENMODE
 70
1
  9
$FILLMODE
 70
1
  9
$QTEXTMODE
 70
0
  9
$MIRRTEXT
 70
1
  9
$LTSCALE
 40
1.0
  9
$ATTMODE
 70
1
  9
$TEXTSIZE
 40
2.5
  9
$TRACEWID
 40
1.0
  9
$TEXTSTYLE
  7
Standard
  9
$CLAYER
  8
0
  9
$CELTYPE
  6
ByLayer
  9
$CECOLOR
 62
256
  9
$CELTSCALE
 40
1.0
  9
$DISPSILH
 70
0
  9
$DIMSCALE
 40
1.0
  9
$DIMASZ
 40
2.5
  9
$DIMEXO
 40
0.625
  9
$DIMDLI
 40
3.75
  9
$DIMRND
 40
0.0
  9
$DIMDLE
 40
0.0
  9
$DIMEXE
 40
1.25
  9
$DIMTP
 40
0.0
  9
$DIMTM
 40
0.0
  9
$DIMTXT
 40
2.5
  9
$DIMCEN
 40
2.5
  9
$DIMTSZ
 40
0.0
  9
$DIMTOL
 70
0
  9
$DIMLIM
 70
0
  9
$DIMTIH
 70
0
  9
$DIMTOH
 70
0
  9
$DIMSE1
 70
0
  9
$DIMSE2
 70
0
  9
$DIMTAD
 70
1
  9
$DIMZIN
 70
8
  9
$DIMBLK
  1

  9
$DIMASO
 70
1
  9
$DIMSHO
 70
1
  9
$DIMPOST
  1

  9
$DIMAPOST
  1

  9
$DIMALT
 70
0
  9
$DIMALTD
 70
3
  9
$DIMALTF
 40
0.03937007874
  9
$DIMLFAC
 40
1.0
  9
$DIMTOFL
 70
1
  9
$DIMTVP
 40
0.0
  9
$DIMTIX
 70
0
  9
$DIMSOXD
 70
0
  9
$DIMSAH
 70
0
  9
$DIMBLK1
  1

  9
$DIMBLK2
  1

  9
$DIMSTYLE
  2
ISO-25
  9
$DIMCLRD
 70
0
  9
$DIMCLRE
 70
0
  9
$DIMCLRT
 70
0
  9
$DIMTFAC
 40
1.0
  9
$DIMGAP
 40
0.625
  9
$DIMJUST
 70
0
  9
$DIMSD1
 70
0
  9
$DIMSD2
 70
0
  9
$DIMTOLJ
 70
0
  9
$DIMTZIN
 70
8
  9
$DIMALTZ
 70
0
  9
$DIMALTTZ
 70
0
  9
$DIMUPT
 70
0
  9
$DIMDEC
 70
2
  9
$DIMTDEC
 70
2
  9
$DIMALTU
 70
2
  9
$DIMALTTD
 70
3
  9
$DIMTXSTY
  7
Standard
  9
$DIMAUNIT
 70
0
  9
$DIMADEC
 70
0
  9
$DIMALTRND
 40
0.0
  9
$DIMAZIN
 70
0
  9
$DIMDSEP
 70
44
  9
$DIMATFIT
 70
3
  9
$DIMFRAC
 70
0
  9
$DIMLDRBLK
  1

  9
$DIMLUNIT
 70
2
  9
$DIMLWD
 70
-2
  9
$DIMLWE
 70
-2
  9
$DIMTMOVE
 70
0
  9
$DIMFXL
 40
1.0
  9
$DIMFXLON
 70
0
  9
$DIMJOGANG
 40
0.785398163397
  9
$DIMTFILL
 70
0
  9
$DIMTFILLCLR
 70
0
  9
$DIMARCSYM
 70
0
  9
$DIMLTYPE
  6

  9
$DIMLTEX1
  6

  9
$DIMLTEX2
  6

  9
$DIMTXTDIRECTION
 70
0
  9
$LUNITS
 70
2
  9
$LUPREC
 70
4
  9
$SKETCHINC
 40
1.0
  9
$FILLETRAD
 40
10.0
  9
$AUNITS
 70
0
  9
$AUPREC
 70
2
  9
$MENU
  1
.
  9
$ELEVATION
 40
0.0
  9
$PELEVATION
 40
0.0
  9
$THICKNESS
 40
0.0
  9
$LIMCHECK
 70
0
  9
$CHAMFERA
 40
0.0
  9
$CHAMFERB
 40
0.0
  9
$CHAMFERC
 40
0.0
  9
$CHAMFERD
 40
0.0
  9
$SKPOLY
 70
0
  9
$TDCREATE
 40
2459053.4944560183
  9
$TDUCREATE
 40
2458532.153996898
  9
$TDUPDATE
 40
2459053.4944560183
  9
$TDUUPDATE
 40
2458532.1544311
  9
$TDINDWG
 40
0.0
  9
$TDUSRTIMER
 40
0.0
  9
$USRTIMER
 70
1
  9
$ANGBASE
 50
0.0
  9
$ANGDIR
 70
0
  9
$PDMODE
 70
0
  9
$PDSIZE
 40
0.0
  9
$PLINEWID
 40
0.0
  9
$SPLFRAME
 70
0
  9
$SPLINETYPE
 70
6
  9
$SPLINESEGS
 70
8
  9
$HANDSEED
  5
2E
  9
$SURFTAB1
 70
6
  9
$SURFTAB2
 70
6
  9
$SURFTYPE
 70
6
  9
$SURFU
 70
6
  9
$SURFV
 70
6
  9
$UCSBASE
  2

  9
$UCSNAME
  2

  9
$UCSORG
 10
0.0
 20
0.0
 30
0.0
  9
$UCSXDIR
 10
1.0
 20
0.0
 30
0.0
  9
$UCSYDIR
 10
0.0
 20
1.0
 30
0.0
  9
$UCSORTHOREF
  2

  9
$UCSORTHOVIEW
 70
0
  9
$UCSORGTOP
 10
0.0
 20
0.0
 30
0.0
  9
$UCSORGBOTTOM
 10
0.0
 20
0.0
 30
0.0
  9
$UCSORGLEFT
 10
0.0
 20
0.0
 30
0.0
  9
$UCSORGRIGHT
 10
0.0
 20
0.0
 30
0.0
  9
$UCSORGFRONT
 10
0.0
 20
0.0
 30
0.0
  9
$UCSORGBACK
 10
0.0
 20
0.0
 30
0.0
  9
$PUCSBASE
  2

  9
$PUCSNAME
  2

  9
$PUCSORG
 10
0.0
 20
0.0
 30
0.0
  9
$PUCSXDIR
 10
1.0
 20
0.0
 30
0.0
  9
$PUCSYDIR
 10
0.0
 20
1.0
 30
0.0
  9
$PUCSORTHOREF
  2

  9
$PUCSORTHOVIEW
 70
0
  9
$PUCSORGTOP
 10
0.0
 20
0.0
 30
0.0
  9
$PUCSORGBOTTOM
 10
0.0
 20
0.0
 30
0.0
  9
$PUCSORGLEFT
 10
0.0
 20
0.0
 30
0.0
  9
$PUCSORGRIGHT
 10
0.0
 20
0.0
 30
0.0
  9
$PUCSORGFRONT
 10
0.0
 20
0.0
 30
0.0
  9
$PUCSORGBACK
 10
0.0
 20
0.0
 30
0.0
  9
$USERI1
 70
0
  9
$USERI2
 70
0
  9
$USERI3
 70
0
  9
$USERI4
 70
0
  9
$USERI5
 70
0
  9
$USERR1
 40
0.0
  9
$USERR2
 40
0.0
  9
$USERR3
 40
0.0
  9
$USERR4
 40
0.0
  9
$USERR5
 40
0.0
  9
$WORLDVIEW
 70
1
  9
$SHADEDGE
 70
3
  9
$SHADEDIF
 70
70
  9
$TILEMODE
 70
1
  9
$MAXACTVP
 70
64
  9
$PINSBASE
 10
0.0
 20
0.0
 30
0.0
  9
$PLIMCHECK
 70
0
  9
$PEXTMIN
 10
1e+20
 20
1e+20
 30
1e+20
  9
$PEXTMAX
 10
-1e+20
 20
-1e+20
 30
-1e+20
  9
$PLIMMIN
 10
0.0
 20
0.0
  9
$PLIMMAX
 10
420.0
 20
297.0
  9
$UNITMODE
 70
0
  9
$VISRETAIN
 70
1
  9
$PLINEGEN
 70
0
  9
$PSLTSCALE
 70
1
  9
$TREEDEPTH
 70
3020
  9
$CMLSTYLE
  2
Standard
  9
$CMLJUST
 70
0
  9
$CMLSCALE
 40
20.0
  9
$PROXYGRAPHICS
 70
1
  9
$MEASUREMENT
 70
1
  9
$CELWEIGHT
370
-1
  9
$ENDCAPS
280
0
  9
$JOINSTYLE
280
0
  9
$LWDISPLAY
290
0
  9
$INSUNITS
 70
4
  9
$HYPERLINKBASE
  1

  9
$STYLESHEET
  1

  9
$XEDIT
290
1
  9
$CEPSNTYPE
380
0
  9
$PSTYLEMODE
290
1
  9
$FINGERPRINTGUID
  2
FD957C00-CC00-11EA-9049-708BCDAABA80
  9
$VERSIONGUID
  2
FD96DB90-CC00-11EA-B4C8-708BCDAABA80
  9
$EXTNAMES
290
1
  9
$PSVPSCALE
 40
0.0
  9
$OLESTARTUP
290
0
  9
$SORTENTS
280
127
  9
$INDEXCTL
280
0
  9
$HIDETEXT
280
1
  9
$XCLIPFRAME
280
2
  9
$HALOGAP
280
0
  9
$OBSCOLOR
 70
257
  9
$OBSLTYPE
280
0
  9
$INTERSECTIONDISPLAY
280
0
  9
$INTERSECTIONCOLOR
 70
257
  9
$DIMASSOC
280
2
  9
$PROJECTNAME
  1

  9
$CAMERADISPLAY
290
0
  9
$LENSLENGTH
 40
50.0
  9
$CAMERAHEIGHT
 40
0.0
  9
$STEPSPERSEC
 40
24.0
  9
$STEPSIZE
 40
100.0
  9
$3DDWFPREC
 40
2.0
  9
$PSOLWIDTH
 40
0.005
  9
$PSOLHEIGHT
 40
0.08
  9
$LOFTANG1
 40
1.570796326795
  9
$LOFTANG2
 40
1.570796326795
  9
$LOFTMAG1
 40
0.0
  9
$LOFTMAG2
 40
0.0
  9
$LOFTPARAM
 70
7
  9
$LOFTNORMALS
280
1
  9
$LATITUDE
 40
37.795
  9
$LONGITUDE
 40
-122.394
  9
$NORTHDIRECTION
 40
0.0
  9
$TIMEZONE
 70
-8000
  9
$LIGHTGLYPHDISPLAY
280
1
  9
$TILEMODELIGHTSYNCH
280
1
  9
$CMATERIAL
347
20
  9
$SOLIDHIST
280
0
  9
$SHOWHIST
280
1
  9
$DWFFRAME
280
2
  9
$DGNFRAME
280
2
  9
$REALWORLDSCALE
290
1
  9
$INTERFERECOLOR
 62
256
  9
$CSHADOW
280
0
  9
$SHADOWPLANELOCATION
 40
0.0
  0
ENDSEC
  0
SECTION
  2
CLASSES
  0
CLASS
  1
ACDBDICTIONARYWDFLT
  2
AcDbDictionaryWithDefault
  3
ObjectDBX Classes
 90
0
 91
0
280
0
281
0
  0
CLASS
  1
SUN
  2
AcDbSun
  3
SCENEOE
 90
1153
 91
0
280
0
281
0
  0
CLASS
  1
VISUALSTYLE
  2
AcDbVisualStyle
  3
ObjectDBX Classes
 90
4095
 91
0
280
0
281
0
  0
CLASS
  1
MATERIAL
  2
AcDbMaterial
  3
ObjectDBX Classes
 90
1153
 91
0
280
0
281
0
  0
CLASS
  1
SCALE
  2
AcDbScale
  3
ObjectDBX Classes
 90
1153
 91
0
280
0
281
0
  0
CLASS
  1
TABLESTYLE
  2
AcDbTableStyle
  3
ObjectDBX Classes
 90
4095
 91
0
280
0
281
0
  0
CLASS
  1
MLEADERSTYLE
  2
AcDbMLeaderStyle
  3
ACDB_MLEADERSTYLE_CLASS
 90
4095
 91
0
280
0
281
0
  0
CLASS
  1
DICTIONARYVAR
  2
AcDbDictionaryVar
  3
ObjectDBX Classes
 90
0
 91
0
280
0
281
0
  0
CLASS
  1
CELLSTYLEMAP
  2
AcDbCellStyleMap
  3
ObjectDBX Classes
 90
1152
 91
0
280
0
281
0
  0
CLASS
  1
MENTALRAYRENDERSETTINGS
  2
AcDbMentalRayRenderSettings
  3
SCENEOE
 90
1024
 91
0
280
0
281
0
  0
CLASS
  1
ACDBDETAILVIEWSTYLE
  2
AcDbDetailViewStyle
  3
ObjectDBX Classes
 90
1025
 91
0
280
0
281
0
  0
CLASS
  1
ACDBSECTIONVIEWSTYLE
  2
AcDbSectionViewStyle
  3
ObjectDBX Classes
 90
1025
 91
0
280
0
281
0
  0
CLASS
  1
RASTERVARIABLES
  2
AcDbRasterVariables
  3
ISM
 90
0
 91
0
280
0
281
0
  0
CLASS
  1
ACDBPLACEHOLDER
  2
AcDbPlaceHolder
  3
ObjectDBX Classes
 90
0
 91
0
280
0
281
0
  0
CLASS
  1
LAYOUT
  2
AcDbLayout
  3
ObjectDBX Classes
 90
0
 91
0
280
0
281
0
  0
ENDSEC
  0
SECTION
  2
TABLES
  0
TABLE
  2
VPORT
  5
8
330
0
100
AcDbSymbolTable
 70
1
  0
VPORT
  5
23
330
8
100
AcDbSymbolTableRecord
100
AcDbViewportTableRecord
  2
*Active
 70
0
 10
0.0
 20
0.0
 11
1.0
 21
1.0
 12
70.0
 22
50.0
 13
0.0
 23
0.0
 14
0.5
 24
0.5
 15
0.5
 25
0.5
 16
0.0
 26
0.0
 36
1.0
 17
0.0
 27
0.0
 37
0.0
 40
1.0
 41
1.34
 42
50.0
 43
0.0
 44
0.0
 50
0.0
 51
0.0
 71
0
 72
1000
 73
1
 74
3
 75
0
 76
0
 77
0
 78
0
281
0
 65
0
146
0.0
  0
ENDTAB
  0
TABLE
  2
LTYPE
  5
2
330
0
100
AcDbSymbolTable
 70
3
  0
LTYPE
  5
24
330
2
100
AcDbSymbolTableRecord
100
AcDbLinetypeTableRecord
  2
ByBlock
 70
0
  3

 72
65
 73
0
 40
0.0
  0
LTYPE
  5
25
330
2
100
AcDbSymbolTableRecord
100
AcDbLinetypeTableRecord
  2
ByLayer
 70
0
  3

 72
65
 73
0
 40
0.0
  0
LTYPE
  5
26
330
2
100
AcDbSymbolTableRecord
100
AcDbLinetypeTableRecord
  2
Continuous
 70
0
  3

 72
65
 73
0
 40
0.0
  0
ENDTAB
  0
TABLE
  2
LAYER
  5
1
330
0
100
AcDbSymbolTable
 70
2
  0
LAYER
  5
27
330
1
100
AcDbSymbolTableRecord
100
AcDbLayerTableRecord
  2
0
 70
0
 62
7
  6
Continuous
370
-3
390
13
347
21
  0
LAYER
  5
28
330
1
100
AcDbSymbolTableRecord
100
AcDbLayerTableRecord
  2
Defpoints
 70
0
 62
7
  6
Continuous
290
0
370
-3
390
13
347
21
  0
ENDTAB
  0
TABLE
  2
STYLE
  5
5
330
0
100
AcDbSymbolTable
 70
1
  0
STYLE
  5
29
330
5
100
AcDbSymbolTableRecord
100
AcDbTextStyleTableRecord
  2
Standard
 70
0
 40
0.0
 41
1.0
 50
0.0
 71
0
 42
2.5
  3
txt
  4

  0
ENDTAB
  0
TABLE
  2
VIEW
  5
7
330
0
100
AcDbSymbolTable
 70
0
  0
ENDTAB
  0
TABLE
  2
UCS
  5
6
330
0
100
AcDbSymbolTable
 70
0
  0
ENDTAB
  0
TABLE
  2
APPID
  5
3
330
0
100
AcDbSymbolTable
 70
1
  0
APPID
  5
2A
330
3
100
AcDbSymbolTableRecord
100
AcDbRegAppTableRecord
  2
ACAD
 70
0
  0
ENDTAB
  0
TABLE
  2
DIMSTYLE
  5
4
330
0
100
AcDbSymbolTable
 70
1
100
AcDbDimStyleTable
  0
DIMSTYLE
105
2B
330
4
100
AcDbSymbolTableRecord
100
AcDbDimStyleTableRecord
  2
Standard
 70
0
 40
1.0
 41
2.5
 42
0.625
 43
3.75
 44
1.25
 45
0.0
 46
0.0
 47
0.0
 48
0.0
 49
2.5
140
2.5
141
2.5
142
0.0
143
0.03937007874
144
1.0
145
0.0
146
1.0
147
0.625
148
0.0
 69
0
 70
0
 71
0
 72
0
 73
0
 74
0
 75
0
 76
0
 77
1
 78
8
 79
0
170
0
171
3
172
1
173
0
174
0
175
0
176
0
177
0
178
0
179
0
271
0
272
2
273
2
274
3
275
0
276
0
277
2
278
44
279
0
280
0
281
0
282
0
283
0
284
8
285
0
286
0
288
0
289
3
290
0
371
-2
372
-2
  0
ENDTAB
  0
TABLE
  2
BLOCK_RECORD
  5
9
330
0
100
AcDbSymbolTable
 70
2
  0
BLOCK_RECORD
  5
17
330
9
100
AcDbSymbolTableRecord
100
AcDbBlockTableRecord
  2
*Model_Space
340
1A
 70
0
280
1
281
0
  0
BLOCK_RECORD
  5
1B
330
9
100
AcDbSymbolTableRecord
100
AcDbBlockTableRecord
  2
*Paper_Space
340
1E
 70
0
280
1
281
0
  0
ENDTAB
  0
ENDSEC
  0
SECTION
  2
BLOCKS
  0
BLOCK
  5
18
330
17
100
AcDbEntity
  8
0
100
AcDbBlockBegin
  2
*Model_Space
 70
0
 10
0.0
 20
0.0
 30
0.0
  3
*Model_Space
  1

  0
ENDBLK
  5
19
330
17
100
AcDbEntity
  8
0
100
AcDbBlockEnd
  0
BLOCK
  5
1C
330
1B
100
AcDbEntity
  8
0
100
AcDbBlockBegin
  2
*Paper_Space
 70
0
 10
0.0
 20
0.0
 30
0.0
  3
*Paper_Space
  1

  0
ENDBLK
  5
1D
330
1B
100
AcDbEntity
  8
0
100
AcDbBlockEnd
  0
ENDSEC
  0
SECTION
  2
ENTITIES
  0
LWPOLYLINE
  5
2D
330
17
100
AcDbEntity
  8
0
100
AcDbPolyline
 90
1600
 70
1
 10
10.96493954695776
 20
-3.562013718609426
 10
11.051060153246052
 20
-3.2851043346197306
 10
11.15886654449358
 20
-2.8978506590543747
 10
11.253107151389173
 20
-2.5070740793510327
 10
11.33386049299883
 20
-2.112268427805784
 10
11.335330261918562
 20
-2.1054216930303467
 10
11.337037610616619
 20
-2.098618696579335
 10
11.338984220183544
 20
-2.0918592958911053
 10
11.341172703771607
 20
-2.0851435157503975
 10
11.343606655483017
 20
-2.0784715543222836
 10
11.345891762757745
 20
-2.0727878900623686
 10
11.348364196636895
 20
-2.0671370503138764
 10
11.35102821791702
 20
-2.0615195038222685
 10
11.353888827843447
 20
-2.055935844364253
 10
11.35695185277659
 20
-2.050386804047436
 10
11.360224048627607
 20
-2.0448732698966365
 10
11.363713229888726
 20
-2.039396304518683
 10
11.367428429697103
 20
-2.033957171905501
 10
11.371380099614566
 20
-2.0285573698079693
 10
11.375580360979008
 20
-2.0231986706401823
 10
11.380043324254503
 20
-2.017883173633532
 10
11.384785499523764
 20
-2.012613372076993
 10
11.38896452392836
 20
-2.008258906467355
 10
11.393364030608016
 20
-2.0039402621787348
 10
11.397999287157786
 20
-1.9996598207990828
 10
11.402888165415085
 20
-1.9954203924288088
 10
11.408051779005483
 20
-1.9912253211519102
 10
11.413515341615996
 20
-1.9870786272286691
 10
11.419309347390215
 20
-1.9829852029277921
 10
11.424207340126511
 20
-1.9797528290136928
 10
11.429363933058424
 20
-1.9765621668362494
 10
11.434807386080113
 20
-1.9734178158459597
 10
11.440572476542732
 20
-1.9703254576270441
 10
11.446702823662626
 20
-1.9672922437537772
 10
11.451573356026378
 20
-1.965061586310747
 10
11.456710349680623
 20
-1.9628742461444226
 10
11.46215127433269
 20
-1.960736418681387
 10
11.467944229351172
 20
-1.9586560747281703
 10
11.474152747774992
 20
-1.9566437654568303
 10
11.480863828053014
 20
-1.9547139692244795
 10
11.48567648348295
 20
-1.9534831825250858
 10
11.490818131411652
 20
-1.9523066950479269
 10
11.496359250440985
 20
-1.9511962924951263
 10
11.502401076871095
 20
-1.9501689250756162
 10
11.509098625869289
 20
-1.9492505790723287
 10
11.512767885381672
 20
-1.9488448056171654
 10
11.516712221326745
 20
-1.948484947082509
 10
11.52100268600095
 20
-1.948182944682582
 10
11.52574819573126
 20
-1.9479571136480045
 10
11.531131868017509
 20
-1.947838264406035
 10
11.5375102960013
 20
-1.9478864300677428
 10
11.545802852211839
 20
-1.9482564807661074
 10
11.56566862033422
 20
-1.9505769312222248
 10
13.899104941149977
 20
-2.344116397661456
 10
13.916787355701372
 20
-2.3464917729470183
 10
13.953415319423689
 20
-2.35002557128526
 10
14.004684817969865
 20
-2.35314582009759
 10
14.072891249888457
 20
-2.354948707164428
 10
14.157984663864482
 20
-2.354265883355732
 10
14.259854551459078
 20
-2.3499315764775868
 10
14.378329989735345
 20
-2.3407853819305813
 10
14.513179904438227
 20
-2.3256750457510433
 10
14.664113453343418
 20
-2.3034592350365886
 10
14.830780529188656
 20
-2.2730102907759373
 10
15.012772381400366
 20
-2.2332169581294687
 10
15.209622355628968
 20
-2.182987089241293
 10
15.420806749908417
 20
-2.1212503137059384
 10
15.64574578605921
 20
-2.0469606718627826
 10
15.883804694760016
 20
-1.9590992061490973
 10
16.134294912521426
 20
-1.8566765058080303
 10
16.396475388606152
 20
-1.7387352003208174
 10
16.66955399975407
 20
-1.604352397012889
 10
16.9526890703874
 20
-1.4526420583712967
 10
17.24499099579244
 20
-1.282757314705752
 10
17.545523965598278
 20
-1.0938927078875618
 10
17.85330778470199
 20
-0.8852863620096314
 10
17.966828413911333
 20
-0.8043934970344289
 10
17.982952779351695
 20
-0.7832045298688741
 10
17.9991222475214
 20
-0.17775915948343401
 10
17.999999752468078
 20
-0.0029851547733050765
 10
17.999999752468078
 20
0.0029851547733050765
 10
17.9991222475214
 20
0.17775915948343401
 10
17.982952779351695
 20
0.7832045298688741
 10
17.966828413911333
 20
0.8043934970344289
 10
17.85330778470199
 20
0.8852863620096314
 10
17.545523965598278
 20
1.0938927078875618
 10
17.24499099579244
 20
1.282757314705752
 10
16.9526890703874
 20
1.4526420583712967
 10
16.66955399975407
 20
1.604352397012889
 10
16.396475388606152
 20
1.7387352003208174
 10
16.134294912521426
 20
1.8566765058080303
 10
15.883804694760016
 20
1.9590992061490973
 10
15.64574578605921
 20
2.0469606718627826
 10
15.420806749908417
 20
2.1212503137059384
 10
15.209622355628968
 20
2.182987089241293
 10
15.012772381400366
 20
2.2332169581294687
 10
14.830780529188656
 20
2.2730102907759373
 10
14.664113453343418
 20
2.3034592350365886
 10
14.513179904438227
 20
2.3256750457510433
 10
14.378329989735345
 20
2.3407853819305813
 10
14.259854551459078
 20
2.3499315764775868
 10
14.157984663864482
 20
2.354265883355732
 10
14.072891249888457
 20
2.354948707164428
 10
14.004684817969865
 20
2.35314582009759
 10
13.953415319423689
 20
2.35002557128526
 10
13.916787355701372
 20
2.3464917729470183
 10
13.899104941149977
 20
2.344116397661456
 10
11.56566862033422
 20
1.9505769312222248
 10
11.545802852211839
 20
1.9482564807661074
 10
11.5375102960013
 20
1.9478864300677428
 10
11.531131868017509
 20
1.947838264406035
 10
11.52574819573126
 20
1.9479571136480045
 10
11.52100268600095
 20
1.948182944682582
 10
11.516712221326745
 20
1.948484947082509
 10
11.512767885381672
 20
1.9488448056171654
 10
11.509098625869289
 20
1.9492505790723287
 10
11.502401076871095
 20
1.9501689250756162
 10
11.496359250440985
 20
1.9511962924951263
 10
11.490818131411652
 20
1.9523066950479269
 10
11.48567648348295
 20
1.9534831825250858
 10
11.480863828053014
 20
1.9547139692244795
 10
11.474152747774992
 20
1.9566437654568303
 10
11.467944229351172
 20
1.9586560747281703
 10
11.46215127433269
 20
1.960736418681387
 10
11.456710349680623
 20
1.9628742461444226
 10
11.451573356026378
 20
1.965061586310747
 10
11.446702823662626
 20
1.9672922437537772
 10
11.440572476542732
 20
1.9703254576270441
 10
11.434807386080113
 20
1.9734178158459597
 10
11.429363933058424
 20
1.9765621668362494
 10
11.424207340126511
 20
1.9797528290136928
 10
11.419309347390215
 20
1.9829852029277921
 10
11.413515341615996
 20
1.9870786272286691
 10
11.408051779005483
 20
1.9912253211519102
 10
11.402888165415085
 20
1.9954203924288088
 10
11.397999287157786
 20
1.9996598207990828
 10
11.393364030608016
 20
2.0039402621787348
 10
11.38896452392836
 20
2.008258906467355
 10
11.384785499523764
 20
2.012613372076993
 10
11.380043324254503
 20
2.017883173633532
 10
11.375580360979008
 20
2.0231986706401823
 10
11.371380099614566
 20
2.0285573698079693
 10
11.367428429697103
 20
2.033957171905501
 10
11.363713229888726
 20
2.039396304518683
 10
11.360224048627607
 20
2.0448732698966365
 10
11.35695185277659
 20
2.050386804047436
 10
11.353888827843447
 20
2.055935844364253
 10
11.35102821791702
 20
2.0615195038222685
 10
11.348364196636895
 20
2.0671370503138764
 10
11.345891762757745
 20
2.0727878900623686
 10
11.343606655483017
 20
2.0784715543222836
 10
11.341172703771607
 20
2.0851435157503975
 10
11.338984220183544
 20
2.0918592958911053
 10
11.337037610616619
 20
2.098618696579335
 10
11.335330261918562
 20
2.1054216930303467
 10
11.33386049299883
 20
2.112268427805784
 10
11.253107151389173
 20
2.5070740793510327
 10
11.15886654449358
 20
2.8978506590543747
 10
11.051060153246052
 20
3.2851043346197306
 10
10.96493954695776
 20
3.562013718609426
 10
10.964521568044857
 20
3.563300125428555
 10
10.871431349967422
 20
3.837944945272861
 10
10.731026553195537
 20
4.214606756817566
 10
10.577576095243362
 20
4.5861448897016075
 10
10.410845981458122
 20
4.9530149945484805
 10
10.40801063976463
 20
4.959418027833084
 10
10.405393212891378
 20
4.965925321959864
 10
10.402994977073556
 20
4.972537980383841
 10
10.400818060963864
 20
4.979257519026106
 10
10.398865488730573
 20
4.986085890128024
 10
10.397373405318838
 20
4.992027223460608
 10
10.396052166077308
 20
4.998052109021059
 10
10.39490549358447
 20
5.004162672019714
 10
10.393937782945981
 20
5.010361371739364
 10
10.393154178108485
 20
5.016651040541247
 10
10.392560666099033
 20
5.023034931832151
 10
10.392164193559253
 20
5.029516779188379
 10
10.39197281140644
 20
5.0361008695637866
 10
10.391995855487599
 20
5.042792134526364
 10
10.392244173969953
 20
5.049596264906639
 10
10.392730416355985
 20
5.056519856313428
 10
10.393469405101682
 20
5.063570596016708
 10
10.394290816197946
 20
5.069549801610319
 10
10.395311656445905
 20
5.0756296233761375
 10
10.396545677451696
 20
5.081817108636248
 10
10.398008989571085
 20
5.088120488774129
 10
10.399720639689225
 20
5.094549468646727
 10
10.40170338915711
 20
5.101115616028537
 10
10.403984783858526
 20
5.107832896998916
 10
10.406047401503914
 20
5.113326910323828
 10
10.408343748645956
 20
5.1189391795261425
 10
10.410899391508462
 20
5.124682594321262
 10
10.413745805110944
 20
5.13057299982512
 10
10.416922481730602
 20
5.136630249024675
 10
10.419551677636601
 20
5.141297715898942
 10
10.422421906511367
 20
5.146086760377062
 10
10.425567123565287
 20
5.151014394395019
 10
10.429030927127492
 20
5.156102441534373
 10
10.432870918329506
 20
5.161379709500934
 10
10.437165990559736
 20
5.166885621462958
 10
10.440336072320001
 20
5.170710156705299
 10
10.443804230884835
 20
5.174684139892962
 10
10.447634412102776
 20
5.178839462475414
 10
10.451918480943924
 20
5.183221916649794
 10
10.456797121666888
 20
5.187901594700814
 10
10.459527107316461
 20
5.190386608950121
 10
10.462506622587968
 20
5.1929961631188295
 10
10.465800168866329
 20
5.195762360053691
 10
10.469506626733487
 20
5.19873440183261
 10
10.473792251273531
 20
5.201994996062164
 10
10.478980818975435
 20
5.2057051751249785
 10
10.48590714821967
 20
5.210280040065584
 10
10.503342818793769
 20
5.220079561739777
 10
12.622449152193498
 20
6.2732589019723
 10
12.638150736628672
 20
6.281730645496492
 10
12.66986049629717
 20
6.300401119483642
 10
12.71317242814948
 20
6.328012240305663
 10
12.769412301126733
 20
6.36664440882289
 10
12.837852965378056
 20
6.4172134786906145
 10
12.917719793995266
 20
6.480597624194666
 10
13.008192438707457
 20
6.557635166394729
 10
13.108406678628587
 20
6.649122476289946
 10
13.217456358808532
 20
6.755811958824395
 10
13.33439541518582
 20
6.878410121416579
 10
13.458239982393707
 20
7.017575730557821
 10
13.58797058072986
 20
7.173918059879306
 10
13.722534378464943
 20
7.347995232937099
 10
13.860847525535757
 20
7.540312663808559
 10
14.001797554545758
 20
7.751321598432797
 10
14.14424584487897
 20
7.981417759462179
 10
14.287030145623323
 20
8.230940097221723
 10
14.428967152896176
 20
8.500169649198838
 10
14.568855137068267
 20
8.789328510307326
 10
14.705476615293367
 20
9.09857891598756
 10
14.837601064668515
 20
9.42802244001895
 10
14.963987671275373
 20
9.77769930873207
 10
15.008280156469757
 20
9.909868762900901
 10
15.008870479723301
 20
9.936488661639507
 10
14.66607999448128
 20
10.435808430374527
 10
14.564060328443082
 20
10.57771935482646
 10
14.560551068539963
 20
10.582549436711346
 10
14.457111569672744
 20
10.723428792230335
 10
14.088158335352132
 20
11.203740211110228
 10
14.062658887276145
 20
11.211404781431996
 10
13.923271135985537
 20
11.210122732240398
 10
13.55165306209534
 20
11.197978021426685
 10
13.197504951584694
 20
11.174123850499011
 10
12.861171979527407
 20
11.139752734239694
 10
12.542937796007665
 20
11.09606635749806
 10
12.243024328842573
 20
11.044272748776663
 10
11.96159170809521
 20
10.985583451972964
 10
11.698738312241096
 20
10.921210701314974
 10
11.454500935648486
 20
10.852364604516863
 10
11.228855076830676
 20
10.780250339159684
 10
11.021715346728051
 20
10.706065367273919
 10
10.832935996077786
 20
10.630996673063953
 10
10.662311560731577
 20
10.556218028670326
 10
10.509577623585715
 20
10.482887292813427
 10
10.374411691594414
 20
10.4121437471026
 10
10.256434186146258
 20
10.345105474727314
 10
10.155209544895412
 20
10.282866786172026
 10
10.070247432954433
 20
10.226495696514485
 10
10.001004061173779
 20
10.177031458777558
 10
9.946883609055398
 20
10.135482157708308
 10
9.90723974967383
 20
10.102822368254582
 10
9.879684219100922
 20
10.07843408844677
 10
9.866775055788773
 20
10.0661189069745
 10
8.210302111525102
 20
8.376179334128802
 10
8.195594294064566
 20
8.3626252447474
 10
8.189102985506528
 20
8.357451625199282
 10
8.183971039935864
 20
8.353663512458734
 10
8.179545699732468
 20
8.350595220342223
 10
8.17557376156204
 20
8.347988580852965
 10
8.17192519017001
 20
8.34571103406587
 10
8.16852263581934
 20
8.343683743237376
 10
8.165315634864331
 20
8.341855284230256
 10
8.1593574136669
 20
8.338661521225989
 10
8.153865601990002
 20
8.33594138245531
 10
8.148730064282775
 20
8.333582728944483
 10
8.143878861740781
 20
8.331512342482203
 10
8.139261903439271
 20
8.329679261952382
 10
8.132698219678431
 20
8.327295825885663
 10
8.126492617050925
 20
8.325274542716006
 10
8.120583222497928
 20
8.323552562801247
 10
8.114924838534574
 20
8.322084006280566
 10
8.10948323707678
 20
8.320834152536515
 10
8.104231746074923
 20
8.319775965222329
 10
8.097489312691755
 20
8.31862655916487
 10
8.091007613977503
 20
8.317739694364606
 10
8.084755564834753
 20
8.317083946344335
 10
8.078708369346812
 20
8.316634276991742
 10
8.072845868268221
 20
8.316370354524192
 10
8.065752364695939
 20
8.316276373203005
 10
8.058894884160352
 20
8.316419717529943
 10
8.052251631984458
 20
8.316778505568594
 10
8.045804572916675
 20
8.317334664626689
 10
8.039538591278362
 20
8.318073079005705
 10
8.033440880184907
 20
8.318980970484196
 10
8.02750048775472
 20
8.320047438249823
 10
8.020566475734142
 20
8.321523416578987
 10
8.013831491849881
 20
8.323200479996057
 10
8.007283644682934
 20
8.325066907004748
 10
8.00091275252532
 20
8.3271127053685
 10
7.994710050807551
 20
8.32932931643054
 10
7.9886679643943745
 20
8.331709385211045
 10
7.982779928280126
 20
8.33424657957427
 10
7.977040244992418
 20
8.33693544660994
 10
7.971443970264418
 20
8.339771297674963
 10
7.965986820793586
 20
8.342750115833113
 10
7.960665099500653
 20
8.345868481050701
 10
7.955475634850468
 20
8.349123509671301
 10
7.94958484602114
 20
8.3530905989317
 10
7.943866889082139
 20
8.357237420818072
 10
7.9383189728222066
 20
8.36156170245123
 10
7.932938997724854
 20
8.366061887807533
 10
7.927725519963625
 20
8.370737104101543
 10
7.630333754748829
 20
8.64267596240543
 10
7.324398791719168
 20
8.903427617488827
 10
7.0095595897043115
 20
9.153355415277193
 10
6.777123303520673
 20
9.326759390532011
 10
6.776029020520111
 20
9.327554433669592
 10
6.53928527736239
 20
9.495029703022075
 10
6.20429915275443
 20
9.717227640800159
 10
5.861770489302982
 20
9.927612388219872
 10
5.511242156640669
 20
10.1264150357731
 10
5.505184708491146
 20
10.129928626483247
 10
5.499242274149102
 20
10.133654653104157
 10
5.4934152375159035
 20
10.137594758501915
 10
5.4877044296717
 20
10.141751420273112
 10
5.4821111497213355
 20
10.1461279953757
 10
5.47741180077237
 20
10.150057610386396
 10
5.472801556893153
 20
10.154155240253045
 10
5.468282180545654
 20
10.158424792383657
 10
5.463855781914878
 20
10.162870839758092
 10
5.45952485772092
 20
10.167498697340699
 10
5.455292339265874
 20
10.172314516279068
 10
5.451161651959789
 20
10.177325400233379
 10
5.447136789323316
 20
10.182539549632608
 10
5.443222405512411
 20
10.187966441672257
 10
5.439423931892451
 20
10.193617056723642
 10
5.435747725324327
 20
10.199504165937391
 10
5.432201258962905
 20
10.205642700866589
 10
5.429351305630804
 20
10.210962793133136
 10
5.42660355316943
 20
10.21648150710715
 10
5.423964984549859
 20
10.22221262718325
 10
5.421443795037879
 20
10.228172282120077
 10
5.4190496895154805
 20
10.23437951879003
 10
5.4167942829351805
 20
10.240857074505698
 10
5.41469165132961
 20
10.247632439126878
 10
5.413131044049345
 20
10.253289565507131
 10
5.411690018843226
 20
10.259179745653048
 10
5.410381682836175
 20
10.265328435012751
 10
5.409222186328415
 20
10.271766953106596
 10
5.408231809950392
 20
10.278534574316534
 10
5.407615405925629
 20
10.283856036917433
 10
5.40712254014625
 20
10.289417533490344
 10
5.406770683589417
 20
10.295252785352483
 10
5.406582280464935
 20
10.301405074607104
 10
5.406586998322477
 20
10.3079315642734
 10
5.406825490897101
 20
10.314910520734669
 10
5.4071421355023945
 20
10.319867962048555
 10
5.407612086009965
 20
10.325121514439754
 10
5.408268330374331
 20
10.330734565059583
 10
5.409158272939345
 20
10.336798157448357
 10
5.410354530449805
 20
10.343451689588028
 10
5.411102480507231
 20
10.34706675365077
 10
5.411979101541453
 20
10.350929242456568
 10
5.4130177066891605
 20
10.355103040716823
 10
5.414269371765782
 20
10.359686074296519
 10
5.415819985648346
 20
10.36484297734149
 10
5.417836836559163
 20
10.370894338831182
 10
5.420751316483068
 20
10.378666676497383
 10
5.429097055966226
 20
10.396843086095839
 10
6.524446808366395
 20
12.494462521280479
 10
6.532170091108339
 20
12.510545465532159
 10
6.546849596304742
 20
12.54428872536768
 10
6.565660275614022
 20
12.59208470613752
 10
6.588451869695605
 20
12.656395754924343
 10
6.614097776690837
 20
12.737535404941097
 10
6.641455132372551
 20
12.835758799836373
 10
6.669367508292704
 20
12.951261966978826
 10
6.696667639938947
 20
13.084181207749044
 10
6.722180180027211
 20
13.234592606017463
 10
6.744724472012768
 20
13.402511655789251
 10
6.763117338865435
 20
13.587893008798396
 10
6.776175882125592
 20
13.790630342632713
 10
6.782720286236772
 20
14.010556349770363
 10
6.781576623137522
 20
14.24744284770629
 10
6.771579652090181
 20
14.501001010144526
 10
6.751575609727221
 20
14.77088171902987
 10
6.720424985306744
 20
15.056676036989929
 10
6.677005276187742
 20
15.357915799556883
 10
6.620213718562563
 20
15.67407432633703
 10
6.54896998851899
 20
16.004567250096798
 10
6.462218868547005
 20
16.34875346253494
 10
6.358932874655951
 20
16.70593617531447
 10
6.317078991937324
 20
16.83889797945896
 10
6.301909789585544
 20
16.86078091322955
 10
5.731093665274181
 20
17.063251899912107
 10
5.565144873156785
 20
17.118094594340125
 10
5.559466771358182
 20
17.11993952145171
 10
5.392975651358442
 20
17.173113102284486
 10
4.812166246138194
 20
17.344827932831397
 10
4.787031637897245
 20
17.336040500955622
 10
4.6750181479029695
 20
17.253073236813165
 10
4.381511292618573
 20
17.024816336055114
 10
4.109020582566633
 20
16.7973548699025
 10
3.8571243276457094
 20
16.5718564918981
 10
3.625345672962028
 20
16.349460110843214
 10
3.4131541005529993
 20
16.13127348822405
 10
3.219967030725533
 20
15.918370905732623
 10
3.045151519936659
 20
15.711790906877605
 10
2.888026051987512
 20
15.51253411655181
 10
2.7478624191504295
 20
15.321561142287011
 10
2.62388768970335
 20
15.139790560786032
 10
2.5152862582056907
 20
14.96809699317506
 10
2.421201974715974
 20
14.807309272267062
 10
2.340740349023617
 20
14.658208704969907
 10
2.272970825845829
 20
14.521527432810654
 10
2.216929126825666
 20
14.39794689338083
 10
2.1716196550590467
 20
14.288096385336146
 10
2.136017957777168
 20
14.192551739409234
 10
2.109073242716452
 20
14.111834097714585
 10
2.0897109436209895
 20
14.046408803442574
 10
2.076835330242568
 20
13.99668440285336
 10
2.0688775089198805
 20
13.960757135535419
 10
2.0656724584658974
 20
13.943206128621224
 10
1.7188792540184257
 20
11.602365927262639
 10
1.714947273589328
 20
11.582755400413093
 10
1.7127366719215014
 20
11.57475435883774
 10
1.710811437543542
 20
11.568673229332026
 10
1.7090347589689139
 20
11.563589779158129
 10
1.7073535377382598
 20
11.559146316833516
 10
1.705740489889778
 20
11.555159166321099
 10
1.7041793772468967
 20
11.55151908232086
 10
1.7026596002121257
 20
11.548154800045141
 10
1.6997165448003848
 20
11.542068836948935
 10
1.6968724332774627
 20
11.53664019254435
 10
1.6941040777459928
 20
11.531713408443348
 10
1.691396315075439
 20
11.527186965300373
 10
1.6887385750488908
 20
11.522990191999613
 10
1.6848293919104682
 20
11.517203915201296
 10
1.6809970343623086
 20
11.511921101060565
 10
1.677228388141106
 20
11.507054535077325
 10
1.673513855219069
 20
11.502540533249423
 10
1.6698461527613742
 20
11.49833088724426
 10
1.6662195941925055
 20
11.494388046760413
 10
1.6614404549315533
 20
11.489495054819301
 10
1.6567179365696767
 20
11.484967719210136
 10
1.6520453615790587
 20
11.480762345634991
 10
1.6474173866748703
 20
11.476844103161351
 10
1.6428296534069227
 20
11.473184693724363
 10
1.6371461293018725
 20
11.468939204451498
 10
1.6315140553286127
 20
11.465024446521335
 10
1.6259286611025772
 20
11.461409906485734
 10
1.6203859786607262
 20
11.458070362374606
 10
1.614882663946822
 20
11.454984700557986
 10
1.6094158668236889
 20
11.452135055539658
 10
1.6039831343697313
 20
11.44950617102271
 10
1.597505842511297
 20
11.446624552569421
 10
1.5910713729483752
 20
11.444022601172879
 10
1.584676995043557
 20
11.441683844342672
 10
1.578320344911339
 20
11.43959421353182
 10
1.571999362518291
 20
11.437741632956858
 10
1.565712242599926
 20
11.436115699761325
 10
1.5594573958911047
 20
11.434707432326286
 10
1.5532334181800758
 20
11.433509070264414
 10
1.5470390653862138
 20
11.432513914216637
 10
1.540873233340844
 20
11.431716196751223
 10
1.5347349412893745
 20
11.431110977914122
 10
1.528623318376688
 20
11.430694060596693
 10
1.5215257735416963
 20
11.43044098442831
 10
1.514462408456249
 20
11.430434903045043
 10
1.507432300947865
 20
11.430672337016189
 10
1.5004346670797748
 20
11.431150793427348
 10
1.4934688517822492
 20
11.431868717520377
 10
1.0930322093000364
 20
11.47706938157266
 10
0.6922596476666936
 20
11.508197842417045
 10
0.29064550906329156
 20
11.525335838406678
 10
0.0006763040876589521
 20
11.52899998016362
 10
-0.0006763040876576198
 20
11.528999980163622
 10
-0.29064550906329023
 20
11.525335838406676
 10
-0.6922596476666922
 20
11.508197842417047
 10
-1.093032209300035
 20
11.477069381572662
 10
-1.4934688517822474
 20
11.431868717520379
 10
-1.500434667079773
 20
11.43115079342735
 10
-1.5074323009478634
 20
11.43067233701619
 10
-1.5144624084562475
 20
11.430434903045043
 10
-1.5215257735416947
 20
11.430440984428312
 10
-1.5286233183766862
 20
11.430694060596693
 10
-1.5347349412893734
 20
11.431110977914123
 10
-1.5408732333408424
 20
11.431716196751225
 10
-1.5470390653862123
 20
11.432513914216637
 10
-1.5532334181800742
 20
11.433509070264414
 10
-1.559457395891103
 20
11.434707432326288
 10
-1.5657122425999244
 20
11.436115699761327
 10
-1.57199936251829
 20
11.437741632956858
 10
-1.5783203449113374
 20
11.439594213531821
 10
-1.5846769950435555
 20
11.441683844342673
 10
-1.5910713729483736
 20
11.444022601172879
 10
-1.5975058425112953
 20
11.446624552569421
 10
-1.6039831343697297
 20
11.449506171022712
 10
-1.6094158668236873
 20
11.45213505553966
 10
-1.6148826639468203
 20
11.454984700557986
 10
-1.6203859786607246
 20
11.458070362374606
 10
-1.6259286611025756
 20
11.461409906485734
 10
-1.6315140553286112
 20
11.465024446521337
 10
-1.637146129301871
 20
11.4689392044515
 10
-1.642829653406921
 20
11.473184693724363
 10
-1.6474173866748687
 20
11.476844103161353
 10
-1.6520453615790571
 20
11.480762345634991
 10
-1.6567179365696751
 20
11.484967719210136
 10
-1.6614404549315518
 20
11.489495054819301
 10
-1.666219594192504
 20
11.494388046760413
 10
-1.6698461527613726
 20
11.498330887244261
 10
-1.6735138552190678
 20
11.502540533249425
 10
-1.6772283881411045
 20
11.507054535077325
 10
-1.680997034362307
 20
11.511921101060567
 10
-1.6848293919104667
 20
11.517203915201298
 10
-1.6887385750488892
 20
11.522990191999613
 10
-1.6913963150754379
 20
11.527186965300373
 10
-1.6941040777459915
 20
11.53171340844335
 10
-1.6968724332774612
 20
11.53664019254435
 10
-1.6997165448003833
 20
11.542068836948937
 10
-1.7026596002121241
 20
11.548154800045143
 10
-1.7041793772468952
 20
11.55151908232086
 10
-1.7057404898897766
 20
11.5551591663211
 10
-1.7073535377382583
 20
11.559146316833518
 10
-1.7090347589689123
 20
11.56358977915813
 10
-1.7108114375435404
 20
11.568673229332028
 10
-1.7127366719214998
 20
11.574754358837742
 10
-1.7149472735893265
 20
11.582755400413095
 10
-1.7188792540184241
 20
11.602365927262639
 10
-2.065672458465896
 20
13.943206128621226
 10
-2.0688775089198796
 20
13.96075713553542
 10
-2.076835330242567
 20
13.996684402853361
 10
-2.0897109436209886
 20
14.046408803442576
 10
-2.10907324271645
 20
14.111834097714585
 10
-2.136017957777166
 20
14.192551739409236
 10
-2.171619655059045
 20
14.288096385336146
 10
-2.216929126825665
 20
14.397946893380832
 10
-2.2729708258458268
 20
14.521527432810656
 10
-2.3407403490236147
 20
14.658208704969908
 10
-2.421201974715972
 20
14.807309272267064
 10
-2.5152862582056885
 20
14.968096993175061
 10
-2.623887689703348
 20
15.139790560786034
 10
-2.7478624191504277
 20
15.321561142287013
 10
-2.8880260519875103
 20
15.512534116551812
 10
-3.0451515199366566
 20
15.711790906877606
 10
-3.219967030725531
 20
15.918370905732624
 10
-3.4131541005529975
 20
16.131273488224053
 10
-3.625345672962026
 20
16.349460110843214
 10
-3.8571243276457077
 20
16.571856491898103
 10
-4.1090205825666315
 20
16.7973548699025
 10
-4.381511292618571
 20
17.024816336055114
 10
-4.675018147902968
 20
17.25307323681317
 10
-4.787031637897242
 20
17.336040500955626
 10
-4.812166246138191
 20
17.344827932831397
 10
-5.39297565135844
 20
17.173113102284486
 10
-5.5594667713581805
 20
17.11993952145171
 10
-5.565144873156783
 20
17.118094594340125
 10
-5.731093665274179
 20
17.063251899912107
 10
-6.301909789585541
 20
16.86078091322955
 10
-6.317078991937323
 20
16.838897979458963
 10
-6.358932874655949
 20
16.705936175314474
 10
-6.462218868547003
 20
16.34875346253494
 10
-6.548969988518988
 20
16.004567250096798
 10
-6.620213718562561
 20
15.674074326337035
 10
-6.677005276187741
 20
15.357915799556885
 10
-6.720424985306742
 20
15.05667603698993
 10
-6.751575609727219
 20
14.770881719029871
 10
-6.77157965209018
 20
14.501001010144527
 10
-6.7815766231375205
 20
14.247442847706292
 10
-6.782720286236771
 20
14.010556349770365
 10
-6.776175882125591
 20
13.790630342632715
 10
-6.763117338865434
 20
13.587893008798398
 10
-6.744724472012766
 20
13.402511655789253
 10
-6.72218018002721
 20
13.234592606017465
 10
-6.696667639938946
 20
13.084181207749046
 10
-6.669367508292703
 20
12.951261966978828
 10
-6.641455132372549
 20
12.835758799836377
 10
-6.614097776690836
 20
12.737535404941099
 10
-6.588451869695604
 20
12.656395754924347
 10
-6.565660275614021
 20
12.592084706137522
 10
-6.546849596304742
 20
12.544288725367682
 10
-6.532170091108339
 20
12.51054546553216
 10
-6.524446808366395
 20
12.49446252128048
 10
-5.429097055966225
 20
10.396843086095839
 10
-5.4207513164830665
 20
10.378666676497385
 10
-5.417836836559161
 20
10.370894338831183
 10
-5.415819985648344
 20
10.364842977341493
 10
-5.41426937176578
 20
10.35968607429652
 10
-5.413017706689159
 20
10.355103040716825
 10
-5.411979101541452
 20
10.35092924245657
 10
-5.41110248050723
 20
10.34706675365077
 10
-5.410354530449804
 20
10.34345168958803
 10
-5.409158272939344
 20
10.336798157448358
 10
-5.40826833037433
 20
10.330734565059583
 10
-5.407612086009964
 20
10.325121514439756
 10
-5.407142135502394
 20
10.319867962048555
 10
-5.4068254908971
 20
10.314910520734669
 10
-5.406586998322476
 20
10.307931564273401
 10
-5.406582280464934
 20
10.301405074607105
 10
-5.406770683589416
 20
10.295252785352483
 10
-5.407122540146249
 20
10.289417533490345
 10
-5.407615405925627
 20
10.283856036917435
 10
-5.408231809950391
 20
10.278534574316538
 10
-5.409222186328414
 20
10.271766953106596
 10
-5.410381682836174
 20
10.265328435012751
 10
-5.411690018843224
 20
10.259179745653048
 10
-5.413131044049344
 20
10.253289565507133
 10
-5.414691651329609
 20
10.247632439126882
 10
-5.41679428293518
 20
10.2408570745057
 10
-5.41904968951548
 20
10.234379518790032
 10
-5.421443795037878
 20
10.228172282120077
 10
-5.423964984549858
 20
10.22221262718325
 10
-5.4266035531694286
 20
10.216481507107154
 10
-5.429351305630803
 20
10.210962793133138
 10
-5.432201258962904
 20
10.20564270086659
 10
-5.435747725324326
 20
10.199504165937395
 10
-5.439423931892449
 20
10.193617056723642
 10
-5.44322240551241
 20
10.187966441672259
 10
-5.447136789323315
 20
10.18253954963261
 10
-5.451161651959788
 20
10.177325400233382
 10
-5.455292339265873
 20
10.17231451627907
 10
-5.459524857720919
 20
10.1674986973407
 10
-5.463855781914877
 20
10.162870839758092
 10
-5.468282180545653
 20
10.158424792383657
 10
-5.4728015568931525
 20
10.154155240253047
 10
-5.477411800772369
 20
10.150057610386398
 10
-5.482111149721335
 20
10.1461279953757
 10
-5.487704429671698
 20
10.141751420273113
 10
-5.493415237515903
 20
10.137594758501919
 10
-5.4992422741491005
 20
10.13365465310416
 10
-5.505184708491145
 20
10.129928626483249
 10
-5.511242156640668
 20
10.126415035773102
 10
-5.86177048930298
 20
9.927612388219874
 10
-6.20429915275443
 20
9.71722764080016
 10
-6.53928527736239
 20
9.495029703022077
 10
-6.77602902052011
 20
9.327554433669594
 10
-6.777123303520671
 20
9.326759390532011
 10
-7.009559589704311
 20
9.153355415277195
 10
-7.324398791719165
 20
8.903427617488829
 10
-7.630333754748827
 20
8.64267596240543
 10
-7.927725519963625
 20
8.370737104101543
 10
-7.932938997724851
 20
8.366061887807533
 10
-7.9383189728222066
 20
8.361561702451231
 10
-7.943866889082139
 20
8.357237420818073
 10
-7.949584846021137
 20
8.353090598931702
 10
-7.955475634850465
 20
8.349123509671303
 10
-7.96066509950065
 20
8.345868481050701
 10
-7.965986820793583
 20
8.342750115833114
 10
-7.971443970264415
 20
8.339771297674963
 10
-7.977040244992418
 20
8.33693544660994
 10
-7.982779928280126
 20
8.33424657957427
 10
-7.988667964394373
 20
8.331709385211047
 10
-7.994710050807551
 20
8.32932931643054
 10
-8.000912752525318
 20
8.327112705368501
 10
-8.007283644682932
 20
8.325066907004748
 10
-8.01383149184988
 20
8.323200479996059
 10
-8.020566475734139
 20
8.321523416578989
 10
-8.027500487754718
 20
8.320047438249823
 10
-8.033440880184905
 20
8.318980970484198
 10
-8.039538591278358
 20
8.318073079005707
 10
-8.045804572916673
 20
8.31733466462669
 10
-8.052251631984456
 20
8.316778505568596
 10
-8.05889488416035
 20
8.316419717529943
 10
-8.065752364695939
 20
8.316276373203007
 10
-8.07284586826822
 20
8.316370354524192
 10
-8.07870836934681
 20
8.316634276991742
 10
-8.08475556483475
 20
8.317083946344336
 10
-8.091007613977501
 20
8.317739694364608
 10
-8.097489312691755
 20
8.31862655916487
 10
-8.104231746074921
 20
8.31977596522233
 10
-8.109483237076779
 20
8.320834152536516
 10
-8.114924838534574
 20
8.322084006280566
 10
-8.120583222497926
 20
8.323552562801249
 10
-8.126492617050923
 20
8.325274542716008
 10
-8.13269821967843
 20
8.327295825885663
 10
-8.13926190343927
 20
8.329679261952382
 10
-8.14387886174078
 20
8.331512342482204
 10
-8.148730064282773
 20
8.333582728944485
 10
-8.153865601990002
 20
8.33594138245531
 10
-8.1593574136669
 20
8.338661521225989
 10
-8.16531563486433
 20
8.341855284230258
 10
-8.168522635819336
 20
8.343683743237378
 10
-8.171925190170008
 20
8.345711034065872
 10
-8.175573761562038
 20
8.347988580852967
 10
-8.179545699732465
 20
8.350595220342223
 10
-8.183971039935862
 20
8.353663512458734
 10
-8.189102985506526
 20
8.357451625199282
 10
-8.195594294064565
 20
8.362625244747402
 10
-8.2103021115251
 20
8.376179334128803
 10
-9.866775055788771
 20
10.0661189069745
 10
-9.87968421910092
 20
10.07843408844677
 10
-9.907239749673828
 20
10.102822368254584
 10
-9.946883609055396
 20
10.13548215770831
 10
-10.001004061173779
 20
10.17703145877756
 10
-10.070247432954432
 20
10.226495696514487
 10
-10.15520954489541
 20
10.282866786172026
 10
-10.256434186146256
 20
10.345105474727315
 10
-10.374411691594414
 20
10.412143747102602
 10
-10.509577623585713
 20
10.482887292813428
 10
-10.662311560731576
 20
10.556218028670328
 10
-10.832935996077785
 20
10.630996673063954
 10
-11.021715346728048
 20
10.706065367273919
 10
-11.228855076830675
 20
10.780250339159686
 10
-11.454500935648483
 20
10.852364604516865
 10
-11.698738312241094
 20
10.921210701314976
 10
-11.961591708095208
 20
10.985583451972966
 10
-12.243024328842571
 20
11.044272748776665
 10
-12.542937796007664
 20
11.09606635749806
 10
-12.861171979527406
 20
11.139752734239696
 10
-13.197504951584692
 20
11.174123850499013
 10
-13.551653062095339
 20
11.197978021426687
 10
-13.923271135985535
 20
11.2101227322404
 10
-14.062658887276143
 20
11.211404781431998
 10
-14.08815833535213
 20
11.20374021111023
 10
-14.457111569672742
 20
10.723428792230337
 10
-14.560551068539962
 20
10.582549436711348
 10
-14.56406032844308
 20
10.577719354826462
 10
-14.666079994481278
 20
10.435808430374529
 10
-15.0088704797233
 20
9.936488661639508
 10
-15.008280156469755
 20
9.909868762900903
 10
-14.96398767127537
 20
9.777699308732071
 10
-14.837601064668513
 20
9.428022440018951
 10
-14.705476615293366
 20
9.098578915987561
 10
-14.568855137068265
 20
8.789328510307328
 10
-14.428967152896174
 20
8.500169649198842
 10
-14.287030145623321
 20
8.230940097221724
 10
-14.144245844878968
 20
7.981417759462181
 10
-14.001797554545757
 20
7.751321598432799
 10
-13.860847525535757
 20
7.540312663808561
 10
-13.72253437846494
 20
7.347995232937102
 10
-13.58797058072986
 20
7.173918059879308
 10
-13.458239982393705
 20
7.017575730557823
 10
-13.334395415185819
 20
6.8784101214165805
 10
-13.21745635880853
 20
6.755811958824396
 10
-13.108406678628587
 20
6.649122476289948
 10
-13.008192438707455
 20
6.557635166394732
 10
-12.917719793995264
 20
6.480597624194668
 10
-12.837852965378055
 20
6.417213478690617
 10
-12.769412301126733
 20
6.366644408822893
 10
-12.713172428149479
 20
6.3280122403056644
 10
-12.669860496297169
 20
6.300401119483644
 10
-12.63815073662867
 20
6.281730645496494
 10
-12.622449152193497
 20
6.2732589019723
 10
-10.503342818793767
 20
5.220079561739778
 10
-10.485907148219669
 20
5.210280040065585
 10
-10.478980818975433
 20
5.20570517512498
 10
-10.473792251273533
 20
5.201994996062165
 10
-10.469506626733487
 20
5.198734401832611
 10
-10.465800168866327
 20
5.195762360053694
 10
-10.462506622587966
 20
5.192996163118831
 10
-10.459527107316461
 20
5.1903866089501225
 10
-10.456797121666886
 20
5.187901594700817
 10
-10.451918480943924
 20
5.183221916649796
 10
-10.447634412102776
 20
5.178839462475415
 10
-10.443804230884833
 20
5.174684139892963
 10
-10.440336072320003
 20
5.170710156705301
 10
-10.437165990559734
 20
5.166885621462959
 10
-10.432870918329504
 20
5.161379709500935
 10
-10.42903092712749
 20
5.156102441534375
 10
-10.425567123565285
 20
5.15101439439502
 10
-10.422421906511367
 20
5.146086760377063
 10
-10.4195516776366
 20
5.141297715898943
 10
-10.4169224817306
 20
5.136630249024676
 10
-10.413745805110944
 20
5.130572999825121
 10
-10.41089939150846
 20
5.124682594321264
 10
-10.408343748645954
 20
5.118939179526144
 10
-10.406047401503912
 20
5.1133269103238295
 10
-10.403984783858528
 20
5.107832896998918
 10
-10.40170338915711
 20
5.1011156160285385
 10
-10.399720639689223
 20
5.094549468646728
 10
-10.398008989571084
 20
5.0881204887741305
 10
-10.396545677451694
 20
5.08181710863625
 10
-10.395311656445905
 20
5.075629623376138
 10
-10.394290816197945
 20
5.069549801610321
 10
-10.39346940510168
 20
5.06357059601671
 10
-10.392730416355985
 20
5.056519856313429
 10
-10.392244173969951
 20
5.049596264906641
 10
-10.391995855487597
 20
5.0427921345263655
 10
-10.391972811406438
 20
5.036100869563788
 10
-10.392164193559253
 20
5.029516779188381
 10
-10.392560666099032
 20
5.023034931832153
 10
-10.393154178108485
 20
5.016651040541248
 10
-10.393937782945981
 20
5.010361371739366
 10
-10.394905493584469
 20
5.0041626720197145
 10
-10.396052166077306
 20
4.998052109021062
 10
-10.397373405318836
 20
4.992027223460609
 10
-10.398865488730571
 20
4.986085890128025
 10
-10.400818060963863
 20
4.979257519026108
 10
-10.402994977073556
 20
4.9725379803838425
 10
-10.40539321289138
 20
4.9659253219598645
 10
-10.408010639764628
 20
4.959418027833085
 10
-10.410845981458122
 20
4.953014994548482
 10
-10.57757609524336
 20
4.586144889701609
 10
-10.731026553195537
 20
4.2146067568175685
 10
-10.871431349967423
 20
3.8379449452728633
 10
-10.964521568044855
 20
3.5633001254285572
 10
-10.96493954695776
 20
3.5620137186094274
 10
-11.051060153246052
 20
3.285104334619732
 10
-11.15886654449358
 20
2.897850659054376
 10
-11.253107151389173
 20
2.507074079351034
 10
-11.33386049299883
 20
2.1122684278057853
 10
-11.335330261918562
 20
2.105421693030348
 10
-11.337037610616619
 20
2.0986186965793365
 10
-11.338984220183544
 20
2.0918592958911066
 10
-11.341172703771607
 20
2.085143515750399
 10
-11.343606655483017
 20
2.078471554322285
 10
-11.345891762757745
 20
2.07278789006237
 10
-11.348364196636895
 20
2.0671370503138777
 10
-11.35102821791702
 20
2.06151950382227
 10
-11.353888827843447
 20
2.0559358443642544
 10
-11.35695185277659
 20
2.050386804047437
 10
-11.360224048627607
 20
2.044873269896638
 10
-11.363713229888726
 20
2.0393963045186845
 10
-11.367428429697103
 20
2.0339571719055023
 10
-11.371380099614566
 20
2.0285573698079706
 10
-11.375580360979008
 20
2.0231986706401837
 10
-11.380043324254503
 20
2.017883173633533
 10
-11.384785499523764
 20
2.0126133720769945
 10
-11.38896452392836
 20
2.0082589064673564
 10
-11.393364030608016
 20
2.003940262178736
 10
-11.397999287157786
 20
1.999659820799084
 10
-11.402888165415085
 20
1.99542039242881
 10
-11.408051779005483
 20
1.9912253211519115
 10
-11.413515341615996
 20
1.9870786272286705
 10
-11.419309347390215
 20
1.9829852029277935
 10
-11.424207340126511
 20
1.979752829013694
 10
-11.429363933058424
 20
1.9765621668362507
 10
-11.434807386080113
 20
1.973417815845961
 10
-11.440572476542732
 20
1.9703254576270455
 10
-11.446702823662626
 20
1.9672922437537785
 10
-11.451573356026378
 20
1.9650615863107483
 10
-11.456710349680623
 20
1.962874246144424
 10
-11.46215127433269
 20
1.9607364186813883
 10
-11.467944229351172
 20
1.9586560747281716
 10
-11.474152747774992
 20
1.9566437654568316
 10
-11.480863828053014
 20
1.9547139692244808
 10
-11.48567648348295
 20
1.9534831825250871
 10
-11.490818131411652
 20
1.9523066950479282
 10
-11.496359250440985
 20
1.9511962924951276
 10
-11.502401076871095
 20
1.9501689250756176
 10
-11.509098625869289
 20
1.94925057907233
 10
-11.512767885381672
 20
1.9488448056171668
 10
-11.516712221326745
 20
1.9484849470825103
 10
-11.52100268600095
 20
1.9481829446825834
 10
-11.52574819573126
 20
1.9479571136480058
 10
-11.531131868017509
 20
1.9478382644060364
 10
-11.5375102960013
 20
1.947886430067744
 10
-11.545802852211839
 20
1.9482564807661087
 10
-11.56566862033422
 20
1.950576931222226
 10
-13.899104941149977
 20
2.3441163976614576
 10
-13.916787355701372
 20
2.34649177294702
 10
-13.953415319423689
 20
2.350025571285262
 10
-14.004684817969865
 20
2.3531458200975917
 10
-14.072891249888457
 20
2.35494870716443
 10
-14.157984663864482
 20
2.3542658833557337
 10
-14.259854551459078
 20
2.3499315764775885
 10
-14.378329989735345
 20
2.340785381930583
 10
-14.513179904438227
 20
2.325675045751045
 10
-14.664113453343418
 20
2.3034592350365903
 10
-14.830780529188656
 20
2.273010290775939
 10
-15.012772381400366
 20
2.2332169581294705
 10
-15.209622355628968
 20
2.1829870892412946
 10
-15.420806749908417
 20
2.12125031370594
 10
-15.64574578605921
 20
2.0469606718627844
 10
-15.883804694760016
 20
1.9590992061490993
 10
-16.134294912521426
 20
1.8566765058080323
 10
-16.396475388606152
 20
1.7387352003208194
 10
-16.66955399975407
 20
1.604352397012891
 10
-16.9526890703874
 20
1.4526420583712987
 10
-17.24499099579244
 20
1.2827573147057543
 10
-17.545523965598278
 20
1.093892707887564
 10
-17.85330778470199
 20
0.8852863620096336
 10
-17.966828413911333
 20
0.8043934970344311
 10
-17.982952779351695
 20
0.7832045298688763
 10
-17.9991222475214
 20
0.1777591594834362
 10
-17.999999752468078
 20
0.002985154773307281
 10
-17.999999752468078
 20
-0.002985154773302872
 10
-17.9991222475214
 20
-0.17775915948343182
 10
-17.982952779351695
 20
-0.7832045298688719
 10
-17.966828413911333
 20
-0.8043934970344266
 10
-17.85330778470199
 20
-0.8852863620096292
 10
-17.545523965598278
 20
-1.0938927078875595
 10
-17.24499099579244
 20
-1.2827573147057498
 10
-16.9526890703874
 20
-1.4526420583712947
 10
-16.66955399975407
 20
-1.604352397012887
 10
-16.396475388606152
 20
-1.7387352003208154
 10
-16.134294912521426
 20
-1.8566765058080283
 10
-15.883804694760016
 20
-1.9590992061490953
 10
-15.64574578605921
 20
-2.046960671862781
 10
-15.420806749908417
 20
-2.1212503137059366
 10
-15.209622355628968
 20
-2.182987089241291
 10
-15.012772381400366
 20
-2.233216958129467
 10
-14.830780529188656
 20
-2.2730102907759355
 10
-14.664113453343418
 20
-2.303459235036587
 10
-14.513179904438227
 20
-2.3256750457510416
 10
-14.378329989735345
 20
-2.3407853819305795
 10
-14.259854551459078
 20
-2.349931576477585
 10
-14.157984663864482
 20
-2.35426588335573
 10
-14.072891249888457
 20
-2.3549487071644264
 10
-14.004684817969865
 20
-2.353145820097588
 10
-13.953415319423689
 20
-2.3500255712852582
 10
-13.916787355701372
 20
-2.3464917729470165
 10
-13.899104941149977
 20
-2.344116397661454
 10
-11.56566862033422
 20
-1.9505769312222234
 10
-11.545802852211839
 20
-1.948256480766106
 10
-11.5375102960013
 20
-1.9478864300677414
 10
-11.531131868017509
 20
-1.9478382644060337
 10
-11.52574819573126
 20
-1.9479571136480032
 10
-11.52100268600095
 20
-1.9481829446825807
 10
-11.516712221326745
 20
-1.9484849470825076
 10
-11.512767885381672
 20
-1.948844805617164
 10
-11.509098625869289
 20
-1.9492505790723273
 10
-11.502401076871095
 20
-1.950168925075615
 10
-11.496359250440985
 20
-1.951196292495125
 10
-11.490818131411652
 20
-1.9523066950479255
 10
-11.48567648348295
 20
-1.9534831825250845
 10
-11.480863828053014
 20
-1.9547139692244782
 10
-11.474152747774992
 20
-1.956643765456829
 10
-11.467944229351172
 20
-1.958656074728169
 10
-11.46215127433269
 20
-1.9607364186813856
 10
-11.456710349680623
 20
-1.9628742461444213
 10
-11.451573356026378
 20
-1.9650615863107457
 10
-11.446702823662626
 20
-1.9672922437537759
 10
-11.440572476542732
 20
-1.9703254576270428
 10
-11.434807386080113
 20
-1.9734178158459583
 10
-11.429363933058424
 20
-1.976562166836248
 10
-11.424207340126511
 20
-1.9797528290136914
 10
-11.419309347390215
 20
-1.9829852029277908
 10
-11.413515341615996
 20
-1.9870786272286678
 10
-11.408051779005483
 20
-1.9912253211519089
 10
-11.402888165415085
 20
-1.9954203924288074
 10
-11.397999287157786
 20
-1.9996598207990814
 10
-11.393364030608016
 20
-2.0039402621787334
 10
-11.38896452392836
 20
-2.0082589064673537
 10
-11.384785499523764
 20
-2.012613372076992
 10
-11.380043324254503
 20
-2.0178831736335305
 10
-11.375580360979008
 20
-2.023198670640181
 10
-11.371380099614566
 20
-2.028557369807968
 10
-11.367428429697103
 20
-2.0339571719054996
 10
-11.363713229888726
 20
-2.039396304518682
 10
-11.360224048627607
 20
-2.044873269896635
 10
-11.35695185277659
 20
-2.0503868040474345
 10
-11.353888827843447
 20
-2.0559358443642517
 10
-11.35102821791702
 20
-2.061519503822267
 10
-11.348364196636895
 20
-2.067137050313875
 10
-11.345891762757745
 20
-2.0727878900623673
 10
-11.343606655483017
 20
-2.0784715543222823
 10
-11.341172703771607
 20
-2.085143515750396
 10
-11.338984220183544
 20
-2.091859295891104
 10
-11.337037610616619
 20
-2.098618696579334
 10
-11.335330261918562
 20
-2.1054216930303453
 10
-11.33386049299883
 20
-2.1122684278057826
 10
-11.253107151389173
 20
-2.5070740793510313
 10
-11.15886654449358
 20
-2.8978506590543733
 10
-11.051060153246052
 20
-3.2851043346197293
 10
-10.96493954695776
 20
-3.5620137186094247
 10
-10.964521568044859
 20
-3.563300125428554
 10
-10.871431349967423
 20
-3.83794494527286
 10
-10.731026553195537
 20
-4.214606756817565
 10
-10.577576095243364
 20
-4.586144889701606
 10
-10.410845981458124
 20
-4.953014994548479
 10
-10.40801063976463
 20
-4.959418027833083
 10
-10.40539321289138
 20
-4.965925321959861
 10
-10.402994977073558
 20
-4.972537980383839
 10
-10.400818060963864
 20
-4.979257519026104
 10
-10.398865488730575
 20
-4.986085890128021
 10
-10.397373405318838
 20
-4.992027223460607
 10
-10.396052166077308
 20
-4.998052109021058
 10
-10.39490549358447
 20
-5.004162672019712
 10
-10.393937782945983
 20
-5.010361371739363
 10
-10.393154178108487
 20
-5.016651040541245
 10
-10.392560666099033
 20
-5.02303493183215
 10
-10.392164193559255
 20
-5.029516779188378
 10
-10.39197281140644
 20
-5.036100869563786
 10
-10.3919958554876
 20
-5.042792134526362
 10
-10.392244173969953
 20
-5.049596264906638
 10
-10.392730416355986
 20
-5.056519856313426
 10
-10.393469405101682
 20
-5.063570596016707
 10
-10.394290816197946
 20
-5.069549801610318
 10
-10.395311656445907
 20
-5.075629623376135
 10
-10.396545677451698
 20
-5.081817108636247
 10
-10.398008989571085
 20
-5.088120488774127
 10
-10.399720639689225
 20
-5.094549468646726
 10
-10.40170338915711
 20
-5.101115616028535
 10
-10.403984783858528
 20
-5.107832896998914
 10
-10.406047401503915
 20
-5.113326910323826
 10
-10.408343748645958
 20
-5.118939179526142
 10
-10.410899391508462
 20
-5.1246825943212615
 10
-10.413745805110945
 20
-5.130572999825118
 10
-10.416922481730603
 20
-5.136630249024672
 10
-10.419551677636601
 20
-5.141297715898939
 10
-10.422421906511369
 20
-5.1460867603770595
 10
-10.425567123565289
 20
-5.151014394395017
 10
-10.429030927127492
 20
-5.156102441534372
 10
-10.432870918329508
 20
-5.161379709500932
 10
-10.437165990559736
 20
-5.166885621462956
 10
-10.440336072320003
 20
-5.170710156705298
 10
-10.443804230884837
 20
-5.17468413989296
 10
-10.447634412102776
 20
-5.178839462475413
 10
-10.451918480943926
 20
-5.183221916649793
 10
-10.45679712166689
 20
-5.187901594700813
 10
-10.459527107316461
 20
-5.190386608950119
 10
-10.462506622587966
 20
-5.192996163118829
 10
-10.46580016886633
 20
-5.19576236005369
 10
-10.469506626733489
 20
-5.198734401832608
 10
-10.473792251273533
 20
-5.201994996062162
 10
-10.478980818975437
 20
-5.205705175124978
 10
-10.48590714821967
 20
-5.210280040065581
 10
-10.50334281879377
 20
-5.220079561739775
 10
-12.6224491521935
 20
-6.273258901972298
 10
-12.638150736628674
 20
-6.28173064549649
 10
-12.669860496297172
 20
-6.300401119483642
 10
-12.71317242814948
 20
-6.328012240305661
 10
-12.769412301126735
 20
-6.366644408822888
 10
-12.837852965378058
 20
-6.417213478690613
 10
-12.917719793995266
 20
-6.480597624194664
 10
-13.008192438707459
 20
-6.557635166394728
 10
-13.108406678628588
 20
-6.649122476289944
 10
-13.217456358808533
 20
-6.755811958824393
 10
-13.334395415185822
 20
-6.878410121416576
 10
-13.458239982393707
 20
-7.0175757305578195
 10
-13.587970580729861
 20
-7.173918059879304
 10
-13.722534378464944
 20
-7.347995232937097
 10
-13.860847525535759
 20
-7.540312663808557
 10
-14.00179755454576
 20
-7.751321598432796
 10
-14.144245844878972
 20
-7.981417759462177
 10
-14.287030145623325
 20
-8.23094009722172
 10
-14.428967152896178
 20
-8.500169649198838
 10
-14.568855137068269
 20
-8.789328510307325
 10
-14.705476615293367
 20
-9.098578915987558
 10
-14.837601064668517
 20
-9.428022440018948
 10
-14.963987671275373
 20
-9.777699308732068
 10
-15.008280156469759
 20
-9.909868762900897
 10
-15.008870479723303
 20
-9.936488661639505
 10
-14.666079994481281
 20
-10.435808430374525
 10
-14.564060328443084
 20
-10.577719354826458
 10
-14.560551068539965
 20
-10.582549436711345
 10
-14.457111569672746
 20
-10.723428792230333
 10
-14.088158335352134
 20
-11.203740211110226
 10
-14.062658887276147
 20
-11.211404781431993
 10
-13.92327113598554
 20
-11.210122732240396
 10
-13.551653062095342
 20
-11.197978021426684
 10
-13.197504951584698
 20
-11.17412385049901
 10
-12.861171979527409
 20
-11.139752734239693
 10
-12.542937796007667
 20
-11.096066357498056
 10
-12.243024328842575
 20
-11.044272748776661
 10
-11.961591708095211
 20
-10.985583451972962
 10
-11.698738312241098
 20
-10.921210701314973
 10
-11.454500935648488
 20
-10.852364604516861
 10
-11.228855076830678
 20
-10.780250339159682
 10
-11.021715346728053
 20
-10.706065367273917
 10
-10.83293599607779
 20
-10.630996673063951
 10
-10.66231156073158
 20
-10.556218028670324
 10
-10.509577623585717
 20
-10.482887292813427
 10
-10.374411691594416
 20
-10.412143747102599
 10
-10.25643418614626
 20
-10.345105474727312
 10
-10.155209544895412
 20
-10.282866786172024
 10
-10.070247432954435
 20
-10.226495696514483
 10
-10.00100406117378
 20
-10.177031458777556
 10
-9.946883609055401
 20
-10.135482157708307
 10
-9.907239749673831
 20
-10.102822368254582
 10
-9.879684219100923
 20
-10.078434088446768
 10
-9.866775055788775
 20
-10.066118906974499
 10
-8.210302111525104
 20
-8.376179334128802
 10
-8.195594294064566
 20
-8.362625244747399
 10
-8.18910298550653
 20
-8.35745162519928
 10
-8.183971039935866
 20
-8.353663512458732
 10
-8.17954569973247
 20
-8.350595220342221
 10
-8.175573761562042
 20
-8.347988580852965
 10
-8.171925190170011
 20
-8.345711034065868
 10
-8.16852263581934
 20
-8.343683743237376
 10
-8.165315634864333
 20
-8.341855284230256
 10
-8.159357413666902
 20
-8.338661521225987
 10
-8.153865601990006
 20
-8.335941382455308
 10
-8.148730064282777
 20
-8.333582728944483
 10
-8.143878861740783
 20
-8.331512342482203
 10
-8.139261903439271
 20
-8.32967926195238
 10
-8.132698219678433
 20
-8.327295825885662
 10
-8.126492617050928
 20
-8.325274542716006
 10
-8.12058322249793
 20
-8.323552562801247
 10
-8.114924838534575
 20
-8.322084006280564
 10
-8.10948323707678
 20
-8.320834152536513
 10
-8.104231746074925
 20
-8.319775965222327
 10
-8.097489312691756
 20
-8.318626559164867
 10
-8.091007613977506
 20
-8.317739694364606
 10
-8.084755564834754
 20
-8.317083946344333
 10
-8.078708369346813
 20
-8.31663427699174
 10
-8.072845868268223
 20
-8.31637035452419
 10
-8.065752364695943
 20
-8.316276373203005
 10
-8.058894884160352
 20
-8.316419717529941
 10
-8.052251631984458
 20
-8.316778505568594
 10
-8.045804572916676
 20
-8.317334664626687
 10
-8.039538591278363
 20
-8.318073079005703
 10
-8.033440880184907
 20
-8.318980970484194
 10
-8.02750048775472
 20
-8.320047438249821
 10
-8.020566475734144
 20
-8.321523416578987
 10
-8.013831491849881
 20
-8.323200479996057
 10
-8.007283644682936
 20
-8.325066907004746
 10
-8.00091275252532
 20
-8.3271127053685
 10
-7.994710050807553
 20
-8.329329316430538
 10
-7.988667964394376
 20
-8.331709385211045
 10
-7.982779928280129
 20
-8.334246579574268
 10
-7.97704024499242
 20
-8.336935446609939
 10
-7.97144397026442
 20
-8.339771297674961
 10
-7.965986820793588
 20
-8.342750115833113
 10
-7.9606650995006545
 20
-8.3458684810507
 10
-7.95547563485047
 20
-8.3491235096713
 10
-7.949584846021142
 20
-8.3530905989317
 10
-7.943866889082141
 20
-8.357237420818072
 10
-7.938318972822209
 20
-8.361561702451228
 10
-7.932938997724854
 20
-8.36606188780753
 10
-7.927725519963627
 20
-8.370737104101542
 10
-7.630333754748831
 20
-8.642675962405429
 10
-7.324398791719168
 20
-8.903427617488827
 10
-7.009559589704313
 20
-9.153355415277193
 10
-6.777123303520675
 20
-9.32675939053201
 10
-6.776029020520112
 20
-9.32755443366959
 10
-6.539285277362392
 20
-9.495029703022075
 10
-6.204299152754432
 20
-9.717227640800159
 10
-5.861770489302983
 20
-9.92761238821987
 10
-5.5112421566406695
 20
-10.1264150357731
 10
-5.5051847084911465
 20
-10.129928626483245
 10
-5.499242274149103
 20
-10.133654653104157
 10
-5.493415237515904
 20
-10.137594758501915
 10
-5.487704429671701
 20
-10.141751420273112
 10
-5.482111149721337
 20
-10.146127995375698
 10
-5.477411800772372
 20
-10.150057610386396
 10
-5.472801556893154
 20
-10.154155240253045
 10
-5.468282180545655
 20
-10.158424792383656
 10
-5.46385578191488
 20
-10.162870839758092
 10
-5.459524857720922
 20
-10.167498697340699
 10
-5.455292339265876
 20
-10.172314516279068
 10
-5.45116165195979
 20
-10.177325400233379
 10
-5.447136789323317
 20
-10.182539549632608
 10
-5.443222405512412
 20
-10.187966441672257
 10
-5.439423931892452
 20
-10.193617056723642
 10
-5.435747725324329
 20
-10.199504165937391
 10
-5.432201258962906
 20
-10.205642700866589
 10
-5.429351305630805
 20
-10.210962793133136
 10
-5.426603553169431
 20
-10.21648150710715
 10
-5.42396498454986
 20
-10.22221262718325
 10
-5.421443795037881
 20
-10.228172282120077
 10
-5.419049689515481
 20
-10.23437951879003
 10
-5.416794282935182
 20
-10.240857074505698
 10
-5.414691651329612
 20
-10.247632439126878
 10
-5.413131044049345
 20
-10.253289565507131
 10
-5.411690018843227
 20
-10.259179745653048
 10
-5.410381682836176
 20
-10.265328435012751
 10
-5.4092221863284164
 20
-10.271766953106596
 10
-5.408231809950394
 20
-10.278534574316534
 10
-5.40761540592563
 20
-10.283856036917433
 10
-5.407122540146251
 20
-10.289417533490344
 10
-5.406770683589419
 20
-10.295252785352483
 10
-5.406582280464937
 20
-10.301405074607102
 10
-5.406586998322478
 20
-10.307931564273398
 10
-5.406825490897102
 20
-10.314910520734669
 10
-5.407142135502395
 20
-10.319867962048555
 10
-5.407612086009966
 20
-10.325121514439754
 10
-5.408268330374332
 20
-10.330734565059581
 10
-5.4091582729393455
 20
-10.336798157448357
 10
-5.410354530449807
 20
-10.343451689588028
 10
-5.411102480507232
 20
-10.34706675365077
 10
-5.411979101541455
 20
-10.350929242456568
 10
-5.413017706689161
 20
-10.355103040716823
 10
-5.414269371765783
 20
-10.359686074296519
 10
-5.415819985648347
 20
-10.36484297734149
 10
-5.417836836559164
 20
-10.37089433883118
 10
-5.420751316483069
 20
-10.378666676497383
 10
-5.429097055966228
 20
-10.396843086095839
 10
-6.524446808366397
 20
-12.494462521280479
 10
-6.532170091108341
 20
-12.510545465532159
 10
-6.546849596304744
 20
-12.54428872536768
 10
-6.565660275614023
 20
-12.592084706137518
 10
-6.588451869695607
 20
-12.656395754924343
 10
-6.614097776690839
 20
-12.737535404941097
 10
-6.641455132372553
 20
-12.835758799836373
 10
-6.669367508292706
 20
-12.951261966978826
 10
-6.696667639938949
 20
-13.084181207749042
 10
-6.7221801800272125
 20
-13.234592606017463
 10
-6.74472447201277
 20
-13.402511655789251
 10
-6.763117338865436
 20
-13.587893008798396
 10
-6.776175882125594
 20
-13.790630342632713
 10
-6.782720286236774
 20
-14.010556349770363
 10
-6.781576623137524
 20
-14.24744284770629
 10
-6.771579652090183
 20
-14.501001010144526
 10
-6.751575609727222
 20
-14.77088171902987
 10
-6.720424985306746
 20
-15.056676036989929
 10
-6.677005276187744
 20
-15.357915799556881
 10
-6.620213718562565
 20
-15.67407432633703
 10
-6.548969988518992
 20
-16.004567250096798
 10
-6.462218868547007
 20
-16.34875346253494
 10
-6.358932874655952
 20
-16.70593617531447
 10
-6.317078991937326
 20
-16.83889797945896
 10
-6.301909789585546
 20
-16.86078091322955
 10
-5.731093665274184
 20
-17.063251899912107
 10
-5.565144873156787
 20
-17.118094594340125
 10
-5.559466771358184
 20
-17.11993952145171
 10
-5.392975651358444
 20
-17.173113102284486
 10
-4.8121662461381955
 20
-17.344827932831397
 10
-4.787031637897247
 20
-17.336040500955622
 10
-4.675018147902971
 20
-17.253073236813165
 10
-4.381511292618574
 20
-17.024816336055114
 10
-4.109020582566635
 20
-16.7973548699025
 10
-3.8571243276457112
 20
-16.5718564918981
 10
-3.62534567296203
 20
-16.349460110843214
 10
-3.413154100553001
 20
-16.131273488224053
 10
-3.2199670307255346
 20
-15.918370905732623
 10
-3.0451515199366606
 20
-15.711790906877605
 10
-2.888026051987514
 20
-15.51253411655181
 10
-2.7478624191504313
 20
-15.321561142287011
 10
-2.6238876897033516
 20
-15.139790560786032
 10
-2.5152862582056925
 20
-14.96809699317506
 10
-2.421201974715976
 20
-14.807309272267062
 10
-2.3407403490236187
 20
-14.658208704969907
 10
-2.2729708258458308
 20
-14.521527432810656
 10
-2.2169291268256677
 20
-14.39794689338083
 10
-2.1716196550590485
 20
-14.288096385336146
 10
-2.13601795777717
 20
-14.192551739409234
 10
-2.1090732427164536
 20
-14.111834097714585
 10
-2.0897109436209913
 20
-14.046408803442576
 10
-2.0768353302425697
 20
-13.99668440285336
 10
-2.0688775089198823
 20
-13.960757135535419
 10
-2.065672458465899
 20
-13.943206128621224
 10
-1.718879254018427
 20
-11.602365927262639
 10
-1.7149472735893294
 20
-11.582755400413093
 10
-1.7127366719215027
 20
-11.574754358837742
 10
-1.7108114375435433
 20
-11.568673229332026
 10
-1.7090347589689152
 20
-11.563589779158129
 10
-1.7073535377382612
 20
-11.559146316833516
 10
-1.7057404898897794
 20
-11.555159166321099
 10
-1.704179377246898
 20
-11.55151908232086
 10
-1.702659600212127
 20
-11.548154800045141
 10
-1.6997165448003861
 20
-11.542068836948935
 10
-1.696872433277464
 20
-11.536640192544352
 10
-1.6941040777459937
 20
-11.531713408443348
 10
-1.6913963150754403
 20
-11.527186965300373
 10
-1.6887385750488917
 20
-11.522990191999613
 10
-1.6848293919104695
 20
-11.517203915201298
 10
-1.68099703436231
 20
-11.511921101060567
 10
-1.6772283881411074
 20
-11.507054535077325
 10
-1.6735138552190703
 20
-11.502540533249423
 10
-1.6698461527613755
 20
-11.49833088724426
 10
-1.6662195941925069
 20
-11.494388046760413
 10
-1.6614404549315547
 20
-11.489495054819301
 10
-1.656717936569678
 20
-11.484967719210136
 10
-1.65204536157906
 20
-11.480762345634991
 10
-1.6474173866748711
 20
-11.476844103161351
 10
-1.642829653406924
 20
-11.473184693724363
 10
-1.6371461293018739
 20
-11.468939204451498
 10
-1.6315140553286136
 20
-11.465024446521335
 10
-1.6259286611025785
 20
-11.461409906485734
 10
-1.620385978660727
 20
-11.458070362374606
 10
-1.6148826639468228
 20
-11.454984700557986
 10
-1.6094158668236898
 20
-11.452135055539658
 10
-1.6039831343697326
 20
-11.44950617102271
 10
-1.5975058425112982
 20
-11.446624552569421
 10
-1.5910713729483765
 20
-11.444022601172879
 10
-1.584676995043558
 20
-11.441683844342672
 10
-1.5783203449113403
 20
-11.43959421353182
 10
-1.5719993625182924
 20
-11.437741632956858
 10
-1.5657122425999273
 20
-11.436115699761325
 10
-1.559457395891106
 20
-11.434707432326286
 10
-1.553233418180077
 20
-11.433509070264414
 10
-1.5470390653862147
 20
-11.432513914216639
 10
-1.5408732333408452
 20
-11.431716196751223
 10
-1.5347349412893758
 20
-11.431110977914122
 10
-1.5286233183766893
 20
-11.430694060596695
 10
-1.5215257735416976
 20
-11.43044098442831
 10
-1.51446240845625
 20
-11.430434903045043
 10
-1.5074323009478663
 20
-11.430672337016189
 10
-1.5004346670797757
 20
-11.43115079342735
 10
-1.4934688517822505
 20
-11.431868717520377
 10
-1.0930322093000377
 20
-11.477069381572662
 10
-0.6922596476666949
 20
-11.508197842417045
 10
-0.2906455090632929
 20
-11.525335838406678
 10
-0.0006763040876602844
 20
-11.528999980163622
 10
0.0006763040876562876
 20
-11.528999980163622
 10
0.2906455090632889
 20
-11.525335838406676
 10
0.6922596476666909
 20
-11.508197842417047
 10
1.0930322093000338
 20
-11.477069381572662
 10
1.493468851782246
 20
-11.431868717520379
 10
1.5004346670797717
 20
-11.43115079342735
 10
1.5074323009478625
 20
-11.43067233701619
 10
1.5144624084562461
 20
-11.430434903045043
 10
1.5215257735416938
 20
-11.43044098442831
 10
1.5286233183766849
 20
-11.430694060596693
 10
1.534734941289372
 20
-11.431110977914122
 10
1.540873233340841
 20
-11.431716196751225
 10
1.547039065386211
 20
-11.432513914216637
 10
1.5532334181800729
 20
-11.433509070264414
 10
1.5594573958911018
 20
-11.434707432326286
 10
1.565712242599923
 20
-11.436115699761327
 10
1.5719993625182886
 20
-11.437741632956858
 10
1.578320344911336
 20
-11.439594213531821
 10
1.5846769950435542
 20
-11.441683844342673
 10
1.5910713729483723
 20
-11.444022601172879
 10
1.597505842511294
 20
-11.446624552569421
 10
1.6039831343697284
 20
-11.449506171022712
 10
1.609415866823686
 20
-11.45213505553966
 10
1.614882663946819
 20
-11.454984700557986
 10
1.6203859786607233
 20
-11.458070362374606
 10
1.6259286611025743
 20
-11.461409906485734
 10
1.6315140553286098
 20
-11.465024446521337
 10
1.63714612930187
 20
-11.4689392044515
 10
1.6428296534069202
 20
-11.473184693724363
 10
1.6474173866748674
 20
-11.476844103161353
 10
1.6520453615790562
 20
-11.480762345634991
 10
1.6567179365696738
 20
-11.484967719210136
 10
1.6614404549315505
 20
-11.489495054819301
 10
1.6662195941925027
 20
-11.494388046760413
 10
1.6698461527613713
 20
-11.498330887244261
 10
1.6735138552190665
 20
-11.502540533249425
 10
1.6772283881411036
 20
-11.507054535077325
 10
1.6809970343623062
 20
-11.511921101060567
 10
1.6848293919104653
 20
-11.517203915201298
 10
1.688738575048888
 20
-11.522990191999613
 10
1.6913963150754365
 20
-11.527186965300373
 10
1.6941040777459901
 20
-11.53171340844335
 10
1.6968724332774603
 20
-11.53664019254435
 10
1.699716544800382
 20
-11.542068836948935
 10
1.7026596002121228
 20
-11.548154800045143
 10
1.7041793772468938
 20
-11.55151908232086
 10
1.7057404898897752
 20
-11.5551591663211
 10
1.707353537738257
 20
-11.559146316833518
 10
1.7090347589689114
 20
-11.563589779158129
 10
1.710811437543539
 20
-11.568673229332028
 10
1.7127366719214985
 20
-11.574754358837742
 10
1.7149472735893256
 20
-11.582755400413095
 10
1.7188792540184228
 20
-11.602365927262639
 10
2.0656724584658943
 20
-13.943206128621224
 10
2.068877508919878
 20
-13.960757135535419
 10
2.0768353302425653
 20
-13.996684402853361
 10
2.089710943620987
 20
-14.046408803442576
 10
2.1090732427164482
 20
-14.111834097714585
 10
2.136017957777165
 20
-14.192551739409236
 10
2.171619655059043
 20
-14.288096385336146
 10
2.2169291268256632
 20
-14.397946893380832
 10
2.272970825845825
 20
-14.521527432810656
 10
2.340740349023614
 20
-14.658208704969908
 10
2.421201974715971
 20
-14.807309272267064
 10
2.5152862582056876
 20
-14.96809699317506
 10
2.623887689703347
 20
-15.139790560786034
 10
2.747862419150426
 20
-15.321561142287011
 10
2.8880260519875085
 20
-15.512534116551812
 10
3.045151519936655
 20
-15.711790906877606
 10
3.2199670307255293
 20
-15.918370905732624
 10
3.4131541005529957
 20
-16.131273488224053
 10
3.625345672962024
 20
-16.349460110843214
 10
3.857124327645706
 20
-16.571856491898103
 10
4.109020582566629
 20
-16.7973548699025
 10
4.381511292618569
 20
-17.024816336055114
 10
4.675018147902966
 20
-17.25307323681317
 10
4.787031637897241
 20
-17.336040500955626
 10
4.812166246138189
 20
-17.344827932831397
 10
5.392975651358438
 20
-17.173113102284486
 10
5.559466771358178
 20
-17.11993952145171
 10
5.565144873156781
 20
-17.118094594340125
 10
5.7310936652741775
 20
-17.063251899912107
 10
6.301909789585539
 20
-16.86078091322955
 10
6.317078991937321
 20
-16.838897979458963
 10
6.358932874655947
 20
-16.705936175314474
 10
6.4622188685470014
 20
-16.34875346253494
 10
6.548969988518985
 20
-16.004567250096798
 10
6.620213718562559
 20
-15.674074326337035
 10
6.67700527618774
 20
-15.357915799556885
 10
6.720424985306741
 20
-15.05667603698993
 10
6.751575609727217
 20
-14.770881719029871
 10
6.771579652090178
 20
-14.501001010144527
 10
6.781576623137519
 20
-14.247442847706292
 10
6.782720286236769
 20
-14.010556349770367
 10
6.776175882125591
 20
-13.790630342632715
 10
6.763117338865433
 20
-13.5878930087984
 10
6.7447244720127655
 20
-13.402511655789253
 10
6.722180180027209
 20
-13.234592606017465
 10
6.696667639938944
 20
-13.084181207749046
 10
6.6693675082927015
 20
-12.951261966978828
 10
6.641455132372547
 20
-12.835758799836377
 10
6.614097776690835
 20
-12.737535404941099
 10
6.588451869695602
 20
-12.656395754924347
 10
6.565660275614019
 20
-12.592084706137522
 10
6.546849596304741
 20
-12.544288725367682
 10
6.532170091108338
 20
-12.510545465532163
 10
6.524446808366394
 20
-12.494462521280482
 10
5.429097055966224
 20
-10.396843086095839
 10
5.420751316483066
 20
-10.378666676497385
 10
5.41783683655916
 20
-10.370894338831183
 10
5.415819985648343
 20
-10.364842977341493
 10
5.414269371765779
 20
-10.359686074296523
 10
5.413017706689158
 20
-10.355103040716825
 10
5.4119791015414505
 20
-10.35092924245657
 10
5.411102480507228
 20
-10.34706675365077
 10
5.410354530449803
 20
-10.34345168958803
 10
5.409158272939342
 20
-10.33679815744836
 10
5.408268330374329
 20
-10.330734565059583
 10
5.407612086009962
 20
-10.325121514439756
 10
5.407142135502392
 20
-10.319867962048555
 10
5.4068254908970985
 20
-10.314910520734669
 10
5.406586998322474
 20
-10.307931564273401
 10
5.406582280464933
 20
-10.301405074607105
 10
5.406770683589415
 20
-10.295252785352483
 10
5.407122540146247
 20
-10.289417533490345
 10
5.407615405925626
 20
-10.283856036917435
 10
5.40823180995039
 20
-10.278534574316538
 10
5.409222186328412
 20
-10.271766953106596
 10
5.410381682836173
 20
-10.265328435012751
 10
5.411690018843224
 20
-10.259179745653048
 10
5.413131044049343
 20
-10.253289565507133
 10
5.414691651329608
 20
-10.247632439126882
 10
5.416794282935179
 20
-10.2408570745057
 10
5.419049689515479
 20
-10.234379518790032
 10
5.421443795037876
 20
-10.228172282120077
 10
5.4239649845498565
 20
-10.22221262718325
 10
5.426603553169428
 20
-10.216481507107154
 10
5.429351305630801
 20
-10.210962793133138
 10
5.432201258962903
 20
-10.20564270086659
 10
5.435747725324324
 20
-10.199504165937395
 10
5.439423931892448
 20
-10.193617056723642
 10
5.443222405512408
 20
-10.187966441672259
 10
5.447136789323313
 20
-10.18253954963261
 10
5.4511616519597865
 20
-10.177325400233382
 10
5.455292339265872
 20
-10.17231451627907
 10
5.459524857720918
 20
-10.167498697340703
 10
5.4638557819148765
 20
-10.162870839758092
 10
5.468282180545652
 20
-10.158424792383657
 10
5.472801556893151
 20
-10.154155240253047
 10
5.4774118007723684
 20
-10.1500576103864
 10
5.482111149721334
 20
-10.1461279953757
 10
5.487704429671698
 20
-10.141751420273115
 10
5.493415237515901
 20
-10.137594758501919
 10
5.4992422741491
 20
-10.13365465310416
 10
5.505184708491143
 20
-10.129928626483249
 10
5.511242156640666
 20
-10.126415035773102
 10
5.8617704893029785
 20
-9.927612388219874
 10
6.2042991527544284
 20
-9.71722764080016
 10
6.539285277362389
 20
-9.495029703022077
 10
6.7760290205201095
 20
-9.327554433669594
 10
6.77712330352067
 20
-9.326759390532013
 10
7.009559589704311
 20
-9.153355415277195
 10
7.324398791719165
 20
-8.90342761748883
 10
7.630333754748827
 20
-8.642675962405432
 10
7.927725519963625
 20
-8.370737104101545
 10
7.932938997724851
 20
-8.366061887807534
 10
7.9383189728222066
 20
-8.361561702451231
 10
7.9438668890821384
 20
-8.357237420818075
 10
7.949584846021137
 20
-8.353090598931704
 10
7.955475634850465
 20
-8.349123509671305
 10
7.96066509950065
 20
-8.345868481050703
 10
7.965986820793583
 20
-8.342750115833116
 10
7.971443970264415
 20
-8.339771297674965
 10
7.977040244992418
 20
-8.336935446609942
 10
7.982779928280126
 20
-8.334246579574272
 10
7.988667964394372
 20
-8.331709385211049
 10
7.994710050807551
 20
-8.329329316430542
 10
8.000912752525318
 20
-8.327112705368503
 10
8.00728364468293
 20
-8.32506690700475
 10
8.01383149184988
 20
-8.32320047999606
 10
8.020566475734139
 20
-8.321523416578989
 10
8.027500487754718
 20
-8.320047438249825
 10
8.033440880184903
 20
-8.318980970484198
 10
8.039538591278358
 20
-8.318073079005709
 10
8.045804572916673
 20
-8.31733466462669
 10
8.052251631984456
 20
-8.316778505568596
 10
8.058894884160349
 20
-8.316419717529945
 10
8.065752364695939
 20
-8.316276373203008
 10
8.07284586826822
 20
-8.316370354524194
 10
8.07870836934681
 20
-8.316634276991744
 10
8.08475556483475
 20
-8.317083946344336
 10
8.091007613977501
 20
-8.317739694364608
 10
8.097489312691755
 20
-8.31862655916487
 10
8.104231746074921
 20
-8.31977596522233
 10
8.109483237076779
 20
-8.320834152536518
 10
8.114924838534572
 20
-8.322084006280567
 10
8.120583222497926
 20
-8.323552562801249
 10
8.126492617050923
 20
-8.32527454271601
 10
8.13269821967843
 20
-8.327295825885663
 10
8.13926190343927
 20
-8.329679261952384
 10
8.14387886174078
 20
-8.331512342482204
 10
8.148730064282773
 20
-8.333582728944487
 10
8.153865601990002
 20
-8.335941382455312
 10
8.1593574136669
 20
-8.33866152122599
 10
8.16531563486433
 20
-8.34185528423026
 10
8.168522635819336
 20
-8.343683743237378
 10
8.171925190170008
 20
-8.345711034065872
 10
8.175573761562038
 20
-8.347988580852968
 10
8.179545699732465
 20
-8.350595220342225
 10
8.183971039935862
 20
-8.353663512458734
 10
8.189102985506526
 20
-8.357451625199284
 10
8.195594294064565
 20
-8.362625244747402
 10
8.2103021115251
 20
-8.376179334128805
 10
9.866775055788771
 20
-10.066118906974502
 10
9.87968421910092
 20
-10.078434088446773
 10
9.907239749673828
 20
-10.102822368254586
 10
9.946883609055396
 20
-10.135482157708312
 10
10.001004061173779
 20
-10.177031458777561
 10
10.070247432954432
 20
-10.226495696514489
 10
10.15520954489541
 20
-10.282866786172027
 10
10.256434186146256
 20
-10.345105474727317
 10
10.374411691594414
 20
-10.412143747102604
 10
10.509577623585713
 20
-10.48288729281343
 10
10.662311560731574
 20
-10.55621802867033
 10
10.832935996077785
 20
-10.630996673063956
 10
11.021715346728048
 20
-10.706065367273922
 10
11.228855076830675
 20
-10.780250339159688
 10
11.454500935648483
 20
-10.852364604516865
 10
11.698738312241094
 20
-10.921210701314978
 10
11.961591708095208
 20
-10.985583451972968
 10
12.24302432884257
 20
-11.044272748776669
 10
12.542937796007664
 20
-11.096066357498062
 10
12.861171979527406
 20
-11.139752734239696
 10
13.197504951584692
 20
-11.174123850499015
 10
13.551653062095339
 20
-11.197978021426689
 10
13.923271135985535
 20
-11.2101227322404
 10
14.062658887276143
 20
-11.211404781431998
 10
14.08815833535213
 20
-11.203740211110231
 10
14.457111569672742
 20
-10.72342879223034
 10
14.560551068539962
 20
-10.58254943671135
 10
14.56406032844308
 20
-10.577719354826463
 10
14.666079994481278
 20
-10.435808430374532
 10
15.0088704797233
 20
-9.93648866163951
 10
15.008280156469755
 20
-9.909868762900906
 10
14.96398767127537
 20
-9.777699308732075
 10
14.837601064668513
 20
-9.428022440018953
 10
14.705476615293366
 20
-9.098578915987563
 10
14.568855137068265
 20
-8.789328510307332
 10
14.428967152896174
 20
-8.500169649198844
 10
14.287030145623323
 20
-8.230940097221728
 10
14.144245844878968
 20
-7.9814177594621825
 10
14.001797554545757
 20
-7.751321598432801
 10
13.860847525535757
 20
-7.540312663808563
 10
13.72253437846494
 20
-7.347995232937103
 10
13.58797058072986
 20
-7.17391805987931
 10
13.458239982393705
 20
-7.017575730557825
 10
13.33439541518582
 20
-6.878410121416582
 10
13.21745635880853
 20
-6.755811958824398
 10
13.108406678628587
 20
-6.64912247628995
 10
13.008192438707455
 20
-6.557635166394734
 10
12.917719793995264
 20
-6.48059762419467
 10
12.837852965378055
 20
-6.417213478690619
 10
12.769412301126733
 20
-6.366644408822895
 10
12.713172428149479
 20
-6.328012240305666
 10
12.669860496297169
 20
-6.300401119483646
 10
12.63815073662867
 20
-6.281730645496496
 10
12.622449152193497
 20
-6.2732589019723015
 10
10.503342818793767
 20
-5.220079561739779
 10
10.485907148219669
 20
-5.2102800400655855
 10
10.478980818975433
 20
-5.205705175124981
 10
10.473792251273533
 20
-5.201994996062166
 10
10.469506626733487
 20
-5.1987344018326125
 10
10.465800168866327
 20
-5.195762360053694
 10
10.462506622587966
 20
-5.192996163118833
 10
10.459527107316461
 20
-5.190386608950123
 10
10.456797121666886
 20
-5.187901594700817
 10
10.451918480943924
 20
-5.1832219166497975
 10
10.447634412102776
 20
-5.178839462475416
 10
10.443804230884833
 20
-5.174684139892965
 10
10.440336072320003
 20
-5.170710156705302
 10
10.437165990559734
 20
-5.16688562146296
 10
10.432870918329504
 20
-5.1613797095009355
 10
10.42903092712749
 20
-5.156102441534376
 10
10.425567123565285
 20
-5.1510143943950215
 10
10.422421906511369
 20
-5.146086760377065
 10
10.4195516776366
 20
-5.141297715898944
 10
10.4169224817306
 20
-5.136630249024677
 10
10.413745805110944
 20
-5.130572999825122
 10
10.41089939150846
 20
-5.124682594321265
 10
10.408343748645954
 20
-5.118939179526146
 10
10.406047401503912
 20
-5.113326910323831
 10
10.403984783858528
 20
-5.10783289699892
 10
10.40170338915711
 20
-5.101115616028539
 10
10.399720639689225
 20
-5.094549468646729
 10
10.398008989571084
 20
-5.088120488774131
 10
10.396545677451694
 20
-5.081817108636251
 10
10.395311656445905
 20
-5.07562962337614
 10
10.394290816197946
 20
-5.0695498016103215
 10
10.39346940510168
 20
-5.063570596016711
 10
10.392730416355985
 20
-5.05651985631343
 10
10.392244173969951
 20
-5.049596264906642
 10
10.391995855487599
 20
-5.042792134526367
 10
10.391972811406438
 20
-5.036100869563789
 10
10.392164193559255
 20
-5.029516779188382
 10
10.392560666099032
 20
-5.023034931832154
 10
10.393154178108487
 20
-5.01665104054125
 10
10.393937782945981
 20
-5.010361371739368
 10
10.394905493584469
 20
-5.004162672019715
 10
10.396052166077306
 20
-4.998052109021062
 10
10.397373405318836
 20
-4.99202722346061
 10
10.398865488730571
 20
-4.9860858901280265
 10
10.400818060963863
 20
-4.979257519026109
 10
10.402994977073556
 20
-4.972537980383843
 10
10.40539321289138
 20
-4.965925321959865
 10
10.40801063976463
 20
-4.959418027833086
 10
10.410845981458122
 20
-4.953014994548483
 10
10.57757609524336
 20
-4.586144889701611
 10
10.731026553195537
 20
-4.2146067568175685
 10
10.871431349967423
 20
-3.8379449452728642
 10
10.964521568044855
 20
-3.563300125428558
  0
ENDSEC
  0
SECTION
  2
OBJECTS
  0
DICTIONARY
  5
A
330
0
100
AcDbDictionary
281
1
  3
ACAD_COLOR
350
B
  3
ACAD_GROUP
350
C
  3
ACAD_LAYOUT
350
D
  3
ACAD_MATERIAL
350
E
  3
ACAD_MLEADERSTYLE
350
F
  3
ACAD_MLINESTYLE
350
10
  3
ACAD_PLOTSETTINGS
350
11
  3
ACAD_PLOTSTYLENAME
350
12
  3
ACAD_SCALELIST
350
14
  3
ACAD_TABLESTYLE
350
15
  3
ACAD_VISUALSTYLE
350
16
  0
DICTIONARY
  5
B
330
A
100
AcDbDictionary
281
1
  0
DICTIONARY
  5
C
330
A
100
AcDbDictionary
281
1
  0
DICTIONARY
  5
D
330
A
100
AcDbDictionary
281
1
  3
Model
350
1A
  3
Layout1
350
1E
  0
DICTIONARY
  5
E
330
A
100
AcDbDictionary
281
1
  3
ByBlock
350
1F
  3
ByLayer
350
20
  3
Global
350
21
  0
DICTIONARY
  5
F
330
A
100
AcDbDictionary
281
1
  3
Standard
350
2C
  0
DICTIONARY
  5
10
330
A
100
AcDbDictionary
281
1
  3
Standard
350
22
  0
DICTIONARY
  5
11
330
A
100
AcDbDictionary
281
1
  0
ACDBDICTIONARYWDFLT
  5
12
330
A
100
AcDbDictionary
281
1
  3
Normal
350
13
100
AcDbDictionaryWithDefault
340
13
  0
ACDBPLACEHOLDER
  5
13
330
12
  0
DICTIONARY
  5
14
330
A
100
AcDbDictionary
281
1
  0
DICTIONARY
  5
15
330
A
100
AcDbDictionary
281
1
  0
DICTIONARY
  5
16
330
A
100
AcDbDictionary
281
1
  0
LAYOUT
  5
1A
330
D
100
AcDbPlotSettings
  1

  2
Adobe PDF
  4
A4
  6

 40
3.175
 41
3.175
 42
3.175
 43
3.175
 44
209.91
 45
297.03
 46
0.0
 47
0.0
 48
0.0
 49
0.0
140
0.0
141
0.0
142
1.0
143
1.0
 70
1024
 72
0
 73
1
 74
5
  7

 75
16
 76
0
 77
2
 78
300
147
1.0
148
0.0
149
0.0
100
AcDbLayout
  1
Model
 70
1
 71
0
 10
-3.175
 20
-3.175
 11
293.857
 21
206.735
 12
0.0
 22
0.0
 32
0.0
 14
29.068
 24
20.356
 34
0.0
 15
261.614
 25
183.204
 35
0.0
146
0.0
 13
0.0
 23
0.0
 33
0.0
 16
1.0
 26
0.0
 36
0.0
 17
0.0
 27
1.0
 37
0.0
 76
1
330
17
  0
LAYOUT
  5
1E
330
D
100
AcDbPlotSettings
  1

  2
Adobe PDF
  4
A4
  6

 40
3.175
 41
3.175
 42
3.175
 43
3.175
 44
209.91
 45
297.03
 46
0.0
 47
0.0
 48
0.0
 49
0.0
140
0.0
141
0.0
142
1.0
143
1.0
 70
0
 72
0
 73
1
 74
5
  7

 75
16
 76
0
 77
2
 78
300
147
1.0
148
0.0
149
0.0
100
AcDbLayout
  1
Layout1
 70
1
 71
1
 10
-3.175
 20
-3.175
 11
293.857
 21
206.735
 12
0.0
 22
0.0
 32
0.0
 14
29.068
 24
20.356
 34
0.0
 15
261.614
 25
183.204
 35
0.0
146
0.0
 13
0.0
 23
0.0
 33
0.0
 16
1.0
 26
0.0
 36
0.0
 17
0.0
 27
1.0
 37
0.0
 76
1
330
1B
  0
MATERIAL
  5
1F
102
{ACAD_REACTORS
330
E
102
}
330
E
100
AcDbMaterial
  1
ByBlock
  2

 70
0
 40
1.0
 71
1
 41
1.0
 91
-1023410177
 42
1.0
 72
1
  3

 73
1
 74
1
 75
1
 44
0.5
 73
0
 45
1.0
 46
1.0
 77
1
  4

 78
1
 79
1
170
1
 48
1.0
171
1
  6

172
1
173
1
174
1
140
1.0
141
1.0
175
1
  7

176
1
177
1
178
1
143
1.0
179
1
  8

270
1
271
1
272
1
145
1.0
146
1.0
273
1
  9

274
1
275
1
276
1
 42
1.0
 72
1
  3

 73
1
 74
1
 75
1
 94
63
  0
MATERIAL
  5
20
102
{ACAD_REACTORS
330
E
102
}
330
E
100
AcDbMaterial
  1
ByLayer
  2

 70
0
 40
1.0
 71
1
 41
1.0
 91
-1023410177
 42
1.0
 72
1
  3

 73
1
 74
1
 75
1
 44
0.5
 73
0
 45
1.0
 46
1.0
 77
1
  4

 78
1
 79
1
170
1
 48
1.0
171
1
  6

172
1
173
1
174
1
140
1.0
141
1.0
175
1
  7

176
1
177
1
178
1
143
1.0
179
1
  8

270
1
271
1
272
1
145
1.0
146
1.0
273
1
  9

274
1
275
1
276
1
 42
1.0
 72
1
  3

 73
1
 74
1
 75
1
 94
63
  0
MATERIAL
  5
21
102
{ACAD_REACTORS
330
E
102
}
330
E
100
AcDbMaterial
  1
Global
  2

 70
0
 40
1.0
 71
1
 41
1.0
 91
-1023410177
 42
1.0
 72
1
  3

 73
1
 74
1
 75
1
 44
0.5
 73
0
 45
1.0
 46
1.0
 77
1
  4

 78
1
 79
1
170
1
 48
1.0
171
1
  6

172
1
173
1
174
1
140
1.0
141
1.0
175
1
  7

176
1
177
1
178
1
143
1.0
179
1
  8

270
1
271
1
272
1
145
1.0
146
1.0
273
1
  9

274
1
275
1
276
1
 42
1.0
 72
1
  3

 73
1
 74
1
 75
1
 94
63
  0
MLINESTYLE
  5
22
102
{ACAD_REACTORS
330
10
102
}
330
10
100
AcDbMlineStyle
  2
Standard
 70
0
  3

 62
256
 51
90.0
 52
90.0
 71
2
 49
0.5
 62
256
  6
BYLAYER
 49
-0.5
 62
256
  6
BYLAYER
  0
MLEADERSTYLE
  5
2C
102
{ACAD_REACTORS
330
F
102
}
330
F
100
AcDbMLeaderStyle
179
2
170
2
171
1
172
0
 90
2
 40
0.0
 41
0.0
173
1
 91
-1056964608
 92
-2
290
1
 42
2.0
291
1
 43
8.0
  3
Standard
 44
4.0
300

342
29
174
1
175
1
176
0
178
1
 93
-1056964608
 45
4.0
292
0
297
0
 46
4.0
 94
-1056964608
 47
1.0
 49
0.0
140
1.0
294
1
141
0.0
177
0
142
1.0
295
0
296
0
143
3.75
271
0
272
9
272
9
  0
ENDSEC
  0
EOF
