<?xml version="1.0" encoding="utf-8" ?>
<svg baseProfile="full" height="34.68965586566279mm" version="1.1" viewBox="-17.999999752468078 -17.344827932831397 35.999999504936156 34.68965586566279" width="35.999999504936156mm" xmlns="http://www.w3.org/2000/svg" xmlns:ev="http://www.w3.org/2001/xml-events" xmlns:xlink="http://www.w3.org/1999/xlink"><defs /><path d="M 10.96493954695776 -3.562013718609426 11.051060153246052 -3.2851043346197306 11.15886654449358 -2.8978506590543747 11.253107151389173 -2.5070740793510327 11.33386049299883 -2.112268427805784 11.335330261918562 -2.1054216930303467 11.337037610616619 -2.098618696579335 11.338984220183544 -2.0918592958911053 11.341172703771607 -2.0851435157503975 11.343606655483017 -2.0784715543222836 11.345891762757745 -2.0727878900623686 11.348364196636895 -2.0671370503138764 11.35102821791702 -2.0615195038222685 11.353888827843447 -2.055935844364253 11.35695185277659 -2.050386804047436 11.360224048627607 -2.0448732698966365 11.363713229888726 -2.039396304518683 11.367428429697103 -2.033957171905501 11.371380099614566 -2.0285573698079693 11.375580360979008 -2.0231986706401823 11.380043324254503 -2.017883173633532 11.384785499523764 -2.012613372076993 11.38896452392836 -2.008258906467355 11.393364030608016 -2.0039402621787348 11.397999287157786 -1.9996598207990828 11.402888165415085 -1.9954203924288088 11.408051779005483 -1.9912253211519102 11.413515341615996 -1.9870786272286691 11.419309347390215 -1.9829852029277921 11.424207340126511 -1.9797528290136928 11.429363933058424 -1.9765621668362494 11.434807386080113 -1.9734178158459597 11.440572476542732 -1.9703254576270441 11.446702823662626 -1.9672922437537772 11.451573356026378 -1.965061586310747 11.456710349680623 -1.9628742461444226 11.46215127433269 -1.960736418681387 11.467944229351172 -1.9586560747281703 11.474152747774992 -1.9566437654568303 11.480863828053014 -1.9547139692244795 11.48567648348295 -1.9534831825250858 11.490818131411652 -1.9523066950479269 11.496359250440985 -1.9511962924951263 11.502401076871095 -1.9501689250756162 11.509098625869289 -1.9492505790723287 11.512767885381672 -1.9488448056171654 11.516712221326745 -1.948484947082509 11.52100268600095 -1.948182944682582 11.52574819573126 -1.9479571136480045 11.531131868017509 -1.947838264406035 11.5375102960013 -1.9478864300677428 11.545802852211839 -1.9482564807661074 11.56566862033422 -1.9505769312222248 13.899104941149977 -2.344116397661456 13.916787355701372 -2.3464917729470183 13.953415319423689 -2.35002557128526 14.004684817969865 -2.35314582009759 14.072891249888457 -2.354948707164428 14.157984663864482 -2.354265883355732 14.259854551459078 -2.3499315764775868 14.378329989735345 -2.3407853819305813 14.513179904438227 -2.3256750457510433 14.664113453343418 -2.3034592350365886 14.830780529188656 -2.2730102907759373 15.012772381400366 -2.2332169581294687 15.209622355628968 -2.182987089241293 15.420806749908417 -2.1212503137059384 15.64574578605921 -2.0469606718627826 15.883804694760016 -1.9590992061490973 16.134294912521426 -1.8566765058080303 16.396475388606152 -1.7387352003208174 16.66955399975407 -1.604352397012889 16.9526890703874 -1.4526420583712967 17.24499099579244 -1.282757314705752 17.545523965598278 -1.0938927078875618 17.85330778470199 -0.8852863620096314 17.966828413911333 -0.8043934970344289 17.982952779351695 -0.7832045298688741 17.9991222475214 -0.17775915948343401 17.999999752468078 -0.0029851547733050765 17.999999752468078 0.0029851547733050765 17.9991222475214 0.17775915948343401 17.982952779351695 0.7832045298688741 17.966828413911333 0.8043934970344289 17.85330778470199 0.8852863620096314 17.545523965598278 1.0938927078875618 17.24499099579244 1.282757314705752 16.9526890703874 1.4526420583712967 16.66955399975407 1.604352397012889 16.396475388606152 1.7387352003208174 16.134294912521426 1.8566765058080303 15.883804694760016 1.9590992061490973 15.64574578605921 2.0469606718627826 15.420806749908417 2.1212503137059384 15.209622355628968 2.182987089241293 15.012772381400366 2.2332169581294687 14.830780529188656 2.2730102907759373 14.664113453343418 2.3034592350365886 14.513179904438227 2.3256750457510433 14.378329989735345 2.3407853819305813 14.259854551459078 2.3499315764775868 14.157984663864482 2.354265883355732 14.072891249888457 2.354948707164428 14.004684817969865 2.35314582009759 13.953415319423689 2.35002557128526 13.916787355701372 2.3464917729470183 13.899104941149977 2.344116397661456 11.56566862033422 1.9505769312222248 11.545802852211839 1.9482564807661074 11.5375102960013 1.9478864300677428 11.531131868017509 1.947838264406035 11.52574819573126 1.9479571136480045 11.52100268600095 1.948182944682582 11.516712221326745 1.948484947082509 11.512767885381672 1.9488448056171654 11.509098625869289 1.9492505790723287 11.502401076871095 1.9501689250756162 11.496359250440985 1.9511962924951263 11.490818131411652 1.9523066950479269 11.48567648348295 1.9534831825250858 11.480863828053014 1.9547139692244795 11.474152747774992 1.9566437654568303 11.467944229351172 1.9586560747281703 11.46215127433269 1.960736418681387 11.456710349680623 1.9628742461444226 11.451573356026378 1.965061586310747 11.446702823662626 1.9672922437537772 11.440572476542732 1.9703254576270441 11.434807386080113 1.9734178158459597 11.429363933058424 1.9765621668362494 11.424207340126511 1.9797528290136928 11.419309347390215 1.9829852029277921 11.413515341615996 1.9870786272286691 11.408051779005483 1.9912253211519102 11.402888165415085 1.9954203924288088 11.397999287157786 1.9996598207990828 11.393364030608016 2.0039402621787348 11.38896452392836 2.008258906467355 11.384785499523764 2.012613372076993 11.380043324254503 2.017883173633532 11.375580360979008 2.0231986706401823 11.371380099614566 2.0285573698079693 11.367428429697103 2.033957171905501 11.363713229888726 2.039396304518683 11.360224048627607 2.0448732698966365 11.35695185277659 2.050386804047436 11.353888827843447 2.055935844364253 11.35102821791702 2.0615195038222685 11.348364196636895 2.0671370503138764 11.345891762757745 2.0727878900623686 11.343606655483017 2.0784715543222836 11.341172703771607 2.0851435157503975 11.338984220183544 2.0918592958911053 11.337037610616619 2.098618696579335 11.335330261918562 2.1054216930303467 11.33386049299883 2.112268427805784 11.253107151389173 2.5070740793510327 11.15886654449358 2.8978506590543747 11.051060153246052 3.2851043346197306 10.96493954695776 3.562013718609426 10.964521568044857 3.563300125428555 10.871431349967422 3.837944945272861 10.731026553195537 4.214606756817566 10.577576095243362 4.5861448897016075 10.410845981458122 4.9530149945484805 10.40801063976463 4.959418027833084 10.405393212891378 4.965925321959864 10.402994977073556 4.972537980383841 10.400818060963864 4.979257519026106 10.398865488730573 4.986085890128024 10.397373405318838 4.992027223460608 10.396052166077308 4.998052109021059 10.39490549358447 5.004162672019714 10.393937782945981 5.010361371739364 10.393154178108485 5.016651040541247 10.392560666099033 5.023034931832151 10.392164193559253 5.029516779188379 10.39197281140644 5.0361008695637866 10.391995855487599 5.042792134526364 10.392244173969953 5.049596264906639 10.392730416355985 5.056519856313428 10.393469405101682 5.063570596016708 10.394290816197946 5.069549801610319 10.395311656445905 5.0756296233761375 10.396545677451696 5.081817108636248 10.398008989571085 5.088120488774129 10.399720639689225 5.094549468646727 10.40170338915711 5.101115616028537 10.403984783858526 5.107832896998916 10.406047401503914 5.113326910323828 10.408343748645956 5.1189391795261425 10.410899391508462 5.124682594321262 10.413745805110944 5.13057299982512 10.416922481730602 5.136630249024675 10.419551677636601 5.141297715898942 10.422421906511367 5.146086760377062 10.425567123565287 5.151014394395019 10.429030927127492 5.156102441534373 10.432870918329506 5.161379709500934 10.437165990559736 5.166885621462958 10.440336072320001 5.170710156705299 10.443804230884835 5.174684139892962 10.447634412102776 5.178839462475414 10.451918480943924 5.183221916649794 10.456797121666888 5.187901594700814 10.459527107316461 5.190386608950121 10.462506622587968 5.1929961631188295 10.465800168866329 5.195762360053691 10.469506626733487 5.19873440183261 10.473792251273531 5.201994996062164 10.478980818975435 5.2057051751249785 10.48590714821967 5.210280040065584 10.503342818793769 5.220079561739777 12.622449152193498 6.2732589019723 12.638150736628672 6.281730645496492 12.66986049629717 6.300401119483642 12.71317242814948 6.328012240305663 12.769412301126733 6.36664440882289 12.837852965378056 6.4172134786906145 12.917719793995266 6.480597624194666 13.008192438707457 6.557635166394729 13.108406678628587 6.649122476289946 13.217456358808532 6.755811958824395 13.33439541518582 6.878410121416579 13.458239982393707 7.017575730557821 13.58797058072986 7.173918059879306 13.722534378464943 7.347995232937099 13.860847525535757 7.540312663808559 14.001797554545758 7.751321598432797 14.14424584487897 7.981417759462179 14.287030145623323 8.230940097221723 14.428967152896176 8.500169649198838 14.568855137068267 8.789328510307326 14.705476615293367 9.09857891598756 14.837601064668515 9.42802244001895 14.963987671275373 9.77769930873207 15.008280156469757 9.909868762900901 15.008870479723301 9.936488661639507 14.66607999448128 10.435808430374527 14.564060328443082 10.57771935482646 14.560551068539963 10.582549436711346 14.457111569672744 10.723428792230335 14.088158335352132 11.203740211110228 14.062658887276145 11.211404781431996 13.923271135985537 11.210122732240398 13.55165306209534 11.197978021426685 13.197504951584694 11.174123850499011 12.861171979527407 11.139752734239694 12.542937796007665 11.09606635749806 12.243024328842573 11.044272748776663 11.96159170809521 10.985583451972964 11.698738312241096 10.921210701314974 11.454500935648486 10.852364604516863 11.228855076830676 10.780250339159684 11.021715346728051 10.706065367273919 10.832935996077786 10.630996673063953 10.662311560731577 10.556218028670326 10.509577623585715 10.482887292813427 10.374411691594414 10.4121437471026 10.256434186146258 10.345105474727314 10.155209544895412 10.282866786172026 10.070247432954433 10.226495696514485 10.001004061173779 10.177031458777558 9.946883609055398 10.135482157708308 9.90723974967383 10.102822368254582 9.879684219100922 10.07843408844677 9.866775055788773 10.0661189069745 8.210302111525102 8.376179334128802 8.195594294064566 8.3626252447474 8.189102985506528 8.357451625199282 8.183971039935864 8.353663512458734 8.179545699732468 8.350595220342223 8.17557376156204 8.347988580852965 8.17192519017001 8.34571103406587 8.16852263581934 8.343683743237376 8.165315634864331 8.341855284230256 8.1593574136669 8.338661521225989 8.153865601990002 8.33594138245531 8.148730064282775 8.333582728944483 8.143878861740781 8.331512342482203 8.139261903439271 8.329679261952382 8.132698219678431 8.327295825885663 8.126492617050925 8.325274542716006 8.120583222497928 8.323552562801247 8.114924838534574 8.322084006280566 8.10948323707678 8.320834152536515 8.104231746074923 8.319775965222329 8.097489312691755 8.31862655916487 8.091007613977503 8.317739694364606 8.084755564834753 8.317083946344335 8.078708369346812 8.316634276991742 8.072845868268221 8.316370354524192 8.065752364695939 8.316276373203005 8.058894884160352 8.316419717529943 8.052251631984458 8.316778505568594 8.045804572916675 8.317334664626689 8.039538591278362 8.318073079005705 8.033440880184907 8.318980970484196 8.02750048775472 8.320047438249823 8.020566475734142 8.321523416578987 8.013831491849881 8.323200479996057 8.007283644682934 8.325066907004748 8.00091275252532 8.3271127053685 7.994710050807551 8.32932931643054 7.9886679643943745 8.331709385211045 7.982779928280126 8.33424657957427 7.977040244992418 8.33693544660994 7.971443970264418 8.339771297674963 7.965986820793586 8.342750115833113 7.960665099500653 8.345868481050701 7.955475634850468 8.349123509671301 7.94958484602114 8.3530905989317 7.943866889082139 8.357237420818072 7.9383189728222066 8.36156170245123 7.932938997724854 8.366061887807533 7.927725519963625 8.370737104101543 7.630333754748829 8.64267596240543 7.324398791719168 8.903427617488827 7.0095595897043115 9.153355415277193 6.777123303520673 9.326759390532011 6.776029020520111 9.327554433669592 6.53928527736239 9.495029703022075 6.20429915275443 9.717227640800159 5.861770489302982 9.927612388219872 5.511242156640669 10.1264150357731 5.505184708491146 10.129928626483247 5.499242274149102 10.133654653104157 5.4934152375159035 10.137594758501915 5.4877044296717 10.141751420273112 5.4821111497213355 10.1461279953757 5.47741180077237 10.150057610386396 5.472801556893153 10.154155240253045 5.468282180545654 10.158424792383657 5.463855781914878 10.162870839758092 5.45952485772092 10.167498697340699 5.455292339265874 10.172314516279068 5.451161651959789 10.177325400233379 5.447136789323316 10.182539549632608 5.443222405512411 10.187966441672257 5.439423931892451 10.193617056723642 5.435747725324327 10.199504165937391 5.432201258962905 10.205642700866589 5.429351305630804 10.210962793133136 5.42660355316943 10.21648150710715 5.423964984549859 10.22221262718325 5.421443795037879 10.228172282120077 5.4190496895154805 10.23437951879003 5.4167942829351805 10.240857074505698 5.41469165132961 10.247632439126878 5.413131044049345 10.253289565507131 5.411690018843226 10.259179745653048 5.410381682836175 10.265328435012751 5.409222186328415 10.271766953106596 5.408231809950392 10.278534574316534 5.407615405925629 10.283856036917433 5.40712254014625 10.289417533490344 5.406770683589417 10.295252785352483 5.406582280464935 10.301405074607104 5.406586998322477 10.3079315642734 5.406825490897101 10.314910520734669 5.4071421355023945 10.319867962048555 5.407612086009965 10.325121514439754 5.408268330374331 10.330734565059583 5.409158272939345 10.336798157448357 5.410354530449805 10.343451689588028 5.411102480507231 10.34706675365077 5.411979101541453 10.350929242456568 5.4130177066891605 10.355103040716823 5.414269371765782 10.359686074296519 5.415819985648346 10.36484297734149 5.417836836559163 10.370894338831182 5.420751316483068 10.378666676497383 5.429097055966226 10.396843086095839 6.524446808366395 12.494462521280479 6.532170091108339 12.510545465532159 6.546849596304742 12.54428872536768 6.565660275614022 12.59208470613752 6.588451869695605 12.656395754924343 6.614097776690837 12.737535404941097 6.641455132372551 12.835758799836373 6.669367508292704 12.951261966978826 6.696667639938947 13.084181207749044 6.722180180027211 13.234592606017463 6.744724472012768 13.402511655789251 6.763117338865435 13.587893008798396 6.776175882125592 13.790630342632713 6.782720286236772 14.010556349770363 6.781576623137522 14.24744284770629 6.771579652090181 14.501001010144526 6.751575609727221 14.77088171902987 6.720424985306744 15.056676036989929 6.677005276187742 15.357915799556883 6.620213718562563 15.67407432633703 6.54896998851899 16.004567250096798 6.462218868547005 16.34875346253494 6.358932874655951 16.70593617531447 6.317078991937324 16.83889797945896 6.301909789585544 16.86078091322955 5.731093665274181 17.063251899912107 5.565144873156785 17.118094594340125 5.559466771358182 17.11993952145171 5.392975651358442 17.173113102284486 4.812166246138194 17.344827932831397 4.787031637897245 17.336040500955622 4.6750181479029695 17.253073236813165 4.381511292618573 17.024816336055114 4.109020582566633 16.7973548699025 3.8571243276457094 16.5718564918981 3.625345672962028 16.349460110843214 3.4131541005529993 16.13127348822405 3.219967030725533 15.918370905732623 3.045151519936659 15.711790906877605 2.888026051987512 15.51253411655181 2.7478624191504295 15.321561142287011 2.62388768970335 15.139790560786032 2.5152862582056907 14.96809699317506 2.421201974715974 14.807309272267062 2.340740349023617 14.658208704969907 2.272970825845829 14.521527432810654 2.216929126825666 14.39794689338083 2.1716196550590467 14.288096385336146 2.136017957777168 14.192551739409234 2.109073242716452 14.111834097714585 2.0897109436209895 14.046408803442574 2.076835330242568 13.99668440285336 2.0688775089198805 13.960757135535419 2.0656724584658974 13.943206128621224 1.7188792540184257 11.602365927262639 1.714947273589328 11.582755400413093 1.7127366719215014 11.57475435883774 1.710811437543542 11.568673229332026 1.7090347589689139 11.563589779158129 1.7073535377382598 11.559146316833516 1.705740489889778 11.555159166321099 1.7041793772468967 11.55151908232086 1.7026596002121257 11.548154800045141 1.6997165448003848 11.542068836948935 1.6968724332774627 11.53664019254435 1.6941040777459928 11.531713408443348 1.691396315075439 11.527186965300373 1.6887385750488908 11.522990191999613 1.6848293919104682 11.517203915201296 1.6809970343623086 11.511921101060565 1.677228388141106 11.507054535077325 1.673513855219069 11.502540533249423 1.6698461527613742 11.49833088724426 1.6662195941925055 11.494388046760413 1.6614404549315533 11.489495054819301 1.6567179365696767 11.484967719210136 1.6520453615790587 11.480762345634991 1.6474173866748703 11.476844103161351 1.6428296534069227 11.473184693724363 1.6371461293018725 11.468939204451498 1.6315140553286127 11.465024446521335 1.6259286611025772 11.461409906485734 1.6203859786607262 11.458070362374606 1.614882663946822 11.454984700557986 1.6094158668236889 11.452135055539658 1.6039831343697313 11.44950617102271 1.597505842511297 11.446624552569421 1.5910713729483752 11.444022601172879 1.584676995043557 11.441683844342672 1.578320344911339 11.43959421353182 1.571999362518291 11.437741632956858 1.565712242599926 11.436115699761325 1.5594573958911047 11.434707432326286 1.5532334181800758 11.433509070264414 1.5470390653862138 11.432513914216637 1.540873233340844 11.431716196751223 1.5347349412893745 11.431110977914122 1.528623318376688 11.430694060596693 1.5215257735416963 11.43044098442831 1.514462408456249 11.430434903045043 1.507432300947865 11.430672337016189 1.5004346670797748 11.431150793427348 1.4934688517822492 11.431868717520377 1.0930322093000364 11.47706938157266 0.6922596476666936 11.508197842417045 0.29064550906329156 11.525335838406678 0.0006763040876589521 11.52899998016362 -0.0006763040876576198 11.528999980163622 -0.29064550906329023 11.525335838406676 -0.6922596476666922 11.508197842417047 -1.093032209300035 11.477069381572662 -1.4934688517822474 11.431868717520379 -1.500434667079773 11.43115079342735 -1.5074323009478634 11.43067233701619 -1.5144624084562475 11.430434903045043 -1.5215257735416947 11.430440984428312 -1.5286233183766862 11.430694060596693 -1.5347349412893734 11.431110977914123 -1.5408732333408424 11.431716196751225 -1.5470390653862123 11.432513914216637 -1.5532334181800742 11.433509070264414 -1.559457395891103 11.434707432326288 -1.5657122425999244 11.436115699761327 -1.57199936251829 11.437741632956858 -1.5783203449113374 11.439594213531821 -1.5846769950435555 11.441683844342673 -1.5910713729483736 11.444022601172879 -1.5975058425112953 11.446624552569421 -1.6039831343697297 11.449506171022712 -1.6094158668236873 11.45213505553966 -1.6148826639468203 11.454984700557986 -1.6203859786607246 11.458070362374606 -1.6259286611025756 11.461409906485734 -1.6315140553286112 11.465024446521337 -1.637146129301871 11.4689392044515 -1.642829653406921 11.473184693724363 -1.6474173866748687 11.476844103161353 -1.6520453615790571 11.480762345634991 -1.6567179365696751 11.484967719210136 -1.6614404549315518 11.489495054819301 -1.666219594192504 11.494388046760413 -1.6698461527613726 11.498330887244261 -1.6735138552190678 11.502540533249425 -1.6772283881411045 11.507054535077325 -1.680997034362307 11.511921101060567 -1.6848293919104667 11.517203915201298 -1.6887385750488892 11.522990191999613 -1.6913963150754379 11.527186965300373 -1.6941040777459915 11.53171340844335 -1.6968724332774612 11.53664019254435 -1.6997165448003833 11.542068836948937 -1.7026596002121241 11.548154800045143 -1.7041793772468952 11.55151908232086 -1.7057404898897766 11.5551591663211 -1.7073535377382583 11.559146316833518 -1.7090347589689123 11.56358977915813 -1.7108114375435404 11.568673229332028 -1.7127366719214998 11.574754358837742 -1.7149472735893265 11.582755400413095 -1.7188792540184241 11.602365927262639 -2.065672458465896 13.943206128621226 -2.0688775089198796 13.96075713553542 -2.076835330242567 13.996684402853361 -2.0897109436209886 14.046408803442576 -2.10907324271645 14.111834097714585 -2.136017957777166 14.192551739409236 -2.171619655059045 14.288096385336146 -2.216929126825665 14.397946893380832 -2.2729708258458268 14.521527432810656 -2.3407403490236147 14.658208704969908 -2.421201974715972 14.807309272267064 -2.5152862582056885 14.968096993175061 -2.623887689703348 15.139790560786034 -2.7478624191504277 15.321561142287013 -2.8880260519875103 15.512534116551812 -3.0451515199366566 15.711790906877606 -3.219967030725531 15.918370905732624 -3.4131541005529975 16.131273488224053 -3.625345672962026 16.349460110843214 -3.8571243276457077 16.571856491898103 -4.1090205825666315 16.7973548699025 -4.381511292618571 17.024816336055114 -4.675018147902968 17.25307323681317 -4.787031637897242 17.336040500955626 -4.812166246138191 17.344827932831397 -5.39297565135844 17.173113102284486 -5.5594667713581805 17.11993952145171 -5.565144873156783 17.118094594340125 -5.731093665274179 17.063251899912107 -6.301909789585541 16.86078091322955 -6.317078991937323 16.838897979458963 -6.358932874655949 16.705936175314474 -6.462218868547003 16.34875346253494 -6.548969988518988 16.004567250096798 -6.620213718562561 15.674074326337035 -6.677005276187741 15.357915799556885 -6.720424985306742 15.05667603698993 -6.751575609727219 14.770881719029871 -6.77157965209018 14.501001010144527 -6.7815766231375205 14.247442847706292 -6.782720286236771 14.010556349770365 -6.776175882125591 13.790630342632715 -6.763117338865434 13.587893008798398 -6.744724472012766 13.402511655789253 -6.72218018002721 13.234592606017465 -6.696667639938946 13.084181207749046 -6.669367508292703 12.951261966978828 -6.641455132372549 12.835758799836377 -6.614097776690836 12.737535404941099 -6.588451869695604 12.656395754924347 -6.565660275614021 12.592084706137522 -6.546849596304742 12.544288725367682 -6.532170091108339 12.51054546553216 -6.524446808366395 12.49446252128048 -5.429097055966225 10.396843086095839 -5.4207513164830665 10.378666676497385 -5.417836836559161 10.370894338831183 -5.415819985648344 10.364842977341493 -5.41426937176578 10.35968607429652 -5.413017706689159 10.355103040716825 -5.411979101541452 10.35092924245657 -5.41110248050723 10.34706675365077 -5.410354530449804 10.34345168958803 -5.409158272939344 10.336798157448358 -5.40826833037433 10.330734565059583 -5.407612086009964 10.325121514439756 -5.407142135502394 10.319867962048555 -5.4068254908971 10.314910520734669 -5.406586998322476 10.307931564273401 -5.406582280464934 10.301405074607105 -5.406770683589416 10.295252785352483 -5.407122540146249 10.289417533490345 -5.407615405925627 10.283856036917435 -5.408231809950391 10.278534574316538 -5.409222186328414 10.271766953106596 -5.410381682836174 10.265328435012751 -5.411690018843224 10.259179745653048 -5.413131044049344 10.253289565507133 -5.414691651329609 10.247632439126882 -5.41679428293518 10.2408570745057 -5.41904968951548 10.234379518790032 -5.421443795037878 10.228172282120077 -5.423964984549858 10.22221262718325 -5.4266035531694286 10.216481507107154 -5.429351305630803 10.210962793133138 -5.432201258962904 10.20564270086659 -5.435747725324326 10.199504165937395 -5.439423931892449 10.193617056723642 -5.44322240551241 10.187966441672259 -5.447136789323315 10.18253954963261 -5.451161651959788 10.177325400233382 -5.455292339265873 10.17231451627907 -5.459524857720919 10.1674986973407 -5.463855781914877 10.162870839758092 -5.468282180545653 10.158424792383657 -5.4728015568931525 10.154155240253047 -5.477411800772369 10.150057610386398 -5.482111149721335 10.1461279953757 -5.487704429671698 10.141751420273113 -5.493415237515903 10.137594758501919 -5.4992422741491005 10.13365465310416 -5.505184708491145 10.129928626483249 -5.511242156640668 10.126415035773102 -5.86177048930298 9.927612388219874 -6.20429915275443 9.71722764080016 -6.53928527736239 9.495029703022077 -6.77602902052011 9.327554433669594 -6.777123303520671 9.326759390532011 -7.009559589704311 9.153355415277195 -7.324398791719165 8.903427617488829 -7.630333754748827 8.64267596240543 -7.927725519963625 8.370737104101543 -7.932938997724851 8.366061887807533 -7.9383189728222066 8.361561702451231 -7.943866889082139 8.357237420818073 -7.949584846021137 8.353090598931702 -7.955475634850465 8.349123509671303 -7.96066509950065 8.345868481050701 -7.965986820793583 8.342750115833114 -7.971443970264415 8.339771297674963 -7.977040244992418 8.33693544660994 -7.982779928280126 8.33424657957427 -7.988667964394373 8.331709385211047 -7.994710050807551 8.32932931643054 -8.000912752525318 8.327112705368501 -8.007283644682932 8.325066907004748 -8.01383149184988 8.323200479996059 -8.020566475734139 8.321523416578989 -8.027500487754718 8.320047438249823 -8.033440880184905 8.318980970484198 -8.039538591278358 8.318073079005707 -8.045804572916673 8.31733466462669 -8.052251631984456 8.316778505568596 -8.05889488416035 8.316419717529943 -8.065752364695939 8.316276373203007 -8.07284586826822 8.316370354524192 -8.07870836934681 8.316634276991742 -8.08475556483475 8.317083946344336 -8.091007613977501 8.317739694364608 -8.097489312691755 8.31862655916487 -8.104231746074921 8.31977596522233 -8.109483237076779 8.320834152536516 -8.114924838534574 8.322084006280566 -8.120583222497926 8.323552562801249 -8.126492617050923 8.325274542716008 -8.13269821967843 8.327295825885663 -8.13926190343927 8.329679261952382 -8.14387886174078 8.331512342482204 -8.148730064282773 8.333582728944485 -8.153865601990002 8.33594138245531 -8.1593574136669 8.338661521225989 -8.16531563486433 8.341855284230258 -8.168522635819336 8.343683743237378 -8.171925190170008 8.345711034065872 -8.175573761562038 8.347988580852967 -8.179545699732465 8.350595220342223 -8.183971039935862 8.353663512458734 -8.189102985506526 8.357451625199282 -8.195594294064565 8.362625244747402 -8.2103021115251 8.376179334128803 -9.866775055788771 10.0661189069745 -9.87968421910092 10.07843408844677 -9.907239749673828 10.102822368254584 -9.946883609055396 10.13548215770831 -10.001004061173779 10.17703145877756 -10.070247432954432 10.226495696514487 -10.15520954489541 10.282866786172026 -10.256434186146256 10.345105474727315 -10.374411691594414 10.412143747102602 -10.509577623585713 10.482887292813428 -10.662311560731576 10.556218028670328 -10.832935996077785 10.630996673063954 -11.021715346728048 10.706065367273919 -11.228855076830675 10.780250339159686 -11.454500935648483 10.852364604516865 -11.698738312241094 10.921210701314976 -11.961591708095208 10.985583451972966 -12.243024328842571 11.044272748776665 -12.542937796007664 11.09606635749806 -12.861171979527406 11.139752734239696 -13.197504951584692 11.174123850499013 -13.551653062095339 11.197978021426687 -13.923271135985535 11.2101227322404 -14.062658887276143 11.211404781431998 -14.08815833535213 11.20374021111023 -14.457111569672742 10.723428792230337 -14.560551068539962 10.582549436711348 -14.56406032844308 10.577719354826462 -14.666079994481278 10.435808430374529 -15.0088704797233 9.936488661639508 -15.008280156469755 9.909868762900903 -14.96398767127537 9.777699308732071 -14.837601064668513 9.428022440018951 -14.705476615293366 9.098578915987561 -14.568855137068265 8.789328510307328 -14.428967152896174 8.500169649198842 -14.287030145623321 8.230940097221724 -14.144245844878968 7.981417759462181 -14.001797554545757 7.751321598432799 -13.860847525535757 7.540312663808561 -13.72253437846494 7.347995232937102 -13.58797058072986 7.173918059879308 -13.458239982393705 7.017575730557823 -13.334395415185819 6.8784101214165805 -13.21745635880853 6.755811958824396 -13.108406678628587 6.649122476289948 -13.008192438707455 6.557635166394732 -12.917719793995264 6.480597624194668 -12.837852965378055 6.417213478690617 -12.769412301126733 6.366644408822893 -12.713172428149479 6.3280122403056644 -12.669860496297169 6.300401119483644 -12.63815073662867 6.281730645496494 -12.622449152193497 6.2732589019723 -10.503342818793767 5.220079561739778 -10.485907148219669 5.210280040065585 -10.478980818975433 5.20570517512498 -10.473792251273533 5.201994996062165 -10.469506626733487 5.198734401832611 -10.465800168866327 5.195762360053694 -10.462506622587966 5.192996163118831 -10.459527107316461 5.1903866089501225 -10.456797121666886 5.187901594700817 -10.451918480943924 5.183221916649796 -10.447634412102776 5.178839462475415 -10.443804230884833 5.174684139892963 -10.440336072320003 5.170710156705301 -10.437165990559734 5.166885621462959 -10.432870918329504 5.161379709500935 -10.42903092712749 5.156102441534375 -10.425567123565285 5.15101439439502 -10.422421906511367 5.146086760377063 -10.4195516776366 5.141297715898943 -10.4169224817306 5.136630249024676 -10.413745805110944 5.130572999825121 -10.41089939150846 5.124682594321264 -10.408343748645954 5.118939179526144 -10.406047401503912 5.1133269103238295 -10.403984783858528 5.107832896998918 -10.40170338915711 5.1011156160285385 -10.399720639689223 5.094549468646728 -10.398008989571084 5.0881204887741305 -10.396545677451694 5.08181710863625 -10.395311656445905 5.075629623376138 -10.394290816197945 5.069549801610321 -10.39346940510168 5.06357059601671 -10.392730416355985 5.056519856313429 -10.392244173969951 5.049596264906641 -10.391995855487597 5.0427921345263655 -10.391972811406438 5.036100869563788 -10.392164193559253 5.029516779188381 -10.392560666099032 5.023034931832153 -10.393154178108485 5.016651040541248 -10.393937782945981 5.010361371739366 -10.394905493584469 5.0041626720197145 -10.396052166077306 4.998052109021062 -10.397373405318836 4.992027223460609 -10.398865488730571 4.986085890128025 -10.400818060963863 4.979257519026108 -10.402994977073556 4.9725379803838425 -10.40539321289138 4.9659253219598645 -10.408010639764628 4.959418027833085 -10.410845981458122 4.953014994548482 -10.57757609524336 4.586144889701609 -10.731026553195537 4.2146067568175685 -10.871431349967423 3.8379449452728633 -10.964521568044855 3.5633001254285572 -10.96493954695776 3.5620137186094274 -11.051060153246052 3.285104334619732 -11.15886654449358 2.897850659054376 -11.253107151389173 2.507074079351034 -11.33386049299883 2.1122684278057853 -11.335330261918562 2.105421693030348 -11.337037610616619 2.0986186965793365 -11.338984220183544 2.0918592958911066 -11.341172703771607 2.085143515750399 -11.343606655483017 2.078471554322285 -11.345891762757745 2.07278789006237 -11.348364196636895 2.0671370503138777 -11.35102821791702 2.06151950382227 -11.353888827843447 2.0559358443642544 -11.35695185277659 2.050386804047437 -11.360224048627607 2.044873269896638 -11.363713229888726 2.0393963045186845 -11.367428429697103 2.0339571719055023 -11.371380099614566 2.0285573698079706 -11.375580360979008 2.0231986706401837 -11.380043324254503 2.017883173633533 -11.384785499523764 2.0126133720769945 -11.38896452392836 2.0082589064673564 -11.393364030608016 2.003940262178736 -11.397999287157786 1.999659820799084 -11.402888165415085 1.99542039242881 -11.408051779005483 1.9912253211519115 -11.413515341615996 1.9870786272286705 -11.419309347390215 1.9829852029277935 -11.424207340126511 1.979752829013694 -11.429363933058424 1.9765621668362507 -11.434807386080113 1.973417815845961 -11.440572476542732 1.9703254576270455 -11.446702823662626 1.9672922437537785 -11.451573356026378 1.9650615863107483 -11.456710349680623 1.962874246144424 -11.46215127433269 1.9607364186813883 -11.467944229351172 1.9586560747281716 -11.474152747774992 1.9566437654568316 -11.480863828053014 1.9547139692244808 -11.48567648348295 1.9534831825250871 -11.490818131411652 1.9523066950479282 -11.496359250440985 1.9511962924951276 -11.502401076871095 1.9501689250756176 -11.509098625869289 1.94925057907233 -11.512767885381672 1.9488448056171668 -11.516712221326745 1.9484849470825103 -11.52100268600095 1.9481829446825834 -11.52574819573126 1.9479571136480058 -11.531131868017509 1.9478382644060364 -11.5375102960013 1.947886430067744 -11.545802852211839 1.9482564807661087 -11.56566862033422 1.950576931222226 -13.899104941149977 2.3441163976614576 -13.916787355701372 2.34649177294702 -13.953415319423689 2.350025571285262 -14.004684817969865 2.3531458200975917 -14.072891249888457 2.35494870716443 -14.157984663864482 2.3542658833557337 -14.259854551459078 2.3499315764775885 -14.378329989735345 2.340785381930583 -14.513179904438227 2.325675045751045 -14.664113453343418 2.3034592350365903 -14.830780529188656 2.273010290775939 -15.012772381400366 2.2332169581294705 -15.209622355628968 2.1829870892412946 -15.420806749908417 2.12125031370594 -15.64574578605921 2.0469606718627844 -15.883804694760016 1.9590992061490993 -16.134294912521426 1.8566765058080323 -16.396475388606152 1.7387352003208194 -16.66955399975407 1.604352397012891 -16.9526890703874 1.4526420583712987 -17.24499099579244 1.2827573147057543 -17.545523965598278 1.093892707887564 -17.85330778470199 0.8852863620096336 -17.966828413911333 0.8043934970344311 -17.982952779351695 0.7832045298688763 -17.9991222475214 0.1777591594834362 -17.999999752468078 0.002985154773307281 -17.999999752468078 -0.002985154773302872 -17.9991222475214 -0.17775915948343182 -17.982952779351695 -0.7832045298688719 -17.966828413911333 -0.8043934970344266 -17.85330778470199 -0.8852863620096292 -17.545523965598278 -1.0938927078875595 -17.24499099579244 -1.2827573147057498 -16.9526890703874 -1.4526420583712947 -16.66955399975407 -1.604352397012887 -16.396475388606152 -1.7387352003208154 -16.134294912521426 -1.8566765058080283 -15.883804694760016 -1.9590992061490953 -15.64574578605921 -2.046960671862781 -15.420806749908417 -2.1212503137059366 -15.209622355628968 -2.182987089241291 -15.012772381400366 -2.233216958129467 -14.830780529188656 -2.2730102907759355 -14.664113453343418 -2.303459235036587 -14.513179904438227 -2.3256750457510416 -14.378329989735345 -2.3407853819305795 -14.259854551459078 -2.349931576477585 -14.157984663864482 -2.35426588335573 -14.072891249888457 -2.3549487071644264 -14.004684817969865 -2.353145820097588 -13.953415319423689 -2.3500255712852582 -13.916787355701372 -2.3464917729470165 -13.899104941149977 -2.344116397661454 -11.56566862033422 -1.9505769312222234 -11.545802852211839 -1.948256480766106 -11.5375102960013 -1.9478864300677414 -11.531131868017509 -1.9478382644060337 -11.52574819573126 -1.9479571136480032 -11.52100268600095 -1.9481829446825807 -11.516712221326745 -1.9484849470825076 -11.512767885381672 -1.948844805617164 -11.509098625869289 -1.9492505790723273 -11.502401076871095 -1.950168925075615 -11.496359250440985 -1.951196292495125 -11.490818131411652 -1.9523066950479255 -11.48567648348295 -1.9534831825250845 -11.480863828053014 -1.9547139692244782 -11.474152747774992 -1.956643765456829 -11.467944229351172 -1.958656074728169 -11.46215127433269 -1.9607364186813856 -11.456710349680623 -1.9628742461444213 -11.451573356026378 -1.9650615863107457 -11.446702823662626 -1.9672922437537759 -11.440572476542732 -1.9703254576270428 -11.434807386080113 -1.9734178158459583 -11.429363933058424 -1.976562166836248 -11.424207340126511 -1.9797528290136914 -11.419309347390215 -1.9829852029277908 -11.413515341615996 -1.9870786272286678 -11.408051779005483 -1.9912253211519089 -11.402888165415085 -1.9954203924288074 -11.397999287157786 -1.9996598207990814 -11.393364030608016 -2.0039402621787334 -11.38896452392836 -2.0082589064673537 -11.384785499523764 -2.012613372076992 -11.380043324254503 -2.0178831736335305 -11.375580360979008 -2.023198670640181 -11.371380099614566 -2.028557369807968 -11.367428429697103 -2.0339571719054996 -11.363713229888726 -2.039396304518682 -11.360224048627607 -2.044873269896635 -11.35695185277659 -2.0503868040474345 -11.353888827843447 -2.0559358443642517 -11.35102821791702 -2.061519503822267 -11.348364196636895 -2.067137050313875 -11.345891762757745 -2.0727878900623673 -11.343606655483017 -2.0784715543222823 -11.341172703771607 -2.085143515750396 -11.338984220183544 -2.091859295891104 -11.337037610616619 -2.098618696579334 -11.335330261918562 -2.1054216930303453 -11.33386049299883 -2.1122684278057826 -11.253107151389173 -2.5070740793510313 -11.15886654449358 -2.8978506590543733 -11.051060153246052 -3.2851043346197293 -10.96493954695776 -3.5620137186094247 -10.964521568044859 -3.563300125428554 -10.871431349967423 -3.83794494527286 -10.731026553195537 -4.214606756817565 -10.577576095243364 -4.586144889701606 -10.410845981458124 -4.953014994548479 -10.40801063976463 -4.959418027833083 -10.40539321289138 -4.965925321959861 -10.402994977073558 -4.972537980383839 -10.400818060963864 -4.979257519026104 -10.398865488730575 -4.986085890128021 -10.397373405318838 -4.992027223460607 -10.396052166077308 -4.998052109021058 -10.39490549358447 -5.004162672019712 -10.393937782945983 -5.010361371739363 -10.393154178108487 -5.016651040541245 -10.392560666099033 -5.02303493183215 -10.392164193559255 -5.029516779188378 -10.39197281140644 -5.036100869563786 -10.3919958554876 -5.042792134526362 -10.392244173969953 -5.049596264906638 -10.392730416355986 -5.056519856313426 -10.393469405101682 -5.063570596016707 -10.394290816197946 -5.069549801610318 -10.395311656445907 -5.075629623376135 -10.396545677451698 -5.081817108636247 -10.398008989571085 -5.088120488774127 -10.399720639689225 -5.094549468646726 -10.40170338915711 -5.101115616028535 -10.403984783858528 -5.107832896998914 -10.406047401503915 -5.113326910323826 -10.408343748645958 -5.118939179526142 -10.410899391508462 -5.1246825943212615 -10.413745805110945 -5.130572999825118 -10.416922481730603 -5.136630249024672 -10.419551677636601 -5.141297715898939 -10.422421906511369 -5.1460867603770595 -10.425567123565289 -5.151014394395017 -10.429030927127492 -5.156102441534372 -10.432870918329508 -5.161379709500932 -10.437165990559736 -5.166885621462956 -10.440336072320003 -5.170710156705298 -10.443804230884837 -5.17468413989296 -10.447634412102776 -5.178839462475413 -10.451918480943926 -5.183221916649793 -10.45679712166689 -5.187901594700813 -10.459527107316461 -5.190386608950119 -10.462506622587966 -5.192996163118829 -10.46580016886633 -5.19576236005369 -10.469506626733489 -5.198734401832608 -10.473792251273533 -5.201994996062162 -10.478980818975437 -5.205705175124978 -10.48590714821967 -5.210280040065581 -10.50334281879377 -5.220079561739775 -12.6224491521935 -6.273258901972298 -12.638150736628674 -6.28173064549649 -12.669860496297172 -6.300401119483642 -12.71317242814948 -6.328012240305661 -12.769412301126735 -6.366644408822888 -12.837852965378058 -6.417213478690613 -12.917719793995266 -6.480597624194664 -13.008192438707459 -6.557635166394728 -13.108406678628588 -6.649122476289944 -13.217456358808533 -6.755811958824393 -13.334395415185822 -6.878410121416576 -13.458239982393707 -7.0175757305578195 -13.587970580729861 -7.173918059879304 -13.722534378464944 -7.347995232937097 -13.860847525535759 -7.540312663808557 -14.00179755454576 -7.751321598432796 -14.144245844878972 -7.981417759462177 -14.287030145623325 -8.23094009722172 -14.428967152896178 -8.500169649198838 -14.568855137068269 -8.789328510307325 -14.705476615293367 -9.098578915987558 -14.837601064668517 -9.428022440018948 -14.963987671275373 -9.777699308732068 -15.008280156469759 -9.909868762900897 -15.008870479723303 -9.936488661639505 -14.666079994481281 -10.435808430374525 -14.564060328443084 -10.577719354826458 -14.560551068539965 -10.582549436711345 -14.457111569672746 -10.723428792230333 -14.088158335352134 -11.203740211110226 -14.062658887276147 -11.211404781431993 -13.92327113598554 -11.210122732240396 -13.551653062095342 -11.197978021426684 -13.197504951584698 -11.17412385049901 -12.861171979527409 -11.139752734239693 -12.542937796007667 -11.096066357498056 -12.243024328842575 -11.044272748776661 -11.961591708095211 -10.985583451972962 -11.698738312241098 -10.921210701314973 -11.454500935648488 -10.852364604516861 -11.228855076830678 -10.780250339159682 -11.021715346728053 -10.706065367273917 -10.83293599607779 -10.630996673063951 -10.66231156073158 -10.556218028670324 -10.509577623585717 -10.482887292813427 -10.374411691594416 -10.412143747102599 -10.25643418614626 -10.345105474727312 -10.155209544895412 -10.282866786172024 -10.070247432954435 -10.226495696514483 -10.00100406117378 -10.177031458777556 -9.946883609055401 -10.135482157708307 -9.907239749673831 -10.102822368254582 -9.879684219100923 -10.078434088446768 -9.866775055788775 -10.066118906974499 -8.210302111525104 -8.376179334128802 -8.195594294064566 -8.362625244747399 -8.18910298550653 -8.35745162519928 -8.183971039935866 -8.353663512458732 -8.17954569973247 -8.350595220342221 -8.175573761562042 -8.347988580852965 -8.171925190170011 -8.345711034065868 -8.16852263581934 -8.343683743237376 -8.165315634864333 -8.341855284230256 -8.159357413666902 -8.338661521225987 -8.153865601990006 -8.335941382455308 -8.148730064282777 -8.333582728944483 -8.143878861740783 -8.331512342482203 -8.139261903439271 -8.32967926195238 -8.132698219678433 -8.327295825885662 -8.126492617050928 -8.325274542716006 -8.12058322249793 -8.323552562801247 -8.114924838534575 -8.322084006280564 -8.10948323707678 -8.320834152536513 -8.104231746074925 -8.319775965222327 -8.097489312691756 -8.318626559164867 -8.091007613977506 -8.317739694364606 -8.084755564834754 -8.317083946344333 -8.078708369346813 -8.31663427699174 -8.072845868268223 -8.31637035452419 -8.065752364695943 -8.316276373203005 -8.058894884160352 -8.316419717529941 -8.052251631984458 -8.316778505568594 -8.045804572916676 -8.317334664626687 -8.039538591278363 -8.318073079005703 -8.033440880184907 -8.318980970484194 -8.02750048775472 -8.320047438249821 -8.020566475734144 -8.321523416578987 -8.013831491849881 -8.323200479996057 -8.007283644682936 -8.325066907004746 -8.00091275252532 -8.3271127053685 -7.994710050807553 -8.329329316430538 -7.988667964394376 -8.331709385211045 -7.982779928280129 -8.334246579574268 -7.97704024499242 -8.336935446609939 -7.97144397026442 -8.339771297674961 -7.965986820793588 -8.342750115833113 -7.9606650995006545 -8.3458684810507 -7.95547563485047 -8.3491235096713 -7.949584846021142 -8.3530905989317 -7.943866889082141 -8.357237420818072 -7.938318972822209 -8.361561702451228 -7.932938997724854 -8.36606188780753 -7.927725519963627 -8.370737104101542 -7.630333754748831 -8.642675962405429 -7.324398791719168 -8.903427617488827 -7.009559589704313 -9.153355415277193 -6.777123303520675 -9.32675939053201 -6.776029020520112 -9.32755443366959 -6.539285277362392 -9.495029703022075 -6.204299152754432 -9.717227640800159 -5.861770489302983 -9.92761238821987 -5.5112421566406695 -10.1264150357731 -5.5051847084911465 -10.129928626483245 -5.499242274149103 -10.133654653104157 -5.493415237515904 -10.137594758501915 -5.487704429671701 -10.141751420273112 -5.482111149721337 -10.146127995375698 -5.477411800772372 -10.150057610386396 -5.472801556893154 -10.154155240253045 -5.468282180545655 -10.158424792383656 -5.46385578191488 -10.162870839758092 -5.459524857720922 -10.167498697340699 -5.455292339265876 -10.172314516279068 -5.45116165195979 -10.177325400233379 -5.447136789323317 -10.182539549632608 -5.443222405512412 -10.187966441672257 -5.439423931892452 -10.193617056723642 -5.435747725324329 -10.199504165937391 -5.432201258962906 -10.205642700866589 -5.429351305630805 -10.210962793133136 -5.426603553169431 -10.21648150710715 -5.42396498454986 -10.22221262718325 -5.421443795037881 -10.228172282120077 -5.419049689515481 -10.23437951879003 -5.416794282935182 -10.240857074505698 -5.414691651329612 -10.247632439126878 -5.413131044049345 -10.253289565507131 -5.411690018843227 -10.259179745653048 -5.410381682836176 -10.265328435012751 -5.4092221863284164 -10.271766953106596 -5.408231809950394 -10.278534574316534 -5.40761540592563 -10.283856036917433 -5.407122540146251 -10.289417533490344 -5.406770683589419 -10.295252785352483 -5.406582280464937 -10.301405074607102 -5.406586998322478 -10.307931564273398 -5.406825490897102 -10.314910520734669 -5.407142135502395 -10.319867962048555 -5.407612086009966 -10.325121514439754 -5.408268330374332 -10.330734565059581 -5.4091582729393455 -10.336798157448357 -5.410354530449807 -10.343451689588028 -5.411102480507232 -10.34706675365077 -5.411979101541455 -10.350929242456568 -5.413017706689161 -10.355103040716823 -5.414269371765783 -10.359686074296519 -5.415819985648347 -10.36484297734149 -5.417836836559164 -10.37089433883118 -5.420751316483069 -10.378666676497383 -5.429097055966228 -10.396843086095839 -6.524446808366397 -12.494462521280479 -6.532170091108341 -12.510545465532159 -6.546849596304744 -12.54428872536768 -6.565660275614023 -12.592084706137518 -6.588451869695607 -12.656395754924343 -6.614097776690839 -12.737535404941097 -6.641455132372553 -12.835758799836373 -6.669367508292706 -12.951261966978826 -6.696667639938949 -13.084181207749042 -6.7221801800272125 -13.234592606017463 -6.74472447201277 -13.402511655789251 -6.763117338865436 -13.587893008798396 -6.776175882125594 -13.790630342632713 -6.782720286236774 -14.010556349770363 -6.781576623137524 -14.24744284770629 -6.771579652090183 -14.501001010144526 -6.751575609727222 -14.77088171902987 -6.720424985306746 -15.056676036989929 -6.677005276187744 -15.357915799556881 -6.620213718562565 -15.67407432633703 -6.548969988518992 -16.004567250096798 -6.462218868547007 -16.34875346253494 -6.358932874655952 -16.70593617531447 -6.317078991937326 -16.83889797945896 -6.301909789585546 -16.86078091322955 -5.731093665274184 -17.063251899912107 -5.565144873156787 -17.118094594340125 -5.559466771358184 -17.11993952145171 -5.392975651358444 -17.173113102284486 -4.8121662461381955 -17.344827932831397 -4.787031637897247 -17.336040500955622 -4.675018147902971 -17.253073236813165 -4.381511292618574 -17.024816336055114 -4.109020582566635 -16.7973548699025 -3.8571243276457112 -16.5718564918981 -3.62534567296203 -16.349460110843214 -3.413154100553001 -16.131273488224053 -3.2199670307255346 -15.918370905732623 -3.0451515199366606 -15.711790906877605 -2.888026051987514 -15.51253411655181 -2.7478624191504313 -15.321561142287011 -2.6238876897033516 -15.139790560786032 -2.5152862582056925 -14.96809699317506 -2.421201974715976 -14.807309272267062 -2.3407403490236187 -14.658208704969907 -2.2729708258458308 -14.521527432810656 -2.2169291268256677 -14.39794689338083 -2.1716196550590485 -14.288096385336146 -2.13601795777717 -14.192551739409234 -2.1090732427164536 -14.111834097714585 -2.0897109436209913 -14.046408803442576 -2.0768353302425697 -13.99668440285336 -2.0688775089198823 -13.960757135535419 -2.065672458465899 -13.943206128621224 -1.718879254018427 -11.602365927262639 -1.7149472735893294 -11.582755400413093 -1.7127366719215027 -11.574754358837742 -1.7108114375435433 -11.568673229332026 -1.7090347589689152 -11.563589779158129 -1.7073535377382612 -11.559146316833516 -1.7057404898897794 -11.555159166321099 -1.704179377246898 -11.55151908232086 -1.702659600212127 -11.548154800045141 -1.6997165448003861 -11.542068836948935 -1.696872433277464 -11.536640192544352 -1.6941040777459937 -11.531713408443348 -1.6913963150754403 -11.527186965300373 -1.6887385750488917 -11.522990191999613 -1.6848293919104695 -11.517203915201298 -1.68099703436231 -11.511921101060567 -1.6772283881411074 -11.507054535077325 -1.6735138552190703 -11.502540533249423 -1.6698461527613755 -11.49833088724426 -1.6662195941925069 -11.494388046760413 -1.6614404549315547 -11.489495054819301 -1.656717936569678 -11.484967719210136 -1.65204536157906 -11.480762345634991 -1.6474173866748711 -11.476844103161351 -1.642829653406924 -11.473184693724363 -1.6371461293018739 -11.468939204451498 -1.6315140553286136 -11.465024446521335 -1.6259286611025785 -11.461409906485734 -1.620385978660727 -11.458070362374606 -1.6148826639468228 -11.454984700557986 -1.6094158668236898 -11.452135055539658 -1.6039831343697326 -11.44950617102271 -1.5975058425112982 -11.446624552569421 -1.5910713729483765 -11.444022601172879 -1.584676995043558 -11.441683844342672 -1.5783203449113403 -11.43959421353182 -1.5719993625182924 -11.437741632956858 -1.5657122425999273 -11.436115699761325 -1.559457395891106 -11.434707432326286 -1.553233418180077 -11.433509070264414 -1.5470390653862147 -11.432513914216639 -1.5408732333408452 -11.431716196751223 -1.5347349412893758 -11.431110977914122 -1.5286233183766893 -11.430694060596695 -1.5215257735416976 -11.43044098442831 -1.51446240845625 -11.430434903045043 -1.5074323009478663 -11.430672337016189 -1.5004346670797757 -11.43115079342735 -1.4934688517822505 -11.431868717520377 -1.0930322093000377 -11.477069381572662 -0.6922596476666949 -11.508197842417045 -0.2906455090632929 -11.525335838406678 -0.0006763040876602844 -11.528999980163622 0.0006763040876562876 -11.528999980163622 0.2906455090632889 -11.525335838406676 0.6922596476666909 -11.508197842417047 1.0930322093000338 -11.477069381572662 1.493468851782246 -11.431868717520379 1.5004346670797717 -11.43115079342735 1.5074323009478625 -11.43067233701619 1.5144624084562461 -11.430434903045043 1.5215257735416938 -11.43044098442831 1.5286233183766849 -11.430694060596693 1.534734941289372 -11.431110977914122 1.540873233340841 -11.431716196751225 1.547039065386211 -11.432513914216637 1.5532334181800729 -11.433509070264414 1.5594573958911018 -11.434707432326286 1.565712242599923 -11.436115699761327 1.5719993625182886 -11.437741632956858 1.578320344911336 -11.439594213531821 1.5846769950435542 -11.441683844342673 1.5910713729483723 -11.444022601172879 1.597505842511294 -11.446624552569421 1.6039831343697284 -11.449506171022712 1.609415866823686 -11.45213505553966 1.614882663946819 -11.454984700557986 1.6203859786607233 -11.458070362374606 1.6259286611025743 -11.461409906485734 1.6315140553286098 -11.465024446521337 1.63714612930187 -11.4689392044515 1.6428296534069202 -11.473184693724363 1.6474173866748674 -11.476844103161353 1.6520453615790562 -11.480762345634991 1.6567179365696738 -11.484967719210136 1.6614404549315505 -11.489495054819301 1.6662195941925027 -11.494388046760413 1.6698461527613713 -11.498330887244261 1.6735138552190665 -11.502540533249425 1.6772283881411036 -11.507054535077325 1.6809970343623062 -11.511921101060567 1.6848293919104653 -11.517203915201298 1.688738575048888 -11.522990191999613 1.6913963150754365 -11.527186965300373 1.6941040777459901 -11.53171340844335 1.6968724332774603 -11.53664019254435 1.699716544800382 -11.542068836948935 1.7026596002121228 -11.548154800045143 1.7041793772468938 -11.55151908232086 1.7057404898897752 -11.5551591663211 1.707353537738257 -11.559146316833518 1.7090347589689114 -11.563589779158129 1.710811437543539 -11.568673229332028 1.7127366719214985 -11.574754358837742 1.7149472735893256 -11.582755400413095 1.7188792540184228 -11.602365927262639 2.0656724584658943 -13.943206128621224 2.068877508919878 -13.960757135535419 2.0768353302425653 -13.996684402853361 2.089710943620987 -14.046408803442576 2.1090732427164482 -14.111834097714585 2.136017957777165 -14.192551739409236 2.171619655059043 -14.288096385336146 2.2169291268256632 -14.397946893380832 2.272970825845825 -14.521527432810656 2.340740349023614 -14.658208704969908 2.421201974715971 -14.807309272267064 2.5152862582056876 -14.96809699317506 2.623887689703347 -15.139790560786034 2.747862419150426 -15.321561142287011 2.8880260519875085 -15.512534116551812 3.045151519936655 -15.711790906877606 3.2199670307255293 -15.918370905732624 3.4131541005529957 -16.131273488224053 3.625345672962024 -16.349460110843214 3.857124327645706 -16.571856491898103 4.109020582566629 -16.7973548699025 4.381511292618569 -17.024816336055114 4.675018147902966 -17.25307323681317 4.787031637897241 -17.336040500955626 4.812166246138189 -17.344827932831397 5.392975651358438 -17.173113102284486 5.559466771358178 -17.11993952145171 5.565144873156781 -17.118094594340125 5.7310936652741775 -17.063251899912107 6.301909789585539 -16.86078091322955 6.317078991937321 -16.838897979458963 6.358932874655947 -16.705936175314474 6.4622188685470014 -16.34875346253494 6.548969988518985 -16.004567250096798 6.620213718562559 -15.674074326337035 6.67700527618774 -15.357915799556885 6.720424985306741 -15.05667603698993 6.751575609727217 -14.770881719029871 6.771579652090178 -14.501001010144527 6.781576623137519 -14.247442847706292 6.782720286236769 -14.010556349770367 6.776175882125591 -13.790630342632715 6.763117338865433 -13.5878930087984 6.7447244720127655 -13.402511655789253 6.722180180027209 -13.234592606017465 6.696667639938944 -13.084181207749046 6.6693675082927015 -12.951261966978828 6.641455132372547 -12.835758799836377 6.614097776690835 -12.737535404941099 6.588451869695602 -12.656395754924347 6.565660275614019 -12.592084706137522 6.546849596304741 -12.544288725367682 6.532170091108338 -12.510545465532163 6.524446808366394 -12.494462521280482 5.429097055966224 -10.396843086095839 5.420751316483066 -10.378666676497385 5.41783683655916 -10.370894338831183 5.415819985648343 -10.364842977341493 5.414269371765779 -10.359686074296523 5.413017706689158 -10.355103040716825 5.4119791015414505 -10.35092924245657 5.411102480507228 -10.34706675365077 5.410354530449803 -10.34345168958803 5.409158272939342 -10.33679815744836 5.408268330374329 -10.330734565059583 5.407612086009962 -10.325121514439756 5.407142135502392 -10.319867962048555 5.4068254908970985 -10.314910520734669 5.406586998322474 -10.307931564273401 5.406582280464933 -10.301405074607105 5.406770683589415 -10.295252785352483 5.407122540146247 -10.289417533490345 5.407615405925626 -10.283856036917435 5.40823180995039 -10.278534574316538 5.409222186328412 -10.271766953106596 5.410381682836173 -10.265328435012751 5.411690018843224 -10.259179745653048 5.413131044049343 -10.253289565507133 5.414691651329608 -10.247632439126882 5.416794282935179 -10.2408570745057 5.419049689515479 -10.234379518790032 5.421443795037876 -10.228172282120077 5.4239649845498565 -10.22221262718325 5.426603553169428 -10.216481507107154 5.429351305630801 -10.210962793133138 5.432201258962903 -10.20564270086659 5.435747725324324 -10.199504165937395 5.439423931892448 -10.193617056723642 5.443222405512408 -10.187966441672259 5.447136789323313 -10.18253954963261 5.4511616519597865 -10.177325400233382 5.455292339265872 -10.17231451627907 5.459524857720918 -10.167498697340703 5.4638557819148765 -10.162870839758092 5.468282180545652 -10.158424792383657 5.472801556893151 -10.154155240253047 5.4774118007723684 -10.1500576103864 5.482111149721334 -10.1461279953757 5.487704429671698 -10.141751420273115 5.493415237515901 -10.137594758501919 5.4992422741491 -10.13365465310416 5.505184708491143 -10.129928626483249 5.511242156640666 -10.126415035773102 5.8617704893029785 -9.927612388219874 6.2042991527544284 -9.71722764080016 6.539285277362389 -9.495029703022077 6.7760290205201095 -9.327554433669594 6.77712330352067 -9.326759390532013 7.009559589704311 -9.153355415277195 7.324398791719165 -8.90342761748883 7.630333754748827 -8.642675962405432 7.927725519963625 -8.370737104101545 7.932938997724851 -8.366061887807534 7.9383189728222066 -8.361561702451231 7.9438668890821384 -8.357237420818075 7.949584846021137 -8.353090598931704 7.955475634850465 -8.349123509671305 7.96066509950065 -8.345868481050703 7.965986820793583 -8.342750115833116 7.971443970264415 -8.339771297674965 7.977040244992418 -8.336935446609942 7.982779928280126 -8.334246579574272 7.988667964394372 -8.331709385211049 7.994710050807551 -8.329329316430542 8.000912752525318 -8.327112705368503 8.00728364468293 -8.32506690700475 8.01383149184988 -8.32320047999606 8.020566475734139 -8.321523416578989 8.027500487754718 -8.320047438249825 8.033440880184903 -8.318980970484198 8.039538591278358 -8.318073079005709 8.045804572916673 -8.31733466462669 8.052251631984456 -8.316778505568596 8.058894884160349 -8.316419717529945 8.065752364695939 -8.316276373203008 8.07284586826822 -8.316370354524194 8.07870836934681 -8.316634276991744 8.08475556483475 -8.317083946344336 8.091007613977501 -8.317739694364608 8.097489312691755 -8.31862655916487 8.104231746074921 -8.31977596522233 8.109483237076779 -8.320834152536518 8.114924838534572 -8.322084006280567 8.120583222497926 -8.323552562801249 8.126492617050923 -8.32527454271601 8.13269821967843 -8.327295825885663 8.13926190343927 -8.329679261952384 8.14387886174078 -8.331512342482204 8.148730064282773 -8.333582728944487 8.153865601990002 -8.335941382455312 8.1593574136669 -8.33866152122599 8.16531563486433 -8.34185528423026 8.168522635819336 -8.343683743237378 8.171925190170008 -8.345711034065872 8.175573761562038 -8.347988580852968 8.179545699732465 -8.350595220342225 8.183971039935862 -8.353663512458734 8.189102985506526 -8.357451625199284 8.195594294064565 -8.362625244747402 8.2103021115251 -8.376179334128805 9.866775055788771 -10.066118906974502 9.87968421910092 -10.078434088446773 9.907239749673828 -10.102822368254586 9.946883609055396 -10.135482157708312 10.001004061173779 -10.177031458777561 10.070247432954432 -10.226495696514489 10.15520954489541 -10.282866786172027 10.256434186146256 -10.345105474727317 10.374411691594414 -10.412143747102604 10.509577623585713 -10.48288729281343 10.662311560731574 -10.55621802867033 10.832935996077785 -10.630996673063956 11.021715346728048 -10.706065367273922 11.228855076830675 -10.780250339159688 11.454500935648483 -10.852364604516865 11.698738312241094 -10.921210701314978 11.961591708095208 -10.985583451972968 12.24302432884257 -11.044272748776669 12.542937796007664 -11.096066357498062 12.861171979527406 -11.139752734239696 13.197504951584692 -11.174123850499015 13.551653062095339 -11.197978021426689 13.923271135985535 -11.2101227322404 14.062658887276143 -11.211404781431998 14.08815833535213 -11.203740211110231 14.457111569672742 -10.72342879223034 14.560551068539962 -10.58254943671135 14.56406032844308 -10.577719354826463 14.666079994481278 -10.435808430374532 15.0088704797233 -9.93648866163951 15.008280156469755 -9.909868762900906 14.96398767127537 -9.777699308732075 14.837601064668513 -9.428022440018953 14.705476615293366 -9.098578915987563 14.568855137068265 -8.789328510307332 14.428967152896174 -8.500169649198844 14.287030145623323 -8.230940097221728 14.144245844878968 -7.9814177594621825 14.001797554545757 -7.751321598432801 13.860847525535757 -7.540312663808563 13.72253437846494 -7.347995232937103 13.58797058072986 -7.17391805987931 13.458239982393705 -7.017575730557825 13.33439541518582 -6.878410121416582 13.21745635880853 -6.755811958824398 13.108406678628587 -6.64912247628995 13.008192438707455 -6.557635166394734 12.917719793995264 -6.48059762419467 12.837852965378055 -6.417213478690619 12.769412301126733 -6.366644408822895 12.713172428149479 -6.328012240305666 12.669860496297169 -6.300401119483646 12.63815073662867 -6.281730645496496 12.622449152193497 -6.2732589019723015 10.503342818793767 -5.220079561739779 10.485907148219669 -5.2102800400655855 10.478980818975433 -5.205705175124981 10.473792251273533 -5.201994996062166 10.469506626733487 -5.1987344018326125 10.465800168866327 -5.195762360053694 10.462506622587966 -5.192996163118833 10.459527107316461 -5.190386608950123 10.456797121666886 -5.187901594700817 10.451918480943924 -5.1832219166497975 10.447634412102776 -5.178839462475416 10.443804230884833 -5.174684139892965 10.440336072320003 -5.170710156705302 10.437165990559734 -5.16688562146296 10.432870918329504 -5.1613797095009355 10.42903092712749 -5.156102441534376 10.425567123565285 -5.1510143943950215 10.422421906511369 -5.146086760377065 10.4195516776366 -5.141297715898944 10.4169224817306 -5.136630249024677 10.413745805110944 -5.130572999825122 10.41089939150846 -5.124682594321265 10.408343748645954 -5.118939179526146 10.406047401503912 -5.113326910323831 10.403984783858528 -5.10783289699892 10.40170338915711 -5.101115616028539 10.399720639689225 -5.094549468646729 10.398008989571084 -5.088120488774131 10.396545677451694 -5.081817108636251 10.395311656445905 -5.07562962337614 10.394290816197946 -5.0695498016103215 10.39346940510168 -5.063570596016711 10.392730416355985 -5.05651985631343 10.392244173969951 -5.049596264906642 10.391995855487599 -5.042792134526367 10.391972811406438 -5.036100869563789 10.392164193559255 -5.029516779188382 10.392560666099032 -5.023034931832154 10.393154178108487 -5.01665104054125 10.393937782945981 -5.010361371739368 10.394905493584469 -5.004162672019715 10.396052166077306 -4.998052109021062 10.397373405318836 -4.99202722346061 10.398865488730571 -4.9860858901280265 10.400818060963863 -4.979257519026109 10.402994977073556 -4.972537980383843 10.40539321289138 -4.965925321959865 10.40801063976463 -4.959418027833086 10.410845981458122 -4.953014994548483 10.57757609524336 -4.586144889701611 10.731026553195537 -4.2146067568175685 10.871431349967423 -3.8379449452728642 10.964521568044855 -3.563300125428558 Z" /></svg>